<svg width="40" height="40" viewBox="0 0 40 40" fill="none" xmlns="http://www.w3.org/2000/svg">
<path d="M14.4531 19.5003C15.7394 22.1566 17.8873 24.299 20.5469 25.5784C20.7431 25.6713 20.96 25.7115 21.1765 25.6951C21.3929 25.6786 21.6013 25.6061 21.7812 25.4847L25.6875 22.8753C25.8601 22.7582 26.0595 22.6868 26.2672 22.6677C26.4748 22.6486 26.6839 22.6824 26.875 22.7659L34.1875 25.9065C34.4374 26.0106 34.6462 26.1939 34.7817 26.4282C34.9173 26.6625 34.972 26.9349 34.9375 27.2034C34.7057 29.0124 33.8228 30.6749 32.4538 31.8799C31.0849 33.085 29.3238 33.7499 27.5 33.7503C21.8641 33.7503 16.4591 31.5115 12.474 27.5263C8.48883 23.5412 6.25 18.1361 6.25 12.5003C6.25041 10.6765 6.91534 8.91542 8.12035 7.54648C9.32537 6.17753 10.9879 5.29456 12.7969 5.0628C13.0654 5.02831 13.3378 5.08304 13.5721 5.21856C13.8064 5.35408 13.9897 5.56287 14.0937 5.8128L17.2344 13.1409C17.316 13.329 17.3502 13.5342 17.3339 13.7386C17.3175 13.9429 17.2512 14.1401 17.1406 14.3128L14.5312 18.2815C14.4151 18.461 14.3469 18.6674 14.3332 18.8807C14.3195 19.0941 14.3608 19.3074 14.4531 19.5003V19.5003Z" stroke="#95B900" stroke-width="2" stroke-linecap="round" stroke-linejoin="round"/>
</svg>
