<svg width="233" height="88" viewBox="0 0 233 88" fill="none" xmlns="http://www.w3.org/2000/svg">
<path d="M2 11.6167C5.78082 11.6167 7.57534 9.81698 9.84932 7.49524C12.1233 5.1735 15.3288 2 21.0822 2C26.8356 2 29.8767 5.03612 32.3014 7.49524C34.726 9.95436 36.411 11.6167 40.1644 11.6167C43.9178 11.6167 45.7534 9.81698 48.0274 7.49524C50.3014 5.1735 53.5069 2 59.2466 2C64.9863 2 68.0959 5.14602 70.4795 7.53645C72.863 9.92688 74.589 11.6579 78.3288 11.6579C82.0685 11.6579 83.9041 9.85819 86.1781 7.53645C88.4521 5.21471 91.6575 2.04121 97.411 2.04121C103.164 2.04121 106.205 5.07733 108.63 7.53645C111.055 9.99557 112.74 11.6579 116.493 11.6579C120.247 11.6579 122.082 9.85819 124.356 7.53645C126.63 5.21471 129.836 2.04121 135.575 2.04121C141.315 2.04121 144.384 5.07733 146.808 7.53645C149.233 9.99557 150.918 11.6579 154.658 11.6579C158.397 11.6579 160.233 9.85819 162.507 7.53645C164.781 5.21471 167.986 2.04121 173.74 2.04121C179.493 2.04121 182.534 5.07733 184.973 7.53645C187.411 9.99557 189.082 11.6579 192.836 11.6579C196.589 11.6579 198.411 9.85819 200.685 7.53645C202.959 5.21471 206.164 2.04121 211.918 2.04121C217.671 2.04121 220.712 5.07733 223.151 7.53645C225.589 9.99557 227.26 11.6579 231 11.6579" stroke="#00C2E6" stroke-width="2.5" stroke-miterlimit="10" stroke-linecap="round"/>
<path d="M2 37.1832C5.78082 37.1832 7.57534 35.3835 9.84932 33.0618C12.1233 30.74 15.3288 27.5665 21.0822 27.5665C26.8356 27.5665 29.8767 30.6164 32.3014 33.0618C34.726 35.5071 36.411 37.1832 40.1644 37.1832C43.9178 37.1832 45.7534 35.3835 48.0274 33.0618C50.3014 30.74 53.5069 27.5665 59.2466 27.5665C64.9863 27.5665 68.0548 30.6164 70.4795 33.0618C72.9041 35.5071 74.589 37.1832 78.3288 37.1832C82.0685 37.1832 83.9041 35.3835 86.1781 33.0618C88.4521 30.74 91.6575 27.5665 97.411 27.5665C103.164 27.5665 106.205 30.6164 108.63 33.0618C111.055 35.5071 112.74 37.1832 116.493 37.1832C120.247 37.1832 122.082 35.3835 124.356 33.0618C126.63 30.74 129.836 27.5665 135.575 27.5665C141.315 27.5665 144.384 30.6164 146.808 33.0618C149.233 35.5071 150.918 37.1832 154.658 37.1832C158.397 37.1832 160.233 35.3835 162.507 33.0618C164.781 30.74 167.986 27.5665 173.74 27.5665C179.493 27.5665 182.534 30.6164 184.973 33.0618C187.411 35.5071 189.082 37.1832 192.836 37.1832C196.589 37.1832 198.411 35.3835 200.685 33.0618C202.959 30.74 206.164 27.5665 211.918 27.5665C217.671 27.5665 220.712 30.6164 223.151 33.0618C225.589 35.5071 227.26 37.1832 231 37.1832" stroke="#00C2E6" stroke-width="2.5" stroke-miterlimit="10" stroke-linecap="round"/>
<path d="M2 62.7498C5.78082 62.7498 7.57534 60.9502 9.84932 58.6284C12.1233 56.3067 15.3288 53.1332 21.0822 53.1332C26.8356 53.1332 29.8767 56.183 32.3014 58.6284C34.726 61.0738 36.411 62.7498 40.1644 62.7498C43.9178 62.7498 45.7534 60.9502 48.0274 58.6284C50.3014 56.3067 53.5069 53.1332 59.2466 53.1332C64.9863 53.1332 68.0548 56.183 70.4795 58.6284C72.9041 61.0738 74.589 62.7498 78.3288 62.7498C82.0685 62.7498 83.9041 60.9502 86.1781 58.6284C88.4521 56.3067 91.6575 53.1332 97.411 53.1332C103.164 53.1332 106.205 56.183 108.63 58.6284C111.055 61.0738 112.74 62.7498 116.493 62.7498C120.247 62.7498 122.082 60.9502 124.356 58.6284C126.63 56.3067 129.836 53.1332 135.575 53.1332C141.315 53.1332 144.384 56.183 146.808 58.6284C149.233 61.0738 150.918 62.7498 154.658 62.7498C158.397 62.7498 160.233 60.9502 162.507 58.6284C164.781 56.3067 167.986 53.1332 173.74 53.1332C179.493 53.1332 182.534 56.183 184.973 58.6284C187.411 61.0738 189.082 62.7498 192.836 62.7498C196.589 62.7498 198.411 60.9502 200.685 58.6284C202.959 56.3067 206.164 53.1332 211.918 53.1332C217.671 53.1332 220.712 56.183 223.151 58.6284C225.589 61.0738 227.26 62.7498 231 62.7498" stroke="#00C2E6" stroke-width="2.5" stroke-miterlimit="10" stroke-linecap="round"/>
<path d="M2 86.4956C5.78082 86.4956 7.57534 84.6959 9.84932 82.3741C12.1233 80.0524 15.3288 76.8789 21.0822 76.8789C26.8356 76.8789 29.8767 79.915 32.3014 82.3741C34.726 84.8333 36.411 86.4956 40.1644 86.4956C43.9178 86.4956 45.7534 84.6959 48.0274 82.3741C50.3014 80.0524 53.5069 76.8789 59.2466 76.8789C64.9863 76.8789 68.0959 80.0249 70.4795 82.4154C72.863 84.8058 74.589 86.5368 78.3288 86.5368C82.0685 86.5368 83.9041 84.7371 86.1781 82.4154C88.4521 80.0936 91.6575 76.9201 97.411 76.9201C103.164 76.9201 106.205 79.9562 108.63 82.4154C111.055 84.8745 112.74 86.5368 116.493 86.5368C120.247 86.5368 122.082 84.7371 124.356 82.4154C126.63 80.0936 129.836 76.9201 135.575 76.9201C141.315 76.9201 144.384 79.9562 146.808 82.4154C149.233 84.8745 150.918 86.5368 154.658 86.5368C158.397 86.5368 160.233 84.7371 162.507 82.4154C164.781 80.0936 167.986 76.9201 173.74 76.9201C179.493 76.9201 182.534 79.9562 184.973 82.4154C187.411 84.8745 189.082 86.5368 192.836 86.5368C196.589 86.5368 198.411 84.7371 200.685 82.4154C202.959 80.0936 206.164 76.9201 211.918 76.9201C217.671 76.9201 220.712 79.9562 223.151 82.4154C225.589 84.8745 227.26 86.5368 231 86.5368" stroke="#00C2E6" stroke-width="2.5" stroke-miterlimit="10" stroke-linecap="round"/>
</svg>
