<svg width="324" height="193" viewBox="0 0 324 193" fill="none" xmlns="http://www.w3.org/2000/svg">
<path d="M1.57031 14.8529C6.87203 14.8529 9.38842 12.3292 12.5771 9.07355C15.7658 5.81785 20.2608 1.36777 28.3286 1.36777C36.3964 1.36777 40.6608 5.62521 44.0609 9.07355C47.4609 12.5219 49.8236 14.8529 55.0869 14.8529C60.3502 14.8529 62.9242 12.3292 66.1129 9.07355C69.3016 5.81785 73.7966 1.36777 81.8452 1.36777C89.8938 1.36777 94.2543 5.77933 97.5966 9.13134C100.939 12.4834 103.359 14.9107 108.603 14.9107C113.848 14.9107 116.422 12.387 119.61 9.13134C122.799 5.87565 127.294 1.42556 135.362 1.42556C143.43 1.42556 147.694 5.683 151.094 9.13134C154.494 12.5797 156.857 14.9107 162.12 14.9107C167.383 14.9107 169.957 12.387 173.146 9.13134C176.335 5.87565 180.83 1.42556 188.878 1.42556C196.927 1.42556 201.23 5.683 204.63 9.13134C208.03 12.5797 210.393 14.9107 215.637 14.9107C220.881 14.9107 223.455 12.387 226.643 9.13134C229.832 5.87565 234.327 1.42556 242.395 1.42556C250.463 1.42556 254.727 5.683 258.146 9.13134C261.566 12.5797 263.909 14.9107 269.172 14.9107C274.436 14.9107 276.99 12.387 280.179 9.13134C283.368 5.87565 287.863 1.42556 295.931 1.42556C303.998 1.42556 308.263 5.683 311.682 9.13134C315.101 12.5797 317.445 14.9107 322.689 14.9107" stroke="#303030" stroke-width="2.5" stroke-miterlimit="10" stroke-linecap="round"/>
<path d="M1.57031 50.704C6.87203 50.704 9.38842 48.1804 12.5771 44.9247C15.7658 41.669 20.2608 37.2189 28.3286 37.2189C36.3964 37.2189 40.6608 41.4956 44.0609 44.9247C47.4609 48.3538 49.8236 50.704 55.0869 50.704C60.3502 50.704 62.9242 48.1804 66.1129 44.9247C69.3016 41.669 73.7966 37.2189 81.8452 37.2189C89.8938 37.2189 94.1966 41.4956 97.5966 44.9247C100.997 48.3538 103.359 50.704 108.603 50.704C113.848 50.704 116.422 48.1804 119.61 44.9247C122.799 41.669 127.294 37.2189 135.362 37.2189C143.43 37.2189 147.694 41.4956 151.094 44.9247C154.494 48.3538 156.857 50.704 162.12 50.704C167.383 50.704 169.957 48.1804 173.146 44.9247C176.335 41.669 180.83 37.2189 188.878 37.2189C196.927 37.2189 201.23 41.4956 204.63 44.9247C208.03 48.3538 210.393 50.704 215.637 50.704C220.881 50.704 223.455 48.1804 226.643 44.9247C229.832 41.669 234.327 37.2189 242.395 37.2189C250.463 37.2189 254.727 41.4956 258.146 44.9247C261.566 48.3538 263.909 50.704 269.172 50.704C274.436 50.704 276.99 48.1804 280.179 44.9247C283.368 41.669 287.863 37.2189 295.931 37.2189C303.998 37.2189 308.263 41.4956 311.682 44.9247C315.101 48.3538 317.445 50.704 322.689 50.704" stroke="#303030" stroke-width="2.5" stroke-miterlimit="10" stroke-linecap="round"/>
<path d="M1.57031 86.5552C6.87203 86.5552 9.38842 84.0315 12.5771 80.7758C15.7658 77.5201 20.2608 73.07 28.3286 73.07C36.3964 73.07 40.6608 77.3467 44.0609 80.7758C47.4609 84.2049 49.8236 86.5552 55.0869 86.5552C60.3502 86.5552 62.9242 84.0315 66.1129 80.7758C69.3016 77.5201 73.7966 73.07 81.8452 73.07C89.8938 73.07 94.1966 77.3467 97.5966 80.7758C100.997 84.2049 103.359 86.5552 108.603 86.5552C113.848 86.5552 116.422 84.0315 119.61 80.7758C122.799 77.5201 127.294 73.07 135.362 73.07C143.43 73.07 147.694 77.3467 151.094 80.7758C154.494 84.2049 156.857 86.5552 162.12 86.5552C167.383 86.5552 169.957 84.0315 173.146 80.7758C176.335 77.5201 180.83 73.07 188.878 73.07C196.927 73.07 201.23 77.3467 204.63 80.7758C208.03 84.2049 210.393 86.5552 215.637 86.5552C220.881 86.5552 223.455 84.0315 226.643 80.7758C229.832 77.5201 234.327 73.07 242.395 73.07C250.463 73.07 254.727 77.3467 258.146 80.7758C261.566 84.2049 263.909 86.5552 269.172 86.5552C274.436 86.5552 276.99 84.0315 280.179 80.7758C283.368 77.5201 287.863 73.07 295.931 73.07C303.998 73.07 308.263 77.3467 311.682 80.7758C315.101 84.2049 317.445 86.5552 322.689 86.5552" stroke="#00C2E6" stroke-width="2.5" stroke-miterlimit="10" stroke-linecap="round"/>
<path d="M1.57031 119.853C6.87203 119.853 9.38842 117.329 12.5771 114.074C15.7658 110.818 20.2608 106.368 28.3286 106.368C36.3964 106.368 40.6608 110.625 44.0609 114.074C47.4609 117.522 49.8236 119.853 55.0869 119.853C60.3502 119.853 62.9242 117.329 66.1129 114.074C69.3016 110.818 73.7966 106.368 81.8452 106.368C89.8938 106.368 94.2543 110.779 97.5966 114.131C100.939 117.483 103.359 119.911 108.603 119.911C113.848 119.911 116.422 117.387 119.61 114.131C122.799 110.876 127.294 106.426 135.362 106.426C143.43 106.426 147.694 110.683 151.094 114.131C154.494 117.58 156.857 119.911 162.12 119.911C167.383 119.911 169.957 117.387 173.146 114.131C176.335 110.876 180.83 106.426 188.878 106.426C196.927 106.426 201.23 110.683 204.63 114.131C208.03 117.58 210.393 119.911 215.637 119.911C220.881 119.911 223.455 117.387 226.643 114.131C229.832 110.876 234.327 106.426 242.395 106.426C250.463 106.426 254.727 110.683 258.146 114.131C261.566 117.58 263.909 119.911 269.172 119.911C274.436 119.911 276.99 117.387 280.179 114.131C283.368 110.876 287.863 106.426 295.931 106.426C303.998 106.426 308.263 110.683 311.682 114.131C315.101 117.58 317.445 119.911 322.689 119.911" stroke="#00C2E6" stroke-width="2.5" stroke-miterlimit="10" stroke-linecap="round"/>
<path d="M1.57031 155.704C6.87203 155.704 9.38842 153.18 12.5771 149.925C15.7658 146.669 20.2608 142.219 28.3286 142.219C36.3964 142.219 40.6608 146.496 44.0609 149.925C47.4609 153.354 49.8236 155.704 55.0869 155.704C60.3502 155.704 62.9242 153.18 66.1129 149.925C69.3016 146.669 73.7966 142.219 81.8452 142.219C89.8938 142.219 94.1966 146.496 97.5966 149.925C100.997 153.354 103.359 155.704 108.603 155.704C113.848 155.704 116.422 153.18 119.61 149.925C122.799 146.669 127.294 142.219 135.362 142.219C143.43 142.219 147.694 146.496 151.094 149.925C154.494 153.354 156.857 155.704 162.12 155.704C167.383 155.704 169.957 153.18 173.146 149.925C176.335 146.669 180.83 142.219 188.878 142.219C196.927 142.219 201.23 146.496 204.63 149.925C208.03 153.354 210.393 155.704 215.637 155.704C220.881 155.704 223.455 153.18 226.643 149.925C229.832 146.669 234.327 142.219 242.395 142.219C250.463 142.219 254.727 146.496 258.146 149.925C261.566 153.354 263.909 155.704 269.172 155.704C274.436 155.704 276.99 153.18 280.179 149.925C283.368 146.669 287.863 142.219 295.931 142.219C303.998 142.219 308.263 146.496 311.682 149.925C315.101 153.354 317.445 155.704 322.689 155.704" stroke="#00C2E6" stroke-width="2.5" stroke-miterlimit="10" stroke-linecap="round"/>
<path d="M1.57031 191.555C6.87203 191.555 9.38842 189.032 12.5771 185.776C15.7658 182.52 20.2608 178.07 28.3286 178.07C36.3964 178.07 40.6608 182.347 44.0609 185.776C47.4609 189.205 49.8236 191.555 55.0869 191.555C60.3502 191.555 62.9242 189.032 66.1129 185.776C69.3016 182.52 73.7966 178.07 81.8452 178.07C89.8938 178.07 94.1966 182.347 97.5966 185.776C100.997 189.205 103.359 191.555 108.603 191.555C113.848 191.555 116.422 189.032 119.61 185.776C122.799 182.52 127.294 178.07 135.362 178.07C143.43 178.07 147.694 182.347 151.094 185.776C154.494 189.205 156.857 191.555 162.12 191.555C167.383 191.555 169.957 189.032 173.146 185.776C176.335 182.52 180.83 178.07 188.878 178.07C196.927 178.07 201.23 182.347 204.63 185.776C208.03 189.205 210.393 191.555 215.637 191.555C220.881 191.555 223.455 189.032 226.643 185.776C229.832 182.52 234.327 178.07 242.395 178.07C250.463 178.07 254.727 182.347 258.146 185.776C261.566 189.205 263.909 191.555 269.172 191.555C274.436 191.555 276.99 189.032 280.179 185.776C283.368 182.52 287.863 178.07 295.931 178.07C303.998 178.07 308.263 182.347 311.682 185.776C315.101 189.205 317.445 191.555 322.689 191.555" stroke="#00C2E6" stroke-width="2.5" stroke-miterlimit="10" stroke-linecap="round"/>
</svg>
