<svg width="233" height="88" viewBox="0 0 233 88" fill="none" xmlns="http://www.w3.org/2000/svg">
<path d="M2 11.168C5.78082 11.168 7.57534 9.36831 9.84932 7.04657C12.1233 4.72483 15.3288 1.55133 21.0822 1.55133C26.8356 1.55133 29.8767 4.58745 32.3014 7.04657C34.726 9.50569 36.411 11.168 40.1644 11.168C43.9178 11.168 45.7534 9.36831 48.0274 7.04657C50.3014 4.72483 53.5069 1.55133 59.2466 1.55133C64.9863 1.55133 68.0959 4.69735 70.4795 7.08778C72.863 9.47821 74.589 11.2092 78.3288 11.2092C82.0685 11.2092 83.9041 9.40952 86.1781 7.08778C88.4521 4.76604 91.6575 1.59254 97.411 1.59254C103.164 1.59254 106.205 4.62866 108.63 7.08778C111.055 9.5469 112.74 11.2092 116.493 11.2092C120.247 11.2092 122.082 9.40952 124.356 7.08778C126.63 4.76604 129.836 1.59254 135.575 1.59254C141.315 1.59254 144.384 4.62866 146.808 7.08778C149.233 9.5469 150.918 11.2092 154.658 11.2092C158.397 11.2092 160.233 9.40952 162.507 7.08778C164.781 4.76604 167.986 1.59254 173.74 1.59254C179.493 1.59254 182.534 4.62866 184.973 7.08778C187.411 9.5469 189.082 11.2092 192.836 11.2092C196.589 11.2092 198.411 9.40952 200.685 7.08778C202.959 4.76604 206.164 1.59254 211.918 1.59254C217.671 1.59254 220.712 4.62866 223.151 7.08778C225.589 9.5469 227.26 11.2092 231 11.2092" stroke="#00C2E6" stroke-width="2.5" stroke-miterlimit="10" stroke-linecap="round"/>
<path d="M2 36.7346C5.78082 36.7346 7.57534 34.9349 9.84932 32.6132C12.1233 30.2914 15.3288 27.1179 21.0822 27.1179C26.8356 27.1179 29.8767 30.1678 32.3014 32.6132C34.726 35.0585 36.411 36.7346 40.1644 36.7346C43.9178 36.7346 45.7534 34.9349 48.0274 32.6132C50.3014 30.2914 53.5069 27.1179 59.2466 27.1179C64.9863 27.1179 68.0548 30.1678 70.4795 32.6132C72.9041 35.0585 74.589 36.7346 78.3288 36.7346C82.0685 36.7346 83.9041 34.9349 86.1781 32.6132C88.4521 30.2914 91.6575 27.1179 97.411 27.1179C103.164 27.1179 106.205 30.1678 108.63 32.6132C111.055 35.0585 112.74 36.7346 116.493 36.7346C120.247 36.7346 122.082 34.9349 124.356 32.6132C126.63 30.2914 129.836 27.1179 135.575 27.1179C141.315 27.1179 144.384 30.1678 146.808 32.6132C149.233 35.0585 150.918 36.7346 154.658 36.7346C158.397 36.7346 160.233 34.9349 162.507 32.6132C164.781 30.2914 167.986 27.1179 173.74 27.1179C179.493 27.1179 182.534 30.1678 184.973 32.6132C187.411 35.0585 189.082 36.7346 192.836 36.7346C196.589 36.7346 198.411 34.9349 200.685 32.6132C202.959 30.2914 206.164 27.1179 211.918 27.1179C217.671 27.1179 220.712 30.1678 223.151 32.6132C225.589 35.0585 227.26 36.7346 231 36.7346" stroke="#00C2E6" stroke-width="2.5" stroke-miterlimit="10" stroke-linecap="round"/>
<path d="M2 62.3012C5.78082 62.3012 7.57534 60.5015 9.84932 58.1797C12.1233 55.858 15.3288 52.6845 21.0822 52.6845C26.8356 52.6845 29.8767 55.7344 32.3014 58.1797C34.726 60.6251 36.411 62.3012 40.1644 62.3012C43.9178 62.3012 45.7534 60.5015 48.0274 58.1797C50.3014 55.858 53.5069 52.6845 59.2466 52.6845C64.9863 52.6845 68.0548 55.7344 70.4795 58.1797C72.9041 60.6251 74.589 62.3012 78.3288 62.3012C82.0685 62.3012 83.9041 60.5015 86.1781 58.1797C88.4521 55.858 91.6575 52.6845 97.411 52.6845C103.164 52.6845 106.205 55.7344 108.63 58.1797C111.055 60.6251 112.74 62.3012 116.493 62.3012C120.247 62.3012 122.082 60.5015 124.356 58.1797C126.63 55.858 129.836 52.6845 135.575 52.6845C141.315 52.6845 144.384 55.7344 146.808 58.1797C149.233 60.6251 150.918 62.3012 154.658 62.3012C158.397 62.3012 160.233 60.5015 162.507 58.1797C164.781 55.858 167.986 52.6845 173.74 52.6845C179.493 52.6845 182.534 55.7344 184.973 58.1797C187.411 60.6251 189.082 62.3012 192.836 62.3012C196.589 62.3012 198.411 60.5015 200.685 58.1797C202.959 55.858 206.164 52.6845 211.918 52.6845C217.671 52.6845 220.712 55.7344 223.151 58.1797C225.589 60.6251 227.26 62.3012 231 62.3012" stroke="#00C2E6" stroke-width="2.5" stroke-miterlimit="10" stroke-linecap="round"/>
<path d="M2 86.0469C5.78082 86.0469 7.57534 84.2472 9.84932 81.9255C12.1233 79.6037 15.3288 76.4302 21.0822 76.4302C26.8356 76.4302 29.8767 79.4664 32.3014 81.9255C34.726 84.3846 36.411 86.0469 40.1644 86.0469C43.9178 86.0469 45.7534 84.2472 48.0274 81.9255C50.3014 79.6037 53.5069 76.4302 59.2466 76.4302C64.9863 76.4302 68.0959 79.5763 70.4795 81.9667C72.863 84.3571 74.589 86.0881 78.3288 86.0881C82.0685 86.0881 83.9041 84.2884 86.1781 81.9667C88.4521 79.645 91.6575 76.4715 97.411 76.4715C103.164 76.4715 106.205 79.5076 108.63 81.9667C111.055 84.4258 112.74 86.0881 116.493 86.0881C120.247 86.0881 122.082 84.2884 124.356 81.9667C126.63 79.645 129.836 76.4715 135.575 76.4715C141.315 76.4715 144.384 79.5076 146.808 81.9667C149.233 84.4258 150.918 86.0881 154.658 86.0881C158.397 86.0881 160.233 84.2884 162.507 81.9667C164.781 79.645 167.986 76.4715 173.74 76.4715C179.493 76.4715 182.534 79.5076 184.973 81.9667C187.411 84.4258 189.082 86.0881 192.836 86.0881C196.589 86.0881 198.411 84.2884 200.685 81.9667C202.959 79.645 206.164 76.4715 211.918 76.4715C217.671 76.4715 220.712 79.5076 223.151 81.9667C225.589 84.4258 227.26 86.0881 231 86.0881" stroke="#00C2E6" stroke-width="2.5" stroke-miterlimit="10" stroke-linecap="round"/>
</svg>
