<svg width="233" height="88" viewBox="0 0 233 88" fill="none" xmlns="http://www.w3.org/2000/svg">
<path d="M2 11.6167C5.78082 11.6167 7.57534 9.81698 9.84932 7.49524C12.1233 5.1735 15.3288 2 21.0822 2C26.8356 2 29.8767 5.03612 32.3014 7.49524C34.726 9.95436 36.411 11.6167 40.1644 11.6167C43.9178 11.6167 45.7534 9.81698 48.0274 7.49524C50.3014 5.1735 53.5069 2 59.2466 2C64.9863 2 68.0959 5.14602 70.4795 7.53645C72.863 9.92688 74.589 11.6579 78.3288 11.6579C82.0685 11.6579 83.9041 9.85819 86.1781 7.53645C88.4521 5.21471 91.6575 2.04121 97.411 2.04121C103.164 2.04121 106.205 5.07733 108.63 7.53645C111.055 9.99557 112.74 11.6579 116.493 11.6579C120.247 11.6579 122.082 9.85819 124.356 7.53645C126.63 5.21471 129.836 2.04121 135.575 2.04121C141.315 2.04121 144.384 5.07733 146.808 7.53645C149.233 9.99557 150.918 11.6579 154.658 11.6579C158.397 11.6579 160.233 9.85819 162.507 7.53645C164.781 5.21471 167.986 2.04121 173.74 2.04121C179.493 2.04121 182.534 5.07733 184.973 7.53645C187.411 9.99557 189.082 11.6579 192.836 11.6579C196.589 11.6579 198.411 9.85819 200.685 7.53645C202.959 5.21471 206.164 2.04121 211.918 2.04121C217.671 2.04121 220.712 5.07733 223.151 7.53645C225.589 9.99557 227.26 11.6579 231 11.6579" stroke="#00C2E6" stroke-width="2.5" stroke-miterlimit="10" stroke-linecap="round"/>
<path d="M2 37.1831C5.78082 37.1831 7.57534 35.3834 9.84932 33.0616C12.1233 30.7399 15.3288 27.5664 21.0822 27.5664C26.8356 27.5664 29.8767 30.6163 32.3014 33.0616C34.726 35.507 36.411 37.1831 40.1644 37.1831C43.9178 37.1831 45.7534 35.3834 48.0274 33.0616C50.3014 30.7399 53.5069 27.5664 59.2466 27.5664C64.9863 27.5664 68.0548 30.6163 70.4795 33.0616C72.9041 35.507 74.589 37.1831 78.3288 37.1831C82.0685 37.1831 83.9041 35.3834 86.1781 33.0616C88.4521 30.7399 91.6575 27.5664 97.411 27.5664C103.164 27.5664 106.205 30.6163 108.63 33.0616C111.055 35.507 112.74 37.1831 116.493 37.1831C120.247 37.1831 122.082 35.3834 124.356 33.0616C126.63 30.7399 129.836 27.5664 135.575 27.5664C141.315 27.5664 144.384 30.6163 146.808 33.0616C149.233 35.507 150.918 37.1831 154.658 37.1831C158.397 37.1831 160.233 35.3834 162.507 33.0616C164.781 30.7399 167.986 27.5664 173.74 27.5664C179.493 27.5664 182.534 30.6163 184.973 33.0616C187.411 35.507 189.082 37.1831 192.836 37.1831C196.589 37.1831 198.411 35.3834 200.685 33.0616C202.959 30.7399 206.164 27.5664 211.918 27.5664C217.671 27.5664 220.712 30.6163 223.151 33.0616C225.589 35.507 227.26 37.1831 231 37.1831" stroke="#00C2E6" stroke-width="2.5" stroke-miterlimit="10" stroke-linecap="round"/>
<path d="M2 62.75C5.78082 62.75 7.57534 60.9503 9.84932 58.6285C12.1233 56.3068 15.3288 53.1333 21.0822 53.1333C26.8356 53.1333 29.8767 56.1832 32.3014 58.6285C34.726 61.0739 36.411 62.75 40.1644 62.75C43.9178 62.75 45.7534 60.9503 48.0274 58.6285C50.3014 56.3068 53.5069 53.1333 59.2466 53.1333C64.9863 53.1333 68.0548 56.1832 70.4795 58.6285C72.9041 61.0739 74.589 62.75 78.3288 62.75C82.0685 62.75 83.9041 60.9503 86.1781 58.6285C88.4521 56.3068 91.6575 53.1333 97.411 53.1333C103.164 53.1333 106.205 56.1832 108.63 58.6285C111.055 61.0739 112.74 62.75 116.493 62.75C120.247 62.75 122.082 60.9503 124.356 58.6285C126.63 56.3068 129.836 53.1333 135.575 53.1333C141.315 53.1333 144.384 56.1832 146.808 58.6285C149.233 61.0739 150.918 62.75 154.658 62.75C158.397 62.75 160.233 60.9503 162.507 58.6285C164.781 56.3068 167.986 53.1333 173.74 53.1333C179.493 53.1333 182.534 56.1832 184.973 58.6285C187.411 61.0739 189.082 62.75 192.836 62.75C196.589 62.75 198.411 60.9503 200.685 58.6285C202.959 56.3068 206.164 53.1333 211.918 53.1333C217.671 53.1333 220.712 56.1832 223.151 58.6285C225.589 61.0739 227.26 62.75 231 62.75" stroke="#00C2E6" stroke-width="2.5" stroke-miterlimit="10" stroke-linecap="round"/>
<path d="M2 86.4956C5.78082 86.4956 7.57534 84.6959 9.84932 82.3741C12.1233 80.0524 15.3288 76.8789 21.0822 76.8789C26.8356 76.8789 29.8767 79.915 32.3014 82.3741C34.726 84.8333 36.411 86.4956 40.1644 86.4956C43.9178 86.4956 45.7534 84.6959 48.0274 82.3741C50.3014 80.0524 53.5069 76.8789 59.2466 76.8789C64.9863 76.8789 68.0959 80.0249 70.4795 82.4154C72.863 84.8058 74.589 86.5368 78.3288 86.5368C82.0685 86.5368 83.9041 84.7371 86.1781 82.4154C88.4521 80.0936 91.6575 76.9201 97.411 76.9201C103.164 76.9201 106.205 79.9562 108.63 82.4154C111.055 84.8745 112.74 86.5368 116.493 86.5368C120.247 86.5368 122.082 84.7371 124.356 82.4154C126.63 80.0936 129.836 76.9201 135.575 76.9201C141.315 76.9201 144.384 79.9562 146.808 82.4154C149.233 84.8745 150.918 86.5368 154.658 86.5368C158.397 86.5368 160.233 84.7371 162.507 82.4154C164.781 80.0936 167.986 76.9201 173.74 76.9201C179.493 76.9201 182.534 79.9562 184.973 82.4154C187.411 84.8745 189.082 86.5368 192.836 86.5368C196.589 86.5368 198.411 84.7371 200.685 82.4154C202.959 80.0936 206.164 76.9201 211.918 76.9201C217.671 76.9201 220.712 79.9562 223.151 82.4154C225.589 84.8745 227.26 86.5368 231 86.5368" stroke="#00C2E6" stroke-width="2.5" stroke-miterlimit="10" stroke-linecap="round"/>
</svg>
