<svg width="160" height="160" viewBox="0 0 160 160" fill="none" xmlns="http://www.w3.org/2000/svg">
<path d="M78.3873 32.7325C78.1119 32.7329 77.8398 32.6726 77.5904 32.556C77.341 32.4393 77.1203 32.2692 76.9441 32.0576C76.7678 31.846 76.6404 31.5983 76.5707 31.3319C76.501 31.0655 76.4909 30.787 76.541 30.5162C77.2785 26.5162 74.6835 21.7062 73.6198 20.1912C73.4784 19.9895 73.3782 19.7619 73.3248 19.5214C73.2715 19.2809 73.266 19.0323 73.3087 18.7897C73.3514 18.5471 73.4415 18.3153 73.5738 18.1075C73.7061 17.8998 73.878 17.7201 74.0798 17.5787C74.2815 17.4374 74.5091 17.3372 74.7496 17.2838C74.9901 17.2304 75.2387 17.225 75.4813 17.2677C75.7239 17.3104 75.9557 17.4005 76.1635 17.5328C76.3712 17.6651 76.5509 17.837 76.6923 18.0387C76.8848 18.3137 81.3998 24.8487 80.2285 31.1975C80.1491 31.6281 79.9215 32.0173 79.5852 32.2977C79.2489 32.578 78.8251 32.7319 78.3873 32.7325Z" fill="#993959"/>
<path d="M122.646 73.3188C121.946 72.8774 121.363 72.2717 120.949 71.5542C120.535 70.8367 120.303 70.029 120.271 69.2013C119.388 26.3576 70.2502 20.4101 52.5202 42.0501C51.9534 42.7822 51.1931 43.3411 50.3252 43.6638C35.4277 48.7613 29.1715 70.8988 42.7002 82.5951L60.7352 90.4563C63.7807 91.7262 66.4901 93.6854 68.6502 96.1798C70.8103 98.6741 72.3622 101.636 73.184 104.831C75.059 112.756 83.494 117.965 94.0365 117.966C105.351 117.966 109.456 113.3 112.178 110.15C112.878 109.329 113.833 108.766 114.89 108.551C133.864 104.819 136.475 82.4001 122.646 73.3188Z" fill="#A84367"/>
<path d="M94.0374 126.5L77.5374 130.375C77.5374 130.375 77.2874 119.25 74.5249 116.5C74.5079 116.472 74.4868 116.447 74.4624 116.425C72.7624 114.85 69.6624 114.838 66.3624 115.263H66.3499C62.9749 115.713 59.3874 116.6 56.8874 116.7C45.3999 117.288 46.7624 108.4 44.8874 99.8625C44.7499 99.2125 44.5874 98.5625 44.3999 97.9126C44.2161 97.2848 43.9991 96.6673 43.7499 96.0625C41.5624 90.8875 38.2624 91.2625 38.6749 87.45C38.8249 86.0625 40.8999 84.45 42.7124 82.5875C44.3874 80.875 45.8374 78.975 45.4124 76.8376C43.8146 70.6026 44.0314 64.0409 46.0374 57.925C53.1124 59.45 56.1874 65.7626 58.1874 73.1126C60.9874 83.3251 72.2499 85.575 81.7624 81.875C82.7011 83.0705 83.2998 84.4971 83.4952 86.0045C83.6906 87.5119 83.4755 89.044 82.8726 90.4393C82.2697 91.8346 81.3013 93.0412 80.0697 93.932C78.838 94.8227 77.3888 95.3644 75.8749 95.5L75.8874 95.5126C74.508 99.408 74.5168 103.66 75.9124 107.55C77.1036 110.575 79.2441 113.132 82.0124 114.838H82.0249C84.8702 116.562 88.0823 117.589 91.3999 117.838L94.0374 126.5Z" fill="#FF8C83"/>
<path d="M46.6762 81.6088C45.6737 81.6162 44.6872 81.3574 43.8175 80.8588C43.3988 80.6048 43.0962 80.1971 42.9742 79.7229C42.8522 79.2487 42.9205 78.7456 43.1646 78.3211C43.4087 77.8966 43.8091 77.5845 44.2803 77.4514C44.7515 77.3183 45.2561 77.3748 45.6862 77.6088C47.2762 78.52 49.6862 76.6788 49.7137 76.6588C50.1014 76.3473 50.597 76.2026 51.0914 76.2565C51.3362 76.2832 51.5733 76.3579 51.7893 76.4762C52.0052 76.5946 52.1957 76.7543 52.35 76.9463C52.5042 77.1383 52.6191 77.3587 52.6881 77.5951C52.7571 77.8315 52.7789 78.0791 52.7522 78.3239C52.7255 78.5687 52.6508 78.8059 52.5325 79.0218C52.4141 79.2378 52.2544 79.4283 52.0625 79.5825C50.5298 80.8164 48.6421 81.5265 46.6762 81.6088Z" fill="#A84367"/>
<path d="M51.2125 96.5125C51.0304 96.0508 50.674 95.6792 50.2203 95.4781C49.7665 95.2769 49.2519 95.2624 48.7875 95.4375C47.175 96.0148 45.4547 96.2282 43.75 96.0625C43.9992 96.6672 44.2162 97.2847 44.4 97.9125C44.5875 98.5625 44.75 99.2125 44.8875 99.8625H44.9C46.6875 99.8745 48.4623 99.561 50.1375 98.9375C50.3674 98.8489 50.5775 98.7159 50.756 98.5461C50.9344 98.3762 51.0777 98.1729 51.1775 97.9477C51.2773 97.7225 51.3318 97.4798 51.3378 97.2336C51.3438 96.9873 51.3012 96.7423 51.2125 96.5125Z" fill="#ED4559"/>
<path d="M44.3514 69.0801C43.8746 69.0803 43.4156 68.8988 43.0678 68.5726C42.72 68.2464 42.5096 67.7999 42.4794 67.324C42.4491 66.8482 42.6013 66.3787 42.9049 66.011C43.2086 65.6434 43.6409 65.4053 44.1139 65.3451C46.5746 65.0484 49.062 65.0484 51.5226 65.3451C51.7669 65.3762 52.0026 65.4551 52.2164 65.5773C52.4302 65.6995 52.6178 65.8626 52.7685 66.0573C52.9192 66.2521 53.0301 66.4745 53.0948 66.7121C53.1596 66.9497 53.1769 67.1977 53.1458 67.4419C53.1147 67.6862 53.0358 67.9219 52.9135 68.1357C52.7913 68.3495 52.6282 68.5371 52.4335 68.6878C52.2388 68.8385 52.0163 68.9494 51.7787 69.0141C51.5411 69.0789 51.2932 69.0962 51.0489 69.0651C48.905 68.8059 46.7378 68.8059 44.5939 69.0651C44.5134 69.075 44.4325 69.08 44.3514 69.0801Z" fill="#A84367"/>
<path d="M66.2913 157.106H98.2301C98.7773 157.085 99.3141 156.951 99.8062 156.71C100.298 156.47 100.735 156.13 101.088 155.711C101.441 155.292 101.702 154.805 101.856 154.279C102.01 153.754 102.052 153.202 101.98 152.659C101.105 143.174 97.8426 129.309 94.0451 126.506C90.9438 124.216 83.7038 125.518 77.5376 130.381C70.7551 135.947 65.5544 143.197 62.4563 151.405C62.201 152.034 62.104 152.715 62.1739 153.39C62.2438 154.065 62.4784 154.713 62.8571 155.276C63.2359 155.839 63.7471 156.3 64.3459 156.619C64.9447 156.939 65.6128 157.106 66.2913 157.106Z" fill="#FFDBCF"/>
<path d="M75.1025 97.4213C74.2113 97.4211 73.3239 97.3052 72.4625 97.0763C72.2204 97.0172 71.9925 96.9105 71.7921 96.7623C71.5917 96.6141 71.4229 96.4275 71.2954 96.2133C71.168 95.9991 71.0846 95.7617 71.05 95.5149C71.0154 95.2681 71.0304 95.0168 71.094 94.7759C71.1577 94.5349 71.2687 94.309 71.4207 94.1115C71.5726 93.914 71.7624 93.7487 71.979 93.6254C72.1956 93.502 72.4346 93.4231 72.682 93.3932C72.9294 93.3633 73.1803 93.3831 73.42 93.4513C75.1091 93.8978 76.9064 93.6551 78.4166 92.7765C79.9267 91.8979 81.026 90.4554 81.4725 88.7663C81.9191 87.0772 81.6764 85.2799 80.7978 83.7697C79.9191 82.2596 78.4766 81.1603 76.7875 80.7138C75.3964 80.3408 73.9209 80.4388 72.5913 80.9925C72.3628 81.0926 72.1167 81.1461 71.8673 81.1499C71.6179 81.1537 71.3703 81.1077 71.1389 81.0146C70.9076 80.9215 70.6971 80.7832 70.5198 80.6077C70.3426 80.4322 70.2021 80.2232 70.1066 79.9928C70.0112 79.7624 69.9627 79.5152 69.9639 79.2658C69.9651 79.0164 70.0161 78.7697 70.1139 78.5403C70.2116 78.3108 70.3542 78.1032 70.5331 77.9295C70.7121 77.7558 70.924 77.6196 71.1563 77.5288C72.9359 76.7931 74.8857 76.5693 76.7858 76.8825C78.6859 77.1957 80.4607 78.0334 81.9101 79.3013C83.3596 80.5692 84.426 82.2168 84.9892 84.0583C85.5523 85.8998 85.5899 87.8621 85.0975 89.7238C84.5119 91.9285 83.2147 93.8782 81.4074 95.2701C79.6 96.662 77.3837 97.4182 75.1025 97.4213Z" fill="#FF7171"/>
<path d="M43.875 57.6125C52.5 58.2375 55.9825 65.05 58.1888 73.1125C61.4062 84.8625 75.8338 86.075 85.9038 79.8088V44.5288C85.9038 44.5288 71.195 38.415 59.1638 43.8838C47.1325 49.3525 43.875 57.6125 43.875 57.6125Z" fill="#A84367"/>
<path d="M73.0936 85.4088C70.5907 85.4329 68.1053 84.9899 65.7649 84.1025C63.4685 83.2417 61.4152 81.8365 59.7813 80.0077C58.1473 78.1789 56.9814 75.981 56.3836 73.6025C53.7649 64.0313 50.1024 59.94 43.7424 59.4775C43.4951 59.462 43.2534 59.3976 43.0311 59.2881C42.8089 59.1786 42.6105 59.0261 42.4476 58.8395C42.2846 58.6529 42.1602 58.4358 42.0817 58.2009C42.0031 57.9659 41.9719 57.7177 41.9898 57.4706C42.0077 57.2235 42.0744 56.9824 42.1861 56.7612C42.2977 56.54 42.4521 56.3432 42.6403 56.182C42.8285 56.0209 43.0468 55.8986 43.2825 55.8223C43.5182 55.746 43.7667 55.7172 44.0136 55.7375C54.2949 56.4875 57.9574 65.1488 60.0011 72.6125C60.454 74.4236 61.3396 76.0977 62.5819 77.4911C63.8243 78.8845 65.3862 79.9557 67.1336 80.6125C72.3286 82.65 79.3086 81.7088 84.9174 78.2188C85.1265 78.0863 85.3597 77.9966 85.6036 77.9548C85.8475 77.9129 86.0973 77.9198 86.3385 77.975C86.5798 78.0301 86.8077 78.1325 87.0092 78.2762C87.2107 78.4199 87.3818 78.602 87.5126 78.8121C87.6433 79.0222 87.7312 79.2562 87.7711 79.5004C87.811 79.7447 87.8022 79.9944 87.7451 80.2352C87.688 80.476 87.5838 80.7031 87.4386 80.9035C87.2933 81.1038 87.1098 81.2734 86.8986 81.4025C82.7527 83.9815 77.9761 85.3677 73.0936 85.4088Z" fill="#993959"/>
<path d="M149.031 68.0663L147.309 67.1238L146.367 65.4013C146.227 65.1445 146.021 64.9302 145.769 64.7809C145.518 64.6316 145.231 64.5527 144.939 64.5527C144.647 64.5527 144.36 64.6316 144.109 64.7809C143.857 64.9302 143.651 65.1445 143.511 65.4013L142.569 67.1238L140.848 68.0663C140.591 68.2058 140.376 68.4122 140.227 68.6635C140.077 68.9149 139.998 69.2019 139.998 69.4944C139.998 69.7869 140.077 70.074 140.227 70.3253C140.376 70.5767 140.591 70.783 140.848 70.9225L142.57 71.865L143.513 73.5875C143.652 73.8446 143.859 74.0592 144.11 74.2087C144.361 74.3583 144.648 74.4372 144.941 74.4372C145.233 74.4372 145.52 74.3583 145.772 74.2087C146.023 74.0592 146.229 73.8446 146.369 73.5875L147.31 71.865L149.034 70.9225C149.291 70.783 149.506 70.5767 149.655 70.3253C149.805 70.074 149.884 69.7869 149.884 69.4944C149.884 69.2019 149.805 68.9149 149.655 68.6635C149.506 68.4122 149.291 68.2058 149.034 68.0663H149.031Z" fill="#FFBD5C"/>
<path d="M29.6249 96.5675L26.9487 95.1037L25.4849 92.4287C25.3297 92.1444 25.1008 91.9072 24.8222 91.7419C24.5437 91.5766 24.2257 91.4894 23.9018 91.4894C23.5779 91.4894 23.26 91.5766 22.9814 91.7419C22.7028 91.9072 22.4739 92.1444 22.3187 92.4287L20.8549 95.105L18.1787 96.5687C17.8947 96.7242 17.6578 96.9532 17.4928 97.2318C17.3278 97.5103 17.2407 97.8281 17.2407 98.1518C17.2407 98.4756 17.3278 98.7934 17.4928 99.0719C17.6578 99.3504 17.8947 99.5795 18.1787 99.735L20.8549 101.197L22.3187 103.872C22.4739 104.157 22.7028 104.394 22.9814 104.559C23.26 104.725 23.5779 104.812 23.9018 104.812C24.2257 104.812 24.5437 104.725 24.8222 104.559C25.1008 104.394 25.3297 104.157 25.4849 103.872L26.9487 101.196L29.6249 99.7337C29.9089 99.5782 30.1458 99.3492 30.3108 99.0707C30.4758 98.7921 30.5629 98.4743 30.5629 98.1506C30.5629 97.8268 30.4758 97.509 30.3108 97.2305C30.1458 96.952 29.9089 96.723 29.6249 96.5675Z" fill="#FFB450"/>
<path d="M83.7499 16.8487C81.7949 18.9337 80.3961 23.2862 82.2049 24.9825C84.0136 26.6787 88.3461 25.0762 90.3011 22.9924C91.2367 22.1154 91.7891 20.905 91.8385 19.6235C91.8878 18.342 91.4303 17.0927 90.5649 16.1462C89.5649 15.3434 88.2888 14.967 87.0132 15.0985C85.7375 15.23 84.5651 15.8588 83.7499 16.8487Z" fill="#B7E24D"/>
<path d="M66.9926 14.27C68.2688 18.2587 72.8451 23.145 76.3063 22.0425C79.7676 20.94 80.8063 14.2462 79.5251 10.2587C78.2438 6.27124 74.4088 3.93624 70.9476 5.04374C67.4863 6.15124 65.7163 10.2825 66.9926 14.27Z" fill="#DDDD6B"/>
<path d="M118.965 18.4326C114.395 18.3848 109.912 19.6776 106.069 22.1512C102.226 24.6248 99.1927 28.1705 97.3439 32.3499C95.4951 36.5293 94.912 41.159 95.6666 45.6663C96.4213 50.1736 98.4807 54.3608 101.59 57.7101C105.657 62.0591 107.945 67.7758 108 73.73C115.396 80.6342 122.54 80.6342 129.433 73.73C129.423 67.8594 131.648 62.2051 135.655 57.9151C138.792 54.6165 140.898 50.4738 141.714 45.9954C142.529 41.517 142.02 36.8978 140.247 32.7049C138.475 28.5121 135.517 24.928 131.736 22.3926C127.956 19.8572 123.517 18.4809 118.965 18.4326Z" fill="#FFDBCF"/>
<path d="M118.719 77.3825C118.221 77.3825 117.745 77.185 117.393 76.8333C117.041 76.4817 116.844 76.0048 116.844 75.5075V64.5563C116.844 64.059 117.041 63.5821 117.393 63.2304C117.745 62.8788 118.221 62.6813 118.719 62.6813C119.216 62.6813 119.693 62.8788 120.045 63.2304C120.396 63.5821 120.594 64.059 120.594 64.5563V75.5075C120.594 76.0048 120.396 76.4817 120.045 76.8333C119.693 77.185 119.216 77.3825 118.719 77.3825Z" fill="white"/>
<path d="M118.76 54.4175H118.606C117.93 54.4122 117.271 54.2032 116.715 53.8177C116.159 53.4321 115.732 52.888 115.49 52.2562C114.279 49.16 113.29 48.465 111.532 48.08C111.054 47.9661 110.64 47.6692 110.379 47.253C110.118 46.8368 110.03 46.3347 110.135 45.8547C110.24 45.3746 110.53 44.9551 110.941 44.6863C111.353 44.4175 111.853 44.321 112.335 44.4175C115.436 45.0975 117.21 46.7 118.722 50.25C120.229 46.7012 122.007 45.0975 125.107 44.4175C125.349 44.361 125.6 44.3531 125.845 44.3942C126.09 44.4354 126.324 44.5248 126.534 44.6573C126.744 44.7897 126.926 44.9626 127.069 45.1659C127.211 45.3692 127.312 45.5988 127.366 45.8414C127.419 46.084 127.423 46.3347 127.379 46.5791C127.334 46.8234 127.242 47.0565 127.106 47.2648C126.971 47.473 126.796 47.6524 126.591 47.7923C126.385 47.9322 126.155 48.03 125.911 48.08C124.152 48.465 123.161 49.16 121.954 52.2562C121.704 52.8982 121.264 53.4489 120.694 53.835C120.123 54.2211 119.449 54.4243 118.76 54.4175Z" fill="white"/>
<path d="M118.716 60.1987C119.876 60.1987 120.817 59.258 120.817 58.0975C120.817 56.937 119.876 55.9962 118.716 55.9962C117.556 55.9962 116.615 56.937 116.615 58.0975C116.615 59.258 117.556 60.1987 118.716 60.1987Z" fill="white"/>
<path d="M118.714 75.5087C115.07 75.4974 111.452 74.8967 108 73.73C107.953 75.1664 108.196 76.5975 108.713 77.9382C109.231 79.279 110.013 80.502 111.013 81.5345C112.012 82.5671 113.209 83.3881 114.532 83.9488C115.856 84.5095 117.278 84.7985 118.715 84.7985C120.153 84.7985 121.575 84.5095 122.898 83.9488C124.222 83.3881 125.419 82.5671 126.418 81.5345C127.418 80.502 128.2 79.279 128.717 77.9382C129.235 76.5975 129.478 75.1664 129.431 73.73C125.977 74.8954 122.358 75.496 118.714 75.5087Z" fill="#543C66"/>
</svg>
