<svg width="53" height="64" viewBox="0 0 53 64" fill="none" xmlns="http://www.w3.org/2000/svg">
<path d="M10.4178 63.3972C10.1987 63.9042 9.61005 64.1375 9.10309 63.9184L0.841863 60.3474C0.334913 60.1282 0.101592 59.5396 0.320727 59.0327C0.539861 58.5257 1.12847 58.2924 1.63542 58.5115L8.97874 61.6858L12.153 54.3425C12.3721 53.8355 12.9607 53.6022 13.4677 53.8213C13.9746 54.0405 14.2079 54.6291 13.9888 55.136L10.4178 63.3972ZM52.4893 0.64525C50.9444 11.2023 46.011 17.0273 39.8143 20.623C33.7337 24.1513 26.3945 25.5301 20.274 27.2744C14.0157 29.0581 9.07392 31.1982 6.84467 36.0069C4.59446 40.8607 4.94261 48.79 10.4295 62.632L8.57024 63.369C3.05717 49.4609 2.40535 40.8276 5.03017 35.1657C7.67594 29.4586 13.4842 27.1299 19.7259 25.351C26.1054 23.5328 33.0162 22.2553 38.8105 18.8931C44.4889 15.5982 49.0554 10.2983 50.5104 0.355656L52.4893 0.64525Z" fill="#95B900"/>
</svg>
