<svg width="102" height="104" viewBox="0 0 102 104" fill="none" xmlns="http://www.w3.org/2000/svg">
<path d="M0.107568 94.4512C-0.141586 93.9583 0.0560006 93.3567 0.548893 93.1076L8.58101 89.0474C9.0739 88.7982 9.67544 88.9958 9.92459 89.4887C10.1737 89.9816 9.97616 90.5831 9.48327 90.8323L2.34361 94.4414L5.95267 101.581C6.20183 102.074 6.00424 102.675 5.51135 102.925C5.01846 103.174 4.41691 102.976 4.16776 102.483L0.107568 94.4512ZM93.549 0.730709C107.871 32.9773 102.079 62.2754 83.852 80.6587C65.6421 99.0249 35.2228 106.294 0.687962 94.9501L1.31209 93.05C35.2773 104.206 64.8579 96.9752 82.4318 79.2505C99.9887 61.5429 105.764 33.1593 91.7212 1.54254L93.549 0.730709Z" fill="#95B900"/>
</svg>
