<svg width="111" height="80" viewBox="0 0 111 80" fill="none" xmlns="http://www.w3.org/2000/svg">
<path d="M0.606005 62.8512C0.590002 62.2991 1.02456 61.8386 1.57661 61.8226L10.5728 61.5618C11.1249 61.5458 11.5854 61.9804 11.6014 62.5324C11.6174 63.0845 11.1828 63.545 10.6308 63.561L2.63414 63.7928L2.86593 71.7894C2.88193 72.3415 2.44737 72.802 1.89532 72.818C1.34327 72.834 0.88277 72.3994 0.866767 71.8474L0.606005 62.8512ZM109.598 0.700634C114.153 37.8999 96.0268 62.1862 72.2019 72.8598C48.467 83.493 19.0164 80.627 0.919261 63.5495L2.29191 62.0949C19.6948 78.5173 48.2442 81.4013 71.3842 71.0346C94.4341 60.7082 112.058 37.2445 107.613 0.943717L109.598 0.700634Z" fill="#00C2E6"/>
</svg>
