<svg width="46" height="46" viewBox="0 0 46 46" fill="none" xmlns="http://www.w3.org/2000/svg">
<circle cx="23" cy="23" r="23" fill="#9A2DAD"/>
<path d="M19.6675 23C19.6675 21.1591 21.1594 19.6664 23.0004 19.6664C24.8414 19.6664 26.3341 21.1591 26.3341 23C26.3341 24.8409 24.8414 26.3336 23.0004 26.3336C21.1594 26.3336 19.6675 24.8409 19.6675 23ZM17.8653 23C17.8653 25.836 20.1643 28.1349 23.0004 28.1349C25.8365 28.1349 28.1355 25.836 28.1355 23C28.1355 20.164 25.8365 17.8651 23.0004 17.8651C20.1643 17.8651 17.8653 20.164 17.8653 23ZM27.1387 17.6615C27.1386 17.8989 27.2089 18.1309 27.3407 18.3283C27.4725 18.5257 27.6598 18.6796 27.8791 18.7705C28.0983 18.8614 28.3396 18.8852 28.5724 18.839C28.8052 18.7928 29.0191 18.6786 29.187 18.5109C29.3549 18.3431 29.4693 18.1293 29.5157 17.8966C29.5621 17.6638 29.5384 17.4225 29.4477 17.2032C29.3569 16.9839 29.2032 16.7964 29.0059 16.6645C28.8086 16.5326 28.5766 16.4621 28.3393 16.462H28.3388C28.0206 16.4621 27.7156 16.5886 27.4905 16.8135C27.2655 17.0384 27.139 17.3434 27.1387 17.6615ZM18.9602 31.1398C17.9852 31.0954 17.4553 30.933 17.1031 30.7958C16.6362 30.614 16.3031 30.3975 15.9528 30.0478C15.6026 29.698 15.3858 29.3652 15.2048 28.8983C15.0675 28.5463 14.9051 28.0162 14.8608 27.0413C14.8123 25.9872 14.8026 25.6706 14.8026 23.0001C14.8026 20.3296 14.8131 20.0138 14.8608 18.9589C14.9052 17.9839 15.0688 17.4549 15.2048 17.1018C15.3866 16.635 15.6031 16.3018 15.9528 15.9516C16.3026 15.6014 16.6354 15.3846 17.1031 15.2036C17.4551 15.0663 17.9852 14.9039 18.9602 14.8596C20.0144 14.8111 20.331 14.8014 23.0004 14.8014C25.6698 14.8014 25.9868 14.8119 27.0418 14.8596C28.0168 14.904 28.5458 15.0676 28.8989 15.2036C29.3658 15.3846 29.6989 15.6018 30.0492 15.9516C30.3994 16.3014 30.6154 16.635 30.7972 17.1018C30.9345 17.4538 31.0969 17.9839 31.1412 18.9589C31.1897 20.0138 31.1994 20.3296 31.1994 23.0001C31.1994 25.6706 31.1897 25.9863 31.1412 27.0413C31.0968 28.0162 30.9336 28.5462 30.7972 28.8983C30.6154 29.3652 30.3989 29.6983 30.0492 30.0478C29.6994 30.3972 29.3658 30.614 28.8989 30.7958C28.5469 30.933 28.0168 31.0954 27.0418 31.1398C25.9876 31.1882 25.671 31.1979 23.0004 31.1979C20.3298 31.1979 20.014 31.1882 18.9602 31.1398ZM18.8774 13.0606C17.8128 13.109 17.0854 13.2778 16.4501 13.525C15.7921 13.7803 15.2351 14.1228 14.6785 14.6785C14.122 15.2342 13.7804 15.792 13.5251 16.4499C13.2779 17.0856 13.109 17.8126 13.0606 18.8772C13.0113 19.9434 13 20.2843 13 23C13 25.7157 13.0113 26.0566 13.0606 27.1228C13.109 28.1874 13.2779 28.9144 13.5251 29.5501C13.7804 30.2076 14.122 30.7661 14.6785 31.3215C15.235 31.877 15.7921 32.219 16.4501 32.475C17.0866 32.7222 17.8128 32.891 18.8774 32.9394C19.9443 32.9879 20.2846 33 23.0004 33C25.7162 33 26.0571 32.9887 27.1234 32.9394C28.188 32.891 28.915 32.7222 29.5507 32.475C30.2083 32.219 30.7657 31.8772 31.3223 31.3215C31.8788 30.7658 32.2197 30.2076 32.4757 29.5501C32.7229 28.9144 32.8926 28.1874 32.9402 27.1228C32.9887 26.0558 33 25.7157 33 23C33 20.2843 32.9887 19.9434 32.9402 18.8772C32.8918 17.8126 32.7229 17.0852 32.4757 16.4499C32.2197 15.7924 31.878 15.235 31.3223 14.6785C30.7666 14.1219 30.2083 13.7803 29.5515 13.525C28.915 13.2778 28.188 13.1082 27.1242 13.0606C26.0579 13.0121 25.717 13 23.0012 13C20.2854 13 19.9443 13.0113 18.8774 13.0606Z" fill="white"/>
</svg>
