<svg width="512" height="512" viewBox="0 0 512 512" fill="none" xmlns="http://www.w3.org/2000/svg">
<g clip-path="url(#clip0_412_1924)">
<path d="M374.224 366.667L402.58 338.312L442.81 378.542L414.454 406.897L374.224 366.667Z" fill="#E6E2E6"/>
<path d="M374.224 366.667L402.58 338.312L442.81 378.542L414.454 406.897L374.224 366.667Z" fill="#ECDAEC"/>
<path d="M374.225 366.667L387.723 353.169L427.952 393.399L414.454 406.897L374.225 366.667Z" fill="#E2CBE2"/>
<path d="M8 23C8 14.716 14.716 8 23 8H275.445L368.382 100.937V489C368.382 497.284 361.666 504 353.382 504H23C14.716 504 8 497.284 8 489V23Z" fill="#F9F6F6"/>
<path d="M353.382 486H23C14.716 486 8 479.284 8 471V489C8 497.284 14.716 504 23 504H353.382C361.666 504 368.382 497.284 368.382 489V471C368.382 479.284 361.666 486 353.382 486Z" fill="#ECDAEC"/>
<path d="M290.445 100.937H368.382L275.445 8V85.937C275.445 94.221 282.161 100.937 290.445 100.937Z" fill="#E2CBE2"/>
<path d="M290.445 100.937H368.382L275.445 8V85.937C275.445 94.221 282.161 100.937 290.445 100.937Z" fill="#E2CBE2"/>
<path d="M313.937 402.421C382.688 402.421 438.421 346.688 438.421 277.937C438.421 209.187 382.688 153.453 313.937 153.453C245.186 153.453 189.453 209.187 189.453 277.937C189.453 346.688 245.186 402.421 313.937 402.421Z" fill="#E2CBE2"/>
<path d="M401.961 347.961C353.347 396.575 274.528 396.575 225.914 347.961C203.898 325.945 191.852 297.733 189.778 268.938C187.272 303.725 199.317 339.364 225.914 365.961C274.528 414.575 353.347 414.575 401.961 365.961C428.559 339.363 440.604 303.725 438.097 268.938C436.022 297.733 423.978 325.945 401.961 347.961Z" fill="#DAB9D8"/>
<path d="M313.937 368.069C363.716 368.069 404.069 327.715 404.069 277.937C404.069 228.158 363.716 187.805 313.937 187.805C264.158 187.805 223.805 228.158 223.805 277.937C223.805 327.715 264.158 368.069 313.937 368.069Z" fill="#FFE27A"/>
<path d="M377.67 323.67C342.471 358.869 285.403 358.869 250.205 323.67C234.898 308.363 226.256 288.919 224.262 268.937C221.671 294.903 230.314 321.778 250.205 341.67C285.403 376.869 342.472 376.869 377.67 341.67C397.561 321.778 406.204 294.903 403.613 268.937C401.62 288.919 392.977 308.363 377.67 323.67Z" fill="#F9CF58"/>
<path d="M305.871 315.018C301.911 315.018 297.948 313.535 294.886 310.557L274.203 290.444C267.963 284.376 267.823 274.399 273.891 268.158C279.959 261.918 289.937 261.779 296.177 267.846L305.577 276.987L333.817 248.029C339.894 241.798 349.873 241.674 356.104 247.749C362.335 253.826 362.46 263.805 356.384 270.036L317.155 310.261C314.068 313.428 309.972 315.018 305.871 315.018Z" fill="#98DB7C"/>
<path d="M356.385 252.036L317.156 292.261C314.068 295.427 309.972 297.018 305.872 297.018C301.912 297.018 297.949 295.535 294.887 292.557L274.204 272.444C273.472 271.732 272.831 270.962 272.267 270.155C267.931 276.374 268.591 284.986 274.204 290.444L294.887 310.557C297.95 313.536 301.912 315.018 305.872 315.018C309.972 315.018 314.068 313.428 317.156 310.261L356.385 270.036C361.754 264.531 362.273 256.105 358.026 250.024C357.537 250.725 357.001 251.404 356.385 252.036Z" fill="#82D361"/>
<path d="M448.493 372.946L408.946 412.493L456.263 459.81C467.184 470.73 484.889 470.73 495.81 459.81C506.73 448.89 506.73 431.184 495.81 420.263L448.493 372.946Z" fill="#FF4755"/>
<path d="M469.748 446.295L422.446 398.993L408.946 412.493L456.263 459.81C467.183 470.73 484.889 470.73 495.809 459.81C498.188 457.431 500.048 454.73 501.391 451.847C491.03 456.702 478.306 454.853 469.748 446.295Z" fill="#FC2B3A"/>
<path d="M101.373 197.403H68.562C63.439 197.403 59.286 193.25 59.286 188.127V155.315C59.286 150.192 63.439 146.039 68.562 146.039H101.374C106.497 146.039 110.65 150.192 110.65 155.315V188.127C110.649 193.25 106.496 197.403 101.373 197.403Z" fill="#98DB7C"/>
<path d="M101.373 302.565H68.562C63.439 302.565 59.286 298.412 59.286 293.289V260.477C59.286 255.354 63.439 251.201 68.562 251.201H101.374C106.497 251.201 110.65 255.354 110.65 260.477V293.289C110.649 298.412 106.496 302.565 101.373 302.565Z" fill="#98DB7C"/>
<path d="M101.373 409.862H68.562C63.439 409.862 59.286 405.709 59.286 400.586V367.774C59.286 362.651 63.439 358.498 68.562 358.498H101.374C106.497 358.498 110.65 362.651 110.65 367.774V400.586C110.649 405.709 106.496 409.862 101.373 409.862Z" fill="#98DB7C"/>
<path d="M101.373 179.403H68.562C63.439 179.403 59.286 175.25 59.286 170.128V188.128C59.286 193.251 63.439 197.404 68.562 197.404H101.374C106.497 197.404 110.649 193.251 110.649 188.128V170.128C110.649 175.25 106.496 179.403 101.373 179.403Z" fill="#82D361"/>
<path d="M101.373 284.565H68.562C63.439 284.565 59.286 280.412 59.286 275.289V293.289C59.286 298.412 63.439 302.565 68.562 302.565H101.374C106.497 302.565 110.649 298.412 110.649 293.289V275.289C110.649 280.412 106.496 284.565 101.373 284.565Z" fill="#82D361"/>
<path d="M101.373 391.862H68.562C63.439 391.862 59.286 387.709 59.286 382.586V400.586C59.286 405.709 63.439 409.862 68.562 409.862H101.374C106.497 409.862 110.649 405.709 110.649 400.586V382.586C110.649 387.709 106.496 391.862 101.373 391.862Z" fill="#82D361"/>
<path d="M275.445 85.937V103.937C275.445 112.221 282.161 118.937 290.445 118.937H368.382V100.937H290.445C282.161 100.937 275.445 94.221 275.445 85.937Z" fill="#ECDAEC"/>
<path d="M306.01 322.648C312.347 322.648 318.274 320.15 322.699 315.614L362.01 275.31C370.982 266.11 370.796 251.326 361.595 242.353C352.394 233.382 337.607 233.568 328.635 242.767L305.574 266.409L301.534 262.481C292.32 253.525 277.534 253.73 268.573 262.943C259.615 272.156 259.822 286.94 269.036 295.899L289.762 316.051C294.137 320.305 299.908 322.648 306.01 322.648ZM279.351 273.421C282.535 270.147 287.788 270.079 291.057 273.258L300.476 282.417C303.448 285.308 308.2 285.243 311.096 282.276L339.396 253.262C342.584 249.993 347.835 249.93 351.101 253.114C354.369 256.301 354.434 261.551 351.249 264.818L311.938 305.121C308.9 308.37 303.366 308.439 300.241 305.277L279.515 285.125C276.244 281.943 276.169 276.692 279.351 273.421Z" fill="black"/>
<path d="M247.915 327.763C245.415 324.45 240.704 323.79 237.388 326.29C234.074 328.79 233.416 333.502 235.915 336.815C238.652 340.442 241.68 343.92 244.912 347.152C263.391 365.629 287.96 375.804 314.093 375.804C340.226 375.804 364.794 365.629 383.273 347.152C401.753 328.676 411.929 304.11 411.929 277.981C411.929 251.851 401.752 227.286 383.273 208.81C345.126 170.669 283.059 170.67 244.912 208.81C218.905 234.813 209.702 272.746 220.895 307.806C222.157 311.76 226.389 313.94 230.34 312.68C234.294 311.418 236.477 307.189 235.214 303.236C225.739 273.558 233.528 241.448 255.542 219.438C287.826 187.157 340.36 187.157 372.644 219.438C388.284 235.076 396.898 255.867 396.898 277.982C396.898 300.097 388.284 320.888 372.644 336.526C357.005 352.163 336.211 360.776 314.093 360.776C291.976 360.776 271.181 352.164 255.541 336.526C252.799 333.782 250.233 330.835 247.915 327.763Z" fill="black"/>
<path d="M501.66 415.271L454.245 367.862C451.309 364.928 446.551 364.927 443.615 367.862L443.325 368.152L425.078 349.908C437.344 330.998 444.652 309.149 446.09 286.346C446.351 282.204 443.204 278.635 439.062 278.373C434.923 278.121 431.351 281.259 431.088 285.4C429.293 313.869 417.182 340.669 396.986 360.862C374.162 383.684 344.189 395.108 314.207 395.137C314.169 395.136 314.132 395.131 314.093 395.131H313.496C283.676 394.981 253.902 383.561 231.2 360.862C209.058 338.724 196.864 309.289 196.864 277.98C196.864 246.671 209.058 217.236 231.2 195.098C276.907 149.396 351.279 149.396 396.986 195.098C414.01 212.12 425.244 233.591 429.475 257.192C430.208 261.277 434.116 263.991 438.199 263.263C442.285 262.531 445.003 258.626 444.271 254.54C439.495 227.903 426.82 203.673 407.615 184.47C398.099 174.955 387.479 167.202 376.166 161.199V100.633C376.16 98.655 375.361 96.719 373.965 95.319L280.835 2.201C279.434 0.807 277.499 0.005 275.519 0H22.547C10.115 0 2.34375e-05 10.113 2.34375e-05 22.544V85.707C2.34375e-05 89.857 3.36402 93.222 7.51602 93.222C11.667 93.222 15.032 89.858 15.032 85.707V22.544C15.032 18.4 18.403 15.029 22.548 15.029H268.006V85.604C268.006 98.035 278.121 108.148 290.553 108.148H361.137V154.393C346.473 148.837 331.013 145.983 315.528 145.816C315.454 145.806 315.382 145.791 315.305 145.791H147.505C143.354 145.791 139.989 149.156 139.989 153.306C139.989 157.456 143.354 160.821 147.505 160.821H252.731C242.01 166.427 231.904 173.603 222.752 182.346H147.505C143.354 182.346 139.989 185.711 139.989 189.861C139.989 194.011 143.354 197.376 147.505 197.376H209.225C196.957 213.267 188.573 231.569 184.56 251.106H147.506C143.355 251.106 139.99 254.471 139.99 258.621C139.99 262.771 143.355 266.136 147.506 266.136H182.365C182.019 270.053 181.836 274.003 181.836 277.982C181.836 281.246 181.955 284.492 182.188 287.715H147.507C143.356 287.715 139.991 291.08 139.991 295.23C139.991 299.38 143.356 302.745 147.507 302.745H184.147C187.98 323.086 196.526 342.146 209.248 358.615H147.507C143.356 358.615 139.991 361.979 139.991 366.13C139.991 370.281 143.356 373.645 147.507 373.645H222.782C231.921 382.372 242.011 389.536 252.713 395.135H147.503C143.352 395.135 139.987 398.5 139.987 402.65C139.987 406.8 143.352 410.165 147.503 410.165H314.093C330.055 410.163 346.018 407.296 361.135 401.569V489.46C361.135 493.603 357.764 496.975 353.619 496.975H22.547C18.403 496.975 15.031 493.604 15.031 489.46V115.77C15.031 111.62 11.666 108.255 7.51502 108.255C3.36402 108.255 -0.000976562 111.619 -0.000976562 115.77V489.46C2.34375e-05 501.887 10.115 512 22.547 512H353.62C366.052 512 376.167 501.887 376.167 489.456V394.759C379.521 392.979 382.813 391.043 386.034 388.955L404.277 407.195C401.12 409.951 400.951 415.203 403.986 418.113L451.402 465.523C464.629 479.308 488.433 479.307 501.659 465.523C515.447 452.297 515.446 428.496 501.66 415.271ZM290.552 93.119C286.408 93.119 283.036 89.748 283.036 85.604V25.657L350.507 93.119H290.552ZM398.294 379.958C401.501 377.307 404.615 374.489 407.615 371.49C410.597 368.508 413.419 365.395 416.083 362.17L432.695 378.779L414.905 396.566L398.294 379.958ZM491.031 454.895C483.399 462.85 469.664 462.848 462.031 454.895L419.929 412.799L448.93 383.802L491.032 425.898C498.986 433.531 498.987 447.263 491.031 454.895Z" fill="black"/>
<path d="M68.204 204.803H101.084C110.354 204.803 117.896 197.263 117.896 187.995V155.119C117.896 145.85 110.355 138.31 101.084 138.31H68.204C58.935 138.31 51.393 145.85 51.393 155.119V187.995C51.393 197.263 58.935 204.803 68.204 204.803ZM66.425 155.119C66.425 154.138 67.224 153.34 68.204 153.34H101.084C102.066 153.34 102.864 154.138 102.864 155.119V187.995C102.864 188.976 102.065 189.774 101.084 189.774H68.204C67.223 189.774 66.425 188.976 66.425 187.995V155.119Z" fill="black"/>
<path d="M51.393 293.362C51.393 302.63 58.934 310.17 68.204 310.17H101.084C110.354 310.17 117.896 302.63 117.896 293.362V260.486C117.896 251.218 110.355 243.678 101.084 243.678H68.204C58.935 243.678 51.393 251.218 51.393 260.486V293.362ZM66.425 260.486C66.425 259.505 67.224 258.707 68.204 258.707H101.084C102.066 258.707 102.864 259.505 102.864 260.486V293.362C102.864 294.343 102.065 295.141 101.084 295.141H68.204C67.223 295.141 66.425 294.343 66.425 293.362V260.486Z" fill="black"/>
<path d="M51.393 400.87C51.393 410.138 58.934 417.678 68.204 417.678H101.084C110.354 417.678 117.896 410.138 117.896 400.87V367.994C117.896 358.725 110.355 351.185 101.084 351.185H68.204C58.935 351.185 51.393 358.725 51.393 367.994V400.87ZM66.425 367.994C66.425 367.013 67.224 366.215 68.204 366.215H101.084C102.066 366.215 102.864 367.013 102.864 367.994V400.87C102.864 401.851 102.065 402.649 101.084 402.649H68.204C67.223 402.649 66.425 401.851 66.425 400.87V367.994Z" fill="black"/>
</g>
<defs>
<clipPath id="clip0_412_1924">
<rect width="512" height="512" fill="white"/>
</clipPath>
</defs>
</svg>
