<svg width="84" height="15" viewBox="0 0 84 15" fill="none" xmlns="http://www.w3.org/2000/svg">
<path d="M15.0241 5.45504C14.9255 5.15002 14.655 4.93338 14.3349 4.90454L9.98721 4.50976L8.26801 0.485799C8.14124 0.190895 7.85254 0 7.53178 0C7.21102 0 6.92232 0.190895 6.79555 0.486489L5.07635 4.50976L0.72795 4.90454C0.408451 4.93407 0.138601 5.15002 0.0394183 5.45504C-0.0597643 5.76006 0.031833 6.09461 0.273526 6.3055L3.55988 9.18766L2.59081 13.4564C2.5199 13.7703 2.64172 14.0947 2.90215 14.283C3.04213 14.3841 3.2059 14.4356 3.37105 14.4356C3.51345 14.4356 3.6547 14.3972 3.78146 14.3214L7.53178 12.0799L11.2807 14.3214C11.555 14.4864 11.9009 14.4713 12.1607 14.283C12.4213 14.0941 12.543 13.7696 12.4721 13.4564L11.503 9.18766L14.7893 6.30608C15.031 6.09461 15.1233 5.76063 15.0241 5.45504Z" fill="#FF7A00"/>
<path d="M32.2395 5.45504C32.1409 5.15002 31.8704 4.93338 31.5503 4.90454L27.2026 4.50976L25.4834 0.485799C25.3566 0.190895 25.0679 0 24.7472 0C24.4264 0 24.1377 0.190895 24.0109 0.486489L22.2917 4.50976L17.9433 4.90454C17.6238 4.93407 17.354 5.15002 17.2548 5.45504C17.1556 5.76006 17.2472 6.09461 17.4889 6.3055L20.7753 9.18766L19.8062 13.4564C19.7353 13.7703 19.8571 14.0947 20.1175 14.283C20.2575 14.3841 20.4213 14.4356 20.5864 14.4356C20.7288 14.4356 20.8701 14.3972 20.9969 14.3214L24.7472 12.0799L28.4961 14.3214C28.7704 14.4864 29.1163 14.4713 29.3761 14.283C29.6367 14.0941 29.7584 13.7696 29.6875 13.4564L28.7184 9.18766L32.0047 6.30608C32.2464 6.09461 32.3387 5.76063 32.2395 5.45504Z" fill="#FF7A00"/>
<path d="M49.4549 5.45504C49.3563 5.15002 49.0857 4.93338 48.7657 4.90454L44.418 4.50976L42.6988 0.485799C42.572 0.190895 42.2833 0 41.9625 0C41.6418 0 41.3531 0.190895 41.2263 0.486489L39.5071 4.50976L35.1587 4.90454C34.8392 4.93407 34.5694 5.15002 34.4702 5.45504C34.371 5.76006 34.4626 6.09461 34.7043 6.3055L37.9906 9.18766L37.0216 13.4564C36.9507 13.7703 37.0725 14.0947 37.3329 14.283C37.4729 14.3841 37.6367 14.4356 37.8018 14.4356C37.9442 14.4356 38.0855 14.3972 38.2122 14.3214L41.9625 12.0799L45.7115 14.3214C45.9858 14.4864 46.3316 14.4713 46.5915 14.283C46.852 14.0941 46.9737 13.7696 46.9028 13.4564L45.9337 9.18766L49.2201 6.30608C49.4618 6.09461 49.5541 5.76063 49.4549 5.45504Z" fill="#FF7A00"/>
<path d="M66.6703 5.45504C66.5717 5.15002 66.3011 4.93338 65.9811 4.90454L61.6334 4.50976L59.9142 0.485799C59.7874 0.190895 59.4987 0 59.1779 0C58.8572 0 58.5685 0.190895 58.4417 0.486489L56.7225 4.50976L52.3741 4.90454C52.0546 4.93407 51.7847 5.15002 51.6856 5.45504C51.5864 5.76006 51.678 6.09461 51.9197 6.3055L55.206 9.18766L54.237 13.4564C54.166 13.7703 54.2879 14.0947 54.5483 14.283C54.6883 14.3841 54.8521 14.4356 55.0172 14.4356C55.1596 14.4356 55.3008 14.3972 55.4276 14.3214L59.1779 12.0799L62.9269 14.3214C63.2012 14.4864 63.547 14.4713 63.8069 14.283C64.0674 14.0941 64.1891 13.7696 64.1182 13.4564L63.1491 9.18766L66.4355 6.30608C66.6772 6.09461 66.7695 5.76063 66.6703 5.45504Z" fill="#FF7A00"/>
<path d="M83.8857 5.45504C83.787 5.15002 83.5165 4.93338 83.1964 4.90454L78.8487 4.50976L77.1295 0.485799C77.0028 0.190895 76.7141 0 76.3933 0C76.0725 0 75.7838 0.190895 75.6571 0.486489L73.9379 4.50976L69.5895 4.90454C69.27 4.93407 69.0001 5.15002 68.9009 5.45504C68.8017 5.76006 68.8933 6.09461 69.135 6.3055L72.4214 9.18766L71.4523 13.4564C71.3814 13.7703 71.5032 14.0947 71.7637 14.283C71.9036 14.3841 72.0674 14.4356 72.2326 14.4356C72.375 14.4356 72.5162 14.3972 72.643 14.3214L76.3933 12.0799L80.1422 14.3214C80.4166 14.4864 80.7624 14.4713 81.0222 14.283C81.2828 14.0941 81.4045 13.7696 81.3336 13.4564L80.3645 9.18766L83.6509 6.30608C83.8925 6.09461 83.9848 5.76063 83.8857 5.45504Z" fill="#FF7A00"/>
</svg>
