<svg width="60" height="60" viewBox="0 0 60 60" fill="none" xmlns="http://www.w3.org/2000/svg">
<g clip-path="url(#clip0_267_429)">
<path d="M13.7373 0.878906H43.5544C45.4705 0.878906 47.0238 2.43223 47.0238 4.34836V55.6518C47.0238 57.5679 45.4705 59.1212 43.5544 59.1212H4.676C2.75986 59.1212 1.20654 57.5679 1.20654 55.6518V13.4098C1.20654 12.4896 1.57205 11.6071 2.22279 10.9564L11.2841 1.89516C11.9347 1.24441 12.8171 0.878906 13.7373 0.878906Z" fill="#F4FBFF"/>
<path d="M43.5545 0.878906H36.1045C38.0206 0.878906 39.5739 2.43223 39.5739 4.34836V55.6518C39.5739 57.5679 38.0206 59.1212 36.1045 59.1212H43.5545C45.4706 59.1212 47.0239 57.5679 47.0239 55.6518V4.34848C47.024 2.43223 45.4706 0.878906 43.5545 0.878906Z" fill="#E4F6FF"/>
<path d="M2.2226 10.9565L11.2839 1.8952C11.5806 1.59849 11.9255 1.36118 12.3001 1.19067V9.82165C12.3001 11.0096 11.3371 11.9726 10.1492 11.9726H1.51807C1.68857 11.598 1.92588 11.2531 2.2226 10.9565Z" fill="#63DF99"/>
<path d="M38.4825 11.9726H20.4394C19.8367 11.9726 19.3481 11.4841 19.3481 10.8814V8.02973C19.3481 7.42703 19.8367 6.93848 20.4394 6.93848H38.4825C39.0852 6.93848 39.5738 7.42703 39.5738 8.02973V10.8814C39.5738 11.4841 39.0851 11.9726 38.4825 11.9726Z" fill="#CBE2FF"/>
<path d="M50.7641 52.4866L47.5411 50.5025C47.224 50.3073 46.8239 50.3073 46.5068 50.5025L43.2838 52.4866C42.6266 52.8913 41.7803 52.4184 41.7803 51.6466V38.8821H52.2677V51.6465C52.2676 52.4183 51.4213 52.8911 50.7641 52.4866Z" fill="#00C2E6"/>
<path d="M49.1081 21.1797C49.7709 22.0364 50.8905 22.4001 51.9303 22.0967C53.5851 21.6138 55.2503 22.8237 55.3024 24.5467C55.3351 25.6294 56.0271 26.5816 57.0466 26.9474C58.6692 27.5294 59.3053 29.4869 58.3346 30.9115C57.7248 31.8067 57.7248 32.9838 58.3346 33.8789C59.3052 35.3034 58.6692 37.261 57.0466 37.843C56.0271 38.2087 55.3351 39.161 55.3024 40.2437C55.2503 41.9667 53.5851 43.1765 51.9303 42.6936C50.8905 42.3902 49.771 42.754 49.1081 43.6106C48.0532 44.974 45.9949 44.974 44.94 43.6106C44.2772 42.754 43.1576 42.3902 42.1178 42.6936C40.463 43.1764 38.7978 41.9667 38.7457 40.2437C38.713 39.161 38.021 38.2087 37.0015 37.843C35.3789 37.2609 34.7428 35.3034 35.7135 33.8789C36.3233 32.9837 36.3233 31.8065 35.7135 30.9115C34.7429 29.4869 35.3789 27.5293 37.0015 26.9474C38.021 26.5816 38.713 25.6294 38.7457 24.5467C38.7978 22.8237 40.463 21.6138 42.1178 22.0967C43.1576 22.4001 44.2771 22.0364 44.94 21.1797C45.9949 19.8164 48.0531 19.8164 49.1081 21.1797Z" fill="#63DF99"/>
<path d="M58.3348 33.8789C57.7249 32.9837 57.7249 31.8065 58.3348 30.9115C59.3054 29.4868 58.6693 27.5293 57.0468 26.9474C56.0272 26.5816 55.3352 25.6294 55.3025 24.5467C55.2504 22.8237 53.5853 21.6138 51.9305 22.0967C50.8907 22.4001 49.7712 22.0364 49.1082 21.1797C48.0533 19.8164 45.995 19.8164 44.9401 21.1797C44.7915 21.3717 44.6201 21.5389 44.4316 21.6794C48.4995 23.5325 51.3272 27.6336 51.3272 32.3952C51.3272 37.1567 48.4995 41.2579 44.4316 43.1109C44.6201 43.2514 44.7916 43.4187 44.9401 43.6106C45.995 44.974 48.0533 44.974 49.1082 43.6106C49.7712 42.754 50.8907 42.3902 51.9305 42.6936C53.5853 43.1765 55.2504 41.9667 55.3025 40.2437C55.3354 39.161 56.0272 38.2087 57.0468 37.843C58.6693 37.2609 59.3053 35.3034 58.3348 33.8789Z" fill="#63DF99"/>
<path d="M47.024 38.8823C50.6066 38.8823 53.5109 35.978 53.5109 32.3954C53.5109 28.8127 50.6066 25.9084 47.024 25.9084C43.4414 25.9084 40.5371 28.8127 40.5371 32.3954C40.5371 35.978 43.4414 38.8823 47.024 38.8823Z" fill="#00C2E6"/>
<path d="M53.5107 32.3952C53.5107 29.7865 51.9708 27.5375 49.7505 26.5076C50.753 28.2394 51.3268 30.2503 51.3268 32.3952C51.3268 34.5401 50.7529 36.551 49.7505 38.2828C51.9708 37.2528 53.5107 35.0038 53.5107 32.3952Z" fill="#63DF99"/>
<path d="M2.2226 10.9563L11.2839 1.89496C11.5806 1.59824 11.9255 1.36094 12.3001 1.19043V9.82141C12.3001 11.0093 11.3371 11.9724 10.1492 11.9724H1.51807C1.68857 11.5977 1.92588 11.2529 2.2226 10.9563Z" fill="#63DF99"/>
<path d="M30.3252 21.2703H7.82703C7.34164 21.2703 6.94824 21.6638 6.94824 22.1491C6.94824 22.6344 7.34164 23.0278 7.82703 23.0278H30.3253C30.8107 23.0278 31.2041 22.6343 31.2041 22.1491C31.2041 21.6638 30.8107 21.2703 30.3252 21.2703Z" fill="black"/>
<path d="M30.3252 27.4456H7.82703C7.34164 27.4456 6.94824 27.8391 6.94824 28.3243C6.94824 28.8096 7.34164 29.2031 7.82703 29.2031H30.3253C30.8107 29.2031 31.2041 28.8096 31.2041 28.3243C31.2041 27.8391 30.8107 27.4456 30.3252 27.4456Z" fill="black"/>
<path d="M30.3252 33.6208H7.82703C7.34164 33.6208 6.94824 34.0144 6.94824 34.4996C6.94824 34.9849 7.34164 35.3784 7.82703 35.3784H30.3253C30.8107 35.3784 31.2041 34.9849 31.2041 34.4996C31.2041 34.0144 30.8107 33.6208 30.3252 33.6208Z" fill="black"/>
<path d="M31.2041 40.6749C31.2041 40.1895 30.8107 39.7961 30.3253 39.7961H7.82703C7.34164 39.7961 6.94824 40.1897 6.94824 40.6749C6.94824 41.1602 7.34164 41.5537 7.82703 41.5537H30.3253C30.8107 41.5537 31.2041 41.1603 31.2041 40.6749Z" fill="black"/>
<path d="M7.82703 48.8462C7.34164 48.8462 6.94824 49.2397 6.94824 49.725C6.94824 50.2103 7.34164 50.6038 7.82703 50.6038H19.1049C19.5903 50.6038 19.9837 50.2103 19.9837 49.725C19.9837 49.2397 19.5903 48.8462 19.1049 48.8462H7.82703Z" fill="black"/>
<path d="M40.4524 10.8811V8.02948C40.4524 6.94315 39.5687 6.05933 38.4823 6.05933H20.4393C19.3529 6.05933 18.4692 6.94315 18.4692 8.02948V10.8811C18.4692 11.9675 19.3529 12.8512 20.4393 12.8512H21.9629C22.4483 12.8512 22.8417 12.4576 22.8417 11.9724C22.8417 11.487 22.4483 11.0936 21.9629 11.0936H20.4393C20.3222 11.0936 20.2269 10.9983 20.2269 10.8812V8.02948C20.2269 7.91241 20.3222 7.81702 20.4393 7.81702H38.4823C38.5995 7.81702 38.6947 7.91229 38.6947 8.02948V10.8811C38.6947 10.9982 38.5995 11.0935 38.4823 11.0935H26.0715C25.5862 11.0935 25.1928 11.487 25.1928 11.9723C25.1928 12.4576 25.5862 12.851 26.0715 12.851H38.4824C39.5687 12.8513 40.4524 11.9675 40.4524 10.8811Z" fill="black"/>
<path d="M47.0238 53.5894C46.5384 53.5894 46.145 53.9829 46.145 54.4682V55.6516C46.145 57.08 44.9829 58.2423 43.5542 58.2423H4.67588C3.24748 58.2423 2.08521 57.0802 2.08521 55.6516V13.4095C2.08521 13.2193 2.10748 13.0328 2.14721 12.8512H10.1491C11.8197 12.8512 13.1789 11.4921 13.1789 9.82148V1.81969C13.3604 1.77996 13.5469 1.7577 13.7371 1.7577H43.5541C44.9826 1.7577 46.1449 2.91984 46.1449 4.34836V16.0486C46.1449 16.534 46.5383 16.9274 47.0237 16.9274C47.5091 16.9274 47.9025 16.5339 47.9025 16.0486V4.34824C47.9026 1.9507 45.9519 0 43.5542 0H13.7372C12.5757 0 11.4837 0.452344 10.6624 1.27359L1.60111 10.3349C0.779863 11.1561 0.327637 12.2481 0.327637 13.4096V55.6518C0.327637 58.0494 2.27822 60 4.67588 60H43.5542C45.9519 60 47.9026 58.0493 47.9026 55.6518V54.4683C47.9026 53.9829 47.5092 53.5894 47.0238 53.5894ZM11.4213 3.00047V9.82148C11.4213 10.523 10.8506 11.0937 10.1491 11.0937H3.32811L11.4213 3.00047Z" fill="black"/>
<path d="M59.0607 31.406C59.6776 30.5005 59.8372 29.3836 59.4987 28.3416C59.1601 27.2996 58.3744 26.4898 57.3431 26.12C56.659 25.8746 56.2025 25.2464 56.1807 24.5199C56.1476 23.4248 55.6201 22.4273 54.7336 21.7832C53.8473 21.1392 52.7354 20.946 51.684 21.2528C50.9858 21.4565 50.2479 21.2165 49.803 20.6417C49.1326 19.7751 48.1196 19.2781 47.0239 19.2781C45.9283 19.2781 44.9153 19.7751 44.2447 20.6417C43.7999 21.2166 43.0615 21.4562 42.3639 21.2528C41.3123 20.9458 40.2006 21.1392 39.314 21.7832C38.4276 22.4273 37.9004 23.4246 37.8671 24.5198C37.8452 25.2463 37.3889 25.8743 36.7046 26.1198C35.6734 26.4897 34.8876 27.2996 34.5492 28.3415C34.2106 29.3835 34.3703 30.5005 34.9871 31.4059C35.3964 32.0067 35.3964 32.783 34.9871 33.3837C34.3703 34.2892 34.2106 35.4061 34.5492 36.4482C34.8876 37.4902 35.6734 38.3 36.7046 38.6699C37.3889 38.9154 37.8453 39.5434 37.8671 40.27C37.8977 41.2773 38.3593 42.2239 39.1339 42.8666C39.645 43.2908 40.2589 43.5563 40.9015 43.645V51.6463C40.9015 52.3214 41.2677 52.9455 41.857 53.2746C42.4456 53.6036 43.1693 53.5889 43.7446 53.2347L46.9678 51.2505C47.0203 51.218 47.0516 51.2326 47.0805 51.2505L50.3035 53.2347C50.8786 53.5886 51.602 53.6038 52.1912 53.2745C52.7807 52.9452 53.1467 52.3212 53.1467 51.6462V43.6448C53.789 43.5562 54.403 43.2907 54.914 42.8666C55.6888 42.2239 56.1505 41.2775 56.1811 40.2699C56.2029 39.5433 56.6593 38.9152 57.3435 38.6698C58.3748 38.3 59.1606 37.4901 59.499 36.448C59.8376 35.406 59.678 34.2891 59.0611 33.3836C58.6514 32.7831 58.6514 32.0069 59.0607 31.406ZM51.2248 51.738L48.0016 49.7537C47.4024 49.385 46.6459 49.3844 46.0461 49.7537L42.823 51.7378C42.7496 51.7825 42.659 51.731 42.659 51.6462V43.4781C43.2633 43.4082 43.8623 43.654 44.2447 44.1482C44.9154 45.0147 45.9283 45.5117 47.024 45.5117C48.1196 45.5117 49.1326 45.0147 49.803 44.1482C50.1855 43.6539 50.7847 43.4082 51.3888 43.4781V51.6462C51.3888 51.7316 51.2971 51.7826 51.2248 51.738ZM57.6082 34.3736C57.9166 34.8262 57.9963 35.3843 57.8271 35.9051C57.6579 36.4259 57.2652 36.8307 56.7497 37.0156C55.3807 37.5066 54.4678 38.7632 54.4239 40.2169C54.4083 40.728 54.1836 41.1886 53.7914 41.5142C53.3504 41.8801 52.7532 42.0182 52.1764 41.8499C50.7804 41.4426 49.303 41.9226 48.4128 43.0726C48.0778 43.5057 47.5714 43.7541 47.0238 43.7541C46.4763 43.7541 45.9699 43.5058 45.6347 43.0726C44.9551 42.1942 43.9331 41.7067 42.8664 41.7067C42.5361 41.7067 42.2014 41.7535 41.8714 41.8498C41.289 42.0195 40.6936 41.8772 40.2561 41.5141C39.8639 41.1885 39.6392 40.7278 39.6239 40.2169C39.5798 38.7632 38.6669 37.5066 37.2978 37.0155C36.7824 36.8305 36.3899 36.4259 36.2205 35.9051C36.0513 35.3843 36.131 34.826 36.4394 34.3735C37.2582 33.1715 37.2582 31.6184 36.4394 30.4164C36.131 29.9638 36.0513 29.4055 36.2205 28.8846C36.3898 28.3639 36.7824 27.9591 37.2978 27.7743C38.6669 27.2832 39.5798 26.0266 39.6239 24.5728C39.6404 24.0255 39.9039 23.5269 40.3469 23.2051C40.7898 22.8832 41.3453 22.7867 41.8713 22.94C43.267 23.3474 44.7448 22.8673 45.6347 21.7172C45.9698 21.2841 46.4761 21.0357 47.0238 21.0357C47.5714 21.0357 48.0777 21.284 48.4128 21.7171C49.3029 22.8673 50.7799 23.3473 52.1763 22.94C52.702 22.7864 53.2575 22.8831 53.7006 23.205C54.1437 23.5268 54.4073 24.0255 54.4237 24.5727C54.4678 26.0264 55.3807 27.2832 56.7497 27.7742C57.2652 27.959 57.6578 28.3637 57.8271 28.8845C57.9963 29.4053 57.9166 29.9637 57.6082 30.4162C56.7892 31.6183 56.7892 33.1716 57.6082 34.3736Z" fill="black"/>
<path d="M47.0239 25.0293C42.9624 25.0293 39.6582 28.3335 39.6582 32.395C39.6582 36.4565 42.9624 39.7607 47.0239 39.7607C51.0853 39.7607 54.3895 36.4565 54.3895 32.395C54.3895 28.3335 51.0853 25.0293 47.0239 25.0293ZM47.0239 38.0031C43.9316 38.0031 41.4158 35.4873 41.4158 32.3951C41.4158 29.3029 43.9316 26.787 47.0239 26.787C50.1163 26.787 52.6319 29.3028 52.6319 32.3951C52.6319 35.4875 50.1161 38.0031 47.0239 38.0031Z" fill="black"/>
</g>
<defs>
<clipPath id="clip0_267_429">
<rect width="60" height="60" fill="white"/>
</clipPath>
</defs>
</svg>
