<svg width="60" height="60" viewBox="0 0 60 60" fill="none" xmlns="http://www.w3.org/2000/svg">
<g clip-path="url(#clip0_267_149)">
<path d="M35.7457 48.3484L22.5127 35.1154C21.6832 34.2859 21.6823 32.9442 22.5099 32.1166C22.8372 31.7893 23.246 31.5911 23.6713 31.5243C24.319 31.4194 25.0079 31.6176 25.5092 32.1189L22.1016 28.7118C21.6873 28.297 21.479 27.7546 21.4795 27.2126C21.4795 27.1 21.4886 26.9865 21.5065 26.8734C21.5747 26.4477 21.772 26.0398 22.0993 25.7125C22.4234 25.3884 22.8249 25.192 23.2442 25.1224C23.8155 25.0272 24.417 25.1664 24.8967 25.5404L23.5999 24.2435C23.1856 23.8293 22.9773 23.2845 22.9773 22.7425C22.9768 22.6276 22.9864 22.5114 23.0057 22.3978C23.0734 21.9753 23.2707 21.5693 23.5966 21.2434C23.9239 20.9161 24.3323 20.7183 24.7594 20.651C25.4071 20.5466 26.096 20.7449 26.5973 21.2461L28.0823 22.7311C27.5815 22.2303 27.3828 21.5409 27.4872 20.8932C27.5545 20.4679 27.7513 20.06 28.0795 19.7318C28.9067 18.9051 30.2498 18.9056 31.0788 19.7346L39.6783 28.3346L39.7026 28.3002C40.1384 27.8644 40.652 27.5545 41.1999 27.3696C42.5526 26.9141 44.1085 27.2254 45.1875 28.3044L49.1975 32.3144C49.9684 33.0852 50.4005 34.1294 50.4023 35.2179L50.4046 37.7265C50.4055 38.8988 50.872 40.0235 51.7024 40.8539L52.5968 41.7479L42.369 51.9753L41.2265 50.8327C40.4666 50.0728 39.4558 49.615 38.3842 49.545C37.3886 49.4795 36.4515 49.0547 35.7457 48.3484Z" fill="#FECBAA"/>
<path d="M41.7045 52.6396L53.3129 41.0312C53.6956 40.6485 54.3159 40.6485 54.6981 41.0312L58.8326 45.1652C59.2148 45.5479 59.2148 46.1677 58.8326 46.5504L47.2237 58.1593C46.8411 58.5415 46.2212 58.5415 45.8386 58.1593L41.7045 54.0248C41.3218 53.6425 41.3218 53.0223 41.7045 52.6396Z" fill="#FDD559"/>
<path d="M24.252 48.3499L37.4851 35.1169C38.3145 34.2874 38.315 32.9457 37.4873 32.1181C37.16 31.7903 36.7513 31.5925 36.3265 31.5253C35.6783 31.4209 34.9898 31.6191 34.4881 32.1203L37.8957 28.7128C38.3099 28.2985 38.5182 27.7556 38.5178 27.2136C38.5178 27.101 38.5091 26.9874 38.4908 26.8748C38.4226 26.4491 38.2253 26.0413 37.898 25.714C37.5743 25.3899 37.1724 25.1935 36.7531 25.1239C36.1818 25.0287 35.5803 25.1678 35.1006 25.5414L36.3974 24.2445C36.8117 23.8303 37.02 23.286 37.02 22.744C37.0204 22.6286 37.0108 22.5128 36.9916 22.3993C36.9238 21.9768 36.7265 21.5703 36.4006 21.2448C36.0733 20.9175 35.665 20.7193 35.2384 20.6525C34.5902 20.5481 33.9017 20.7459 33.4 21.2471L31.915 22.7321C32.4158 22.2317 32.6145 21.5424 32.5101 20.8942C32.4433 20.4694 32.246 20.0615 31.9177 19.7333C31.0906 18.9061 29.7475 18.907 28.9189 19.7356L20.3189 28.3356L20.2947 28.3017C19.8589 27.8659 19.3453 27.556 18.7973 27.3711C17.4451 26.9151 15.8887 27.2269 14.8098 28.3058L10.8002 32.3158C10.0294 33.0867 9.59677 34.1308 9.59539 35.2194L9.59265 37.7279C9.59219 38.9007 9.12573 40.025 8.29535 40.8554L7.40088 41.7494L17.6282 51.9767L18.7713 50.8341C19.5311 50.0743 20.5419 49.6165 21.6135 49.5465C22.6087 49.481 23.5457 49.0557 24.252 48.3499Z" fill="#FECBAA"/>
<path d="M18.2937 52.641L6.6848 41.0321C6.30211 40.6494 5.68184 40.6494 5.29961 41.0321L1.16509 45.1666C0.78286 45.5489 0.78286 46.1691 1.16509 46.5518L12.774 58.1602C13.1566 58.5429 13.7765 58.5429 14.1591 58.1602L18.2937 54.0262C18.6759 53.6435 18.6759 53.0232 18.2937 52.641Z" fill="#63DF99"/>
<path d="M38.4625 16.6357V35.3499C38.4625 36.5232 37.5145 37.4721 36.3435 37.4721C35.8807 37.4721 35.4518 37.3233 35.1035 37.0702C34.5715 36.6857 34.2245 36.059 34.2245 35.3499V40.1688C34.2245 40.7547 33.9879 41.2857 33.6047 41.6689C33.5251 41.7485 33.4386 41.8222 33.3456 41.8891C32.9964 42.1422 32.5688 42.291 32.106 42.291C31.6478 42.291 31.2248 42.1459 30.8788 41.8987C30.4077 41.5622 30.0809 41.0385 30.0058 40.4348V42.269C30.0058 42.855 29.7678 43.3869 29.3846 43.77C29.3041 43.852 29.2148 43.927 29.121 43.9939C28.774 44.2447 28.3478 44.3926 27.8868 44.3926C27.424 44.3926 26.9951 44.2433 26.6458 43.9893C26.1139 43.6048 25.7669 42.9781 25.7669 42.269V40.1688C25.7669 40.8765 25.4199 41.505 24.888 41.8891C24.5401 42.1422 24.1121 42.291 23.6484 42.291C22.4788 42.291 21.5294 41.3407 21.5294 40.1688V28.0065L21.4882 28.0138C20.8721 28.0138 20.2893 27.8696 19.7716 27.6128C18.4931 26.9788 17.6128 25.6582 17.6128 24.1325V18.4617C17.6128 17.3718 18.0454 16.3276 18.814 15.5563L20.586 13.7811C21.4145 12.9511 21.8796 11.826 21.8796 10.6518V9.38745H36.3435V11.0034C36.3435 12.0782 36.7349 13.1164 37.4426 13.9239C38.1004 14.6737 38.4625 15.6373 38.4625 16.6357Z" fill="#FEDFC5"/>
<path d="M37.4875 32.1181C37.1602 31.7903 36.7514 31.5925 36.3266 31.5253C35.6784 31.4209 34.99 31.6191 34.4887 32.1203L37.8963 28.7128C38.3106 28.2985 38.5184 27.7556 38.5184 27.2136C38.5184 27.101 38.5092 26.9874 38.4909 26.8748C38.4232 26.4487 38.2259 26.0413 37.8986 25.714C37.5745 25.3899 37.1726 25.1935 36.7533 25.1239C36.1824 25.0287 35.5809 25.1678 35.1012 25.5414L36.398 24.2445C36.8123 23.8303 37.0201 23.286 37.0201 22.744C37.0211 22.6286 37.011 22.5128 36.9918 22.3993C36.924 21.9768 36.7267 21.5703 36.4012 21.2448C36.0739 20.9175 35.6652 20.7193 35.2385 20.6525C34.5903 20.5481 33.9019 20.7459 33.4006 21.2471L31.9156 22.7321C32.416 22.2317 32.6151 21.5424 32.5103 20.8942C32.4434 20.4694 32.2461 20.0615 31.9179 19.7333C31.0907 18.9061 29.7477 18.907 28.9191 19.7356L20.3191 28.3356L20.2949 28.3017C19.8591 27.8659 19.3455 27.556 18.7975 27.3711C18.1489 27.1522 17.4531 27.1124 16.7856 27.247C17.3235 28.0595 18.0747 28.7334 18.9911 29.1879C19.2452 29.3138 19.5057 29.4195 19.7712 29.5051V40.1687C19.7712 42.3083 21.5102 44.0487 23.648 44.0487C23.9048 44.0487 24.1584 44.024 24.4051 43.975C24.6811 44.539 25.0922 45.0352 25.6109 45.4101C25.9327 45.6445 26.2838 45.8239 26.6532 45.9484L37.4848 35.1164C38.3147 34.2874 38.3156 32.9457 37.4875 32.1181Z" fill="#FFAE85"/>
<path d="M40.2188 35.3498V27.8658C40.0371 27.9931 39.8636 28.1382 39.7011 28.3007L39.6773 28.3346L31.0773 19.7346C30.2488 18.906 28.9052 18.9051 28.0785 19.7323C27.7503 20.0605 27.553 20.4679 27.4857 20.8932C27.3813 21.5414 27.5805 22.2308 28.0808 22.7311L26.5958 21.2461C26.0946 20.7449 25.4061 20.5471 24.7579 20.6515C24.3313 20.7183 23.9225 20.9165 23.5952 21.2438C23.2697 21.5693 23.0724 21.9758 23.0042 22.3983C22.9854 22.5118 22.9754 22.6277 22.9763 22.743C22.9763 23.285 23.1841 23.8293 23.5988 24.2436L24.8957 25.5404C24.4155 25.1669 23.814 25.0277 23.2432 25.1229C22.8239 25.1925 22.4219 25.3889 22.0978 25.713C21.7705 26.0403 21.5732 26.4477 21.5055 26.8739C21.4872 26.9865 21.478 27.1 21.478 27.2126C21.478 27.7546 21.6859 28.2975 22.1001 28.7118L25.5077 32.1194C25.0065 31.6181 24.318 31.4199 23.6698 31.5243C23.245 31.5916 22.8362 31.7893 22.5089 32.1166C21.6813 32.9447 21.6822 34.2864 22.5117 35.1159L31.3767 43.9809C31.6147 44.0262 31.8583 44.0491 32.105 44.0491C32.9262 44.0491 33.7117 43.7946 34.3727 43.3153C34.5417 43.1936 34.701 43.0576 34.8465 42.912C35.5785 42.1805 35.9813 41.2064 35.9813 40.1691V39.2138C36.1008 39.2248 36.2212 39.2303 36.3425 39.2303C38.4798 39.2298 40.2188 37.4894 40.2188 35.3498Z" fill="#FFAE85"/>
<path d="M38.4625 16.6357V35.3499C38.4625 36.5232 37.5145 37.4721 36.3435 37.4721C36.3119 37.4721 36.2781 37.4721 36.2437 37.4698C35.8208 37.4501 35.4285 37.306 35.1062 37.0716C35.1048 37.0716 35.1048 37.0702 35.1035 37.0702C34.5715 36.6857 34.2245 36.059 34.2245 35.3499V40.1688C34.2245 40.7547 33.9879 41.2857 33.6047 41.6689C33.5251 41.7485 33.4386 41.8222 33.3456 41.8891C32.9964 42.1422 32.5688 42.291 32.106 42.291C31.6478 42.291 31.2248 42.1459 30.8788 41.8987C30.4077 41.5622 30.0809 41.0385 30.0058 40.4348V42.269C30.0058 42.855 29.7678 43.3869 29.3846 43.77C29.3041 43.852 29.2148 43.927 29.121 43.9939C28.774 44.2447 28.3478 44.3926 27.8868 44.3926C27.424 44.3926 26.9951 44.2433 26.6458 43.9893C26.1139 43.6048 25.7669 42.9781 25.7669 42.269V40.1688C25.7669 40.8765 25.4199 41.505 24.888 41.8891C24.5401 42.1422 24.1121 42.291 23.6484 42.291C22.4788 42.291 21.5294 41.3407 21.5294 40.1688V28.0065L21.4882 28.0138C20.8721 28.0138 20.2893 27.8696 19.7716 27.6128C18.4931 26.9788 17.6128 25.6582 17.6128 24.1325V18.4617C17.6128 17.3718 18.0454 16.3276 18.814 15.5563L20.586 13.7811C21.0982 13.2674 21.4722 12.6417 21.6818 11.9596C21.8132 11.538 21.8796 11.0935 21.8796 10.6518V9.38745H36.3435V11.0034C36.3435 11.3654 36.382 11.7477 36.4832 12.0969C36.6516 12.7685 36.9798 13.3952 37.4426 13.9239C38.0945 14.6682 38.4625 15.6442 38.4625 16.6357Z" fill="#FEDFC5"/>
<path d="M38.4628 16.6357V35.3499C38.4628 36.5232 37.5148 37.4721 36.3438 37.4721C36.3122 37.4721 36.2784 37.4721 36.244 37.4698C35.821 37.4501 35.4287 37.306 35.1065 37.0716L35.1426 19.038C35.1426 18.9291 35.1179 18.7569 35.0721 18.5377C34.2637 14.5991 30.939 11.9596 26.918 11.9596H21.6821C21.8135 11.538 21.8799 11.0935 21.8799 10.6518V9.38745H36.3438V11.0034C36.3438 11.3654 36.3823 11.7477 36.4834 12.0969C36.6519 12.7685 36.9801 13.3952 37.4429 13.9239C38.0948 14.6682 38.4628 15.6442 38.4628 16.6357Z" fill="#FECBAA"/>
<path d="M37.2835 9.3878H20.8659C20.3253 9.3878 19.8867 8.94927 19.8867 8.40819V2.56164C19.8867 2.02057 20.3253 1.58203 20.8659 1.58203H37.2835C37.8242 1.58203 38.2627 2.02057 38.2627 2.56164V8.40819C38.2627 8.94927 37.8242 9.3878 37.2835 9.3878Z" fill="#00C2E6"/>
<path d="M24.6516 53.1898L24.4754 54.0508L24.6452 53.1889C24.1691 53.095 23.7068 53.4049 23.6129 53.881C23.5191 54.3575 23.829 54.8194 24.3055 54.9133C24.3069 54.9137 24.3202 54.916 24.3216 54.9165C24.3774 54.927 24.4328 54.9325 24.4877 54.9325C24.9011 54.9325 25.2696 54.6395 25.3497 54.2184C25.4412 53.7414 25.1286 53.2809 24.6516 53.1898Z" fill="black"/>
<path d="M31.3712 53.4722L31.4586 54.3465L31.3685 53.4726C30.8855 53.522 30.5344 53.9537 30.5843 54.4367C30.6305 54.8889 31.0123 55.2258 31.4573 55.2258C31.4875 55.2258 31.5181 55.224 31.5484 55.2213L31.5726 55.2185C32.0533 55.1622 32.3943 54.7287 32.3407 54.2481C32.2867 53.7679 31.8519 53.4218 31.3712 53.4722Z" fill="black"/>
<path d="M28.0067 53.5829C28.0067 53.5829 27.9943 53.5825 27.9938 53.5825C27.5095 53.5605 27.1049 53.9368 27.0829 54.4215C27.0614 54.9063 27.4422 55.3169 27.927 55.3389C27.9407 55.3398 27.954 55.3398 27.9678 55.3398C28.4347 55.3398 28.8238 54.9722 28.8448 54.5007C28.8668 54.016 28.4919 53.6049 28.0067 53.5829Z" fill="black"/>
<path d="M21.4049 52.2968L21.3939 52.2926C20.937 52.1288 20.439 52.3677 20.2751 52.8246C20.1108 53.2814 20.3534 53.7868 20.8102 53.9511C20.9087 53.9864 21.0089 54.0028 21.1073 54.0028C21.4676 54.0028 21.8059 53.7799 21.9345 53.421C22.0988 52.9642 21.8617 52.4606 21.4049 52.2968Z" fill="black"/>
<path d="M34.6882 52.857L34.9047 53.7089L34.6855 52.8579C34.2153 52.9788 33.9324 53.458 34.0533 53.9282C34.1554 54.3246 34.5124 54.5882 34.9038 54.5882C34.9766 54.5882 35.0503 54.5791 35.124 54.5599C35.1277 54.559 35.1432 54.5548 35.1473 54.5539C35.6138 54.4267 35.8866 53.9474 35.7621 53.48C35.6376 53.0131 35.1565 52.7352 34.6882 52.857Z" fill="black"/>
<path d="M37.8659 51.7488L38.2143 52.5554L37.8632 51.7497C37.4182 51.9438 37.2145 52.4615 37.4082 52.9065C37.5524 53.2374 37.8755 53.4347 38.2147 53.4347C38.3315 53.4347 38.451 53.4109 38.5649 53.3615C38.5686 53.3597 38.5828 53.3537 38.5865 53.3519C39.0273 53.1527 39.2218 52.6364 39.025 52.1946C38.8282 51.7524 38.309 51.5542 37.8659 51.7488Z" fill="black"/>
<path d="M18.048 11.6836C18.189 11.6836 18.3323 11.6497 18.4646 11.5792C18.893 11.3508 19.0546 10.8184 18.8262 10.39C18.5978 9.96196 18.0658 9.79946 17.6374 10.0283L17.6268 10.0338C17.1988 10.2623 17.0418 10.7919 17.2702 11.2204C17.4277 11.5161 17.7335 11.6836 18.048 11.6836Z" fill="black"/>
<path d="M7.88142 21.5002C8.01188 21.5684 8.1515 21.6009 8.28929 21.6009C8.6056 21.6009 8.91139 21.4297 9.0684 21.1299L9.08396 21.0992C9.2982 20.6634 9.11875 20.1365 8.68296 19.9227C8.25038 19.7094 7.72761 19.8852 7.51063 20.315C7.28633 20.7444 7.45204 21.275 7.88142 21.5002Z" fill="black"/>
<path d="M6.64394 24.8066C6.73733 24.8382 6.83208 24.8533 6.92593 24.8533C7.29214 24.8533 7.63408 24.6221 7.75814 24.2559L7.76958 24.2211C7.9124 23.7574 7.65194 23.2653 7.18777 23.1229C6.72771 22.981 6.23928 23.2365 6.09234 23.6942C5.93807 24.1534 6.18481 24.6514 6.64394 24.8066Z" fill="black"/>
<path d="M9.61528 18.4255C9.77138 18.539 9.95219 18.594 10.1316 18.594C10.4031 18.594 10.6713 18.4681 10.843 18.2319L10.8544 18.2163C11.1364 17.8217 11.0444 17.2742 10.6507 16.9923C10.2566 16.7098 9.70729 16.8005 9.42439 17.1941L10.1326 17.7151L9.42165 17.1978C9.136 17.5906 9.22298 18.1403 9.61528 18.4255Z" fill="black"/>
<path d="M15.0642 13.5819C15.2487 13.5819 15.4346 13.5237 15.5934 13.4029C15.9853 13.1163 16.07 12.5665 15.7834 12.1747C15.4964 11.7828 14.9466 11.6982 14.5552 11.9847L14.5332 12.0007C14.1469 12.2942 14.07 12.8467 14.3634 13.2335C14.5364 13.4615 14.7987 13.5819 15.0642 13.5819Z" fill="black"/>
<path d="M5.85953 38.1359C5.9758 38.5135 6.32279 38.7557 6.69815 38.7557C6.78376 38.7557 6.87119 38.7429 6.95725 38.7163C7.41867 38.5749 7.67914 38.086 7.5409 37.6236C7.4086 37.1622 6.93024 36.8912 6.46469 37.018C5.9964 37.1457 5.72037 37.6291 5.84809 38.0974C5.85083 38.1066 5.85679 38.1267 5.85953 38.1359Z" fill="black"/>
<path d="M12.4088 15.8982C12.6372 15.8982 12.8657 15.8099 13.0382 15.6341C13.3811 15.2908 13.3811 14.7341 13.0382 14.3913C12.6949 14.048 12.1383 14.048 11.7949 14.3913L11.7803 14.4059C11.4406 14.7525 11.4475 15.3082 11.794 15.6478C11.9648 15.8154 12.1868 15.8982 12.4088 15.8982Z" fill="black"/>
<path d="M6.83083 34.304C6.76903 33.8265 6.33278 33.4878 5.85488 33.5445C5.37331 33.6022 5.02907 34.0394 5.08629 34.5214L5.09133 34.5567C5.15542 34.9934 5.53032 35.3065 5.95925 35.3065C6.00136 35.3065 6.04439 35.3033 6.08788 35.2969C6.56624 35.2273 6.89812 34.7823 6.83083 34.304Z" fill="black"/>
<path d="M5.72669 31.7866C5.73585 31.7866 5.74454 31.787 5.75324 31.787C6.22657 31.787 6.6175 31.4103 6.63123 30.9338L6.63215 30.8962C6.63215 30.4106 6.23847 30.0173 5.75324 30.0173C5.27122 30.0173 4.88029 30.4046 4.87434 30.8848C4.86152 31.3691 5.24284 31.7724 5.72669 31.7866Z" fill="black"/>
<path d="M5.91949 28.2618C5.97213 28.271 6.02386 28.2755 6.07558 28.2755C6.49306 28.2755 6.86339 27.9766 6.93984 27.5514C6.94213 27.5385 6.94396 27.5257 6.94579 27.5129C7.01674 27.0327 6.68486 26.5859 6.20421 26.5154C5.72951 26.4449 5.28503 26.7713 5.20858 27.2446C5.12527 27.7216 5.44295 28.1762 5.91949 28.2618Z" fill="black"/>
<path d="M47.3788 18.7029C47.5491 18.9501 47.8228 19.0824 48.1021 19.0824C48.2737 19.0824 48.4477 19.032 48.5997 18.9272C48.9993 18.6525 49.1005 18.105 48.8258 17.7049L48.0952 18.1938L48.823 17.7008C48.5502 17.2989 48.0037 17.1941 47.6022 17.4665C47.2003 17.7388 47.0955 18.2854 47.3678 18.6873L47.3788 18.7029Z" fill="black"/>
<path d="M51.867 27.5473C51.3846 27.6013 51.0376 28.0367 51.0921 28.5191L51.0966 28.5571C51.1593 28.9952 51.5356 29.3115 51.9659 29.3115C52.0071 29.3115 52.0492 29.3088 52.0914 29.3028C52.5679 29.2346 52.9002 28.7956 52.8384 28.3196C52.783 27.8385 52.3463 27.4933 51.867 27.5473Z" fill="black"/>
<path d="M50.3841 25.0671L50.3877 25.0786C50.5003 25.4617 50.8505 25.7098 51.2305 25.7098C51.3124 25.7098 51.3957 25.6984 51.4786 25.6736C51.9446 25.5368 52.211 25.0483 52.0741 24.5823L52.0705 24.5709C51.9336 24.1049 51.4451 23.8385 50.9791 23.9758C50.5136 24.1127 50.2472 24.6011 50.3841 25.0671Z" fill="black"/>
<path d="M49.1424 21.7808C49.2958 22.0925 49.6094 22.2742 49.9353 22.2742C50.0648 22.2742 50.1967 22.2454 50.3207 22.1841C50.7561 21.9698 50.9369 21.4461 50.7222 21.0104L49.9257 21.3816L50.7213 21.0085C50.5153 20.5691 49.9921 20.38 49.5526 20.586C49.1131 20.792 48.9236 21.3152 49.1296 21.7547L49.1424 21.7808Z" fill="black"/>
<path d="M45.1649 15.9581C45.3371 16.1338 45.5646 16.2217 45.7925 16.2217C46.0146 16.2217 46.2366 16.1384 46.4078 15.9704C46.752 15.6335 46.7598 15.0828 46.4279 14.7358C46.0988 14.3811 45.544 14.3595 45.1878 14.6882C44.8312 15.0174 44.8093 15.5735 45.1384 15.9301L45.1649 15.9581Z" fill="black"/>
<path d="M52.1531 31.2171C51.6701 31.2047 51.2659 31.5833 51.249 32.0662C51.227 32.5474 51.5964 32.957 52.078 32.9841C52.0949 32.985 52.1109 32.9854 52.1279 32.9854C52.5907 32.9854 52.9784 32.6233 53.0045 32.155L53.0059 32.1189C53.0196 31.6341 52.6378 31.2313 52.1531 31.2171Z" fill="black"/>
<path d="M39.5449 11.6424L39.566 11.6538C39.6969 11.7234 39.8375 11.7564 39.9757 11.7564C40.2883 11.7564 40.5909 11.5879 40.7498 11.2926C40.9787 10.8665 40.8175 10.3336 40.3927 10.1029L39.9675 10.872L40.39 10.1011C39.9643 9.86762 39.43 10.0237 39.1966 10.4494C38.9636 10.8747 39.1192 11.4094 39.5449 11.6424Z" fill="black"/>
<path d="M42.5177 13.57L42.5314 13.5805C42.6902 13.7009 42.8766 13.759 43.062 13.759C43.3275 13.759 43.5898 13.6391 43.7628 13.4111C44.0562 13.0243 43.9802 12.4732 43.5939 12.1797L43.5879 12.1756C43.2029 11.8799 42.6513 11.9522 42.3556 12.3372C42.0599 12.7222 42.1327 13.2742 42.5177 13.57Z" fill="black"/>
<path d="M59.4574 44.5229L55.3316 40.3898C54.9805 40.0382 54.5141 39.8446 54.0174 39.8446C53.5212 39.8446 53.0543 40.0382 52.7036 40.3898L52.6079 40.4855L52.3369 40.2145C52.0023 39.8789 51.7432 39.4885 51.5674 39.0632C51.5519 39.0069 51.5313 38.952 51.5047 38.9002C51.3701 38.5221 51.3001 38.1197 51.3001 37.7064V36.5373C51.3802 36.5794 51.4677 36.61 51.5615 36.6261C51.6118 36.6348 51.6617 36.6389 51.7112 36.6389C52.1282 36.6389 52.4972 36.3413 52.5745 35.9184C52.6684 35.4432 52.3603 34.9813 51.8847 34.8861C51.6755 34.8445 51.4686 34.8806 51.2946 34.9749C51.2406 33.7261 50.7302 32.5598 49.8421 31.6699L45.8395 27.6603C44.9413 26.7608 43.747 26.2655 42.4767 26.2655C41.4935 26.2655 40.5569 26.5635 39.7668 27.1151L39.342 26.688V16.6356C39.342 15.4239 38.9021 14.2547 38.1037 13.3442C37.5356 12.697 37.223 11.8657 37.223 11.0032V10.2667H37.2834C38.3079 10.2667 39.1415 9.43312 39.1415 8.40819V2.56164C39.1415 1.53671 38.3079 0.703125 37.2834 0.703125H20.8657C19.8413 0.703125 19.0077 1.53671 19.0077 2.56164V8.40819C19.0077 9.43312 19.8413 10.2667 20.8657 10.2667H21.0012V10.6521C21.0012 11.5997 20.6327 12.4905 19.964 13.1602L18.192 14.9354C17.2517 15.8775 16.734 17.1295 16.734 18.4616V24.1319C16.734 24.9023 16.9189 25.6297 17.2444 26.2742C16.0789 26.3415 14.9926 26.8272 14.1604 27.6603L10.1578 31.6699C9.21751 32.6119 8.69978 33.8644 8.69978 35.196V37.7064C8.69978 38.654 8.33174 39.5448 7.66295 40.2145L7.39516 40.4827C7.39379 40.4836 7.39287 40.4845 7.39195 40.4855L7.29674 40.3898C6.94564 40.0382 6.47918 39.8446 5.9825 39.8446C5.48629 39.8446 5.01937 40.0382 4.66872 40.3898L0.542449 44.5229C-0.180816 45.2476 -0.180816 46.4268 0.542449 47.1514L1.95556 48.5664C2.29843 48.9101 2.85507 48.9106 3.19839 48.5677C3.54171 48.2244 3.54263 47.6682 3.1993 47.3244L1.78665 45.909C1.74682 45.8692 1.74682 45.8047 1.78665 45.7648L5.91292 41.6317C5.95138 41.5933 6.01409 41.5928 6.05254 41.6317L6.76986 42.3504H6.77031L16.5651 52.1621L17.6623 53.2616C17.7021 53.3014 17.7021 53.366 17.6623 53.4058L13.5365 57.539C13.4976 57.5779 13.4349 57.5779 13.3964 57.539L5.6877 49.817C5.34484 49.4732 4.7882 49.4727 4.44488 49.8156C4.1011 50.1589 4.10064 50.7151 4.4435 51.0589L12.1527 58.7809C12.5033 59.1324 12.9703 59.3261 13.4669 59.3261C13.9631 59.3261 14.4296 59.1324 14.7807 58.7809L18.9065 54.6477C19.6298 53.9235 19.6298 52.7444 18.9065 52.0197L18.8617 51.9749L19.3821 51.4535C19.99 50.8442 20.7975 50.478 21.6558 50.4226C22.8639 50.3443 24.0005 49.8289 24.8561 48.9715L28.6463 45.173C29.7395 44.8859 30.5905 43.9956 30.8216 42.8805C31.2112 43.0659 31.6465 43.1702 32.1061 43.1702C33.7591 43.1702 35.104 41.824 35.104 40.1687V38.0818C35.4821 38.2543 35.9019 38.3514 36.3441 38.3514C37.9971 38.3514 39.3415 37.0051 39.3415 35.3498V29.1801L42.0451 31.8969C42.2167 32.0695 42.4424 32.1556 42.6681 32.1556C42.8924 32.1556 43.1167 32.0704 43.2883 31.8997C43.6321 31.5573 43.6335 31.0011 43.2911 30.6568L41.0371 28.3918C41.4733 28.1515 41.965 28.0233 42.4767 28.0233C43.2769 28.0233 44.0295 28.3355 44.5953 28.9027L48.5979 32.9118C49.2068 33.522 49.5423 34.3331 49.5423 35.196V37.7064C49.5423 39.1232 50.093 40.4548 51.0927 41.4564L51.3656 41.7297L50.0907 43.0068L42.3801 50.7307L41.9503 50.2999C41.9457 50.2958 41.9416 50.2912 41.937 50.2871L41.8615 50.2111C40.9515 49.2997 39.7425 48.7517 38.458 48.6684C37.6766 48.6176 36.9415 48.2844 36.3853 47.7277L33.4973 44.8553C33.153 44.5129 32.5964 44.5142 32.254 44.8585C31.912 45.2027 31.9134 45.7593 32.2576 46.1013L35.1438 48.9715C35.9994 49.8289 37.136 50.3443 38.3445 50.4226C39.2024 50.478 40.0098 50.8442 40.6178 51.453L40.6603 51.4956C40.6832 51.5217 40.7075 51.5459 40.7331 51.5688L41.1382 51.9744L41.0934 52.0197C40.3701 52.7444 40.3701 53.9231 41.0934 54.6477L45.2192 58.7809C45.5703 59.1324 46.0368 59.3261 46.5334 59.3261C47.0296 59.3261 47.4966 59.1324 47.8477 58.7809L59.4574 47.1509C60.1807 46.4263 60.1807 45.2476 59.4574 44.5229ZM51.8893 35.7833L51.8728 35.7806L51.7126 35.7481L51.8893 35.7833ZM23.6119 47.7296C23.0584 48.2844 22.3233 48.6176 21.5423 48.6684C20.2574 48.7517 19.0484 49.2997 18.1384 50.2111L17.6198 50.7307L17.1528 50.2628C17.1469 50.2569 17.1409 50.2505 17.135 50.245L8.63432 41.7297L8.90715 41.4564C9.9069 40.4548 10.4576 39.1232 10.4576 37.7064V35.196C10.4576 34.3331 10.7927 33.522 11.402 32.9118L15.4046 28.9027C15.9704 28.3355 16.723 28.0233 17.5232 28.0233C18.0363 28.0233 18.5298 28.1524 18.9674 28.3946L16.7097 30.6559C16.3669 30.9992 16.3673 31.5559 16.7106 31.8987C16.8823 32.07 17.1071 32.1556 17.3318 32.1556C17.557 32.1556 17.7823 32.0695 17.9539 31.8978L20.6506 29.1961V40.1687C20.6506 41.824 21.9955 43.1702 23.6485 43.1702C24.1145 43.1702 24.5558 43.0631 24.9494 42.8727C25.128 43.7438 25.6846 44.4781 26.439 44.8965L23.6119 47.7296ZM37.5842 35.3503C37.5842 36.036 37.0275 36.594 36.3441 36.594C35.6602 36.594 35.104 36.036 35.104 35.3503V25.5464C35.104 25.0611 34.7108 24.6675 34.2251 24.6675C33.7394 24.6675 33.3462 25.0611 33.3462 25.5464V40.1692C33.3462 40.8549 32.79 41.4124 32.1061 41.4124C31.4923 41.4124 30.9828 40.9629 30.8843 40.3747V25.5363C30.8843 25.0506 30.4911 24.6574 30.0054 24.6574C29.8493 24.6574 29.7024 24.6986 29.5751 24.77C29.2973 24.9179 29.1082 25.2099 29.1082 25.5464V40.1687C29.1082 40.2804 29.1146 40.3898 29.1265 40.4983V42.2694C29.1265 42.9551 28.5704 43.5131 27.8865 43.5131C27.203 43.5131 26.6468 42.9551 26.6468 42.2694V25.5258C26.6468 25.0405 26.2532 24.6469 25.7679 24.6469C25.2822 24.6469 24.8886 25.0405 24.8886 25.5258V40.1687C24.8886 40.8544 24.3324 41.4124 23.6489 41.4124C22.965 41.4124 22.4089 40.8544 22.4089 40.1687V23.8197C22.4089 23.334 22.0152 22.9403 21.53 22.9403C21.0443 22.9403 20.6511 23.334 20.6511 23.8197V26.8437C20.5774 26.8675 20.5059 26.9009 20.4396 26.9448C19.3029 26.5177 18.4918 25.4182 18.4918 24.1319V18.4616C18.4918 17.5987 18.8273 16.7875 19.4362 16.1773L21.2082 14.4021C22.2084 13.4006 22.7591 12.0689 22.7591 10.6521V10.2667H24.526C25.0117 10.2667 25.4049 9.87303 25.4049 9.3878C25.4049 8.90212 25.0117 8.5089 24.526 8.5089H20.8657C20.8104 8.5089 20.7655 8.46358 20.7655 8.40819V2.56164C20.7655 2.50625 20.8104 2.46093 20.8657 2.46093H37.283C37.3388 2.46093 37.3837 2.50625 37.3837 2.56164V8.40819C37.3837 8.46404 37.3388 8.5089 37.283 8.5089H28.6523C28.1671 8.5089 27.7734 8.90212 27.7734 9.3878C27.7734 9.87303 28.1671 10.2667 28.6523 10.2667H35.4652V11.0032C35.4652 12.2923 35.9326 13.5351 36.7817 14.5038C37.299 15.0934 37.5842 15.8505 37.5842 16.6356V35.3503ZM58.2132 45.909L46.6035 57.539C46.5842 57.5586 46.5609 57.5683 46.5334 57.5683C46.5064 57.5683 46.4831 57.5586 46.4634 57.539L42.3376 53.4058C42.2977 53.366 42.2977 53.3014 42.3376 53.2616L43.0018 52.596L43.0022 52.5956L49.7419 45.8445L53.9474 41.6317C53.9858 41.5928 54.0485 41.5928 54.087 41.6317L58.2132 45.7648C58.2531 45.8047 58.2531 45.8692 58.2132 45.909Z" fill="black"/>
<path d="M23.6486 4.54736C23.1327 4.54736 22.7129 4.96805 22.7129 5.48486C22.7129 6.00213 23.1327 6.42236 23.6486 6.42236C24.1649 6.42236 24.5847 6.00213 24.5847 5.48486C24.5847 4.96805 24.1649 4.54736 23.6486 4.54736Z" fill="black"/>
<path d="M54.3048 44.6118C53.7884 44.6118 53.3687 45.0325 53.3687 45.5493C53.3687 46.0661 53.7884 46.4868 54.3048 46.4868C54.8207 46.4868 55.2404 46.0661 55.2404 45.5493C55.2404 45.0325 54.8207 44.6118 54.3048 44.6118Z" fill="black"/>
<path d="M14.6467 53.5784C14.6467 53.0616 14.2269 52.6409 13.711 52.6409C13.1947 52.6409 12.7749 53.0616 12.7749 53.5784C12.7749 54.0952 13.1947 54.5159 13.711 54.5159C14.2269 54.5159 14.6467 54.0952 14.6467 53.5784Z" fill="black"/>
</g>
<defs>
<clipPath id="clip0_267_149">
<rect width="60" height="60" fill="white"/>
</clipPath>
</defs>
</svg>
