<svg width="60" height="60" viewBox="0 0 60 60" fill="none" xmlns="http://www.w3.org/2000/svg">
<g clip-path="url(#clip0_267_189)">
<path d="M43.8564 29.1422V30.3562C43.8564 32.095 43.3116 33.7892 42.2984 35.2017L39.7647 38.738V57.382C39.7647 58.3419 38.9866 59.12 38.0267 59.12H19.9606C19.0008 59.12 18.2227 58.342 18.2227 57.382V44.8115V16.2561H43.8564V29.1422Z" fill="#FED2A4"/>
<path d="M43.8564 17.4817V16.2561H20.12H18.2227V44.8115V57.382C18.2227 58.3419 19.0007 59.1199 19.9606 59.1199H26.7494C26.6995 58.958 26.6724 58.786 26.6724 58.6077V46.8039C28.7782 45.529 30.1889 43.2158 30.1889 40.5791V37.0801C30.1889 34.1428 29.0456 31.3818 26.9685 29.3047C26.8716 29.208 26.7725 29.1137 26.6724 29.0208V17.4817H43.8564Z" fill="#FFBD86"/>
<path d="M56.1052 2.80493C56.8161 2.80493 57.3926 3.38129 57.3926 4.09231V27.7336C57.3926 28.4445 56.8162 29.0209 56.1052 29.0209H3.8942C3.18329 29.0209 2.60693 28.4445 2.60693 27.7336V4.09231C2.60693 3.38129 3.18329 2.80493 3.8942 2.80493H56.1052Z" fill="#63DF99"/>
<path d="M14.5681 27.7336V4.09231C14.5681 3.38129 15.1445 2.80493 15.8554 2.80493H3.8942C3.18329 2.80493 2.60693 3.38129 2.60693 4.09231V27.7336C2.60693 28.4445 3.18329 29.0209 3.8942 29.0209H15.8554C15.1445 29.0209 14.5681 28.4445 14.5681 27.7336Z" fill="#63DF99"/>
<path d="M20.2756 16.4045C19.0794 15.206 17.4876 14.5459 15.7934 14.5459C15.7503 14.5459 15.7068 14.5464 15.6632 14.5472C12.2411 14.6168 9.45703 17.4893 9.45703 20.9504V29.0208H26.6725C25.4471 27.8851 23.9783 27.0446 22.3932 26.5613C22.2378 26.514 22.1301 26.373 22.1301 26.2106V20.8824C22.1301 19.1885 21.4701 17.5966 20.2756 16.4045Z" fill="#63DF99"/>
<path d="M51.2919 6.32715C51.2919 7.75131 52.4464 8.90578 53.8706 8.90578V22.92C52.4464 22.92 51.2919 24.0744 51.2919 25.4986H8.70803C8.70803 24.0744 7.55355 22.92 6.12939 22.92V8.90578C7.55355 8.90578 8.70803 7.75131 8.70803 6.32715H51.2919Z" fill="#DBF1D0"/>
<path d="M20.2759 16.4045C19.0797 15.206 17.4879 14.546 15.7937 14.546C15.7506 14.546 15.7071 14.5464 15.6635 14.5472C15.6598 14.5474 15.656 14.5474 15.6522 14.5475C15.0603 14.5606 14.5682 14.0975 14.5682 13.5052V6.32715H8.70803C8.70803 7.75131 7.55355 8.90578 6.12939 8.90578V22.92C7.55355 22.92 8.70803 24.0744 8.70803 25.4986H22.1304V20.8825C22.1304 19.1885 21.4704 17.5967 20.2759 16.4045Z" fill="#D5EFC8"/>
<path d="M30.0073 22.2217C33.7984 22.2217 36.8716 19.1485 36.8716 15.3574C36.8716 11.5664 33.7984 8.49316 30.0073 8.49316C26.2163 8.49316 23.1431 11.5664 23.1431 15.3574C23.1431 19.1485 26.2163 22.2217 30.0073 22.2217Z" fill="#63DF99"/>
<path d="M40.5471 2.88032V6.32625C40.5471 7.95587 39.2251 9.27671 37.5955 9.27671C35.9659 9.27671 34.645 7.95587 34.645 6.32625V2.88032C34.645 1.77551 35.5408 0.880859 36.6457 0.880859H38.5465C39.6513 0.880859 40.5471 1.77551 40.5471 2.88032Z" fill="#FED2A4"/>
<path d="M34.6451 6.32625V7.54729C34.6451 9.17692 33.3242 10.4978 31.6946 10.4978C30.065 10.4978 28.7441 9.17692 28.7441 7.54729V2.88032C28.7441 1.77551 29.6388 0.880859 30.7436 0.880859H32.6456C33.7504 0.880859 34.6451 1.77551 34.6451 2.88032V6.32625Z" fill="#FED2A4"/>
<path d="M28.7439 7.54729V8.54174C28.7439 10.1714 27.4219 11.4922 25.7923 11.4922C24.1626 11.4922 22.8418 10.1714 22.8418 8.54174V7.54729V2.88032C22.8418 1.77551 23.7376 0.880859 24.8424 0.880859H26.7433C27.8481 0.880859 28.7439 1.77551 28.7439 2.88032V7.54729Z" fill="#FED2A4"/>
<path d="M22.8418 2.88032V7.54729C22.8418 9.17692 21.521 10.4978 19.8914 10.4978C18.2618 10.4978 16.9409 9.17692 16.9409 7.54729V2.88032C16.9409 1.77551 17.8356 0.880859 18.9404 0.880859H20.8424C21.9472 0.880859 22.8418 1.77551 22.8418 2.88032Z" fill="#FED2A4"/>
<path d="M37.4851 6.32625V2.88032C37.4851 1.93753 38.1431 1.14878 39.0209 0.937333C38.8701 0.900936 38.7085 0.880859 38.5465 0.880859H36.6457C35.5408 0.880859 34.645 1.77551 34.645 2.88032V6.32625C34.645 7.95587 35.9659 9.27671 37.5955 9.27671C38.1103 9.27671 38.5943 9.14463 39.0157 8.91286C38.1034 8.41106 37.4851 7.44104 37.4851 6.32625Z" fill="#FFBD86"/>
<path d="M31.5842 7.54729V2.88032C31.5842 1.93741 32.2415 1.14843 33.1194 0.937215C32.9687 0.900936 32.8075 0.880859 32.6456 0.880859H30.7436C29.6388 0.880859 28.7441 1.77551 28.7441 2.88032V7.54729C28.7441 9.17692 30.065 10.4978 31.6946 10.4978C32.2094 10.4978 32.6933 10.3657 33.1147 10.1338C32.2025 9.63199 31.5842 8.66196 31.5842 7.54729Z" fill="#FFBD86"/>
<path d="M25.6819 8.54174V7.54729V2.88032C25.6819 1.93753 26.3414 1.14914 27.2192 0.937802C27.0684 0.901406 26.9053 0.880859 26.7433 0.880859H24.8424C23.7376 0.880859 22.8418 1.77551 22.8418 2.88032V7.54729V8.54174C22.8418 10.1714 24.1626 11.4922 25.7923 11.4922C26.3071 11.4922 26.7911 11.3601 27.2124 11.1284C26.3002 10.6266 25.6819 9.65653 25.6819 8.54174Z" fill="#FFBD86"/>
<path d="M19.781 7.54729V2.88032C19.781 1.93741 20.4386 1.14855 21.3165 0.937333C21.1658 0.901054 21.0043 0.880859 20.8424 0.880859H18.9404C17.8356 0.880859 16.9409 1.77551 16.9409 2.88032V7.54729C16.9409 9.17692 18.2618 10.4978 19.8914 10.4978C20.4062 10.4978 20.8902 10.3657 21.3114 10.1338C20.3993 9.63199 19.781 8.66196 19.781 7.54729Z" fill="#FFBD86"/>
<path d="M27.2536 40.579C27.2536 43.0113 25.2532 44.9677 22.8216 44.9136L18.2226 44.8114L14.1943 40.7831C13.0402 39.629 12.3921 38.0639 12.3921 36.4331V20.9505C12.3921 19.0882 13.8607 17.5197 15.7227 17.4819C16.6899 17.4623 17.5673 17.8461 18.1979 18.478C18.8143 19.0932 19.1947 19.9433 19.1947 20.8825V28.1341C19.1947 28.6146 19.5587 29.0151 20.0366 29.0647C21.9255 29.2608 23.6209 30.1093 24.8937 31.3812C26.3519 32.8394 27.2536 34.8541 27.2536 37.0801V40.579Z" fill="#FED2A4"/>
<path d="M22.2729 44.3154L22.274 44.3144L18.7427 40.7831C17.5886 39.629 16.9405 38.0639 16.9405 36.4331V20.9505C16.9405 19.9338 17.3789 19.0053 18.0795 18.3649C17.4597 17.8008 16.6309 17.4635 15.7227 17.4819C13.8607 17.5197 12.3921 19.0882 12.3921 20.9505V36.4332C12.3921 38.064 13.0402 39.6291 14.1943 40.7832L18.2226 44.8115L22.8216 44.9137C22.8381 44.9141 22.8544 44.9133 22.8709 44.9135L22.2729 44.3154Z" fill="#FFBD86"/>
<path d="M56.1054 1.92444H52.2551C51.7687 1.92444 51.3746 2.31858 51.3746 2.805C51.3746 3.29142 51.7687 3.68556 52.2551 3.68556H56.1054C56.3297 3.68556 56.5122 3.86801 56.5122 4.09226V27.7336C56.5122 27.9578 56.3297 28.1403 56.1054 28.1403H20.0753V26.3792H43.8562C44.3426 26.3792 44.7368 25.9851 44.7368 25.4987C44.7368 25.0123 44.3426 24.6181 43.8562 24.6181H20.0753V20.8828C20.0753 18.5221 18.1547 16.6013 15.7937 16.6013C13.433 16.6013 11.5122 18.5219 11.5122 20.8828V24.6181H9.47503C9.15861 23.4172 8.21089 22.4694 7.00993 22.153V15.8965C7.00993 15.41 6.61579 15.0159 6.12937 15.0159C5.64294 15.0159 5.24881 15.41 5.24881 15.8965V22.9201C5.24881 23.4065 5.64294 23.8006 6.12937 23.8006C7.0657 23.8006 7.82744 24.5624 7.82744 25.4987C7.82744 25.9851 8.22158 26.3792 8.708 26.3792H11.5123V28.1403H3.89439C3.67014 28.1403 3.48768 27.9578 3.48768 27.7336V4.09214C3.48768 3.86789 3.67014 3.68544 3.89439 3.68544H16.0599V5.44656H8.708C8.22158 5.44656 7.82744 5.8407 7.82744 6.32712C7.82744 7.26345 7.0657 8.0252 6.12937 8.0252C5.64294 8.0252 5.24881 8.41933 5.24881 8.90576V12.1436C5.24881 12.6301 5.64294 13.0242 6.12937 13.0242C6.61579 13.0242 7.00993 12.6301 7.00993 12.1436V9.6729C8.21089 9.35649 9.15861 8.40877 9.47503 7.2078H16.0599V7.54723C16.0599 9.65975 17.7786 11.3785 19.8912 11.3785C20.8712 11.3785 21.766 11.0083 22.4443 10.4008C23.0994 11.5761 24.3545 12.3732 25.7929 12.3732C27.2311 12.3732 28.4863 11.5761 29.1414 10.4008C29.8196 11.0082 30.7144 11.3785 31.6944 11.3785C33.1951 11.3785 34.4963 10.5107 35.1247 9.25105C35.7924 9.81614 36.6548 10.1579 37.5959 10.1579C39.4052 10.1579 40.9245 8.89695 41.3237 7.20792H50.525C50.8414 8.40889 51.7891 9.3566 52.9901 9.67302V22.1531C51.7891 22.4696 50.8414 23.4173 50.525 24.6182H47.6089C47.1225 24.6182 46.7284 25.0124 46.7284 25.4988C46.7284 25.9852 47.1225 26.3794 47.6089 26.3794H51.292C51.7785 26.3794 52.1726 25.9852 52.1726 25.4988C52.1726 24.5625 52.9343 23.8007 53.8707 23.8007C54.3571 23.8007 54.7512 23.4066 54.7512 22.9202V8.90587C54.7512 8.41945 54.3571 8.02531 53.8707 8.02531C52.9343 8.02531 52.1726 7.26357 52.1726 6.32724C52.1726 5.84082 51.7785 5.44668 51.292 5.44668H41.4273V3.68556H48.5027C48.9891 3.68556 49.3832 3.29142 49.3832 2.805C49.3832 2.31858 48.9891 1.92444 48.5027 1.92444H41.2635C40.8681 0.804715 39.7999 0 38.5466 0H36.6449C35.8686 0 35.1636 0.309253 34.6451 0.810351C34.1266 0.309253 33.4215 0 32.6452 0H30.7435C29.9672 0 29.262 0.309253 28.7436 0.810351C28.225 0.309253 27.5199 0 26.7435 0H24.842C24.0657 0 23.3605 0.309253 22.8421 0.810351C22.3235 0.309253 21.6184 0 20.8421 0H18.9405C17.6873 0 16.619 0.804715 16.2238 1.92444H3.89439C2.69905 1.92444 1.72656 2.89693 1.72656 4.09226V27.7336C1.72656 28.9289 2.69905 29.9014 3.89439 29.9014H11.5123V36.4327C11.5123 38.3112 12.2437 40.0773 13.572 41.4055L17.3425 45.1759V59.1194C17.3425 59.6059 17.7367 60 18.2231 60C18.7095 60 19.1037 59.6059 19.1037 59.1194V44.8113C19.1037 44.5777 19.0109 44.3538 18.8458 44.1885L14.8173 40.16C13.8217 39.1645 13.2734 37.8406 13.2734 36.4326V20.8827C13.2734 19.4929 14.4041 18.3623 15.7938 18.3623C17.1836 18.3623 18.3143 19.4929 18.3143 20.8827V29.0208C18.3143 29.5072 18.7085 29.9014 19.1949 29.9014C23.1535 29.9014 26.374 33.122 26.374 37.0805V37.6447C26.374 38.1311 26.7682 38.5252 27.2546 38.5252C27.741 38.5252 28.1352 38.1311 28.1352 37.6447V37.0805C28.1352 34.1422 26.7092 31.5318 24.5142 29.9013H42.9757V30.3562C42.9757 31.9196 42.4942 33.4179 41.5834 34.6886L39.0488 38.2249C38.9416 38.3744 38.884 38.5539 38.884 38.7379V59.1193C38.884 59.6057 39.2781 59.9999 39.7646 59.9999C40.251 59.9999 40.6451 59.6057 40.6451 59.1193V39.021L43.0149 35.7147C44.1415 34.143 44.7369 32.2902 44.7369 30.3563V29.9014H56.1055C57.301 29.9014 58.2735 28.9289 58.2735 27.7336V4.09214C58.2734 2.89693 57.3009 1.92444 56.1054 1.92444ZM36.6449 1.76112H38.5466C39.1638 1.76112 39.6659 2.26328 39.6659 2.88049V6.32642C39.6659 7.46798 38.7372 8.39668 37.5957 8.39668C36.4541 8.39668 35.5255 7.46798 35.5255 6.32642V2.88049C35.5257 2.26328 36.0277 1.76112 36.6449 1.76112ZM30.7435 1.76112H32.6452C33.2624 1.76112 33.7645 2.26328 33.7645 2.88049V7.54711C33.7645 8.68867 32.8358 9.61725 31.6943 9.61725C30.5527 9.61725 29.624 8.68867 29.624 7.54711V2.88049C29.624 2.26328 30.1263 1.76112 30.7435 1.76112ZM24.842 1.76112H26.7435C27.3607 1.76112 27.8629 2.26328 27.8629 2.88049V8.54191C27.8629 9.68347 26.9343 10.612 25.7928 10.612C24.6512 10.612 23.7225 9.68347 23.7225 8.54191V2.88049C23.7226 2.26328 24.2248 1.76112 24.842 1.76112ZM17.821 2.88049C17.821 2.26328 18.3231 1.76112 18.9404 1.76112H20.842C21.4592 1.76112 21.9614 2.26328 21.9614 2.88049V7.54711C21.9614 8.68867 21.0327 9.61725 19.8911 9.61725C18.7496 9.61725 17.8209 8.68867 17.8209 7.54711V2.88049H17.821Z" fill="black"/>
<path d="M23.3569 13.4352C22.8774 13.3613 22.4267 13.6911 22.3527 14.1717C22.2927 14.5621 22.2622 14.9612 22.2622 15.3577C22.2622 19.6282 25.7365 23.1025 30.007 23.1025C34.2775 23.1025 37.7519 19.6282 37.7519 15.3577C37.7519 14.6335 37.6498 13.912 37.4486 13.2129C37.314 12.7454 36.825 12.4752 36.3589 12.6102C35.8916 12.7448 35.6217 13.2326 35.7563 13.6999C35.9118 14.2405 35.9907 14.7982 35.9907 15.3576C35.9907 18.6571 33.3066 21.3413 30.007 21.3413C26.7075 21.3413 24.0233 18.6571 24.0233 15.3576C24.0233 15.0504 24.0468 14.7415 24.0934 14.4393C24.1675 13.9588 23.8377 13.5092 23.3569 13.4352Z" fill="black"/>
</g>
<defs>
<clipPath id="clip0_267_189">
<rect width="60" height="60" fill="white"/>
</clipPath>
</defs>
</svg>
