<svg width="175" height="123" viewBox="0 0 175 123" fill="none" xmlns="http://www.w3.org/2000/svg">
<g opacity="0.9">
<path d="M32.7297 57.351C26.9462 57.351 21.741 56.143 17.1141 53.7272C12.5398 51.2588 8.93824 47.845 6.30935 43.4859C3.68045 39.1268 2.36601 34.19 2.36601 28.6755C2.36601 23.161 3.68045 18.2242 6.30935 13.8651C8.93824 9.50598 12.5398 6.11849 17.1141 3.7026C21.741 1.2342 26.9462 0 32.7297 0C37.7772 0 42.3252 0.892828 46.3737 2.67848C50.4222 4.46414 53.7872 7.03758 56.4687 10.3988L46.5314 19.3796C42.9561 15.073 38.6185 12.9197 33.5184 12.9197C30.5215 12.9197 27.84 13.5762 25.474 14.8892C23.1606 16.2022 21.3466 18.0666 20.0322 20.4825C18.7703 22.8459 18.1394 25.5769 18.1394 28.6755C18.1394 31.7741 18.7703 34.5314 20.0322 36.9473C21.3466 39.3106 23.1606 41.1488 25.474 42.4618C27.84 43.7748 30.5215 44.4313 33.5184 44.4313C38.6185 44.4313 42.9561 42.278 46.5314 37.9714L56.4687 46.9522C53.7872 50.3134 50.4222 52.8869 46.3737 54.6725C42.3252 56.4582 37.7772 57.351 32.7297 57.351Z" fill="#95B900"/>
<path d="M99.4955 45.5342H76.1509L71.8132 56.2481H55.8821L80.2519 1.1029H95.631L120.08 56.2481H103.833L99.4955 45.5342ZM94.9212 34.0325L87.8232 16.386L80.7252 34.0325H94.9212Z" fill="#95B900"/>
<path d="M151.261 57.351C145.478 57.351 140.272 56.143 135.645 53.7272C131.071 51.2588 127.47 47.845 124.841 43.4859C122.212 39.1268 120.897 34.19 120.897 28.6755C120.897 23.161 122.212 18.2242 124.841 13.8651C127.47 9.50598 131.071 6.11849 135.645 3.7026C140.272 1.2342 145.478 0 151.261 0C156.309 0 160.857 0.892828 164.905 2.67848C168.954 4.46414 172.319 7.03758 175 10.3988L165.063 19.3796C161.487 15.073 157.15 12.9197 152.05 12.9197C149.053 12.9197 146.371 13.5762 144.005 14.8892C141.692 16.2022 139.878 18.0666 138.564 20.4825C137.302 22.8459 136.671 25.5769 136.671 28.6755C136.671 31.7741 137.302 34.5314 138.564 36.9473C139.878 39.3106 141.692 41.1488 144.005 42.4618C146.371 43.7748 149.053 44.4313 152.05 44.4313C157.15 44.4313 161.487 42.278 165.063 37.9714L175 46.9522C172.319 50.3134 168.954 52.8869 164.905 54.6725C160.857 56.4582 156.309 57.351 151.261 57.351Z" fill="#95B900"/>
<path d="M16.9564 79.1202H0V66.7519H49.4495V79.1202H32.572V121.897H16.9564V79.1202Z" fill="#95B900"/>
<path d="M79.894 123C71.6918 123 65.3036 120.768 60.7293 116.304C56.2076 111.84 53.9468 105.511 53.9468 97.3181V66.7519H69.5624V96.8454C69.5624 105.669 73.0588 110.08 80.0517 110.08C86.992 110.08 90.4621 105.669 90.4621 96.8454V66.7519H105.841V97.3181C105.841 105.511 103.554 111.84 98.9797 116.304C94.458 120.768 88.0961 123 79.894 123Z" fill="#95B900"/>
<path d="M135.821 123C131.352 123 127.014 122.449 122.808 121.346C118.602 120.243 115.184 118.772 112.555 116.934L117.682 105.432C120.153 107.06 123.018 108.373 126.278 109.371C129.538 110.369 132.745 110.868 135.9 110.868C141.894 110.868 144.891 109.371 144.891 106.378C144.891 104.802 144.023 103.647 142.288 102.911C140.606 102.124 137.872 101.31 134.086 100.469C129.932 99.5764 126.462 98.6311 123.676 97.6332C120.889 96.5828 118.497 94.9285 116.499 92.6702C114.501 90.4118 113.502 87.3657 113.502 83.5318C113.502 80.1706 114.422 77.1507 116.262 74.4723C118.102 71.7412 120.836 69.588 124.464 68.0124C128.145 66.4368 132.64 65.649 137.95 65.649C141.578 65.649 145.154 66.0692 148.676 66.9095C152.199 67.6973 155.301 68.879 157.983 70.4545L153.172 82.035C147.914 79.199 142.814 77.781 137.872 77.781C134.769 77.781 132.509 78.2536 131.089 79.199C129.669 80.0918 128.96 81.2735 128.96 82.744C128.96 84.2146 129.801 85.3175 131.483 86.0527C133.166 86.788 135.874 87.5495 139.607 88.3373C143.813 89.2301 147.283 90.2018 150.017 91.2521C152.804 92.25 155.196 93.8781 157.194 96.1364C159.245 98.3422 160.27 101.362 160.27 105.196C160.27 108.505 159.35 111.498 157.509 114.177C155.669 116.855 152.909 119.009 149.228 120.637C145.548 122.212 141.079 123 135.821 123Z" fill="#95B900"/>
</g>
</svg>
