<svg width="59" height="59" viewBox="0 0 59 59" fill="none" xmlns="http://www.w3.org/2000/svg">
<rect width="59" height="59" rx="29.5" fill="#419FD9"/>
<path fill-rule="evenodd" clip-rule="evenodd" d="M36.0581 44.107C38.12 45.0091 38.8932 43.119 38.8932 43.119L44.3488 15.7124C44.3058 13.8652 41.8143 14.9821 41.8143 14.9821L11.2719 26.9671C11.2719 26.9671 9.81131 27.4826 9.94018 28.3847C10.0691 29.2868 11.2289 29.7164 11.2289 29.7164L18.9182 32.2938C18.9182 32.2938 21.2379 39.8972 21.7104 41.3577C22.14 42.7753 22.5266 42.8183 22.5266 42.8183C22.9562 42.9901 23.3428 42.6894 23.3428 42.6894L28.3258 38.1789L36.0581 44.107ZM37.3897 20.5657C37.3897 20.5657 38.4637 19.9213 38.4207 20.5657C38.4207 20.5657 38.5925 20.6516 38.0341 21.253C37.5186 21.7685 25.3618 32.6796 23.7294 34.1401C23.6005 34.226 23.5146 34.3549 23.5146 34.5267L23.0421 38.5647C22.9562 38.9943 22.3977 39.0372 22.2689 38.6506L20.2499 32.0352C20.164 31.7775 20.2499 31.4768 20.5076 31.3049L37.3897 20.5657Z" fill="white"/>
</svg>
