<svg width="48" height="48" viewBox="0 0 48 48" fill="none" xmlns="http://www.w3.org/2000/svg">
<rect width="48" height="48" rx="24" fill="#675DA9"/>
<path d="M33.2913 14.576C32.6637 13.999 30.123 12.1517 24.4596 12.1264C24.4596 12.1264 17.7841 11.7216 14.5298 14.7076C12.7179 16.5195 12.0802 19.1664 12.0144 22.4561C11.9486 25.7408 11.8626 31.9001 17.7992 33.5703H17.8043L17.7992 36.116C17.7992 36.116 17.7638 37.1485 18.442 37.356C19.2619 37.6091 19.7478 36.8246 20.5322 35.9794C20.9624 35.5138 21.5546 34.8356 22.005 34.3143C26.064 34.6534 29.1867 33.874 29.541 33.7576C30.3609 33.4893 35.0019 32.8972 35.756 26.7378C36.5354 20.4013 35.3764 16.3879 33.2913 14.576ZM33.9796 26.2924C33.3419 31.4345 29.5815 31.7584 28.8881 31.9811C28.5946 32.0773 25.8514 32.7605 22.3998 32.5328C22.3998 32.5328 19.8287 35.6352 19.0291 36.4399C18.9026 36.5665 18.7558 36.6171 18.6596 36.5918C18.523 36.5563 18.4825 36.3944 18.4876 36.1565C18.4876 35.8124 18.5078 31.9204 18.5078 31.9204C18.5027 31.9204 18.5027 31.9204 18.5078 31.9204C13.4821 30.5286 13.7757 25.2853 13.8313 22.5422C13.887 19.7991 14.4032 17.5469 15.9368 16.0336C18.6849 13.5436 24.3584 13.913 24.3584 13.913C29.1462 13.9333 31.4389 15.3757 31.9703 15.8565C33.7366 17.3748 34.6375 20.9935 33.9796 26.2924Z" fill="white"/>
<path d="M26.7928 22.6383C26.6258 22.6383 26.484 22.5068 26.4739 22.3347C26.4183 21.2465 25.9071 20.7151 24.8645 20.6595C24.6874 20.6493 24.5507 20.4975 24.5608 20.3204C24.571 20.1432 24.7228 20.0066 24.8999 20.0167C26.2765 20.0926 27.0458 20.8821 27.1167 22.2993C27.1268 22.4764 26.9902 22.6282 26.813 22.6333C26.8029 22.6383 26.7978 22.6383 26.7928 22.6383Z" fill="white"/>
<path d="M28.4326 23.1851H28.4276C28.2504 23.18 28.1087 23.0332 28.1138 22.8561C28.1391 21.7629 27.8253 20.8772 27.1573 20.1484C26.4942 19.4196 25.5782 19.0248 24.3686 18.9388C24.1915 18.9236 24.0599 18.7718 24.075 18.5946C24.0902 18.4175 24.2421 18.2859 24.4192 18.3011C25.7857 18.4023 26.8637 18.8781 27.633 19.7182C28.4073 20.5634 28.7819 21.6212 28.7566 22.8713C28.7515 23.0484 28.6047 23.1851 28.4326 23.1851Z" fill="white"/>
<path d="M30.1129 23.8428C29.9358 23.8428 29.7941 23.7011 29.7941 23.524C29.7789 21.5654 29.2171 20.0723 28.0733 18.9538C26.9447 17.8505 25.5124 17.2887 23.827 17.2735C23.6499 17.2735 23.5082 17.1268 23.5082 16.9496C23.5082 16.7725 23.655 16.6308 23.827 16.6308C25.6844 16.646 27.2635 17.2685 28.5136 18.4933C29.7688 19.7181 30.4115 21.4085 30.4318 23.5139C30.4368 23.6961 30.2951 23.8428 30.1129 23.8428C30.118 23.8428 30.118 23.8428 30.1129 23.8428Z" fill="white"/>
<path d="M24.9404 26.6011C24.9404 26.6011 25.3908 26.6416 25.6338 26.343L26.1044 25.7508C26.3322 25.4573 26.8839 25.27 27.4203 25.5686C27.7189 25.7357 28.2605 26.0697 28.5945 26.3177C28.9538 26.5809 29.6826 27.1882 29.6877 27.1933C30.0369 27.4868 30.1179 27.917 29.88 28.3776C29.88 28.3776 29.88 28.3826 29.88 28.3877C29.6371 28.8179 29.3081 29.2228 28.8982 29.5973C28.8931 29.5973 28.8931 29.6023 28.888 29.6023C28.549 29.8858 28.2149 30.0477 27.891 30.0831C27.8505 30.0933 27.805 30.0933 27.7442 30.0933C27.6025 30.0933 27.4608 30.073 27.3191 30.0275L27.309 30.0123C26.8029 29.8706 25.9627 29.5163 24.5659 28.742C23.6549 28.2409 22.9008 27.7297 22.258 27.2186C21.9189 26.9503 21.5748 26.6517 21.2205 26.2974C21.2104 26.2873 21.1952 26.2721 21.1851 26.262C21.1749 26.2519 21.1598 26.2367 21.1496 26.2266C21.1395 26.2165 21.1243 26.2013 21.1142 26.1912C21.1041 26.181 21.0889 26.1659 21.0788 26.1557C20.7296 25.8015 20.4259 25.4573 20.1577 25.1182C19.6465 24.4805 19.1353 23.7214 18.6343 22.8104C17.8599 21.4084 17.5056 20.5683 17.3639 20.0672L17.3488 20.0571C17.3032 19.9154 17.283 19.7737 17.283 19.632C17.283 19.5713 17.283 19.5257 17.2931 19.4852C17.3336 19.1562 17.4955 18.8273 17.7739 18.4882C17.7739 18.4831 17.7789 18.4831 17.7789 18.4781C18.1535 18.063 18.5584 17.7391 18.9885 17.4962C18.9885 17.4962 18.9936 17.4962 18.9987 17.4962C19.4542 17.2583 19.8844 17.3393 20.183 17.6885C20.183 17.6885 20.7954 18.4224 21.0585 18.7817C21.3065 19.1208 21.6406 19.6573 21.8076 19.9559C22.1062 20.4924 21.9189 21.044 21.6254 21.2718L21.0332 21.7425C20.7346 21.9854 20.7751 22.4358 20.7751 22.4358C20.7751 22.4358 21.6507 25.766 24.9404 26.6011Z" fill="white"/>
</svg>
