<svg width="60" height="60" viewBox="0 0 60 60" fill="none" xmlns="http://www.w3.org/2000/svg">
<path d="M55.4999 54.7586H10.4226C7.48526 54.7586 5.10413 52.373 5.10413 49.4303C5.10413 46.4876 7.48526 44.1021 10.4226 44.1021H55.4998C53.1508 47.2644 53.1508 51.5962 55.4999 54.7586Z" fill="#FFF7E8"/>
<path d="M55.4999 44.1021H50.8124C48.4633 47.2645 48.4633 51.5963 50.8124 54.7587H55.4999C53.1507 51.5963 53.1507 47.2645 55.4999 44.1021Z" fill="#FFF1D6"/>
<path d="M56.9972 59.1212H10.5517C5.21812 59.1212 0.878906 54.774 0.878906 49.4304C0.878906 44.0869 5.21812 39.7397 10.5517 39.7397H56.9972C58.1702 39.7397 59.1211 40.6925 59.1211 41.8676C59.1211 43.0428 58.1702 43.9955 56.9972 43.9955H10.5517C7.56035 43.9955 5.12672 46.4337 5.12672 49.4306C5.12672 52.4274 7.56035 54.8656 10.5517 54.8656H56.9972C58.1702 54.8656 59.1211 55.8183 59.1211 56.9935C59.1211 58.1687 58.1702 59.1212 56.9972 59.1212Z" fill="#95B900"/>
<path d="M55.4999 15.898H10.4226C7.48526 15.898 5.10413 13.5124 5.10413 10.5697C5.10413 7.62704 7.48526 5.24146 10.4226 5.24146H55.4998C53.1508 8.40376 53.1508 12.7356 55.4999 15.898Z" fill="#FFF7E8"/>
<path d="M55.4999 5.24121H50.8124C48.4633 8.40363 48.4633 12.7355 50.8124 15.8979H55.4999C53.1507 12.7355 53.1507 8.40363 55.4999 5.24121Z" fill="#FFF1D6"/>
<path d="M56.9972 20.2604H10.5517C5.21812 20.2604 0.878906 15.9132 0.878906 10.5697C0.878906 5.22609 5.21812 0.878906 10.5517 0.878906H56.9972C58.1702 0.878906 59.1211 1.83164 59.1211 3.00668C59.1211 4.18172 58.1702 5.13445 56.9972 5.13445H10.5517C7.56035 5.13445 5.12672 7.57266 5.12672 10.5695C5.12672 13.5663 7.56035 16.0045 10.5517 16.0045H56.9972C58.1702 16.0045 59.1211 16.9573 59.1211 18.1324C59.1211 19.3077 58.1702 20.2604 56.9972 20.2604Z" fill="#95B900"/>
<path d="M4.50012 24.7207H49.5773C52.5147 24.7207 54.8958 27.1063 54.8958 30.049C54.8958 32.9918 52.5147 35.3773 49.5773 35.3773H4.50012C6.84926 32.215 6.84926 27.8831 4.50012 24.7207Z" fill="#FFF7E8"/>
<path d="M3.00281 20.3582H49.4483C54.7819 20.3582 59.1211 24.7053 59.1211 30.0489C59.1211 35.3924 54.7819 39.7396 49.4483 39.7396H3.00281C1.82977 39.7396 0.878906 38.7868 0.878906 37.6117C0.878906 36.4365 1.82977 35.4838 3.00281 35.4838H49.4483C52.4397 35.4838 54.8733 33.0456 54.8733 30.0487C54.8733 27.0519 52.4397 24.6137 49.4483 24.6137H3.00281C1.82977 24.6137 0.878906 23.661 0.878906 22.4858C0.878906 21.3109 1.82977 20.3582 3.00281 20.3582Z" fill="#FDDD45"/>
<path d="M49.4483 20.3582H44.7608C49.0347 20.3582 52.6677 23.1507 53.9435 27.0094C54.5303 27.8775 54.8733 28.9237 54.8733 30.0489C54.8733 31.174 54.5303 32.2202 53.9435 33.0883C52.6677 36.947 49.0347 39.7396 44.7608 39.7396H49.4483C54.7819 39.7396 59.1211 35.3924 59.1211 30.0489C59.1211 24.7053 54.7819 20.3582 49.4483 20.3582Z" fill="#FDDD45"/>
<path d="M36.9238 30.0488H44.6435V48.2661L40.8513 44.6026L36.9238 48.2661V30.0488Z" fill="#95B900"/>
<path d="M40.7836 30.0491V44.666L40.8513 44.6028L44.6435 48.2663V30.0491H40.7836Z" fill="#95B900"/>
<path d="M60 18.1324C60 16.4746 58.6529 15.1257 56.9972 15.1257H56.0285C55.1043 13.7803 54.6169 12.2116 54.6169 10.5696C54.6169 8.92758 55.1043 7.35891 56.0286 6.01336H56.9972C60.8617 6.01336 60.8882 0 56.9972 0H22.4947C21.3584 0 21.3584 1.75781 22.4947 1.75781H56.9972C58.5554 1.75781 58.6262 4.25555 56.9972 4.25555H10.5517C7.07566 4.25555 4.24781 7.08797 4.24781 10.5696C4.24781 14.0511 7.07578 16.8836 10.5517 16.8836H56.9972C58.5854 16.8836 58.6007 19.4791 56.9972 19.4791H49.4483H10.5517C8.21543 19.4791 6.00996 18.5457 4.34156 16.851C2.67539 15.1587 1.75781 12.9278 1.75781 10.5696C1.75781 5.71078 5.7027 1.75781 10.5517 1.75781H17.8117C18.948 1.75781 18.948 0 17.8117 0H10.5517C4.73344 0 0 4.74152 0 10.5696C0 13.3921 1.09699 16.0608 3.08883 18.0843C3.60902 18.6127 4.17375 19.0778 4.77305 19.4791H3.00281C1.34707 19.4793 0 20.828 0 22.4861C0 24.1439 1.34707 25.4927 3.00281 25.4927H3.97137C4.89574 26.8382 5.38313 28.4067 5.38313 30.0489C5.38313 31.691 4.89574 33.2596 3.97137 34.6051H3.00281C1.34707 34.6051 0 35.9539 0 37.6118C0 39.2696 1.34707 40.6185 3.00281 40.6185H4.73168C1.88238 42.513 0 45.7554 0 49.4304C0 55.2585 4.73344 60 10.5517 60H56.9972C60.8617 60 60.8882 53.9865 56.9972 53.9865H56.0285C55.1043 52.6411 54.6169 51.0724 54.6169 49.4304C54.6169 47.7884 55.1043 46.2198 56.0285 44.8743H56.9972C60.8617 44.8743 60.8882 38.8608 56.9972 38.8608H55.2683C58.1176 36.9661 60 33.7237 60 30.0489C60 26.374 58.1176 23.1316 55.2683 21.2371H56.9972C58.6249 21.2371 60 19.8154 60 18.1324ZM6.00563 10.5696C6.00563 8.05734 8.04504 6.01336 10.5517 6.01336H53.9788C53.2432 7.41129 52.8591 8.96145 52.8591 10.5696C52.8591 12.1777 53.2432 13.7278 53.9787 15.1257H10.5517C8.04492 15.1257 6.00563 13.0819 6.00563 10.5696ZM6.02121 25.4927H49.4483C51.9551 25.4927 53.9944 27.5366 53.9944 30.0489C53.9944 32.5611 51.955 34.6051 49.4483 34.6051H45.5224V30.9278H47.6232C48.7596 30.9278 48.7596 29.17 47.6232 29.17H17.3538C16.2175 29.17 16.2175 30.9278 17.3538 30.9278H36.0449V34.6051H6.02121C6.7568 33.2072 7.14094 31.657 7.14094 30.0489C7.14094 28.4407 6.75668 26.8907 6.02121 25.4927ZM37.8027 30.9278H43.7646V46.1948L41.4621 43.9705C41.1258 43.6455 40.594 43.641 40.2519 43.9598L37.8028 46.2443V30.9278H37.8027ZM3.00281 38.8607C2.31633 38.8607 1.75781 38.3004 1.75781 37.6118C1.75781 36.9232 2.31633 36.3629 3.00281 36.3629H36.0449V38.8607H3.00281ZM53.9788 53.9865H43.3594C42.223 53.9865 42.223 55.7443 43.3594 55.7443H56.9972C58.5554 55.7443 58.6262 58.2422 56.9972 58.2422H10.5517C5.7027 58.2422 1.75781 54.2892 1.75781 49.4304C1.75781 44.5716 5.7027 40.6186 10.5517 40.6186H36.0449V43.1164H10.5517C7.07566 43.1164 4.24781 45.9489 4.24781 49.4304C4.24781 52.9119 7.07578 55.7443 10.5517 55.7443H38.6689C39.8053 55.7443 39.8053 53.9865 38.6689 53.9865H10.5517C8.04492 53.9865 6.00563 51.9427 6.00563 49.4304C6.00563 46.9181 8.04504 44.8743 10.5517 44.8743H36.0449V48.266C36.0449 49.0195 36.9723 49.4228 37.5233 48.9087L40.8408 45.8143L44.0329 48.898C44.5932 49.4399 45.5224 49.0173 45.5224 48.2659V44.8741H53.9788C53.2433 46.2721 52.8592 47.8221 52.8592 49.4303C52.8592 51.0384 53.2433 52.5886 53.9788 53.9865ZM56.9972 40.6185C58.5555 40.6185 58.6262 43.1163 56.9972 43.1163H45.5224V40.6185H49.4483H56.9972ZM58.2422 30.0489C58.2422 34.9077 54.2973 38.8607 49.4483 38.8607H45.5224V36.3629H49.4483C52.9243 36.3629 55.7522 33.5305 55.7522 30.0489C55.7522 26.5673 52.9242 23.7349 49.4483 23.7349H3.00281C2.31633 23.7349 1.75781 23.1746 1.75781 22.4861C1.75781 21.7973 2.31633 21.2371 3.00281 21.2371H10.5517H49.4483C54.2973 21.2371 58.2422 25.19 58.2422 30.0489Z" fill="#303030"/>
</svg>
