<svg width="60" height="60" viewBox="0 0 60 60" fill="none" xmlns="http://www.w3.org/2000/svg">
<path d="M43.5 1H16.5C15.1193 1 14 2.11929 14 3.5V56.5C14 57.8807 15.1193 59 16.5 59H43.5C44.8807 59 46 57.8807 46 56.5V3.5C46 2.11929 44.8807 1 43.5 1Z" fill="#95B900"/>
<path d="M14 45H46V48H14V45Z" fill="#95B900"/>
<path d="M35.5 49H24.5C23.1193 49 22 50.1193 22 51.5V52.5C22 53.8807 23.1193 55 24.5 55H35.5C36.8807 55 38 53.8807 38 52.5V51.5C38 50.1193 36.8807 49 35.5 49Z" fill="#F2FAFF"/>
<path d="M57.75 8H2.25C1.55964 8 1 8.55964 1 9.25V43.75C1 44.4404 1.55964 45 2.25 45H57.75C58.4404 45 59 44.4404 59 43.75V9.25C59 8.55964 58.4404 8 57.75 8Z" fill="white"/>
<path d="M1 37V43.75C1 44.0815 1.1317 44.3995 1.36612 44.6339C1.60054 44.8683 1.91848 45 2.25 45H57.75C58.0815 45 58.3995 44.8683 58.6339 44.6339C58.8683 44.3995 59 44.0815 59 43.75V37H1Z" fill="#FDDD45"/>
<path d="M11 30V14L27 22L11 30Z" fill="#FDDD45"/>
<path d="M54.9661 45C54.9885 44.6787 54.9998 44.3454 55 44C55 36.8202 52 26 44 26C36 26 33 36.8202 33 44C33 44.3456 33.0113 44.6789 33.0339 45H54.9661Z" fill="#FDBF67"/>
<path d="M36.8778 31.75H35.7829C33.8305 35.4375 33 40.2224 33 44C33 44.3456 33.0113 44.6789 33.0339 45H39.2875L36.8778 31.75Z" fill="#FDAD67"/>
<path d="M50 28L48 35L44 32L47 27L50 28Z" fill="white"/>
<path d="M38 28L40 35L44 32L41 27L38 28Z" fill="white"/>
<path d="M24 29H32.5C33.163 29 33.7989 29.2634 34.2678 29.7322C34.7366 30.2011 35 30.837 35 31.5V34H29C27.6739 34 26.4021 33.4732 25.4645 32.5355C24.5268 31.5979 24 30.3261 24 29Z" fill="#FFD4CF"/>
<path d="M35 34H31V42.5C31 43.163 31.2634 43.7989 31.7322 44.2678C32.2011 44.7366 32.837 45 33.5 45H37L35 34Z" fill="#FDBF67"/>
<path d="M42 22H46L47 27L44 32L41 27L42 22Z" fill="#FFD4CF"/>
<path d="M46 22H42L41.493 24.5352L41.5555 24.5728C42.2937 25.0156 43.1384 25.2496 43.9992 25.2496C44.8601 25.2496 45.7048 25.0156 46.443 24.5728L46.5055 24.5352L46 22Z" fill="#FBB8B0"/>
<path d="M40.2137 21.1438L42.7137 22.6438C43.1023 22.8769 43.5469 23.0001 44 23.0001C44.4531 23.0001 44.8977 22.8769 45.2863 22.6438L47.7863 21.1438C48.1564 20.9217 48.4628 20.6075 48.6755 20.2318C48.8882 19.8561 49 19.4317 49 19V10.4155H39V19C39 19.4317 39.1118 19.8561 39.3245 20.2318C39.5372 20.6075 39.8436 20.9217 40.2137 21.1438Z" fill="#FFD4CF"/>
<path d="M48.25 6H41.75C40.7554 6 39.8016 6.39509 39.0984 7.09835C38.3951 7.80161 38 8.75544 38 9.75V12H43C43 12 44.679 14 46.75 14H52V9.75C52 8.75544 51.6049 7.80161 50.9016 7.09835C50.1984 6.39509 49.2446 6 48.25 6Z" fill="#FDDD45"/>
<path d="M13 48V56.5C13.0011 57.4279 13.3701 58.3176 14.0263 58.9737C14.6824 59.6299 15.5721 59.9989 16.5 60H35V58H16.5C16.1023 57.9996 15.721 57.8414 15.4398 57.5602C15.1586 57.279 15.0004 56.8977 15 56.5V48H13Z" fill="#303030"/>
<path d="M37 60H43.5C44.4279 59.9989 45.3176 59.6299 45.9737 58.9737C46.6299 58.3176 46.9989 57.4279 47 56.5V48H45V56.5C44.9996 56.8977 44.8414 57.279 44.5602 57.5602C44.279 57.8414 43.8977 57.9996 43.5 58H37V60Z" fill="#303030"/>
<path d="M35.5 48H24.5C23.5721 48.0011 22.6824 48.3701 22.0263 49.0263C21.3701 49.6824 21.0011 50.5721 21 51.5V52.5C21.0011 53.4279 21.3701 54.3176 22.0263 54.9737C22.6824 55.6299 23.5721 55.9989 24.5 56H35.5C36.4279 55.9989 37.3176 55.6299 37.9737 54.9737C38.6299 54.3176 38.9989 53.4279 39 52.5V51.5C38.9989 50.5721 38.6299 49.6824 37.9737 49.0263C37.3176 48.3701 36.4279 48.0011 35.5 48ZM37 52.5C36.9996 52.8977 36.8414 53.279 36.5602 53.5602C36.279 53.8414 35.8977 53.9996 35.5 54H24.5C24.1023 53.9996 23.721 53.8414 23.4398 53.5602C23.1586 53.279 23.0004 52.8977 23 52.5V51.5C23.0004 51.1023 23.1586 50.721 23.4398 50.4398C23.721 50.1586 24.1023 50.0004 24.5 50H35.5C35.8977 50.0004 36.279 50.1586 36.5602 50.4398C36.8414 50.721 36.9996 51.1023 37 51.5V52.5Z" fill="#303030"/>
<path d="M17.5527 18.3943L18.4473 16.6056L11.4473 13.1056C11.2948 13.0294 11.1254 12.9934 10.9551 13.001C10.7848 13.0087 10.6193 13.0597 10.4743 13.1493C10.3293 13.2389 10.2096 13.3641 10.1266 13.513C10.0436 13.6619 10 13.8295 10 14V30C10 30.1704 10.0436 30.338 10.1266 30.4869C10.2096 30.6358 10.3293 30.761 10.4743 30.8506C10.6193 30.9402 10.7848 30.9913 10.9551 30.9989C11.1254 31.0066 11.2948 30.9706 11.4473 30.8943L27.4473 22.8943C27.6133 22.8113 27.753 22.6836 27.8506 22.5256C27.9482 22.3677 27.9999 22.1857 27.9999 22C27.9999 21.8143 27.9482 21.6322 27.8506 21.4743C27.753 21.3163 27.6133 21.1887 27.4473 21.1056L20.4473 17.6056L19.5527 19.3943L24.7639 22L12 28.382V15.618L17.5527 18.3943Z" fill="#303030"/>
<path d="M4 40H8V42H4V40Z" fill="#303030"/>
<path d="M10 40H19V42H10V40Z" fill="#303030"/>
<path d="M21 40H23V42H21V40Z" fill="#303030"/>
<path d="M25 40H27V42H25V40Z" fill="#303030"/>
<path d="M57.75 7H55V9H57.75C57.8163 9 57.8799 9.02634 57.9268 9.07322C57.9737 9.12011 58 9.1837 58 9.25V28H60V9.25C59.9993 8.65348 59.762 8.08158 59.3402 7.65978C58.9184 7.23797 58.3465 7.00069 57.75 7Z" fill="#303030"/>
<path d="M58 36H54.923C54.6912 35.1436 54.4151 34.2999 54.0959 33.4721C52.627 29.6881 50.4504 27.052 47.7834 25.8169L47.1572 22.6875L48.3008 22.0014C48.8179 21.6891 49.2458 21.2489 49.5435 20.7232C49.8411 20.1976 49.9983 19.6041 50 19V15H52C52.2652 15 52.5196 14.8946 52.7071 14.7071C52.8946 14.5196 53 14.2652 53 14V9.75C52.9986 8.49066 52.4977 7.2833 51.6072 6.39281C50.7167 5.50232 49.5093 5.00142 48.25 5H47V3.5C46.9989 2.57207 46.6299 1.68244 45.9737 1.0263C45.3176 0.370148 44.4279 0.00105868 43.5 0H16.5C15.5721 0.00105868 14.6824 0.370148 14.0263 1.0263C13.3701 1.68244 13.0011 2.57207 13 3.5V5H15V3.5C15.0004 3.10231 15.1586 2.72103 15.4398 2.43982C15.721 2.1586 16.1023 2.00043 16.5 2H43.5C43.8977 2.00043 44.279 2.1586 44.5602 2.43982C44.8414 2.72103 44.9996 3.10231 45 3.5V5H41.75C40.4907 5.00142 39.2833 5.50232 38.3928 6.39281C37.5023 7.2833 37.0014 8.49066 37 9.75V12C37 12.2652 37.1054 12.5196 37.2929 12.7071C37.4804 12.8946 37.7348 13 38 13V19C38.0017 19.6041 38.1589 20.1975 38.4566 20.7232C38.7542 21.2488 39.1822 21.689 39.6992 22.0012L40.8426 22.6873L40.2168 25.817C38.4679 26.6275 36.9261 28.0444 35.6584 29.992C35.3732 29.396 34.9254 28.8927 34.3666 28.5403C33.8078 28.1878 33.1607 28.0005 32.5 28H24C23.7348 28 23.4804 28.1054 23.2929 28.2929C23.1054 28.4804 23 28.7348 23 29C23.0018 30.5907 23.6345 32.1158 24.7594 33.2406C25.8842 34.3655 27.4093 34.9982 29 35H30V42.5C29.9992 43.0189 30.1146 43.5314 30.3375 44H2.25C2.1837 44 2.12011 43.9737 2.07322 43.9268C2.02634 43.8799 2 43.8163 2 43.75V38H27V36H2V9.25C2 9.1837 2.02634 9.12011 2.07322 9.07322C2.12011 9.02634 2.1837 9 2.25 9H35V7H2.25C1.65348 7.00069 1.08158 7.23797 0.659777 7.65978C0.237971 8.08158 0.000694729 8.65348 0 9.25V43.75C0.000694729 44.3465 0.237971 44.9184 0.659777 45.3402C1.08158 45.762 1.65348 45.9993 2.25 46H57.75C58.3465 45.9993 58.9184 45.762 59.3402 45.3402C59.762 44.9184 59.9993 44.3465 60 43.75V30H58V36ZM40.416 27.9702L42.6785 31.7411L40.5624 33.3286L39.2701 28.8056C39.6262 28.4933 40.0097 28.2137 40.416 27.9702ZM44 24.001C44.4555 24.0009 44.9066 23.9117 45.3279 23.7385L45.9436 26.8169L44 30.0564L42.0564 26.817L42.672 23.7386C43.0933 23.9118 43.5445 24.001 44 24.001ZM47.5843 27.97C47.9906 28.2129 48.3742 28.492 48.7303 28.804L47.4375 33.3283L45.3214 31.7407L47.5843 27.97ZM51 9.75V13H46.75C46.0209 12.9992 45.3219 12.7092 44.8064 12.1936C44.2908 11.6781 44.0008 10.9791 44 10.25V7H48.25C48.9791 7.00083 49.6781 7.29082 50.1936 7.80637C50.7092 8.32192 50.9992 9.02091 51 9.75ZM39 9.75C39.0008 9.02091 39.2908 8.32192 39.8064 7.80637C40.3219 7.29082 41.0209 7.00083 41.75 7H42V11H39V9.75ZM40 19V13H42.879C43.3177 13.6182 43.8981 14.1223 44.5715 14.4703C45.245 14.8182 45.992 14.9999 46.75 15H48V19C47.9993 19.2589 47.9319 19.5132 47.8044 19.7385C47.6768 19.9638 47.4934 20.1524 47.2718 20.2862L44.7718 21.7862C44.5387 21.9264 44.2719 22.0004 44 22.0004C43.7281 22.0004 43.4613 21.9264 43.2282 21.7862L40.7282 20.2862C40.5066 20.1524 40.3232 19.9638 40.1956 19.7385C40.0681 19.5132 40.0007 19.2589 40 19ZM25.1266 30H32.5C32.8977 30.0004 33.279 30.1586 33.5602 30.4398C33.8414 30.721 33.9996 31.1023 34 31.5V33H29C28.1135 32.9989 27.2523 32.7038 26.5514 32.1609C25.8505 31.6181 25.3494 30.8581 25.1266 30ZM33.5 44C33.1023 43.9996 32.721 43.8414 32.4398 43.5602C32.1586 43.279 32.0004 42.8977 32 42.5V35H34.1654L35.8018 44H33.5ZM51 44V39H49V44H37.8346L36 33.9098V33.625C36.4491 32.5443 37.0165 31.5167 37.6917 30.5609L39.0385 35.275C39.0831 35.4309 39.1649 35.5735 39.2768 35.6908C39.3888 35.808 39.5276 35.8962 39.6813 35.9479C39.8349 35.9996 39.9988 36.0131 40.1589 35.9873C40.3189 35.9616 40.4703 35.8973 40.6 35.8L44 33.25L47.4 35.8C47.5297 35.8973 47.6811 35.9616 47.8411 35.9873C48.0012 36.0131 48.1651 35.9996 48.3187 35.9479C48.4724 35.8962 48.6112 35.808 48.7232 35.6908C48.8351 35.5735 48.9169 35.4309 48.9615 35.275L50.3086 30.5602C51.0987 31.6872 51.7447 32.9087 52.2314 34.1961C53.3554 37.0915 54 40.665 54 44H51ZM57.75 44H56C55.9937 41.985 55.7908 39.9755 55.394 38H58V43.75C58 43.8163 57.9737 43.8799 57.9268 43.9268C57.8799 43.9737 57.8163 44 57.75 44Z" fill="#303030"/>
</svg>
