<svg width="56" height="56" viewBox="0 0 56 56" fill="none" xmlns="http://www.w3.org/2000/svg">
<path d="M45.1613 42.4518V49.6776H33.4194V45.4596C33.7625 45.1615 34.0156 44.7549 34.1418 44.2944L35.1085 40.7627C35.8944 40.8624 36.6618 41.0427 37.4208 41.2959L38.9472 41.8013C40.2386 42.2348 41.5846 42.4518 42.9482 42.4518C43.6799 42.4518 44.4116 42.3888 45.1251 42.2529L45.1613 42.4518Z" fill="#F5F9FF"/>
<path d="M39.4619 33.0489C39.7869 33.3744 39.9858 33.826 39.9858 34.3226C39.9858 35.3162 39.1818 36.129 38.1794 36.129H36.3549L37.3304 32.5161H38.1794C38.676 32.5161 39.1276 32.715 39.4619 33.0489Z" fill="#F5F9FF"/>
<path d="M32.0645 32.5704L31.107 36.129H28.2439C27.2502 36.129 26.347 36.5356 25.6877 37.1857L25.5342 37.0322L28.9936 33.5728C29.671 32.8954 30.5923 32.5161 31.5498 32.5161H31.8568L32.0645 32.5704Z" fill="white"/>
<path d="M33.2659 28.1354L32.0645 32.5704L31.8568 32.5161H31.5498C30.5923 32.5161 29.671 32.8954 28.9936 33.5728L25.5342 37.0323L24.2967 38.2786C23.9355 38.6398 23.4477 38.8387 22.9418 38.8387C22.4091 38.8387 21.9301 38.6217 21.5782 38.2786C21.2346 37.9355 21.0181 37.4477 21.0181 36.9238C21.0181 36.4179 21.2258 35.9301 21.587 35.5689L28.0904 29.0567C28.7678 28.3793 29.6891 28 30.6466 28H32.76L33.2659 28.1354Z" fill="#F0D0B4"/>
<path d="M33.4193 27.0969V6.32267H12.6451V0.90332H45.1613V30.7098L45.0982 30.8002L41.8011 28.6052C41.2141 28.2078 40.5097 28.0001 39.7962 28.0001H38.5498L40.2928 21.5602L41.2595 17.9654L42.6143 12.9522C42.6686 12.7445 42.6955 12.5368 42.6955 12.329C42.6955 11.0104 41.6295 9.93558 40.3108 9.93558H40.0127C38.9379 9.93558 37.9897 10.658 37.7097 11.7059L36.4541 16.3667L35.4785 19.9522L33.5366 27.133L33.4193 27.0969Z" fill="#F5F9FF"/>
<path d="M33.4193 27.0969L33.5366 27.1331L33.2659 28.1356L32.76 28.0002H30.6466C29.6891 28.0002 28.7678 28.3795 28.0904 29.0569L21.587 35.5691C21.2258 35.9303 21.0181 36.4181 21.0181 36.9239C21.0181 37.4479 21.2346 37.9357 21.5782 38.2788C21.9301 38.6219 22.4091 38.8389 22.9418 38.8389C23.4477 38.8389 23.9355 38.64 24.2967 38.2788L25.5342 37.0324L25.6877 37.1859C25.0376 37.8452 24.631 38.7485 24.631 39.7421C24.631 40.2387 25.0376 40.6453 25.5342 40.6453H29.8876L29.2375 43.0481C29.1833 43.2558 29.1471 43.4635 29.1471 43.6712C29.1471 44.9899 30.2219 46.0647 31.5405 46.0647H31.8387C32.435 46.0647 32.9946 45.8389 33.4193 45.4596V55.0969H0.903198V6.32275H33.4193V27.0969Z" fill="white"/>
<path d="M4.51611 9.93555H26.1935V17.1614H4.51611V9.93555Z" fill="#95B900"/>
<path d="M10.8387 39.7422H13.5484V48.7744H4.51611V39.7422H10.8387Z" fill="#FDDD45"/>
<path d="M10.8387 24.3872H13.5484V33.4195H4.51611V24.3872H10.8387Z" fill="#FDDD45"/>
<path d="M42.6955 12.329C42.6955 12.5367 42.6686 12.7445 42.6144 12.9522L41.2595 17.9653L36.4541 16.3666L37.7097 11.7058C37.9898 10.658 38.938 9.93555 40.0128 9.93555H40.3109C41.6296 9.93555 42.6955 11.0103 42.6955 12.329Z" fill="#FDDD45"/>
<path d="M41.2595 17.9654L40.2928 21.5602L35.4785 19.9523L36.4541 16.3667L41.2595 17.9654Z" fill="white"/>
<path d="M33.4193 45.4593C32.9946 45.8386 32.435 46.0644 31.8387 46.0644H31.5406C30.2219 46.0644 29.1471 44.9896 29.1471 43.6709C29.1471 43.4632 29.1833 43.2555 29.2375 43.0477L29.8876 40.645H33.4193C33.9883 40.645 34.5484 40.6812 35.1085 40.7623L34.1417 44.2941C34.0156 44.7545 33.7625 45.1611 33.4193 45.4593Z" fill="#FDDD45"/>
<path d="M38.5498 28L36.3549 36.1291H31.1071L32.0645 32.5704L33.2659 28.1354L33.5367 27.133L35.4785 19.9521L40.2928 21.5601L38.5498 28Z" fill="#FDDD45"/>
<path d="M35.1085 40.7625C34.5484 40.6813 33.9883 40.6452 33.4194 40.6452H25.5342C25.0376 40.6452 24.631 40.2385 24.631 39.7419C24.631 38.7483 25.0376 37.8451 25.6877 37.1857C26.347 36.5357 27.2502 36.129 28.2439 36.129H38.1794C39.1818 36.129 39.9858 35.3162 39.9858 34.3226C39.9858 33.826 39.7869 33.3744 39.4619 33.0489C39.1276 32.715 38.676 32.5161 38.1794 32.5161H37.3304L38.5498 28H39.7962C40.5098 28 41.2141 28.2077 41.8011 28.6051L45.0982 30.8001L48.1149 32.8143C48.7019 33.2116 49.4066 33.4194 50.1202 33.4194H56V40.6452H53.2903C52.2517 40.6452 51.2219 40.7717 50.2194 41.0244L46.0195 42.0723C45.7214 42.1447 45.4233 42.2077 45.1251 42.2527C44.4115 42.3885 43.6799 42.4516 42.9482 42.4516C41.5845 42.4516 40.2385 42.2346 38.9472 41.8011L37.4208 41.2957C36.6618 41.0425 35.8944 40.8621 35.1085 40.7625Z" fill="#F0D0B4"/>
<path d="M39.7988 28.9032C40.3356 28.9032 40.8546 29.0602 41.3018 29.3584L47.6099 33.564C48.3552 34.0597 49.2214 34.3226 50.1154 34.3226H56V32.5161H50.1162C49.58 32.5161 49.0595 32.3591 48.6123 32.061L46.0645 30.3621V0H11.7419V5.41935H0V56H34.3226V50.5806H46.0645V42.9817C46.1214 42.9681 46.1801 42.9636 46.237 42.9491L50.4378 41.899C51.371 41.6666 52.3302 41.5484 53.2903 41.5484H56V39.7419H53.2903C52.1829 39.7419 51.0755 39.8782 50.0007 40.1468L45.799 41.1969C43.6384 41.7371 41.3415 41.6485 39.2299 40.9451L37.7079 40.4374C36.3231 39.9757 34.88 39.7419 33.4194 39.7419H25.5377C25.5377 38.2482 26.7537 37.0323 28.2474 37.0323H38.1829C39.6771 37.0323 40.8926 35.8163 40.8926 34.3226C40.8926 32.9369 39.8429 31.8043 38.5 31.6447L39.2414 28.9032H39.7988ZM38.6579 42.6585C40.0436 43.1211 41.4871 43.3548 42.9473 43.3548C43.3857 43.3548 43.8228 43.3169 44.2581 43.2746V48.7742H34.3226V45.8197C34.6397 45.4541 34.8853 45.0215 35.0172 44.5319L35.7568 41.7923C36.2221 41.8871 36.6834 42 37.1363 42.1517L38.6579 42.6585ZM33.9468 41.5691L33.2738 44.06C33.0987 44.7088 32.5073 45.1613 31.8361 45.1613H31.5432C30.7225 45.1613 30.0548 44.494 30.0548 43.6728C30.0548 43.541 30.0719 43.4108 30.1063 43.2843L30.5752 41.5484H33.4194C33.5953 41.5484 33.7709 41.5621 33.9468 41.5691ZM28.7034 41.5484L28.3621 42.8119C28.2862 43.092 28.2483 43.3809 28.2483 43.6728C28.2483 44.894 28.924 45.9498 29.9132 46.5188L29.6296 47.6513L31.3818 48.0897L31.6627 46.9677H31.8361C32.0689 46.9677 32.2947 46.9351 32.5161 46.8884V54.1935H1.80645V7.22581H13.5484V1.80645H44.2581V29.1581L42.3043 27.8553C41.5594 27.3596 40.6932 27.0968 39.7988 27.0968H39.7291L43.4885 13.1881C43.5643 12.908 43.6023 12.6191 43.6023 12.3272C43.6023 10.5101 42.1239 9.03226 40.3073 9.03226H40.0145C38.5291 9.03226 37.221 10.0338 36.8334 11.4681L34.3226 20.7588V5.41935H15.3548V7.22581H32.5161V27.0968H30.6484C29.6644 27.0968 28.7387 27.4227 27.9647 28H18.9677V29.8064H26.067L24.2605 31.6129H18.9677V33.4194H22.455L20.9458 34.9286C20.413 35.4604 20.1193 36.1687 20.1193 36.9229C20.1193 38.4775 21.3837 39.7419 22.9392 39.7419C23.2175 39.7419 23.4856 39.6886 23.7458 39.611C23.745 39.6551 23.7322 39.6969 23.7322 39.7419C23.7322 40.7382 24.5423 41.5484 25.5386 41.5484H28.7034ZM35.6611 35.2258H32.2841L36.0982 21.1138L39.1964 22.1462L35.6611 35.2258ZM28.7317 29.6962C29.2428 29.185 29.9238 28.9032 30.6484 28.9032H32.1214L31.3844 31.6292C30.2409 31.6707 29.1705 32.1223 28.3577 32.9351L23.6545 37.6382C23.4658 37.827 23.2047 37.9355 22.9383 37.9355C22.3791 37.9355 21.9248 37.4812 21.9248 36.9229C21.9248 36.6521 22.0307 36.3981 22.2221 36.2067L28.7317 29.6962ZM29.6349 34.2123C29.9824 33.8648 30.4107 33.6333 30.8751 33.5142L30.4124 35.2258H28.6223L29.6349 34.2123ZM41.7442 12.7166L40.6381 16.8089L37.5399 15.7765L38.5767 11.94C38.7527 11.2912 39.3437 10.8387 40.0145 10.8387H40.3073C41.1285 10.8387 41.7958 11.506 41.7958 12.3272C41.7958 12.459 41.7786 12.5892 41.7442 12.7166ZM37.0684 17.5234L40.1666 18.5558L39.6678 20.3993L36.5696 19.3669L37.0684 17.5234ZM38.1829 33.4194C38.6808 33.4194 39.0861 33.8251 39.0861 34.3226C39.0861 34.8201 38.6808 35.2258 38.1829 35.2258H37.5319L38.0206 33.4194H38.1829Z" fill="#303030"/>
<path d="M27.0968 9.03223H3.61292V18.0645H27.0968V9.03223ZM25.2903 16.258H5.41937V10.8387H25.2903V16.258Z" fill="#303030"/>
<path d="M7.22583 12.645H9.03228V14.4515H7.22583V12.645Z" fill="#303030"/>
<path d="M10.8387 12.645H12.6451V14.4515H10.8387V12.645Z" fill="#303030"/>
<path d="M14.4516 12.645H16.2581V14.4515H14.4516V12.645Z" fill="#303030"/>
<path d="M18.0645 12.645H19.871V14.4515H18.0645V12.645Z" fill="#303030"/>
<path d="M21.6774 12.645H23.4839V14.4515H21.6774V12.645Z" fill="#303030"/>
<path d="M14.4516 28.9032H12.6452V32.5161H5.41937V25.2903H10.8387V23.4839H3.61292V34.3226H14.4516V28.9032Z" fill="#303030"/>
<path d="M17.4259 20.1357L9.03228 28.5294L7.86444 27.3615L6.58722 28.6388L9.03228 31.0838L18.7031 21.413L17.4259 20.1357Z" fill="#303030"/>
<path d="M12.6452 47.8711H5.41937V40.6453H10.8387V38.8389H3.61292V49.6776H14.4516V44.2582H12.6452V47.8711Z" fill="#303030"/>
<path d="M7.86444 42.716L6.58722 43.9933L9.03228 46.4383L18.7031 36.7675L17.4259 35.4902L9.03228 43.8839L7.86444 42.716Z" fill="#303030"/>
<path d="M28.9032 49.6772H30.7096V51.4837H28.9032V49.6772Z" fill="#303030"/>
<path d="M17.1613 49.6772H27.0968V51.4837H17.1613V49.6772Z" fill="#303030"/>
<path d="M18.9677 24.3872H30.7096V26.1937H18.9677V24.3872Z" fill="#303030"/>
</svg>
