<svg width="56" height="52" viewBox="0 0 56 52" fill="none" xmlns="http://www.w3.org/2000/svg">
<path d="M7.05469 19.1959V22.2584L5.35938 22.6808L3.66406 22.2584L4.19584 20.5212L3.66406 19.1959L5.4717 18.8457L7.05469 19.1959Z" fill="#FAF8F8"/>
<path d="M37.6355 41.9925L36.6545 38.9415L36.6543 38.9413H36.6549L36.1977 37.5195L33.4287 34.9224L30.8492 37.5195L29.4109 41.9929H32.0556L32.0557 41.9925H37.6355Z" fill="#95B900"/>
<path d="M42.0552 43.2678C41.5694 42.2315 40.5118 41.5164 39.2923 41.5161H29.1134L27.8653 41.9753C27.7026 41.9753 25.2365 42.9237 25.2365 44.4483C25.2365 45.0521 25.7265 45.5421 26.3303 45.5421L40.8748 45.4257C41.4786 45.4257 41.9686 44.9357 41.9686 44.332C41.9686 44.1068 42.3233 44.1268 42.2768 43.9154C42.2272 43.6892 42.1522 43.4724 42.0552 43.2678Z" fill="#95B900"/>
<path d="M42.3478 44.5639C42.3492 45.1694 41.8595 45.6648 41.254 45.6648L33.7588 46.5568L25.7928 45.6648C25.1898 45.6648 24.6995 45.1764 24.699 44.5734C24.6979 43.0477 25.815 41.7821 27.2759 41.5523C27.4323 41.5283 27.592 41.5151 27.755 41.5151H29.1134L28.3611 42.5131C27.9265 43.0896 28.3378 43.9148 29.0598 43.9148H42.2767C42.3232 44.1237 42.3472 44.3412 42.3478 44.5639Z" fill="#95B900"/>
<path d="M55.1774 33.0494V35.3321C55.1774 36.5407 53.5085 37.0945 52.2998 37.0945L15.4801 37.11C14.2715 37.11 13.2926 36.1311 13.2926 34.9225L12.7469 33.0494L35.1502 31.7695L55.1774 33.0494Z" fill="#95B900"/>
<path d="M55.1774 3.00635V33.0495H13.4043L13.3671 3.11102C13.3671 1.90243 13.7258 0.818848 14.9344 0.818848H52.9899C54.1985 0.818848 55.1774 1.79775 55.1774 3.00635Z" fill="#FAF8F8"/>
<path d="M18.8672 26.853V28.2749C18.8672 29.2297 18.3542 30.0676 17.5897 30.5269L17.4388 32.7812L17.4202 33.0491H13.4039V33.0119L13.3744 9.68115H13.9453C15.0916 9.68115 16.0235 10.613 16.0235 11.7593V24.228H16.2422C17.6892 24.228 18.8672 25.4049 18.8672 26.853Z" fill="#F0E9E6"/>
<path d="M14.9344 30.862V0.818848C13.7258 0.818848 12.7469 1.79775 12.7469 3.00635V33.0495H13.4042H14.9344H55.1774V31.2995H15.3719C15.1302 31.2995 14.9344 31.1036 14.9344 30.862Z" fill="#F0E9E6"/>
<path d="M18.8672 6.57682L19.3047 5.90723H27.3438L28 7.28426L28.9844 5.90723H49.0547C49.6588 5.90723 50.1484 6.3969 50.1484 7.00098V13.7456L49.3793 14.6031L50.1484 15.3862V21.7659L49.8887 22.4638C49.8887 23.0678 48.8292 22.9225 48.2251 22.9225L19.4141 22.805C18.81 22.805 18.3203 22.3153 18.3203 21.7113L18.5391 7.5449C18.5391 6.94082 18.2631 6.57682 18.8672 6.57682Z" fill="#D2EBEE"/>
<path d="M50.1484 21.766V22.2046C50.1484 22.8087 49.6588 23.2983 49.0547 23.2983H28.9844L28.1641 22.9379L27.3438 23.2983H18.8672C18.2631 23.2983 17.7734 22.8087 17.7734 22.2046V15.3862L18.3203 14.5658L17.7734 13.7455V7.00146C17.7734 6.39662 18.2634 5.90771 18.8672 5.90771H19.3047V21.2191C19.3047 21.5211 19.5496 21.766 19.8516 21.766H50.1484Z" fill="#D2EBEE"/>
<path d="M24.6094 10.2827C24.6094 10.4175 24.5931 10.5484 24.5625 10.6737C24.387 11.391 23.7401 11.7046 22.9688 11.7046C22.0627 11.7046 21.7516 11.0794 21.7516 10.1733C21.7516 9.40192 21.8606 8.86412 22.5781 8.6889C22.7033 8.65828 22.8341 8.64209 22.9688 8.64209C23.8748 8.64209 24.6094 9.37665 24.6094 10.2827Z" fill="#FAF8F8"/>
<path d="M24.5623 10.6735C24.3873 11.391 23.7398 11.9237 22.9688 11.9237C22.0631 11.9237 21.3281 11.1887 21.3281 10.283C21.3281 9.51086 21.8608 8.86445 22.5783 8.68945C22.5477 8.81414 22.5312 8.94539 22.5312 9.07992C22.5312 9.98555 23.2663 10.7205 24.1719 10.7205C24.3064 10.7205 24.4377 10.7041 24.5623 10.6735Z" fill="#F0E9E6"/>
<path d="M24.6094 18.8687C24.6094 19.0034 24.5931 19.1343 24.5625 19.2597C24.387 19.9769 23.7401 20.2905 22.9688 20.2905C22.0627 20.2905 21.7516 19.6653 21.7516 18.7593C21.7516 17.9879 21.8606 17.4501 22.5781 17.2748C22.7033 17.2442 22.8341 17.228 22.9688 17.228C23.8748 17.228 24.6094 17.9626 24.6094 18.8687Z" fill="#FAF8F8"/>
<path d="M24.5623 19.2595C24.3873 19.977 23.7398 20.5096 22.9688 20.5096C22.0631 20.5096 21.3281 19.7746 21.3281 18.869C21.3281 18.0968 21.8608 17.4504 22.5783 17.2754C22.5477 17.4001 22.5312 17.5313 22.5312 17.6659C22.5312 18.5715 23.2663 19.3065 24.1719 19.3065C24.3064 19.3065 24.4377 19.2901 24.5623 19.2595Z" fill="#F0E9E6"/>
<path d="M30.5808 26.8694L31.0078 26.5244H37.3515C37.9556 26.5244 38.4453 27.0141 38.4453 27.6182V28.2739L38.0788 28.7405C38.0788 29.3445 37.7334 29.5224 37.1293 29.5224L30.874 29.5922C30.2699 29.5922 29.7803 29.1025 29.7803 28.4984L29.7151 27.7212C29.7151 27.117 29.9767 26.8694 30.5808 26.8694Z" fill="#95B900"/>
<path d="M38.4453 28.2738V28.7124C38.4453 29.3165 37.9556 29.8062 37.3516 29.8062H30.5703C29.9662 29.8062 29.4766 29.3165 29.4766 28.7124V27.6187C29.4766 27.0138 29.9666 26.5249 30.5703 26.5249H31.0078V27.8363C31.0078 28.0779 31.2037 28.2738 31.4453 28.2738H38.4453Z" fill="#95B900"/>
<path d="M17.4202 33.0494L17.1478 37.1094L15.4799 37.1105C14.2713 37.1105 13.2924 36.1316 13.2924 34.923L12.7466 33.0494L13.4039 33.0122V33.0494H17.4202Z" fill="#95B900"/>
<path d="M16.1328 29.3678L8.81278 28.3491L2.02344 29.3678L3.66406 45.1045L14.4922 45.1883L15.1639 43.8059L16.1328 29.3678Z" fill="#FDDD45"/>
<path d="M15.1637 43.8062L15.0391 45.6656L8.81278 46.557L3.11719 45.6656L2.02344 29.3687L3.00431 28.8242L4.0075 29.3687L4.93544 43.1939C4.95852 43.5385 5.24486 43.8062 5.59027 43.8062H15.1637Z" fill="#FDDD45"/>
<path d="M14.4922 25.7588L10.5163 26.646L9.99969 12.1968C9.99969 11.8949 10.2446 11.65 10.5466 11.65L11.7171 11.2119H13.9453C14.2473 11.2119 14.4922 11.4568 14.4922 11.7588V25.7588Z" fill="#FDDD45"/>
<path d="M11.9766 11.2124C11.6747 11.2124 11.4297 11.4563 11.4297 11.7593V25.7593L10.5861 26.3109L9.67969 25.7593V11.7593C9.67969 11.4563 9.92469 11.2124 10.2266 11.2124H11.9766Z" fill="#FDDD45"/>
<path d="M7.0547 16.353V19.1957H3.92592L3.88873 16.509C3.88873 15.9042 4.37873 15.4152 4.98248 15.4152L5.96106 15.2593C6.5647 15.2593 7.0547 15.7482 7.0547 16.353Z" fill="#95B900"/>
<path d="M7.05469 22.2583V25.7594L5.61072 26.311L3.66406 25.7594L4.375 24.0088L3.66406 22.2583H7.05469Z" fill="#FDDD45"/>
<path d="M5.08594 19.1959V22.2584L4.375 22.6063L3.66406 22.2584V19.1959L4.25163 18.8457L5.08594 19.1959Z" fill="#F0E9E6"/>
<path d="M5.08594 22.2583V25.7594L4.49367 26.4226L3.66406 25.7594V22.2583H5.08594Z" fill="#FDDD45"/>
<path d="M15.7942 29.0663L2.38993 29.0104C1.78585 29.0104 1.29618 28.5207 1.29618 27.9166L1.2171 26.9998C1.2171 26.3957 1.22738 26.1248 1.83146 26.1248L2.2881 25.7588H16.2422C16.8462 25.7588 17.3359 26.2485 17.3359 26.8525V27.727L16.8879 27.9725C16.8879 28.5766 16.3982 29.0663 15.7942 29.0663Z" fill="#FDDD45"/>
<path d="M17.3359 27.7269V28.2749C17.3359 28.879 16.8463 29.3687 16.2422 29.3687H1.91406C1.30998 29.3687 0.820312 28.879 0.820312 28.2749V26.853C0.820312 26.2482 1.31031 25.7593 1.91406 25.7593H2.28813L2.41708 27.2279C2.44191 27.5103 2.67838 27.7269 2.96187 27.7269H17.3359Z" fill="#FDDD45"/>
<path d="M6.06813 15.2647C5.51687 15.3205 5.08594 15.7865 5.08594 16.353V19.1957H3.66406V16.353C3.66406 15.7482 4.15406 15.2593 4.75781 15.2593H5.96094C5.99703 15.2593 6.03312 15.2615 6.06813 15.2647Z" fill="#95B900"/>
<path d="M54.086 45.665H2.67971L2.13863 46.3335C1.53456 46.3335 1.21704 46.6231 1.21704 47.2271L1.47648 48.7863C1.47648 49.3904 1.96615 49.88 2.57023 49.88L53.6333 50.243C54.2373 50.243 54.727 49.7534 54.727 49.1493L55.1796 48.7269V46.7587C55.1797 46.1547 54.69 45.665 54.086 45.665Z" fill="#FAF8F8"/>
<path d="M55.1797 48.7269V49.4937C55.1797 50.0977 54.69 50.5874 54.0859 50.5874H1.91406C1.30998 50.5874 0.820312 50.0977 0.820312 49.4937V46.7593C0.820312 46.1544 1.31031 45.6655 1.91406 45.6655H2.67969V48.1801C2.67969 48.482 2.92458 48.7269 3.22656 48.7269H55.1797Z" fill="#F0E9E6"/>
<path d="M55.1797 25.9771C55.6328 25.9771 56 25.6099 56 25.1568V3.00781C56 1.34936 54.6506 0 52.9922 0H14.9297C13.2712 0 11.9219 1.34936 11.9219 3.00781V10.3917H10.2266C9.47264 10.3917 8.85938 11.005 8.85938 11.7589V24.9386H7.875V16.3527C7.875 15.2973 7.0163 14.4386 5.96094 14.4386H4.75781C3.70245 14.4386 2.84375 15.2973 2.84375 16.3527V24.9386H1.91406C0.858703 24.9386 0 25.7973 0 26.8527V28.2745C0 29.0955 0.520516 29.7954 1.24808 30.0666L2.23989 44.8448H1.91406C0.858703 44.8448 0 45.7035 0 46.7589V49.4933C0 50.5486 0.858703 51.4073 1.91406 51.4073H54.0859C55.1413 51.4073 56 50.5486 56 49.4933V46.7589C56 45.7035 55.1413 44.8448 54.0859 44.8448H43.1208C43.1208 44.8448 43.1135 44.6652 43.1135 44.5726C43.1135 42.4355 41.3749 40.6968 39.2377 40.6968H38.0253L37.268 38.3415H52.9922C54.6506 38.3415 56 36.9922 56 35.3337V28.9849C56 28.5318 55.6328 28.1646 55.1797 28.1646C54.7265 28.1646 54.3594 28.5318 54.3594 28.9849V32.2307H16.7629L16.9082 30.0666C17.6357 29.7954 18.1562 29.0955 18.1562 28.2745V26.8527C18.1562 25.7973 17.2975 24.9386 16.2422 24.9386H15.3125V19.1412C15.3125 18.688 14.9453 18.3209 14.4922 18.3209C14.039 18.3209 13.6719 18.688 13.6719 19.1412V24.9386H10.5V12.0323H13.6719V15.313C13.6719 15.7662 14.039 16.1334 14.4922 16.1334C14.9453 16.1334 15.3125 15.7662 15.3125 15.313V11.7589C15.3125 11.005 14.6992 10.3917 13.9453 10.3917H13.5625V3.00781C13.5625 2.25389 14.1758 1.64062 14.9297 1.64062H52.9922C53.7461 1.64062 54.3594 2.25389 54.3594 3.00781V25.1568C54.3594 25.6099 54.7265 25.9771 55.1797 25.9771ZM4.48438 20.0167H6.23438V21.4386H4.48438V20.0167ZM4.75781 16.0792H5.96094C6.11177 16.0792 6.23438 16.2018 6.23438 16.3527V18.3761H4.48438V16.3527C4.48438 16.2018 4.60698 16.0792 4.75781 16.0792ZM4.48438 23.0792H6.23438V24.9386H4.48438V23.0792ZM54.3594 46.7589V49.4933C54.3594 49.6441 54.2368 49.7667 54.0859 49.7667H1.91406C1.76323 49.7667 1.64062 49.6441 1.64062 49.4933V46.7589C1.64062 46.6081 1.76323 46.4855 1.91406 46.4855H54.0859C54.2368 46.4855 54.3594 46.6081 54.3594 46.7589ZM16.3528 38.3415H29.6695L28.9122 40.6968H27.6998C25.5627 40.6968 23.824 42.4354 23.824 44.5726C23.824 44.6652 23.8267 44.8448 23.8267 44.8448H15.9164L16.3528 38.3415ZM41.4729 44.5726C41.4729 44.7195 41.3564 44.8386 41.2111 44.8448H25.7264C25.5811 44.8386 25.4646 44.7194 25.4646 44.5726C25.4646 43.3401 26.4672 42.3374 27.6998 42.3374H29.5076C29.5085 42.3374 29.5095 42.3376 29.5104 42.3376C29.5112 42.3376 29.5121 42.3374 29.5131 42.3374H37.4245C37.4254 42.3374 37.4263 42.3376 37.4272 42.3376C37.4282 42.3376 37.4291 42.3374 37.43 42.3374H39.2378C40.4703 42.3374 41.4729 43.3401 41.4729 44.5726ZM36.302 40.6968H30.6354L31.3927 38.3415H35.5447L36.302 40.6968ZM54.3594 33.8714V35.3337C54.3594 36.0876 53.7461 36.7009 52.9922 36.7009C42.7213 36.7009 26.677 36.7009 16.4629 36.7009L16.6528 33.8714H54.3594ZM16.5156 26.8527V28.2745C16.5156 28.4254 16.393 28.548 16.2422 28.548H8.85938C8.40623 28.548 8.03906 28.9151 8.03906 29.3683C8.03906 29.8214 8.40623 30.1886 8.85938 30.1886H15.2555L14.2719 44.8448H3.88434L2.90073 30.1886H5.03125C5.48439 30.1886 5.85156 29.8214 5.85156 29.3683C5.85156 28.9151 5.48439 28.548 5.03125 28.548H1.91406C1.76323 28.548 1.64062 28.4254 1.64062 28.2745V26.8527C1.64062 26.7018 1.76323 26.5792 1.91406 26.5792H16.2422C16.393 26.5792 16.5156 26.7018 16.5156 26.8527Z" fill="#303030"/>
<path d="M50.9688 22.2041V7.00098C50.9688 5.94562 50.11 5.08691 49.0547 5.08691H35.3281C34.875 5.08691 34.5078 5.45409 34.5078 5.90723C34.5078 6.36037 34.875 6.72754 35.3281 6.72754H49.0547C49.2055 6.72754 49.3281 6.85015 49.3281 7.00098V13.7458H28.9844V6.72754H31.5C31.9531 6.72754 32.3203 6.36037 32.3203 5.90723C32.3203 5.45409 31.9531 5.08691 31.5 5.08691H18.8672C17.8118 5.08691 16.9531 5.94562 16.9531 7.00098V22.2041C16.9531 23.2595 17.8118 24.1182 18.8672 24.1182H49.0547C50.11 24.1182 50.9688 23.2595 50.9688 22.2041ZM49.3281 15.3864V22.2041C49.3281 22.3549 49.2055 22.4775 49.0547 22.4775H28.9844V15.3864H49.3281ZM18.8672 6.72754H27.3438V13.7458H18.5938V7.00098C18.5938 6.85015 18.7164 6.72754 18.8672 6.72754ZM18.5938 22.2041V15.3864H27.3438V22.4775H18.8672C18.7164 22.4775 18.5938 22.3549 18.5938 22.2041Z" fill="#303030"/>
<path d="M33.3044 9.73535H33.3125L39 9.68066C39.453 9.67629 39.8167 9.30551 39.8124 8.85248C39.808 8.40218 39.4416 8.04004 38.9923 8.04004C38.9896 8.04004 38.9869 8.04004 38.9842 8.04004L33.2967 8.09473C32.8437 8.0991 32.48 8.46988 32.4843 8.92291C32.4887 9.37321 32.8551 9.73535 33.3044 9.73535Z" fill="#303030"/>
<path d="M33.3047 12.5249H43.8047C44.2578 12.5249 44.625 12.1577 44.625 11.7046C44.625 11.2515 44.2578 10.8843 43.8047 10.8843H33.3047C32.8515 10.8843 32.4844 11.2515 32.4844 11.7046C32.4844 12.1577 32.8515 12.5249 33.3047 12.5249Z" fill="#303030"/>
<path d="M44.8984 9.68066C45.3516 9.68066 45.7188 9.31349 45.7188 8.86035C45.7188 8.40721 45.3516 8.04004 44.8984 8.04004H42.2734C41.8203 8.04004 41.4531 8.40721 41.4531 8.86035C41.4531 9.31349 41.8203 9.68066 42.2734 9.68066H44.8984Z" fill="#303030"/>
<path d="M38.3359 19.7979H33.3047C32.8515 19.7979 32.4844 20.165 32.4844 20.6182C32.4844 21.0713 32.8515 21.4385 33.3047 21.4385H38.3359C38.7891 21.4385 39.1562 21.0713 39.1562 20.6182C39.1562 20.165 38.7891 19.7979 38.3359 19.7979Z" fill="#303030"/>
<path d="M33.3046 18.103H33.3085L44.9023 18.0483C45.3554 18.0462 45.7208 17.6771 45.7188 17.2242C45.7166 16.7724 45.3498 16.4077 44.8986 16.4077C44.8972 16.4077 44.8959 16.4077 44.8946 16.4077L33.3009 16.4624C32.8477 16.4646 32.4823 16.8336 32.4844 17.2865C32.4866 17.7384 32.8533 18.103 33.3046 18.103Z" fill="#303030"/>
<path d="M22.9688 12.7432C24.3257 12.7432 25.4297 11.6391 25.4297 10.2822C25.4297 8.92532 24.3257 7.82129 22.9688 7.82129C21.6118 7.82129 20.5078 8.92532 20.5078 10.2822C20.5078 11.6391 21.6118 12.7432 22.9688 12.7432ZM22.9688 9.46191C23.4211 9.46191 23.7891 9.82985 23.7891 10.2822C23.7891 10.7346 23.4211 11.1025 22.9688 11.1025C22.5164 11.1025 22.1484 10.7346 22.1484 10.2822C22.1484 9.82985 22.5164 9.46191 22.9688 9.46191Z" fill="#303030"/>
<path d="M22.9688 16.4624C21.6118 16.4624 20.5078 17.5664 20.5078 18.9233C20.5078 20.2802 21.6118 21.3843 22.9688 21.3843C24.3257 21.3843 25.4297 20.2802 25.4297 18.9233C25.4297 17.5664 24.3257 16.4624 22.9688 16.4624ZM22.9688 19.7437C22.5164 19.7437 22.1484 19.3757 22.1484 18.9233C22.1484 18.471 22.5164 18.103 22.9688 18.103C23.4211 18.103 23.7891 18.471 23.7891 18.9233C23.7891 19.3757 23.4211 19.7437 22.9688 19.7437Z" fill="#303030"/>
<path d="M30.5703 25.7041C29.515 25.7041 28.6562 26.5628 28.6562 27.6182V28.7119C28.6562 29.7673 29.515 30.626 30.5703 30.626H37.3516C38.4069 30.626 39.2656 29.7673 39.2656 28.7119V27.6182C39.2656 26.5628 38.4069 25.7041 37.3516 25.7041H30.5703ZM37.625 27.6182V28.7119C37.625 28.8627 37.5024 28.9854 37.3516 28.9854H30.5703C30.4195 28.9854 30.2969 28.8627 30.2969 28.7119V27.6182C30.2969 27.4673 30.4195 27.3447 30.5703 27.3447H37.3516C37.5024 27.3447 37.625 27.4673 37.625 27.6182Z" fill="#303030"/>
</svg>
