<svg width="15" height="53" viewBox="0 0 15 53" fill="none" xmlns="http://www.w3.org/2000/svg">
<path d="M1.50424 0.136434C1.0273 -0.142048 0.414916 0.0188297 0.136434 0.495764C-0.142048 0.972698 0.0188297 1.58508 0.495764 1.86357L1.50424 0.136434ZM0.0133399 49.8372C-0.0765687 50.3821 0.292289 50.8967 0.837206 50.9867L9.71715 52.4518C10.2621 52.5417 10.7767 52.1729 10.8666 51.6279C10.9565 51.083 10.5877 50.5684 10.0427 50.4785L2.14945 49.1761L3.45181 41.2829C3.54171 40.7379 3.17286 40.2233 2.62794 40.1334C2.08302 40.0435 1.56839 40.4123 1.47849 40.9573L0.0133399 49.8372ZM0.495764 1.86357C14.8845 10.2652 19.3341 35.6288 0.417439 49.1872L1.58256 50.8128C21.7314 36.3712 17.0864 9.23484 1.50424 0.136434L0.495764 1.86357Z" fill="#95B900"/>
</svg>
