<svg width="97" height="97" viewBox="0 0 97 97" fill="none" xmlns="http://www.w3.org/2000/svg">
<g clip-path="url(#clip0_40_390)">
<path d="M10.6185 89.2323H86.3813C93.2164 89.2323 97.3882 81.7743 93.7749 76.0147L55.8936 11.8431C52.4844 6.40906 44.5158 6.40906 41.1066 11.8431L3.22506 76.0147C-0.388187 81.7743 3.78357 89.2323 10.6185 89.2323Z" fill="#FDDD45"/>
<path d="M48.5 17.2402L11.5566 79.7598H85.4434L48.5 17.2402Z" fill="white" stroke="white" stroke-miterlimit="10"/>
<path d="M48.5 71.9922C50.5926 71.9922 52.2891 70.2958 52.2891 68.2031C52.2891 66.1105 50.5926 64.4141 48.5 64.4141C46.4074 64.4141 44.7109 66.1105 44.7109 68.2031C44.7109 70.2958 46.4074 71.9922 48.5 71.9922Z" fill="#95B900"/>
<path d="M52.2891 41.1113C52.2891 43.204 50.5927 56.8359 48.5 56.8359C46.4073 56.8359 44.7109 43.204 44.7109 41.1113C44.7109 39.0186 46.4073 37.3223 48.5 37.3223C50.5927 37.3223 52.2891 39.0186 52.2891 41.1113Z" fill="#95B900"/>
<path d="M10.6018 91.127C9.11459 91.127 7.68043 90.8314 6.33911 90.246C5.06598 89.689 3.93495 88.9009 2.97631 87.9025C2.03663 86.9249 1.29965 85.792 0.786235 84.5397C0.265239 83.2665 0.00189936 81.9309 4.83328e-06 80.5668C-0.0018897 78.6287 0.553208 76.7153 1.60657 75.0291L39.4745 10.8803L39.501 10.8367C40.4842 9.26805 41.8578 7.98355 43.4738 7.12154C45.0065 6.305 46.7343 5.87305 48.4716 5.87305H48.5H48.5284C50.2657 5.87305 51.9935 6.305 53.5262 7.12154C55.1422 7.98355 56.5158 9.26805 57.499 10.8367L57.5256 10.8803L81.6732 51.787V51.7889C81.9309 52.2246 82.0029 52.7343 81.876 53.2231C81.749 53.7137 81.4402 54.1249 81.0045 54.3825C80.7127 54.5549 80.3812 54.6459 80.044 54.6459C79.3752 54.6459 78.75 54.2878 78.4109 53.7137L54.2821 12.8392C53.0128 10.8291 50.9042 9.67158 48.5 9.66211C46.1015 9.67158 43.9967 10.8254 42.7255 12.826L4.85569 76.9786L4.82916 77.0222C4.14145 78.1229 3.79096 79.3146 3.78907 80.5668C3.78717 82.2928 4.48625 84.0092 5.70633 85.2747C7.00977 86.6199 8.70916 87.3341 10.6189 87.3379H86.3812C88.2908 87.3341 89.9883 86.6199 91.2918 85.2747C92.5138 84.0092 93.2128 82.2928 93.2109 80.5668C93.209 79.3164 92.8586 78.1229 92.169 77.0222L92.1443 76.9786L87.0783 68.3964C86.8207 67.9606 86.7487 67.451 86.8756 66.9603C87.0007 66.4715 87.3114 66.0585 87.7471 65.8027C88.0389 65.6303 88.3704 65.5394 88.7076 65.5394C89.3764 65.5394 90.0016 65.8956 90.3407 66.4696L95.3972 75.0367C96.4487 76.719 97.0019 78.6306 97 80.5668C96.9981 81.9309 96.7348 83.2665 96.2138 84.5397C95.7004 85.792 94.9634 86.9249 94.0218 87.9025C93.0651 88.9009 91.934 89.689 90.6609 90.246C89.3196 90.8295 87.8854 91.127 86.3982 91.127H10.6018Z" fill="#303030"/>
<path d="M85.4434 81.6543H11.5566C10.8763 81.6543 10.2483 81.2896 9.91105 80.6987C9.57401 80.1078 9.57951 79.3816 9.92545 78.796L46.8688 16.2765C47.2098 15.6996 47.8299 15.3457 48.5 15.3457C49.1701 15.3457 49.7902 15.6996 50.131 16.2765L87.0744 78.796C87.4205 79.3816 87.4258 80.108 87.0888 80.6987C86.7517 81.2896 86.1237 81.6543 85.4434 81.6543ZM14.8766 77.8652H82.1232L48.5 20.9643L14.8766 77.8652Z" fill="#303030"/>
<path d="M48.5 73.8867C45.3661 73.8867 42.8164 71.3371 42.8164 68.2031C42.8164 65.0692 45.3661 62.5195 48.5 62.5195C51.6339 62.5195 54.1836 65.0692 54.1836 68.2031C54.1836 71.3371 51.6339 73.8867 48.5 73.8867ZM48.5 66.3086C47.4554 66.3086 46.6055 67.1585 46.6055 68.2031C46.6055 69.2478 47.4554 70.0977 48.5 70.0977C49.5446 70.0977 50.3945 69.2478 50.3945 68.2031C50.3945 67.1585 49.5446 66.3086 48.5 66.3086Z" fill="#303030"/>
<path d="M48.5 58.7305C46.4238 58.7305 45.5906 56.3212 45.2346 55.2925C44.7913 54.0106 44.362 52.2658 43.9584 50.1064C43.2508 46.3198 42.8164 42.3153 42.8164 41.1113C42.8164 37.9774 45.3661 35.4277 48.5 35.4277C51.6339 35.4277 54.1836 37.9774 54.1836 41.1113C54.1836 42.3153 53.7492 46.3198 53.0416 50.1064C52.638 52.2658 52.2087 54.0106 51.7654 55.2925C51.4094 56.3212 50.5764 58.7305 48.5 58.7305ZM48.5 39.2168C47.4554 39.2168 46.6055 40.0667 46.6055 41.1113C46.6055 41.8345 46.9124 44.9692 47.4987 48.382C47.8657 50.5175 48.2098 52.0073 48.5 53.0395C48.7901 52.0072 49.1343 50.5175 49.5013 48.382C50.0876 44.9692 50.3945 41.8345 50.3945 41.1113C50.3945 40.0667 49.5446 39.2168 48.5 39.2168Z" fill="#303030"/>
<path d="M84.3743 61.9873C85.4206 61.9873 86.2688 61.1391 86.2688 60.0928C86.2688 59.0465 85.4206 58.1982 84.3743 58.1982C83.3279 58.1982 82.4797 59.0465 82.4797 60.0928C82.4797 61.1391 83.3279 61.9873 84.3743 61.9873Z" fill="#303030"/>
</g>
<defs>
<clipPath id="clip0_40_390">
<rect width="97" height="97" fill="white"/>
</clipPath>
</defs>
</svg>
