<svg width="56" height="56" viewBox="0 0 56 56" fill="none" xmlns="http://www.w3.org/2000/svg">
<path d="M14.875 54.9062H41.125C41.125 51.7651 38.5786 49.2188 35.4375 49.2188H20.5625C17.4214 49.2188 14.875 51.7651 14.875 54.9062Z" fill="#95B900"/>
<path d="M23.625 42.6562H32.375V49.2187H23.625V42.6562Z" fill="#95B900"/>
<path d="M4.375 42.6562H51.625C53.4374 42.6562 54.9062 41.1874 54.9062 39.375V4.375C54.9062 2.56262 53.4374 1.09375 51.625 1.09375H4.375C2.56262 1.09375 1.09375 2.56262 1.09375 4.375V39.375C1.09375 41.1874 2.56262 42.6562 4.375 42.6562Z" fill="white"/>
<path d="M4.375 42.6562H51.625C53.4374 42.6562 54.9062 41.1874 54.9062 39.375V36.5312H1.09375V39.375C1.09375 41.1874 2.56262 42.6562 4.375 42.6562Z" fill="#95B900"/>
<path d="M5.46875 48.7812C3.05267 48.7812 1.09375 50.7402 1.09375 53.1562V54.9062H9.84375V53.1562C9.84375 50.7402 7.88483 48.7812 5.46875 48.7812Z" fill="#95B900"/>
<path d="M10.2321 29.4971V36.5313H22.9029V27.0635L27.0139 31.1971C28.4153 32.6058 30.6703 32.6831 32.1644 31.3727L35.3255 28.6012C36.389 27.6689 36.4385 26.03 35.4336 25.035C34.5813 24.1907 33.2406 24.092 32.2737 24.8026L30.0273 26.453L25.8736 22.2882C24.0322 20.4421 21.5315 19.4043 18.9236 19.4043H12.4341C8.58123 19.4043 5.46019 22.5326 5.46917 26.3855V36.5313H10.2321V29.4971Z" fill="#FDDD45"/>
<path d="M15.9256 19.4194C18.6608 19.4194 20.8787 17.202 20.8787 14.4667V13.1747C20.8787 10.4391 18.6608 8.22168 15.9256 8.22168C13.1904 8.22168 10.973 10.4391 10.973 13.1747V14.4667C10.973 17.202 13.1904 19.4194 15.9256 19.4194Z" fill="#FFDDCF"/>
<path d="M51.625 0H32.9219C32.3177 0 31.8281 0.489624 31.8281 1.09375C31.8281 1.69788 32.3177 2.1875 32.9219 2.1875H51.625C52.8311 2.1875 53.8125 3.16888 53.8125 4.375V35.4375H23.9967V29.7145L26.238 31.9683C28.0419 33.7819 30.9617 33.8815 32.8851 32.1951L36.0463 29.4236C36.7803 28.7797 37.2187 27.8509 37.2482 26.8746C37.2776 25.8984 36.897 24.9448 36.2027 24.2577C34.9603 23.0269 33.0351 22.8854 31.6256 23.9206L30.1371 25.0144L26.6478 21.5161C24.9601 19.8242 22.8162 18.7548 20.4929 18.4224C21.4131 17.3611 21.972 15.9781 21.972 14.4665V13.1741C21.972 9.84033 19.2598 7.12775 15.9256 7.12775C12.5914 7.12775 9.87878 9.84033 9.87878 13.1741V14.4665C9.87878 15.9615 10.4257 17.3304 11.3276 18.387C9.59125 18.6237 7.98779 19.4153 6.7287 20.6774C5.20599 22.204 4.36987 24.2321 4.375 26.3854V35.4375H2.1875V4.375C2.1875 3.16888 3.16888 2.1875 4.375 2.1875H23.0781C23.6822 2.1875 24.1719 1.69788 24.1719 1.09375C24.1719 0.489624 23.6822 0 23.0781 0H4.375C1.96277 0 0 1.96277 0 4.375V39.375C0 41.7872 1.96277 43.75 4.375 43.75H22.5312V48.125H20.5625C16.8232 48.125 13.7812 51.167 13.7812 54.9062C13.7812 55.5104 14.2709 56 14.875 56H41.125C41.7291 56 42.2187 55.5104 42.2187 54.9062C42.2187 51.167 39.1768 48.125 35.4375 48.125H33.4687V43.75H51.625C54.0372 43.75 56 41.7872 56 39.375V4.375C56 1.96277 54.0372 0 51.625 0ZM12.0667 13.1741C12.0667 11.0464 13.7979 9.31524 15.9256 9.31524C18.0537 9.31524 19.7849 11.0464 19.7849 13.1741V14.4665C19.7849 16.4832 18.2293 18.1426 16.2554 18.3105H15.5958C13.6219 18.1426 12.0667 16.4832 12.0667 14.4665V13.1741ZM6.5625 26.3833C6.55908 24.8123 7.16791 23.3345 8.27746 22.2223C9.38702 21.1107 10.8632 20.498 12.4341 20.498H14.8318V24.4735C14.8318 25.0776 15.3215 25.5673 15.9256 25.5673C16.5297 25.5673 17.0193 25.0776 17.0193 24.4735V20.498H18.9236C21.2576 20.498 23.4507 21.408 25.099 23.0606L29.2527 27.225C29.6346 27.6082 30.2392 27.6544 30.6746 27.3343L32.921 25.6839C33.4576 25.2895 34.1908 25.3438 34.6637 25.8121C34.9321 26.0778 35.0731 26.4316 35.0615 26.8084C35.0504 27.1857 34.8876 27.53 34.6039 27.7791L31.4432 30.5507C30.3857 31.4778 28.7806 31.4227 27.7889 30.4259L23.6784 26.2923C23.3661 25.9783 22.8953 25.8838 22.4855 26.0526C22.0762 26.2218 21.8092 26.6208 21.8092 27.0639V35.4375H11.3259V29.4971C11.3259 28.8929 10.8362 28.4033 10.2321 28.4033C9.62799 28.4033 9.13836 28.8929 9.13836 29.4971V35.4375H6.5625V26.3833ZM39.8997 53.8125H16.1003C16.5921 51.8057 18.4062 50.3125 20.5625 50.3125H35.4375C37.5938 50.3125 39.4079 51.8057 39.8997 53.8125ZM31.2812 48.125H24.7187V43.75H31.2812V48.125ZM53.8125 39.375C53.8125 40.5811 52.8311 41.5625 51.625 41.5625H4.375C3.16888 41.5625 2.1875 40.5811 2.1875 39.375V37.625H53.8125V39.375Z" fill="#303030"/>
<path d="M28 2.1875C28.2875 2.1875 28.5699 2.07043 28.7733 1.86707C28.9767 1.6637 29.0937 1.38129 29.0937 1.09375C29.0937 0.806213 28.9767 0.523804 28.7733 0.320435C28.5699 0.117065 28.2875 0 28 0C27.7125 0 27.4301 0.117065 27.2267 0.320435C27.0233 0.523804 26.9062 0.806213 26.9062 1.09375C26.9062 1.38129 27.0233 1.6637 27.2267 1.86707C27.4301 2.07043 27.7125 2.1875 28 2.1875Z" fill="#303030"/>
<path d="M28 40.6875C28.2875 40.6875 28.5699 40.5704 28.7733 40.3671C28.9767 40.1637 29.0937 39.8813 29.0937 39.5937C29.0937 39.3062 28.9767 39.0238 28.7733 38.8204C28.5699 38.6171 28.2875 38.5 28 38.5C27.7125 38.5 27.4301 38.6171 27.2267 38.8204C27.0233 39.0238 26.9062 39.3062 26.9062 39.5937C26.9062 39.8813 27.0233 40.1637 27.2267 40.3671C27.4301 40.5704 27.7125 40.6875 28 40.6875Z" fill="#303030"/>
<path d="M5.46875 47.6875C2.45325 47.6875 0 50.1407 0 53.1562V54.9062C0 55.5104 0.489624 56 1.09375 56H9.84375C10.4479 56 10.9375 55.5104 10.9375 54.9062V53.1562C10.9375 50.1407 8.48425 47.6875 5.46875 47.6875ZM8.75 53.8125H2.1875V53.1562C2.1875 51.3469 3.65936 49.875 5.46875 49.875C7.27814 49.875 8.75 51.3469 8.75 53.1562V53.8125Z" fill="#303030"/>
<path d="M32.9026 13.3437H36.9218C37.5259 13.3437 38.0155 12.8541 38.0155 12.25C38.0155 11.6459 37.5259 11.1562 36.9218 11.1562H32.9026C32.2985 11.1562 31.8089 11.6459 31.8089 12.25C31.8089 12.8541 32.2985 13.3437 32.9026 13.3437Z" fill="#303030"/>
<path d="M40.8174 12.25C40.8174 12.8541 41.307 13.3437 41.9111 13.3437H48.9603C49.5644 13.3437 50.054 12.8541 50.054 12.25C50.054 11.6459 49.5644 11.1562 48.9603 11.1562H41.9111C41.307 11.1562 40.8174 11.6459 40.8174 12.25Z" fill="#303030"/>
<path d="M44.0781 5.90625H32.9026C32.2985 5.90625 31.8089 6.39587 31.8089 7C31.8089 7.60413 32.2985 8.09375 32.9026 8.09375H44.0781C44.6822 8.09375 45.1719 7.60413 45.1719 7C45.1719 6.39587 44.6822 5.90625 44.0781 5.90625Z" fill="#303030"/>
<path d="M49.7733 7.77332C49.9767 7.56995 50.0937 7.28754 50.0937 7C50.0937 6.71246 49.9767 6.43005 49.7733 6.22668C49.5699 6.02332 49.2875 5.90625 49 5.90625C48.7125 5.90625 48.4301 6.02332 48.2267 6.22668C48.0233 6.43005 47.9062 6.71246 47.9062 7C47.9062 7.28754 48.0233 7.56995 48.2267 7.77332C48.4301 7.97668 48.7125 8.09375 49 8.09375C49.2875 8.09375 49.5699 7.97668 49.7733 7.77332Z" fill="#303030"/>
<path d="M32.9026 18.5937H48.9586C49.5627 18.5937 50.0523 18.1041 50.0523 17.5C50.0523 16.8959 49.5627 16.4062 48.9586 16.4062H32.9026C32.2985 16.4062 31.8089 16.8959 31.8089 17.5C31.8089 18.1041 32.2985 18.5937 32.9026 18.5937Z" fill="#303030"/>
<path d="M48.9586 21.6562H42C41.3959 21.6562 40.9062 22.1459 40.9062 22.75C40.9062 23.3541 41.3959 23.8437 42 23.8437H48.9586C49.5627 23.8437 50.0523 23.3541 50.0523 22.75C50.0523 22.1459 49.5627 21.6562 48.9586 21.6562Z" fill="#303030"/>
</svg>
