<svg width="56" height="56" viewBox="0 0 56 56" fill="none" xmlns="http://www.w3.org/2000/svg">
<rect width="56" height="56" fill="white"/>
<path d="M9.93546 0.90332L0.903198 9.93558V55.0969H44.258V0.90332H9.93546Z" fill="#EEEEEE"/>
<path d="M9.93546 0.90332V9.93558H0.903198L9.93546 0.90332Z" fill="#FDDD45"/>
<path d="M40.6451 8.12902V15.3548C40.6451 17.3509 39.0283 18.9677 37.0322 18.9677H17.1612C15.1651 18.9677 13.5483 17.3509 13.5483 15.3548V8.12902C13.5483 6.13292 15.1651 4.51611 17.1612 4.51611H37.0322C39.0283 4.51611 40.6451 6.13292 40.6451 8.12902Z" fill="#FDDD45"/>
<path d="M25.2903 9.93555H28.9032V13.5484H25.2903V9.93555Z" fill="#95B900"/>
<path d="M33.4193 9.93555H37.0322V13.5484H33.4193V9.93555Z" fill="#95B900"/>
<path d="M17.1613 9.93555H20.7742V13.5484H17.1613V9.93555Z" fill="#95B900"/>
<path d="M14.3885 42.9754C15.0024 43.8513 15.3548 44.9173 15.3548 46.0644C15.3548 49.0541 12.9252 51.4837 9.93547 51.4837C6.94574 51.4837 4.51611 49.0541 4.51611 46.0644C4.51611 43.0746 6.94574 40.645 9.93547 40.645C11.7781 40.645 13.413 41.5663 14.3885 42.9754Z" fill="#95B900"/>
<path d="M14.3885 26.7176C15.0024 27.5935 15.3548 28.6594 15.3548 29.8066C15.3548 32.7963 12.9252 35.2259 9.93547 35.2259C6.94574 35.2259 4.51611 32.7963 4.51611 29.8066C4.51611 26.8168 6.94574 24.3872 9.93547 24.3872C11.7781 24.3872 13.413 25.3085 14.3885 26.7176Z" fill="#95B900"/>
<path d="M52.107 35.4695L37.9354 49.6411L35.6774 47.383L49.8489 33.2114L52.107 35.4695Z" fill="#95B900"/>
<path d="M49.8489 33.2117L35.6774 47.3832L33.4193 45.1252L44.258 34.2865V34.2776L47.5909 30.9536L49.8489 33.2117Z" fill="#FDDD45"/>
<path d="M37.9355 49.6411L31.6129 51.4837L33.4194 45.125L37.9355 49.6411Z" fill="#F0D0B4"/>
<path d="M55.0968 31.1525C55.0968 32.0006 54.7625 32.8143 54.1574 33.4106L52.1071 35.4688L47.5909 30.9527L49.6413 28.8944C50.2464 28.2982 51.0592 27.9639 51.8993 27.9639C52.7845 27.9639 53.5792 28.3251 54.1574 28.8944C54.7356 29.4722 55.0968 30.2762 55.0968 31.1525Z" fill="#FDDD45"/>
<path d="M56 31.156C56 28.8971 54.1627 27.0588 51.9037 27.0588C50.81 27.0588 49.7815 27.4853 49.0071 28.2593L45.1613 32.1051V0H9.56149L0 9.56149V56H45.1613V43.6918L54.8004 34.0527C55.5735 33.2795 56 32.2506 56 31.156ZM33.8683 46.8495L36.2186 49.1998L32.9289 50.1599L33.8683 46.8495ZM37.9355 48.3614L36.9555 47.3814L49.8507 34.4853L50.8316 35.4662L37.9355 48.3614ZM35.6774 46.1042L34.6966 45.1234L47.5936 32.2273L48.5744 33.2081L35.6774 46.1042ZM9.03226 3.08367V9.03226H3.08367L9.03226 3.08367ZM43.3548 54.1935H1.80645V10.8387H10.8387V1.80645H43.3548V33.9115L32.6145 44.651L30.2978 52.8087L38.4105 50.4426L43.3548 45.4982V54.1935ZM53.5232 32.7755L52.1097 34.1889L48.8708 30.95L50.2843 29.5365C50.7169 29.1039 51.2925 28.8653 51.9037 28.8653C53.1655 28.8653 54.1935 29.8933 54.1935 31.156C54.1935 31.7681 53.955 32.3437 53.5232 32.7755Z" fill="#303030"/>
<path d="M18.2992 37.3276L14.4119 41.6043C13.2657 40.4545 11.6824 39.7418 9.9355 39.7418C6.45005 39.7418 3.61292 42.579 3.61292 46.0644C3.61292 49.5499 6.45005 52.387 9.9355 52.387C13.4209 52.387 16.2581 49.5499 16.2581 46.0644C16.2581 44.987 15.9864 43.9726 15.5083 43.0839L19.6364 38.5431L18.2992 37.3276ZM14.4516 46.0644C14.4516 48.5545 12.4255 50.5805 9.9355 50.5805C7.44545 50.5805 5.41937 48.5545 5.41937 46.0644C5.41937 43.5744 7.44545 41.5483 9.9355 41.5483C11.2154 41.5483 12.3669 42.0894 13.1898 42.9481L9.78996 46.6885L7.72727 45.3138L6.72525 46.8168L10.0819 49.055L14.1733 44.5543C14.3422 45.0284 14.4516 45.5316 14.4516 46.0644Z" fill="#303030"/>
<path d="M14.4119 25.3465C13.2657 24.1967 11.6824 23.484 9.9355 23.484C6.45005 23.484 3.61292 26.3211 3.61292 29.8066C3.61292 33.292 6.45005 36.1292 9.9355 36.1292C13.4209 36.1292 16.2581 33.292 16.2581 29.8066C16.2581 28.7292 15.9864 27.7148 15.5083 26.8261L19.6364 22.2853L18.2992 21.0698L14.4119 25.3465ZM14.4516 29.8066C14.4516 32.2966 12.4255 34.3227 9.9355 34.3227C7.44545 34.3227 5.41937 32.2966 5.41937 29.8066C5.41937 27.3165 7.44545 25.2905 9.9355 25.2905C11.2154 25.2905 12.3669 25.8316 13.1898 26.6903L9.78996 30.4306L7.72727 29.056L6.72525 30.559L10.0819 32.7972L14.1733 28.2965C14.3422 28.7706 14.4516 29.2738 14.4516 29.8066Z" fill="#303030"/>
<path d="M39.7419 28.9033H41.5484V30.7098H39.7419V28.9033Z" fill="#303030"/>
<path d="M19.871 28.9033H37.9355V30.7098H19.871V28.9033Z" fill="#303030"/>
<path d="M19.871 25.2905H41.5484V27.097H19.871V25.2905Z" fill="#303030"/>
<path d="M19.871 32.5161H41.5484V34.3226H19.871V32.5161Z" fill="#303030"/>
<path d="M19.871 45.1611H29.8065V46.9676H19.871V45.1611Z" fill="#303030"/>
<path d="M19.871 48.7744H29.8065V50.5809H19.871V48.7744Z" fill="#303030"/>
<path d="M19.871 41.5483H29.8065V43.3548H19.871V41.5483Z" fill="#303030"/>
<path d="M17.1613 19.8709H37.0322C39.5223 19.8709 41.5484 17.8448 41.5484 15.3547V8.12892C41.5484 5.63888 39.5223 3.61279 37.0322 3.61279H17.1613C14.6712 3.61279 12.6451 5.63888 12.6451 8.12892V15.3547C12.6451 17.8448 14.6712 19.8709 17.1613 19.8709ZM14.4516 8.12892C14.4516 6.63516 15.6675 5.41924 17.1613 5.41924H37.0322C38.526 5.41924 39.7419 6.63516 39.7419 8.12892V15.3547C39.7419 16.8485 38.526 18.0644 37.0322 18.0644H17.1613C15.6675 18.0644 14.4516 16.8485 14.4516 15.3547V8.12892Z" fill="#303030"/>
<path d="M37.9355 9.03223H32.5161V14.4516H37.9355V9.03223ZM36.129 12.6451H34.3226V10.8387H36.129V12.6451Z" fill="#303030"/>
<path d="M29.8064 9.03223H24.3871V14.4516H29.8064V9.03223ZM28 12.6451H26.1935V10.8387H28V12.6451Z" fill="#303030"/>
<path d="M21.6774 9.03223H16.2581V14.4516H21.6774V9.03223ZM19.871 12.6451H18.0645V10.8387H19.871V12.6451Z" fill="#303030"/>
</svg>
