<svg width="265" height="129" viewBox="0 0 265 129" fill="none" xmlns="http://www.w3.org/2000/svg">
<path d="M2 12.8029C6.3111 12.8029 8.35732 10.7508 10.9502 8.10338C13.5431 5.45601 17.1982 1.8374 23.7586 1.8374C30.319 1.8374 33.7866 5.29936 36.5513 8.10338C39.3161 10.9074 41.2373 12.8029 45.5172 12.8029C49.797 12.8029 51.8901 10.7508 54.483 8.10338C57.0759 5.45601 60.731 1.8374 67.2758 1.8374C73.8205 1.8374 77.3662 5.42468 80.0841 8.15038C82.802 10.8761 84.7701 12.8499 89.0343 12.8499C93.2986 12.8499 95.3917 10.7978 97.9846 8.15038C100.577 5.503 104.233 1.8844 110.793 1.8844C117.353 1.8844 120.821 5.34635 123.586 8.15038C126.35 10.9544 128.272 12.8499 132.552 12.8499C136.831 12.8499 138.924 10.7978 141.517 8.15038C144.11 5.503 147.765 1.8844 154.31 1.8844C160.855 1.8844 164.354 5.34635 167.118 8.15038C169.883 10.9544 171.804 12.8499 176.069 12.8499C180.333 12.8499 182.426 10.7978 185.019 8.15038C187.612 5.503 191.267 1.8844 197.827 1.8844C204.388 1.8844 207.855 5.34635 210.636 8.15038C213.416 10.9544 215.322 12.8499 219.601 12.8499C223.881 12.8499 225.959 10.7978 228.552 8.15038C231.145 5.503 234.8 1.8844 241.36 1.8844C247.92 1.8844 251.388 5.34635 254.168 8.15038C256.949 10.9544 258.854 12.8499 263.119 12.8499" stroke="#303030" stroke-width="2.5" stroke-miterlimit="10" stroke-linecap="round"/>
<path d="M2 41.9552C6.3111 41.9552 8.35732 39.9031 10.9502 37.2557C13.5431 34.6083 17.1982 30.9897 23.7586 30.9897C30.319 30.9897 33.7866 34.4674 36.5513 37.2557C39.3161 40.0441 41.2373 41.9552 45.5172 41.9552C49.797 41.9552 51.8901 39.9031 54.483 37.2557C57.0759 34.6083 60.731 30.9897 67.2758 30.9897C73.8205 30.9897 77.3194 34.4674 80.0841 37.2557C82.8488 40.0441 84.7701 41.9552 89.0343 41.9552C93.2986 41.9552 95.3917 39.9031 97.9846 37.2557C100.577 34.6083 104.233 30.9897 110.793 30.9897C117.353 30.9897 120.821 34.4674 123.586 37.2557C126.35 40.0441 128.272 41.9552 132.552 41.9552C136.831 41.9552 138.924 39.9031 141.517 37.2557C144.11 34.6083 147.765 30.9897 154.31 30.9897C160.855 30.9897 164.354 34.4674 167.118 37.2557C169.883 40.0441 171.804 41.9552 176.069 41.9552C180.333 41.9552 182.426 39.9031 185.019 37.2557C187.612 34.6083 191.267 30.9897 197.827 30.9897C204.388 30.9897 207.855 34.4674 210.636 37.2557C213.416 40.0441 215.322 41.9552 219.601 41.9552C223.881 41.9552 225.959 39.9031 228.552 37.2557C231.145 34.6083 234.8 30.9897 241.36 30.9897C247.92 30.9897 251.388 34.4674 254.168 37.2557C256.949 40.0441 258.854 41.9552 263.119 41.9552" stroke="#303030" stroke-width="2.5" stroke-miterlimit="10" stroke-linecap="round"/>
<path d="M2 71.1076C6.3111 71.1076 8.35732 69.0554 10.9502 66.4081C13.5431 63.7607 17.1982 60.1421 23.7586 60.1421C30.319 60.1421 33.7866 63.6197 36.5513 66.4081C39.3161 69.1964 41.2373 71.1076 45.5172 71.1076C49.797 71.1076 51.8901 69.0554 54.483 66.4081C57.0759 63.7607 60.731 60.1421 67.2758 60.1421C73.8205 60.1421 77.3194 63.6197 80.0841 66.4081C82.8488 69.1964 84.7701 71.1076 89.0343 71.1076C93.2986 71.1076 95.3917 69.0554 97.9846 66.4081C100.577 63.7607 104.233 60.1421 110.793 60.1421C117.353 60.1421 120.821 63.6197 123.586 66.4081C126.35 69.1964 128.272 71.1076 132.552 71.1076C136.831 71.1076 138.924 69.0554 141.517 66.4081C144.11 63.7607 147.765 60.1421 154.31 60.1421C160.855 60.1421 164.354 63.6197 167.118 66.4081C169.883 69.1964 171.804 71.1076 176.069 71.1076C180.333 71.1076 182.426 69.0554 185.019 66.4081C187.612 63.7607 191.267 60.1421 197.827 60.1421C204.388 60.1421 207.855 63.6197 210.636 66.4081C213.416 69.1964 215.322 71.1076 219.601 71.1076C223.881 71.1076 225.959 69.0554 228.552 66.4081C231.145 63.7607 234.8 60.1421 241.36 60.1421C247.92 60.1421 251.388 63.6197 254.168 66.4081C256.949 69.1964 258.854 71.1076 263.119 71.1076" stroke="#00C2E6" stroke-width="2.5" stroke-miterlimit="10" stroke-linecap="round"/>
<path d="M2 98.1837C6.3111 98.1837 8.35732 96.1316 10.9502 93.4842C13.5431 90.8369 17.1982 87.2183 23.7586 87.2183C30.319 87.2183 33.7866 90.6802 36.5513 93.4842C39.3161 96.2883 41.2373 98.1837 45.5172 98.1837C49.797 98.1837 51.8901 96.1316 54.483 93.4842C57.0759 90.8369 60.731 87.2183 67.2758 87.2183C73.8205 87.2183 77.3662 90.8055 80.0841 93.5312C82.802 96.2569 84.7701 98.2307 89.0343 98.2307C93.2986 98.2307 95.3917 96.1786 97.9846 93.5312C100.577 90.8839 104.233 87.2653 110.793 87.2653C117.353 87.2653 120.821 90.7272 123.586 93.5312C126.35 96.3353 128.272 98.2307 132.552 98.2307C136.831 98.2307 138.924 96.1786 141.517 93.5312C144.11 90.8839 147.765 87.2653 154.31 87.2653C160.855 87.2653 164.354 90.7272 167.118 93.5312C169.883 96.3353 171.804 98.2307 176.069 98.2307C180.333 98.2307 182.426 96.1786 185.019 93.5312C187.612 90.8839 191.267 87.2653 197.827 87.2653C204.388 87.2653 207.855 90.7272 210.636 93.5312C213.416 96.3353 215.322 98.2307 219.601 98.2307C223.881 98.2307 225.959 96.1786 228.552 93.5312C231.145 90.8839 234.8 87.2653 241.36 87.2653C247.92 87.2653 251.388 90.7272 254.168 93.5312C256.949 96.3353 258.854 98.2307 263.119 98.2307" stroke="#00C2E6" stroke-width="2.5" stroke-miterlimit="10" stroke-linecap="round"/>
<path d="M2 127.337C6.3111 127.337 8.35732 125.284 10.9502 122.637C13.5431 119.99 17.1982 116.371 23.7586 116.371C30.319 116.371 33.7866 119.849 36.5513 122.637C39.3161 125.425 41.2373 127.337 45.5172 127.337C49.797 127.337 51.8901 125.284 54.483 122.637C57.0759 119.99 60.731 116.371 67.2758 116.371C73.8205 116.371 77.3194 119.849 80.0841 122.637C82.8488 125.425 84.7701 127.337 89.0343 127.337C93.2986 127.337 95.3917 125.284 97.9846 122.637C100.577 119.99 104.233 116.371 110.793 116.371C117.353 116.371 120.821 119.849 123.586 122.637C126.35 125.425 128.272 127.337 132.552 127.337C136.831 127.337 138.924 125.284 141.517 122.637C144.11 119.99 147.765 116.371 154.31 116.371C160.855 116.371 164.354 119.849 167.118 122.637C169.883 125.425 171.804 127.337 176.069 127.337C180.333 127.337 182.426 125.284 185.019 122.637C187.612 119.99 191.267 116.371 197.827 116.371C204.388 116.371 207.855 119.849 210.636 122.637C213.416 125.425 215.322 127.337 219.601 127.337C223.881 127.337 225.959 125.284 228.552 122.637C231.145 119.99 234.8 116.371 241.36 116.371C247.92 116.371 251.388 119.849 254.168 122.637C256.949 125.425 258.854 127.337 263.119 127.337" stroke="#00C2E6" stroke-width="2.5" stroke-miterlimit="10" stroke-linecap="round"/>
</svg>
