<svg width="325" height="158" viewBox="0 0 325 158" fill="none" xmlns="http://www.w3.org/2000/svg">
<path d="M2 15.4851C7.30171 15.4851 9.81811 12.9615 13.0068 9.70578C16.1955 6.45009 20.6905 2 28.7583 2C36.8261 2 41.0905 6.25744 44.4905 9.70578C47.8906 13.1541 50.2533 15.4851 55.5166 15.4851C60.7799 15.4851 63.3539 12.9615 66.5426 9.70578C69.7313 6.45009 74.2262 2 82.2749 2C90.3235 2 94.6839 6.41156 98.0263 9.76357C101.369 13.1156 103.789 15.5429 109.033 15.5429C114.277 15.5429 116.851 13.0193 120.04 9.76357C123.229 6.50788 127.724 2.05779 135.791 2.05779C143.859 2.05779 148.124 6.31524 151.524 9.76357C154.924 13.2119 157.286 15.5429 162.55 15.5429C167.813 15.5429 170.387 13.0193 173.576 9.76357C176.764 6.50788 181.259 2.05779 189.308 2.05779C197.357 2.05779 201.659 6.31524 205.059 9.76357C208.459 13.2119 210.822 15.5429 216.066 15.5429C221.31 15.5429 223.884 13.0193 227.073 9.76357C230.262 6.50788 234.757 2.05779 242.825 2.05779C250.892 2.05779 255.157 6.31524 258.576 9.76357C261.995 13.2119 264.339 15.5429 269.602 15.5429C274.865 15.5429 277.42 13.0193 280.609 9.76357C283.798 6.50788 288.293 2.05779 296.36 2.05779C304.428 2.05779 308.693 6.31524 312.112 9.76357C315.531 13.2119 317.875 15.5429 323.119 15.5429" stroke="#303030" stroke-width="2.5" stroke-miterlimit="10" stroke-linecap="round"/>
<path d="M2 51.3362C7.30171 51.3362 9.81811 48.8125 13.0068 45.5569C16.1955 42.3012 20.6905 37.8511 28.7583 37.8511C36.8261 37.8511 41.0905 42.1278 44.4905 45.5569C47.8906 48.9859 50.2533 51.3362 55.5166 51.3362C60.7799 51.3362 63.3539 48.8125 66.5426 45.5569C69.7313 42.3012 74.2262 37.8511 82.2749 37.8511C90.3235 37.8511 94.6263 42.1278 98.0263 45.5569C101.426 48.9859 103.789 51.3362 109.033 51.3362C114.277 51.3362 116.851 48.8125 120.04 45.5569C123.229 42.3012 127.724 37.8511 135.791 37.8511C143.859 37.8511 148.124 42.1278 151.524 45.5569C154.924 48.9859 157.286 51.3362 162.55 51.3362C167.813 51.3362 170.387 48.8125 173.576 45.5569C176.764 42.3012 181.259 37.8511 189.308 37.8511C197.357 37.8511 201.659 42.1278 205.059 45.5569C208.459 48.9859 210.822 51.3362 216.066 51.3362C221.31 51.3362 223.884 48.8125 227.073 45.5569C230.262 42.3012 234.757 37.8511 242.825 37.8511C250.892 37.8511 255.157 42.1278 258.576 45.5569C261.995 48.9859 264.339 51.3362 269.602 51.3362C274.865 51.3362 277.42 48.8125 280.609 45.5569C283.798 42.3012 288.293 37.8511 296.36 37.8511C304.428 37.8511 308.693 42.1278 312.112 45.5569C315.531 48.9859 317.875 51.3362 323.119 51.3362" stroke="#303030" stroke-width="2.5" stroke-miterlimit="10" stroke-linecap="round"/>
<path d="M2 87.1873C7.30171 87.1873 9.81811 84.6636 13.0068 81.4079C16.1955 78.1522 20.6905 73.7021 28.7583 73.7021C36.8261 73.7021 41.0905 77.9789 44.4905 81.4079C47.8906 84.837 50.2533 87.1873 55.5166 87.1873C60.7799 87.1873 63.3539 84.6636 66.5426 81.4079C69.7313 78.1522 74.2262 73.7021 82.2749 73.7021C90.3235 73.7021 94.6263 77.9789 98.0263 81.4079C101.426 84.837 103.789 87.1873 109.033 87.1873C114.277 87.1873 116.851 84.6636 120.04 81.4079C123.229 78.1522 127.724 73.7021 135.791 73.7021C143.859 73.7021 148.124 77.9789 151.524 81.4079C154.924 84.837 157.286 87.1873 162.55 87.1873C167.813 87.1873 170.387 84.6636 173.576 81.4079C176.764 78.1522 181.259 73.7021 189.308 73.7021C197.357 73.7021 201.659 77.9789 205.059 81.4079C208.459 84.837 210.822 87.1873 216.066 87.1873C221.31 87.1873 223.884 84.6636 227.073 81.4079C230.262 78.1522 234.757 73.7021 242.825 73.7021C250.892 73.7021 255.157 77.9789 258.576 81.4079C261.995 84.837 264.339 87.1873 269.602 87.1873C274.865 87.1873 277.42 84.6636 280.609 81.4079C283.798 78.1522 288.293 73.7021 296.36 73.7021C304.428 73.7021 308.693 77.9789 312.112 81.4079C315.531 84.837 317.875 87.1873 323.119 87.1873" stroke="#00C2E6" stroke-width="2.5" stroke-miterlimit="10" stroke-linecap="round"/>
<path d="M2 120.485C7.30171 120.485 9.81811 117.961 13.0068 114.706C16.1955 111.45 20.6905 107 28.7583 107C36.8261 107 41.0905 111.257 44.4905 114.706C47.8906 118.154 50.2533 120.485 55.5166 120.485C60.7799 120.485 63.3539 117.961 66.5426 114.706C69.7313 111.45 74.2262 107 82.2749 107C90.3235 107 94.6839 111.412 98.0263 114.764C101.369 118.116 103.789 120.543 109.033 120.543C114.277 120.543 116.851 118.019 120.04 114.764C123.229 111.508 127.724 107.058 135.791 107.058C143.859 107.058 148.124 111.315 151.524 114.764C154.924 118.212 157.286 120.543 162.55 120.543C167.813 120.543 170.387 118.019 173.576 114.764C176.764 111.508 181.259 107.058 189.308 107.058C197.357 107.058 201.659 111.315 205.059 114.764C208.459 118.212 210.822 120.543 216.066 120.543C221.31 120.543 223.884 118.019 227.073 114.764C230.262 111.508 234.757 107.058 242.825 107.058C250.892 107.058 255.157 111.315 258.576 114.764C261.995 118.212 264.339 120.543 269.602 120.543C274.865 120.543 277.42 118.019 280.609 114.764C283.798 111.508 288.293 107.058 296.36 107.058C304.428 107.058 308.693 111.315 312.112 114.764C315.531 118.212 317.875 120.543 323.119 120.543" stroke="#00C2E6" stroke-width="2.5" stroke-miterlimit="10" stroke-linecap="round"/>
<path d="M2 156.336C7.30171 156.336 9.81811 153.813 13.0068 150.557C16.1955 147.301 20.6905 142.851 28.7583 142.851C36.8261 142.851 41.0905 147.128 44.4905 150.557C47.8906 153.986 50.2533 156.336 55.5166 156.336C60.7799 156.336 63.3539 153.813 66.5426 150.557C69.7313 147.301 74.2262 142.851 82.2749 142.851C90.3235 142.851 94.6263 147.128 98.0263 150.557C101.426 153.986 103.789 156.336 109.033 156.336C114.277 156.336 116.851 153.813 120.04 150.557C123.229 147.301 127.724 142.851 135.791 142.851C143.859 142.851 148.124 147.128 151.524 150.557C154.924 153.986 157.286 156.336 162.55 156.336C167.813 156.336 170.387 153.813 173.576 150.557C176.764 147.301 181.259 142.851 189.308 142.851C197.357 142.851 201.659 147.128 205.059 150.557C208.459 153.986 210.822 156.336 216.066 156.336C221.31 156.336 223.884 153.813 227.073 150.557C230.262 147.301 234.757 142.851 242.825 142.851C250.892 142.851 255.157 147.128 258.576 150.557C261.995 153.986 264.339 156.336 269.602 156.336C274.865 156.336 277.42 153.813 280.609 150.557C283.798 147.301 288.293 142.851 296.36 142.851C304.428 142.851 308.693 147.128 312.112 150.557C315.531 153.986 317.875 156.336 323.119 156.336" stroke="#00C2E6" stroke-width="2.5" stroke-miterlimit="10" stroke-linecap="round"/>
</svg>
