<svg width="8" height="16" viewBox="0 0 8 16" fill="none" xmlns="http://www.w3.org/2000/svg">
<path d="M7.56944 1.48809C7.83901 1.1736 7.80259 0.700124 7.48809 0.430558C7.1736 0.160991 6.70012 0.197412 6.43056 0.511906L7.56944 1.48809ZM1 8L0.430558 7.51191C0.189814 7.79277 0.189814 8.20723 0.430558 8.48809L1 8ZM6.43056 15.4881C6.70012 15.8026 7.1736 15.839 7.48809 15.5694C7.80259 15.2999 7.83901 14.8264 7.56944 14.5119L6.43056 15.4881ZM6.43056 0.511906L0.430558 7.51191L1.56944 8.48809L7.56944 1.48809L6.43056 0.511906ZM0.430558 8.48809L6.43056 15.4881L7.56944 14.5119L1.56944 7.51191L0.430558 8.48809Z" fill="white"/>
</svg>
