<svg width="8" height="16" viewBox="0 0 8 16" fill="none" xmlns="http://www.w3.org/2000/svg">
<path d="M0.430558 14.5119C0.160991 14.8264 0.197412 15.2999 0.511906 15.5694C0.826401 15.839 1.29988 15.8026 1.56944 15.4881L0.430558 14.5119ZM7 8L7.56944 8.48809C7.81019 8.20723 7.81019 7.79277 7.56944 7.51191L7 8ZM1.56944 0.511907C1.29988 0.197412 0.8264 0.160991 0.511906 0.430557C0.197411 0.700124 0.16099 1.1736 0.430557 1.48809L1.56944 0.511907ZM1.56944 15.4881L7.56944 8.48809L6.43056 7.51191L0.430558 14.5119L1.56944 15.4881ZM7.56944 7.51191L1.56944 0.511907L0.430557 1.48809L6.43056 8.48809L7.56944 7.51191Z" fill="white"/>
</svg>
