<svg width="48" height="48" viewBox="0 0 48 48" fill="none" xmlns="http://www.w3.org/2000/svg">
<rect width="48" height="48" rx="24" fill="#C93BAA"/>
<path d="M20.3342 24C20.3342 21.975 21.9754 20.333 24.0004 20.333C26.0255 20.333 27.6675 21.975 27.6675 24C27.6675 26.025 26.0255 27.667 24.0004 27.667C21.9754 27.667 20.3342 26.025 20.3342 24ZM18.3518 24C18.3518 27.1196 20.8807 29.6484 24.0004 29.6484C27.1202 29.6484 29.649 27.1196 29.649 24C29.649 20.8804 27.1202 18.3516 24.0004 18.3516C20.8807 18.3516 18.3518 20.8804 18.3518 24ZM28.5526 18.1277C28.5525 18.3887 28.6298 18.644 28.7748 18.8611C28.9197 19.0782 29.1258 19.2475 29.367 19.3475C29.6082 19.4475 29.8736 19.4738 30.1297 19.4229C30.3857 19.3721 30.621 19.2465 30.8057 19.062C30.9904 18.8774 31.1162 18.6423 31.1672 18.3862C31.2183 18.1302 31.1922 17.8648 31.0924 17.6235C30.9926 17.3823 30.8235 17.1761 30.6065 17.031C30.3894 16.8858 30.1343 16.8083 29.8732 16.8082H29.8727C29.5227 16.8084 29.1871 16.9474 28.9396 17.1948C28.6921 17.4422 28.5529 17.7777 28.5526 18.1277V18.1277ZM19.5563 32.9537C18.4838 32.9049 17.9008 32.7263 17.5134 32.5753C16.9998 32.3754 16.6334 32.1373 16.2481 31.7525C15.8628 31.3678 15.6244 31.0017 15.4253 30.4882C15.2743 30.101 15.0956 29.5179 15.0469 28.4454C14.9935 27.2859 14.9829 26.9376 14.9829 24.0001C14.9829 21.0626 14.9944 20.7152 15.0469 19.5548C15.0957 18.4823 15.2757 17.9004 15.4253 17.512C15.6252 16.9985 15.8634 16.632 16.2481 16.2468C16.6329 15.8615 16.999 15.623 17.5134 15.424C17.9007 15.273 18.4838 15.0943 19.5563 15.0456C20.7158 14.9922 21.0641 14.9816 24.0004 14.9816C26.9368 14.9816 27.2854 14.9931 28.4459 15.0456C29.5184 15.0944 30.1004 15.2744 30.4888 15.424C31.0024 15.623 31.3688 15.862 31.7541 16.2468C32.1394 16.6315 32.377 16.9985 32.5769 17.512C32.7279 17.8992 32.9066 18.4823 32.9553 19.5548C33.0087 20.7152 33.0193 21.0626 33.0193 24.0001C33.0193 26.9376 33.0087 27.285 32.9553 28.4454C32.9065 29.5179 32.727 30.1008 32.5769 30.4882C32.377 31.0017 32.1388 31.3682 31.7541 31.7525C31.3693 32.1369 31.0024 32.3754 30.4888 32.5753C30.1015 32.7263 29.5184 32.905 28.4459 32.9537C27.2864 33.0071 26.9381 33.0177 24.0004 33.0177C21.0628 33.0177 20.7154 33.0071 19.5563 32.9537V32.9537ZM19.4652 13.0666C18.2941 13.1199 17.4939 13.3056 16.7951 13.5775C16.0713 13.8584 15.4586 14.2351 14.8464 14.8463C14.2342 15.4576 13.8584 16.0712 13.5776 16.7949C13.3056 17.4942 13.1199 18.2939 13.0666 19.4649C13.0124 20.6378 13 21.0128 13 24C13 26.9872 13.0124 27.3622 13.0666 28.5351C13.1199 29.7062 13.3056 30.5058 13.5776 31.2051C13.8584 31.9284 14.2342 32.5427 14.8464 33.1537C15.4586 33.7647 16.0713 34.1409 16.7951 34.4225C17.4952 34.6944 18.2941 34.8801 19.4652 34.9334C20.6387 34.9867 21.0131 35 24.0004 35C26.9878 35 27.3628 34.9876 28.5357 34.9334C29.7069 34.8801 30.5065 34.6944 31.2058 34.4225C31.9291 34.1409 32.5422 33.7649 33.1545 33.1537C33.7667 32.5424 34.1417 31.9284 34.4233 31.2051C34.6952 30.5058 34.8818 29.7061 34.9343 28.5351C34.9876 27.3613 35 26.9872 35 24C35 21.0128 34.9876 20.6378 34.9343 19.4649C34.8809 18.2938 34.6952 17.4937 34.4233 16.7949C34.1417 16.0716 33.7658 15.4585 33.1545 14.8463C32.5432 14.2341 31.9291 13.8584 31.2067 13.5775C30.5065 13.3056 29.7068 13.1191 28.5366 13.0666C27.3637 13.0133 26.9887 13 24.0013 13C21.014 13 20.6387 13.0124 19.4652 13.0666Z" fill="white"/>
</svg>
