<svg width="205" height="66" viewBox="0 0 205 66" fill="none" xmlns="http://www.w3.org/2000/svg">
<g clip-path="url(#clip0_405_5)">
<path fill-rule="evenodd" clip-rule="evenodd" d="M8.4147 26.8174C8.80779 19.7093 9.08322 12.7001 8.14703 6.70707C7.57937 4.39756 3.99497 4.7931 4.08807 8.01731C4.32341 12.138 4.68676 16.6933 5.04494 21.2316C5.34106 26.6964 5.20787 32.2822 4.36608 38.067C3.74023 42.3724 2.79887 46.7794 2.06053 51.0952C1.38425 55.0494 0.706675 59.0022 0.0291038 62.9564C-0.376922 65.6979 3.66135 66.4955 4.31694 62.7248C4.98288 58.418 5.64881 54.1113 6.31474 49.8045C6.73758 47.0721 7.15912 44.3398 7.58196 41.6074C8.67719 34.4303 11.0202 29.2869 13.8159 22.5549C15.7632 17.6496 17.7106 12.7456 19.6567 7.84036C20.4739 5.3682 17.7352 4.06056 16.4033 6.53922C13.7396 13.2986 11.0771 20.058 8.41341 26.8174H8.4147ZM41.948 49.8943C41.4593 53.0704 44.3932 53.9929 45.4717 50.2495C46.7634 42.9723 48.0565 35.6937 49.3483 28.4165C51.006 16.2053 52.8383 10.6534 54.584 1.77057C54.6202 -0.421841 49.8591 -1.01256 49.3483 2.53043C47.4708 19.2851 45.2687 33.3686 41.948 49.8943ZM43.5489 59.6931C45.9462 61.192 44.6945 64.7793 41.6752 65.0512C40.4481 65.1618 38.8317 65.0304 38.3003 63.7201C37.6873 62.2108 38.8925 60.3398 40.1778 59.6294C41.2381 59.0439 42.5183 59.0478 43.5489 59.6931ZM22.6954 12.9109C25.826 3.95257 34.5762 2.71259 37.5464 8.78888C38.6313 11.0086 38.7903 14.9537 38.9028 17.4766C39.0929 21.7625 38.8395 26.1447 38.2524 30.5985C37.6537 35.1485 36.7369 39.899 35.5874 44.3437C34.5982 48.169 33.4435 51.5819 32.153 54.6512C30.9155 57.5944 29.6147 60.5675 27.2005 62.7365C22.6812 66.7973 16.4977 66.3653 15.4827 57.6621C15.0715 54.136 15.6197 49.5924 15.9456 46C17.0046 34.3353 19.0839 23.2146 22.6941 12.9096L22.6954 12.9109ZM26.1389 14.1313C22.5144 24.4871 20.5722 35.4244 19.5817 46.3357C19.3593 48.7844 18.4658 60.6781 21.8549 61.5759C25.3721 62.5075 27.7863 55.6128 28.791 53.2213C32.1142 45.313 38.1942 18.4394 34.271 10.4101C33.9219 9.69707 33.3995 9.10506 32.6366 8.84613C31.6073 8.49743 30.4616 8.84223 29.5694 9.39391C27.8936 10.4322 26.779 12.3045 26.1402 14.1313H26.1389Z" fill="#00C2E6"/>
<path fill-rule="evenodd" clip-rule="evenodd" d="M9.83072 27.5307C10.2238 20.4226 10.4992 13.4134 9.56305 7.42036C8.99539 5.11085 5.41098 5.5064 5.50408 8.73061C5.73942 12.8513 6.10278 17.4066 6.46096 21.9449C6.75707 27.4097 6.62389 32.9954 5.7821 38.7803C5.15625 43.0857 4.21489 47.4927 3.47654 51.8085C2.80026 55.7627 2.12269 59.7155 1.44512 63.6697C1.03909 66.4112 5.07737 67.2087 5.73296 63.4381C6.39889 59.1313 7.06483 54.8246 7.73076 50.5178C8.1536 47.7854 8.57514 45.053 8.99797 42.3207C10.0932 35.1436 12.4363 30.0002 15.2319 23.2682C17.1793 18.3629 19.1266 13.4589 21.0727 8.55365C21.8899 6.0815 19.1512 4.77386 17.8193 7.25252C15.1556 14.0119 12.4932 20.7713 9.82942 27.5307H9.83072ZM43.364 50.6076C42.8753 53.7837 45.8093 54.7062 46.8877 50.9628C48.1795 43.6856 49.4725 36.407 50.7643 29.1298C52.422 16.9186 54.2543 11.3667 56 2.48386C56.0362 0.291454 51.2751 -0.29926 50.7643 3.24373C48.8868 19.9984 46.6847 34.0819 43.364 50.6076ZM44.9649 60.4064C47.3622 61.9053 46.1105 65.4926 43.0912 65.7645C41.8641 65.8751 40.2477 65.7437 39.7163 64.4334C39.1034 62.9241 40.3085 61.0531 41.5938 60.3427C42.6541 59.7572 43.9343 59.7611 44.9649 60.4064ZM24.1114 13.6242C27.242 4.66587 35.9922 3.42589 38.9624 9.50218C40.0473 11.7219 40.2064 15.6669 40.3189 18.1898C40.5089 22.4758 40.2555 26.858 39.6684 31.3118C39.0697 35.8618 38.153 40.6123 37.0034 45.057C36.0142 48.8823 34.8595 52.2952 33.569 55.3645C32.3315 58.3077 31.0307 61.2808 28.6165 63.4498C24.0972 67.5106 17.9137 67.0786 16.8987 58.3754C16.4875 54.8493 17.0357 50.3057 17.3616 46.7133C18.4206 35.0486 20.4999 23.9278 24.1101 13.6229L24.1114 13.6242ZM27.5549 14.8446C23.9304 25.2004 21.9882 36.1377 20.9977 47.049C20.7753 49.4977 19.8818 61.3914 23.2709 62.2892C26.7881 63.2208 29.2023 56.3261 30.207 53.9346C33.5302 46.0263 39.6102 19.1527 35.6871 11.1234C35.3379 10.4104 34.8155 9.81835 34.0526 9.55943C33.0233 9.21072 31.8777 9.55553 30.9854 10.1072C29.3096 11.1455 28.195 13.0178 27.5562 14.8446H27.5549Z" fill="#63DF99"/>
</g>
<path d="M68.374 64.456C66.93 64.456 65.524 64.3167 64.156 64.038C62.8133 63.7847 61.5847 63.43 60.47 62.974C59.3807 62.518 58.456 62.024 57.696 61.492L60.204 56.742C61.04 57.3247 61.9267 57.8313 62.864 58.262C63.8267 58.6673 64.8273 58.984 65.866 59.212C66.9047 59.4147 67.9433 59.516 68.982 59.516C70.122 59.516 71.0973 59.3893 71.908 59.136C72.744 58.8827 73.3773 58.528 73.808 58.072C74.264 57.616 74.492 57.0587 74.492 56.4C74.492 55.792 74.2513 55.298 73.77 54.918C73.2887 54.538 72.6553 54.2213 71.87 53.968C71.11 53.6893 70.2613 53.4233 69.324 53.17C68.3867 52.9167 67.4367 52.6253 66.474 52.296C65.5367 51.9413 64.6753 51.5107 63.89 51.004C63.13 50.472 62.5093 49.8007 62.028 48.99C61.5467 48.1793 61.306 47.166 61.306 45.95C61.306 44.126 61.8 42.5427 62.788 41.2C63.8013 39.8573 65.22 38.8187 67.044 38.084C68.868 37.324 71.0087 36.944 73.466 36.944C75.2647 36.944 76.962 37.1467 78.558 37.552C80.154 37.932 81.522 38.4893 82.662 39.224L80.344 43.936C79.3307 43.252 78.2033 42.7453 76.962 42.416C75.7207 42.0613 74.4413 41.884 73.124 41.884C71.9333 41.884 70.9073 42.0233 70.046 42.302C69.21 42.5807 68.564 42.9733 68.108 43.48C67.6773 43.9613 67.462 44.5187 67.462 45.152C67.462 45.7853 67.69 46.3047 68.146 46.71C68.6273 47.09 69.2607 47.4193 70.046 47.698C70.8313 47.9513 71.6927 48.2047 72.63 48.458C73.5673 48.7113 74.5047 49.0027 75.442 49.332C76.3793 49.6613 77.2407 50.0793 78.026 50.586C78.8113 51.0927 79.4447 51.7387 79.926 52.524C80.4073 53.284 80.648 54.2467 80.648 55.412C80.648 57.236 80.1413 58.832 79.128 60.2C78.1147 61.5427 76.6833 62.594 74.834 63.354C73.01 64.0887 70.8567 64.456 68.374 64.456ZM93.7464 64.304C91.6438 64.304 89.8071 63.924 88.2364 63.164C86.6911 62.404 85.4878 61.34 84.6264 59.972C83.7651 58.604 83.3344 56.9953 83.3344 55.146C83.3344 52.866 83.8664 50.8393 84.9304 49.066C85.9944 47.2673 87.4638 45.8487 89.3384 44.81C91.2131 43.7713 93.3664 43.252 95.7984 43.252C97.9771 43.252 99.8644 43.708 101.46 44.62C103.056 45.5067 104.234 46.7733 104.994 48.42L99.9784 50.928C99.5478 49.9653 98.9398 49.2687 98.1544 48.838C97.3944 48.382 96.4824 48.154 95.4184 48.154C94.2531 48.154 93.2144 48.4453 92.3024 49.028C91.3904 49.5853 90.6684 50.3707 90.1364 51.384C89.6044 52.372 89.3384 53.5247 89.3384 54.842C89.3384 56.2353 89.7438 57.35 90.5544 58.186C91.3904 58.9967 92.5684 59.402 94.0884 59.402C95.1271 59.402 96.0771 59.1867 96.9384 58.756C97.7998 58.3 98.5218 57.6033 99.1044 56.666L103.474 59.402C102.512 60.9473 101.169 62.1507 99.4464 63.012C97.7491 63.8733 95.8491 64.304 93.7464 64.304ZM121.254 43.252C122.977 43.252 124.446 43.6193 125.662 44.354C126.878 45.0633 127.74 46.1147 128.246 47.508C128.778 48.9013 128.842 50.624 128.436 52.676L126.156 64H120.228L122.432 53.056C122.736 51.5613 122.61 50.4087 122.052 49.598C121.52 48.7873 120.532 48.382 119.088 48.382C117.594 48.382 116.34 48.8127 115.326 49.674C114.338 50.5353 113.654 51.8527 113.274 53.626L111.222 64H105.294L110.918 35.804H116.846L114.148 49.332L112.97 47.584C113.958 46.0893 115.174 45 116.618 44.316C118.088 43.6067 119.633 43.252 121.254 43.252ZM142.32 64.304C140.243 64.304 138.431 63.924 136.886 63.164C135.341 62.404 134.137 61.34 133.276 59.972C132.44 58.604 132.022 56.9953 132.022 55.146C132.022 52.866 132.554 50.8393 133.618 49.066C134.682 47.2673 136.139 45.8487 137.988 44.81C139.863 43.7713 141.991 43.252 144.372 43.252C146.475 43.252 148.286 43.632 149.806 44.392C151.351 45.152 152.542 46.216 153.378 47.584C154.239 48.9267 154.67 50.5353 154.67 52.41C154.67 54.6647 154.138 56.6913 153.074 58.49C152.01 60.2887 150.553 61.7073 148.704 62.746C146.855 63.7847 144.727 64.304 142.32 64.304ZM142.7 59.44C143.865 59.44 144.891 59.1613 145.778 58.604C146.69 58.0213 147.399 57.2233 147.906 56.21C148.413 55.1967 148.666 54.0187 148.666 52.676C148.666 51.308 148.261 50.206 147.45 49.37C146.639 48.534 145.499 48.116 144.03 48.116C142.865 48.116 141.826 48.4073 140.914 48.99C140.027 49.5473 139.318 50.3327 138.786 51.346C138.279 52.3593 138.026 53.5373 138.026 54.88C138.026 56.2733 138.431 57.388 139.242 58.224C140.053 59.0347 141.205 59.44 142.7 59.44ZM167.183 64.304C165.106 64.304 163.295 63.924 161.749 63.164C160.204 62.404 159.001 61.34 158.139 59.972C157.303 58.604 156.885 56.9953 156.885 55.146C156.885 52.866 157.417 50.8393 158.481 49.066C159.545 47.2673 161.002 45.8487 162.851 44.81C164.726 43.7713 166.854 43.252 169.235 43.252C171.338 43.252 173.149 43.632 174.669 44.392C176.215 45.152 177.405 46.216 178.241 47.584C179.103 48.9267 179.533 50.5353 179.533 52.41C179.533 54.6647 179.001 56.6913 177.937 58.49C176.873 60.2887 175.417 61.7073 173.567 62.746C171.718 63.7847 169.59 64.304 167.183 64.304ZM167.563 59.44C168.729 59.44 169.755 59.1613 170.641 58.604C171.553 58.0213 172.263 57.2233 172.769 56.21C173.276 55.1967 173.529 54.0187 173.529 52.676C173.529 51.308 173.124 50.206 172.313 49.37C171.503 48.534 170.363 48.116 168.893 48.116C167.728 48.116 166.689 48.4073 165.777 48.99C164.891 49.5473 164.181 50.3327 163.649 51.346C163.143 52.3593 162.889 53.5373 162.889 54.88C162.889 56.2733 163.295 57.388 164.105 58.224C164.916 59.0347 166.069 59.44 167.563 59.44ZM181.368 64L186.992 35.804H192.92L187.296 64H181.368ZM195.002 54.766L197.32 37.4H204.388L199.714 54.766H195.002ZM195.99 64.304C194.977 64.304 194.141 64 193.482 63.392C192.824 62.7587 192.494 61.9987 192.494 61.112C192.494 60.048 192.862 59.174 193.596 58.49C194.356 57.806 195.268 57.464 196.332 57.464C197.346 57.464 198.169 57.768 198.802 58.376C199.461 58.9587 199.79 59.6933 199.79 60.58C199.79 61.264 199.613 61.8973 199.258 62.48C198.929 63.0373 198.473 63.4807 197.89 63.81C197.333 64.1393 196.7 64.304 195.99 64.304Z" fill="#303030"/>
<defs>
<clipPath id="clip0_405_5">
<rect width="56" height="66" fill="white"/>
</clipPath>
</defs>
</svg>
