<svg width="168" height="31" viewBox="0 0 168 31" fill="none" xmlns="http://www.w3.org/2000/svg">
<path d="M1.50203 15.4774C1.02438 15.2001 0.412408 15.3625 0.135147 15.8402C-0.142114 16.3178 0.0203287 16.9298 0.497974 17.2071L1.50203 15.4774ZM167.198 17.3225C167.739 17.2132 168.089 16.6858 167.98 16.1444L166.2 7.32223C166.091 6.78086 165.563 6.43055 165.022 6.53979C164.481 6.64903 164.13 7.17646 164.24 7.71783L165.822 15.5598L157.98 17.1422C157.439 17.2514 157.088 17.7788 157.198 18.3202C157.307 18.8616 157.834 19.2119 158.376 19.1027L167.198 17.3225ZM0.497974 17.2071C20.4001 28.7597 36.0611 31.3697 49.5755 29.4869C63.0395 27.6112 74.2633 21.2818 85.2327 15.2362C96.2526 9.16273 107.016 3.37473 119.778 2.21109C132.495 1.05164 147.333 4.48011 166.447 17.1752L167.553 15.5092C148.167 2.6331 132.88 -0.991833 119.597 0.219356C106.359 1.42636 95.2474 7.43306 84.2673 13.4846C73.2367 19.5639 62.3355 25.6899 49.2995 27.506C36.3139 29.3151 21.0999 26.8535 1.50203 15.4774L0.497974 17.2071Z" fill="#95B900"/>
</svg>
