<svg width="60" height="60" viewBox="0 0 60 60" fill="none" xmlns="http://www.w3.org/2000/svg">
<g clip-path="url(#clip0_267_243)">
<path d="M51.0943 4.54137L47.3834 6.47988C42.4196 2.84941 36.4321 0.878906 30.2109 0.878906C22.4324 0.878906 15.1194 3.90797 9.61922 9.40828C4.11902 14.9085 1.08984 22.2214 1.08984 30C1.08984 37.7786 4.11902 45.0915 9.61922 50.5917C15.1195 56.0919 22.4325 59.1211 30.2109 59.1211C32.1875 59.1211 33.7898 57.5187 33.7898 55.5422C33.7898 53.5657 32.1874 51.9633 30.2109 51.9633C18.1004 51.9633 8.24777 42.1106 8.24777 30.0001C8.24777 17.8896 18.1004 8.03684 30.2109 8.03684C33.6473 8.03684 36.9891 8.83371 40.0022 10.3356L37.5197 11.6323C34.9126 12.9941 34.7575 16.6676 37.2405 18.2442L50.1674 26.453C52.6501 28.0295 55.9085 26.3275 56.033 23.3891L56.6808 8.08945C56.8052 5.15074 53.7015 3.17941 51.0943 4.54137Z" fill="#63DF99"/>
<path d="M48.9674 7.55893L54.6872 4.57112C53.6333 3.99655 52.31 3.90643 51.0943 4.54135L47.3833 6.47987C47.9217 6.8217 48.4504 7.18076 48.9674 7.55893Z" fill="#63DF99"/>
<path d="M13.269 50.5917C7.76871 45.0915 4.73965 37.7786 4.73965 30C4.73965 22.2214 7.76871 14.9085 13.269 9.40828C18.3382 4.33922 24.9473 1.37121 32.0412 0.93668C31.4338 0.898828 30.8236 0.878906 30.2109 0.878906C22.4324 0.878906 15.1194 3.90797 9.61922 9.40828C4.11902 14.9085 1.08984 22.2214 1.08984 30C1.08984 37.7786 4.11902 45.0915 9.61922 50.5917C15.1195 56.0919 22.4325 59.1211 30.2109 59.1211C30.536 59.1211 30.8505 59.0769 31.15 58.9957C24.3948 58.3761 18.1253 55.448 13.269 50.5917Z" fill="#63DF99"/>
<path d="M53.8173 26.4531L40.8904 18.2444C38.4075 16.6676 38.5625 12.9942 41.1696 11.6324L41.8323 11.2862C42.5817 10.8948 42.5269 9.79644 41.7376 9.49327C39.2491 8.53761 36.5846 8.03687 33.8607 8.03687C33.2461 8.03687 32.6376 8.06358 32.0356 8.11327C34.8265 8.34413 37.5254 9.10116 40.0022 10.3356L37.5197 11.6323C34.9126 12.9941 34.7574 16.6676 37.2405 18.2442L50.1674 26.453C51.4288 27.254 52.8899 27.2075 54.039 26.5835C53.9647 26.5428 53.8906 26.4996 53.8173 26.4531Z" fill="#63DF99"/>
<path d="M37.2156 42.1284C37.2102 42.1284 37.2052 42.1284 37.1999 42.1283C36.2117 42.1197 35.4174 41.3117 35.426 40.3235C35.4338 39.4081 35.4419 38.3929 35.4496 37.3346H29.1289C28.4958 37.3346 27.9098 37 27.5879 36.4549C27.266 35.9097 27.2562 35.2351 27.562 34.6808C28.847 32.3513 33.1116 24.6632 34.0331 23.5327C34.8722 22.503 36.0131 22.0869 37.0849 22.4184C38.1654 22.7531 38.9326 23.7954 39.0392 25.0738C39.0876 25.6535 39.0755 29.8491 39.0527 33.7556H39.3283C40.3165 33.7556 41.1177 34.5568 41.1177 35.545C41.1177 36.5333 40.3165 37.3345 39.3283 37.3345H39.0288C39.0187 38.6946 39.0094 39.7916 39.0045 40.3542C38.9963 41.3373 38.1966 42.1283 37.2156 42.1284ZM32.1695 33.7557H35.4732C35.4857 31.5777 35.4944 29.4777 35.4945 27.917C34.6114 29.4236 33.4054 31.5448 32.1695 33.7557Z" fill="#E27A66"/>
<path d="M20.2275 42.6856C17.1113 42.6856 16.8783 42.6078 16.6352 42.5268C16.0441 42.3297 15.602 41.8822 15.4226 41.2987C15.1164 40.3034 15.5758 39.702 16.5823 38.3841C17.4073 37.3039 18.9429 35.2931 21.5163 31.6163C22.2618 30.551 22.7426 29.6015 22.9465 28.7922L22.998 28.3899C22.9463 27.1304 21.9054 26.1214 20.6334 26.1214C19.5047 26.1214 18.5282 26.9229 18.3113 28.0272C18.1209 28.9969 17.1801 29.6287 16.2106 29.4383C15.2407 29.2478 14.609 28.3073 14.7995 27.3376C15.3453 24.5592 17.7987 22.5425 20.6335 22.5425C23.9118 22.5425 26.579 25.2097 26.579 28.488C26.5706 28.7507 26.4997 29.2612 26.4524 29.5204C26.1569 30.7952 25.4826 32.1908 24.4485 33.6684C22.7092 36.1535 21.4345 37.8922 20.5282 39.1021C21.9888 39.0999 23.7741 39.0862 25.4554 39.0651C26.4397 39.0555 27.2548 39.8438 27.2672 40.8319C27.2795 41.8202 26.4885 42.6313 25.5004 42.6438C23.1648 42.6733 21.4677 42.6856 20.2275 42.6856Z" fill="#E27A66"/>
<path d="M29.4394 36.4549C29.1174 35.9097 29.1077 35.2351 29.4135 34.6808C30.6985 32.3513 34.9631 24.6632 35.8846 23.5327C36.2907 23.0345 36.7677 22.6813 37.2731 22.4855C37.2115 22.4609 37.1489 22.4382 37.0849 22.4184C36.0131 22.0869 34.8723 22.503 34.0331 23.5327C33.1117 24.6632 28.8471 32.3513 27.562 34.6808C27.2562 35.2351 27.266 35.9097 27.5879 36.4549C27.9098 37 28.4958 37.3346 29.1289 37.3346H30.9803C30.3473 37.3346 29.7613 37 29.4394 36.4549Z" fill="#DD636E"/>
<path d="M37.2777 40.3236C37.2855 39.4082 37.2936 38.393 37.3013 37.3347H35.45C35.4423 38.393 35.4342 39.4082 35.4263 40.3236C35.4177 41.3118 36.2121 42.12 37.2003 42.1284C37.2056 42.1285 37.2106 42.1285 37.216 42.1285C37.5548 42.1285 37.8708 42.0324 38.1412 41.8685C37.6195 41.5518 37.2719 40.9781 37.2777 40.3236Z" fill="#DD636E"/>
<path d="M17.4806 29.2116C16.8564 28.8335 16.502 28.0953 16.6508 27.3376C17.1363 24.8655 19.1326 22.9978 21.5634 22.6157C21.2603 22.5679 20.9499 22.5425 20.6334 22.5425C17.7987 22.5425 15.3452 24.5592 14.7995 27.3376C14.6091 28.3073 15.2407 29.2478 16.2106 29.4383C16.6655 29.5277 17.113 29.4343 17.4806 29.2116Z" fill="#DD636E"/>
<path d="M18.4866 42.5268C17.8955 42.3297 17.4535 41.8821 17.2741 41.2986C16.9678 40.3034 17.4272 39.702 18.4337 38.3841C19.2587 37.3038 20.7944 35.293 23.3677 31.6163C24.1132 30.5509 24.5941 29.6015 24.798 28.7922L24.8494 28.3899C24.7977 27.1303 23.7569 26.1213 22.4848 26.1213C22.1588 26.1213 21.8464 26.1901 21.5603 26.3118C22.3771 26.661 22.9598 27.456 22.9981 28.3897L22.9466 28.792C22.7427 29.6013 22.2619 30.5509 21.5164 31.6161C18.943 35.2929 17.4074 37.3036 16.5824 38.384C15.576 39.7017 15.1166 40.3033 15.4227 41.2985C15.6021 41.882 16.0442 42.3295 16.6353 42.5267C16.8783 42.6076 17.1114 42.6854 20.2276 42.6854C20.5321 42.6854 20.8644 42.6847 21.2267 42.6831C18.917 42.67 18.7053 42.5998 18.4866 42.5268Z" fill="#DD636E"/>
<path d="M50.1169 59.0266C49.8801 59.0266 49.6395 58.9785 49.4088 58.8772C48.5181 58.4855 48.1135 57.4461 48.505 56.5553L54.4481 43.0351H48.3502C47.3772 43.0351 46.5884 42.2463 46.5884 41.2733C46.5884 40.3003 47.3772 39.5115 48.3502 39.5115H57.1472C57.7423 39.5115 58.2972 39.8119 58.6225 40.3102C58.9478 40.8085 58.9995 41.4374 58.7601 41.9823L51.7307 57.9733C51.4405 58.6334 50.7945 59.0266 50.1169 59.0266Z" fill="#00C2E6"/>
<path d="M49.9899 43.0351H48.3502C47.3765 43.0351 46.5884 42.247 46.5884 41.2733C46.5884 40.3007 47.3765 39.5115 48.3502 39.5115H49.9899C49.0173 39.5115 48.2281 40.3007 48.2281 41.2733C48.2281 42.247 49.0173 43.0351 49.9899 43.0351Z" fill="#80B4FB"/>
<path d="M50.9377 58.8232C50.6864 58.956 50.4034 59.0276 50.1167 59.0276C49.8795 59.0276 49.6387 58.9795 49.4084 58.8773C48.5182 58.4862 48.1129 57.4468 48.504 56.5564L54.4472 43.0352H56.088L50.1448 56.5564C49.7703 57.4091 50.1249 58.3981 50.9377 58.8232Z" fill="#80B4FB"/>
<path d="M30.2104 51.0844C18.5845 51.0844 9.12607 41.6259 9.12607 30C9.12607 18.3741 18.5845 8.91563 30.2104 8.91563C32.8673 8.91563 35.5226 9.42469 37.9846 10.3978L37.1124 10.853C35.6065 11.6399 34.6647 13.1234 34.5934 14.8213C34.522 16.5186 35.3355 18.0756 36.7694 18.9858L49.6963 27.1946C51.1305 28.1055 52.8858 28.18 54.3913 27.3935C55.8972 26.6071 56.8392 25.1241 56.9109 23.4266L57.5588 8.12648C57.6306 6.42879 56.8173 4.87137 55.3833 3.96047C53.9492 3.04957 52.1939 2.97539 50.6877 3.76195L47.456 5.44969C42.3893 1.88227 36.4391 0 30.2104 0C27.2298 0 24.2888 0.433008 21.469 1.28695C21.0044 1.4277 20.7418 1.91836 20.8826 2.38289C21.0233 2.84742 21.5136 3.11004 21.9785 2.9693C24.6329 2.16539 27.4025 1.75781 30.2104 1.75781C36.2471 1.75781 42.0058 3.63574 46.8643 7.18875C47.1343 7.38633 47.4934 7.4134 47.7899 7.25836L51.5012 5.32008C52.4441 4.82766 53.5429 4.87418 54.4406 5.4443C55.3384 6.01453 55.8476 6.98953 55.8026 8.05219L55.1546 23.3523C55.1096 24.4148 54.5201 25.3431 53.5774 25.8354C52.6351 26.3276 51.5364 26.2811 50.6386 25.7107L37.7115 17.5017C36.814 16.932 36.3048 15.9575 36.3494 14.8951C36.3942 13.8321 36.9837 12.9035 37.926 12.4111L40.4092 11.115C40.7021 10.9622 40.8846 10.658 40.8814 10.3276C40.8783 9.99727 40.6903 9.69656 40.3946 9.54914C37.2558 7.98457 33.734 7.15758 30.2103 7.15758C17.6151 7.15758 7.36814 17.4045 7.36814 29.9998C7.36814 42.5951 17.6151 52.842 30.2103 52.842C31.6991 52.842 32.9103 54.0532 32.9103 55.542C32.9103 57.0307 31.6992 58.2422 30.2104 58.2422C22.6669 58.2422 15.5749 55.3046 10.2409 49.9707C4.90615 44.636 1.96826 37.5436 1.96826 30C1.96826 22.4564 4.90615 15.364 10.2408 10.0294C12.7359 7.53527 15.6123 5.5582 18.7897 4.15301C19.2337 3.95672 19.4344 3.4377 19.2381 2.99367C19.0417 2.54965 18.5224 2.34891 18.0787 2.54531C14.7024 4.03852 11.6471 6.13828 8.99787 8.78637C3.33115 14.4531 0.210449 21.987 0.210449 30C0.210449 38.013 3.33127 45.5469 8.99799 51.2136C14.6639 56.8797 22.1973 60 30.2104 60C32.6686 60 34.6683 58.0003 34.6683 55.5422C34.6683 53.0841 32.6685 51.0844 30.2104 51.0844Z" fill="black"/>
<path d="M39.8835 40.3619C39.8872 39.9159 39.8939 39.134 39.9014 38.1516C41.0982 37.8886 41.9966 36.8199 41.9966 35.5452C41.9966 34.283 41.1155 33.2226 39.9361 32.9467C39.9751 25.7216 39.9301 25.1826 39.9149 25.0008C39.7783 23.3634 38.7695 22.0203 37.3445 21.5789C35.9173 21.1375 34.4251 21.6605 33.3517 22.9776C32.4105 24.1323 28.451 31.2498 26.7923 34.2563C26.3383 35.0791 26.3531 36.0928 26.8309 36.9019C27.3085 37.7111 28.1891 38.2137 29.1287 38.2137H34.564C34.5582 38.9519 34.5525 39.6597 34.5469 40.3161C34.5407 41.0288 34.8125 41.7013 35.3121 42.2097C35.8118 42.7179 36.4795 43.0013 37.19 43.0074L37.2155 43.0075C38.6741 43.0073 39.8709 41.8206 39.8835 40.3619ZM36.5658 40.9772C36.3954 40.8038 36.3026 40.5743 36.3047 40.3311C36.3125 39.4153 36.3207 38.3999 36.3283 37.341C36.3301 37.1068 36.2381 36.8816 36.0731 36.7155C35.9081 36.5493 35.6836 36.4558 35.4494 36.4558H29.1287C28.8081 36.4558 28.5076 36.2842 28.3446 36.0081C28.1816 35.7321 28.1766 35.3862 28.3315 35.1054C30.9614 30.3385 34.0193 24.9409 34.7142 24.088C35.1947 23.4986 35.7708 23.1852 36.3476 23.1852C36.5072 23.1852 36.667 23.2093 36.8248 23.258C37.561 23.4861 38.0865 24.2275 38.1633 25.1467C38.1845 25.4017 38.2141 26.8587 38.1737 33.7505C38.1723 33.9845 38.2643 34.2094 38.4294 34.3753C38.5943 34.5413 38.8186 34.6346 39.0526 34.6346H39.3283C39.8304 34.6346 40.2389 35.0431 40.2389 35.5451C40.2389 36.0471 39.8305 36.4557 39.3283 36.4557H39.0287C38.5459 36.4557 38.1533 36.8452 38.1498 37.328C38.1397 38.6876 38.1305 39.7843 38.1257 40.3468C38.1214 40.8444 37.713 41.2493 37.2155 41.2495V42.1284L37.2074 41.2495C36.9641 41.2475 36.7363 41.1508 36.5658 40.9772Z" fill="black"/>
<path d="M35.7248 27.0688C35.3417 26.965 34.9368 27.1303 34.7361 27.4725C33.8832 28.9276 32.6992 31.0068 31.4022 33.3269C31.2501 33.5991 31.2535 33.9316 31.4114 34.2005C31.5691 34.4694 31.8576 34.6347 32.1695 34.6347H35.4731C35.9565 34.6347 36.3492 34.2442 36.352 33.7608C36.3658 31.368 36.3732 29.3472 36.3733 27.917C36.3733 27.5203 36.1077 27.1729 35.7248 27.0688ZM34.5992 32.8769H33.6701C33.9944 32.3007 34.308 31.7459 34.6071 31.2196C34.605 31.7443 34.6022 32.2978 34.5992 32.8769Z" fill="black"/>
<path d="M27.3083 29.7204C27.3746 29.3702 27.4481 28.8442 27.4578 28.488C27.4578 24.725 24.3963 21.6636 20.6334 21.6636C17.3797 21.6636 14.5634 23.9786 13.9371 27.1682C13.7997 27.8676 13.9429 28.5786 14.3403 29.1703C14.7377 29.7619 15.3418 30.1634 16.0413 30.3008C17.4854 30.5842 18.8903 29.6403 19.1737 28.1967C19.3099 27.5034 19.9237 27.0003 20.6334 27.0003C21.4121 27.0003 22.051 27.5924 22.1157 28.3603L22.0817 28.6257C21.8967 29.3213 21.4644 30.1576 20.7962 31.1123C18.2337 34.7735 16.7053 36.7748 15.8838 37.8506C14.8358 39.2227 14.1434 40.1293 14.5825 41.5569C14.8464 42.415 15.4933 43.0723 16.3573 43.3604C16.7124 43.4787 16.9689 43.5643 20.2276 43.5643C21.5491 43.5643 23.2775 43.5506 25.5114 43.5226C26.9826 43.5039 28.1644 42.2921 28.146 40.8208C28.1275 39.3537 26.9173 38.1714 25.4443 38.1862C24.3899 38.1994 23.2976 38.2097 22.278 38.2161C23.181 36.9836 24.1355 35.6481 25.1685 34.1723C26.2676 32.602 26.9876 31.1035 27.3083 29.7204ZM19.8248 38.5754C19.6251 38.842 19.5933 39.1985 19.7425 39.4961C19.8916 39.7934 20.1957 39.9812 20.5283 39.9812H20.5296C21.9667 39.9789 23.7662 39.9654 25.464 39.944C25.9676 39.9441 26.382 40.3424 26.3883 40.8431C26.3947 41.3451 25.9913 41.7587 25.4893 41.7651C23.2627 41.7931 21.5416 41.8067 20.2276 41.8067C17.2542 41.8067 17.0323 41.7328 16.9131 41.693C16.5901 41.5853 16.359 41.3535 16.2626 41.0403C16.1023 40.519 16.2696 40.2418 17.2811 38.9171C18.11 37.8317 19.6529 35.8115 22.2363 32.1203C23.0431 30.9676 23.5688 29.9201 23.7987 29.0069C23.8286 28.8448 23.877 28.5183 23.8761 28.3539C23.8045 26.6092 22.3801 25.2426 20.6333 25.2426C19.0857 25.2426 17.7463 26.3425 17.4487 27.858C17.3519 28.3506 16.8724 28.6722 16.3797 28.576C16.141 28.5291 15.9349 28.3921 15.7993 28.1902C15.6637 27.9883 15.6148 27.7457 15.6617 27.507C16.1266 25.1396 18.2174 23.4214 20.6331 23.4214C23.4269 23.4214 25.6997 25.6944 25.6997 28.488C25.6944 28.6363 25.6218 29.1745 25.5959 29.322C25.3259 30.4864 24.6976 31.7792 23.7282 33.1645C22.299 35.2069 21.022 36.9768 19.8248 38.5754Z" fill="black"/>
<path d="M59.3578 39.829C58.8675 39.0795 58.0411 38.6321 57.147 38.6321H48.3497C46.8939 38.6321 45.7095 39.817 45.7095 41.2735C45.7095 42.7293 46.8939 43.9137 48.3497 43.9137H53.1018L50.6271 49.5436C50.4318 49.988 50.6338 50.5066 51.0782 50.7019C51.5226 50.8975 52.0412 50.6954 52.2365 50.251L55.2529 43.3885C55.3724 43.1167 55.3465 42.8029 55.1842 42.5543C55.0219 42.3057 54.7451 42.1559 54.4483 42.1559H48.3498C47.8633 42.1559 47.4674 41.76 47.4674 41.2735C47.4674 40.7862 47.8633 40.3899 48.3498 40.3899H57.1471C57.4459 40.3899 57.7225 40.54 57.8869 40.7914C58.0505 41.0413 58.0759 41.3541 57.9549 41.6288L50.9261 57.6189C50.7849 57.9399 50.4673 58.1473 50.1169 58.1473C49.9953 58.1473 49.8753 58.1219 49.7628 58.0728C49.3169 57.8768 49.1133 57.355 49.309 56.9097L50.8219 53.4691C51.0174 53.0247 50.8154 52.5061 50.3711 52.3107C49.9273 52.1154 49.4083 52.317 49.2128 52.7615L47.6998 56.2022C47.1141 57.5351 47.7222 59.0961 49.0574 59.6828C49.3953 59.8302 49.7517 59.905 50.1169 59.905C51.1642 59.905 52.1134 59.2853 52.5353 58.3263L59.5637 42.3368C59.9254 41.5165 59.8485 40.5789 59.3578 39.829Z" fill="black"/>
<path d="M48.6095 29.5289C48.1734 29.3158 47.6471 29.4965 47.434 29.9326L37.2789 50.7115C37.0658 51.1476 37.2465 51.6739 37.6826 51.887C37.8068 51.9477 37.9383 51.9764 38.0678 51.9764C38.393 51.9764 38.7056 51.7951 38.8581 51.4833L49.0132 30.7044C49.2264 30.2685 49.0457 29.7421 48.6095 29.5289Z" fill="black"/>
</g>
<defs>
<clipPath id="clip0_267_243">
<rect width="60" height="60" fill="white"/>
</clipPath>
</defs>
</svg>
