<svg width="60" height="60" viewBox="0 0 60 60" fill="none" xmlns="http://www.w3.org/2000/svg">
<g clip-path="url(#clip0_267_280)">
<mask id="mask0_267_280" style="mask-type:luminance" maskUnits="userSpaceOnUse" x="0" y="0" width="60" height="60">
<path d="M0 3.8147e-06H60V60H0V3.8147e-06Z" fill="white"/>
</mask>
<g mask="url(#mask0_267_280)">
<path d="M6.70271 0.878948C4.5583 0.878948 2.81994 2.61731 2.81994 4.7616L2.81982 40.1992H57.1794L57.1791 4.7616C57.1791 2.61731 55.4408 0.878948 53.2966 0.878948H6.70271Z" fill="#CFD7E6"/>
<path d="M6.70264 40.1992V6.70328C6.70264 5.63102 7.57182 4.76184 8.64396 4.76184H51.3553C52.4276 4.76184 53.2967 5.63102 53.2967 6.70328V40.1992H6.70264Z" fill="#00C2E6"/>
<path d="M57.1795 4.7616C57.1795 2.61731 55.4412 0.878948 53.2969 0.878948H50.6016C52.7459 0.878948 54.4842 2.61731 54.4842 4.7616L54.4845 40.1992H57.1798L57.1795 4.7616Z" fill="#B4C2DB"/>
<path d="M51.3557 4.76184H48.6602C49.7323 4.76184 50.6016 5.63113 50.6016 6.70328V40.1992H53.297V6.70328C53.297 5.63113 52.4279 4.76184 51.3557 4.76184Z" fill="#00C2E6"/>
<path d="M0.878906 39.7068V41.6485C0.878906 43.7929 2.61727 45.5312 4.76156 45.5312H55.238C57.3823 45.5312 59.1206 43.7929 59.1206 41.6485V39.7068C59.1206 38.6346 58.2514 37.7654 57.1793 37.7654H2.82023C1.74809 37.7654 0.878906 38.6346 0.878906 39.7068Z" fill="#F3F5F9"/>
<path d="M57.1793 37.7652H54.4744C55.5466 37.7652 56.4159 38.6345 56.4159 39.7067V41.6485C56.4159 43.7929 54.6775 45.5312 52.5332 45.5312H55.2381C57.3823 45.5312 59.1207 43.7929 59.1207 41.6485V39.7067C59.1207 38.6345 58.2515 37.7652 57.1793 37.7652Z" fill="#CFD7E6"/>
<path d="M41.6479 20.293V9.61531C41.6479 9.07918 41.2134 8.64465 40.6773 8.64465H25.1461C24.6099 8.64465 24.1753 9.07918 24.1753 9.61531V19.3222C24.1753 19.8583 24.6099 20.293 25.1461 20.293H41.6479Z" fill="#F3F5F9"/>
<path d="M20.293 18.3516C20.293 20.496 18.5545 22.2344 16.4101 22.2344C14.2657 22.2344 12.5273 20.496 12.5273 18.3516C12.5273 16.2072 14.2657 14.4687 16.4101 14.4687C18.5545 14.4687 20.293 16.2072 20.293 18.3516Z" fill="#FFD9B3"/>
<path d="M16.4097 14.4687C15.9358 14.4687 15.4819 14.554 15.062 14.7094C16.5421 15.2573 17.5972 16.6811 17.5972 18.3516C17.5972 20.0221 16.5421 21.4459 15.062 21.9938C15.4819 22.1492 15.9358 22.2344 16.4097 22.2344C18.5541 22.2344 20.2926 20.496 20.2926 18.3516C20.2926 16.2072 18.5541 14.4687 16.4097 14.4687Z" fill="#FFBB99"/>
<path d="M12.9694 23.3588C11.5243 24.4186 10.5859 26.1291 10.5859 28.0585V32.912C10.5859 33.4482 11.0205 33.8828 11.5566 33.8828H21.2636C21.7997 33.8828 22.2344 33.4482 22.2344 32.912V28.1545C22.2344 26.2089 21.2951 24.4571 19.8392 23.3727L12.9694 23.3588Z" fill="#63DF99"/>
<path d="M19.8371 23.3733L17.1328 23.3675C18.5945 24.4507 19.539 26.2045 19.539 28.1545V32.912C19.539 33.4482 19.1044 33.8828 18.5684 33.8828H21.2637C21.7997 33.8828 22.2343 33.4482 22.2343 32.912V28.1545C22.2343 26.2084 21.2937 24.4575 19.8371 23.3733Z" fill="#63DF99"/>
<path d="M40.6776 8.64441H37.9824C38.5186 8.64441 38.9531 9.07894 38.9531 9.61507V20.2927H41.6483V9.61507C41.6483 9.07894 41.2138 8.64441 40.6776 8.64441Z" fill="#CFD7E6"/>
<path d="M17.6226 25.1469L19.8383 23.3743C18.9041 22.6784 17.7577 22.256 16.5093 22.2351C15.1827 22.213 13.9554 22.6346 12.9661 23.3612L12.9658 23.362L15.1971 25.1469C15.9062 25.7141 16.9135 25.7141 17.6226 25.1469Z" fill="#F3F5F9"/>
<path d="M15.0559 22.3928C15.0555 22.3929 15.0552 22.3933 15.0547 22.3933C16.3892 22.7137 17.5405 23.5026 18.3426 24.571L19.8385 23.3743C18.9042 22.6785 17.758 22.256 16.5095 22.2351C16.0082 22.2268 15.5213 22.282 15.0559 22.3928Z" fill="#CFD7E6"/>
<path d="M36.7949 42.4197V38.9356L46.5019 38.9357V42.4196L36.7949 42.4197Z" fill="#FFD9B3"/>
<path d="M46.5015 42.4197H43.8062V38.9356H46.5015V42.4197Z" fill="#FFBB99"/>
<path d="M50.6299 35.6299C49.8111 37.622 48.3488 39.2817 46.5015 40.3501L36.7794 40.3412C34.9392 39.2723 33.4826 37.616 32.666 35.629L41.648 26.2111L50.6299 35.6299Z" fill="#FFD9B3"/>
<path d="M41.6482 26.2111L40.2861 27.6394L47.906 35.6299C47.0878 37.6204 45.627 39.2791 43.7817 40.3476L46.5018 40.3501C48.349 39.2816 49.8112 37.622 50.6302 35.6299L41.6482 26.2111Z" fill="#FFBB99"/>
<path d="M55.2382 31.9414C56.3103 31.9414 57.1795 31.0722 57.1795 30.0001V26.1173C57.1795 25.045 56.3103 24.1757 55.2382 24.1757H28.0585C26.9864 24.1757 26.1172 25.045 26.1172 26.1173V30.0001C26.1172 31.0722 26.9864 31.9414 28.0585 31.9414H55.2382Z" fill="#FFBB99"/>
<path d="M55.2382 24.1757H52.6055C53.6777 24.1757 54.5469 25.0449 54.5469 26.1171V29.9998C54.5469 31.0721 53.6777 31.9414 52.6055 31.9414H55.2382C56.3104 31.9414 57.1795 31.0721 57.1795 29.9998V26.1171C57.1795 25.0449 56.3104 24.1757 55.2382 24.1757Z" fill="#FFA27D"/>
<path d="M34.8535 46.3477V45.5314L35.6404 42.3837C35.7485 41.9515 36.1367 41.6483 36.5821 41.6483H46.7146C47.1602 41.6483 47.5483 41.9515 47.6564 42.3837L48.4433 45.5312V46.3477H34.8535Z" fill="#CFD7E6"/>
<path d="M47.6562 42.3837C47.5481 41.9515 47.1599 41.6484 46.7144 41.6484H44.019C44.4646 41.6484 44.8528 41.9515 44.9609 42.3837L45.7477 45.5312V46.3477H48.443V45.5312L47.6562 42.3837Z" fill="#B4C2DB"/>
<path d="M50.3849 45.5314C54.6736 45.5314 58.1502 49.008 58.1502 53.2966V57.1795C58.1502 58.2518 57.2809 59.1211 56.2087 59.1211H27.0879C26.0158 59.1211 25.1465 58.2518 25.1465 57.1795V53.2966C25.1465 49.008 28.6231 45.5314 32.9117 45.5314H50.3849Z" fill="#63DF99"/>
<path d="M53.2969 31.9413V20.293C53.2969 16.0041 49.82 12.5273 45.5312 12.5273H37.7657C33.4767 12.5273 30 16.0042 30 20.293V31.9413C30 34.0857 31.7384 35.8242 33.8828 35.8242H49.414C51.5584 35.8242 53.2969 34.0857 53.2969 31.9413Z" fill="#595353"/>
<path d="M50.3848 45.5316H47.6895C51.9782 45.5316 55.4546 49.0082 55.4546 53.2968V57.1796C55.4546 58.2519 54.5855 59.1211 53.5132 59.1211H56.2085C57.2808 59.1211 58.15 58.2519 58.15 57.1796V53.2968C58.15 49.0082 54.6735 45.5316 50.3848 45.5316Z" fill="#63DF99"/>
<path d="M45.5312 12.5273H42.8359C47.1248 12.5273 50.6016 16.0042 50.6016 20.293V31.9413C50.6016 34.0857 48.8631 35.8242 46.7187 35.8242H49.414C51.5584 35.8242 53.2969 34.0857 53.2969 31.9413V20.293C53.2969 16.0041 49.8201 12.5273 45.5312 12.5273Z" fill="#403939"/>
<path d="M2.81982 37.7654L2.81994 4.76151C2.81994 2.61722 4.5583 0.878856 6.70271 0.878856H53.2965C55.4408 0.878856 57.1791 2.61722 57.1791 4.76151L57.1794 37.7654" stroke="black" stroke-width="1.75781" stroke-miterlimit="10" stroke-linecap="round" stroke-linejoin="round"/>
<path d="M53.2967 37.7654V6.70331C53.2967 5.63093 52.4276 4.76175 51.3554 4.76175H8.64408C7.57181 4.76175 6.70264 5.63093 6.70264 6.70331V37.7654" stroke="black" stroke-width="1.75781" stroke-miterlimit="10" stroke-linecap="round" stroke-linejoin="round"/>
<path d="M12.3438 45.5312H55.2381C57.3824 45.5312 59.1208 43.7929 59.1208 41.6485V39.7068C59.1208 38.6345 58.2516 37.7652 57.1794 37.7652H49.4152" stroke="black" stroke-width="1.75781" stroke-miterlimit="10" stroke-linecap="round" stroke-linejoin="round"/>
<path d="M33.875 37.7652H2.82023C1.74808 37.7652 0.878906 38.6345 0.878906 39.7067V41.6485C0.878906 43.7929 2.61726 45.5312 4.76144 45.5312H8.82797" stroke="black" stroke-width="1.75781" stroke-miterlimit="10" stroke-linecap="round" stroke-linejoin="round"/>
<path d="M24.1758 37.7654L24.7788 40.1779C24.9948 41.0421 25.7714 41.6484 26.6623 41.6484H33.3377C34.2285 41.6484 35.005 41.0421 35.2211 40.1779L35.419 39.3861" stroke="black" stroke-width="1.75781" stroke-miterlimit="10" stroke-linecap="round" stroke-linejoin="round"/>
<path d="M46.5015 41.6482V39.707" stroke="#0C0A0B" stroke-width="1.75781" stroke-miterlimit="10" stroke-linecap="round" stroke-linejoin="round"/>
<path d="M36.7949 39.707V41.6484" stroke="#0C0A0B" stroke-width="1.75781" stroke-miterlimit="10" stroke-linecap="round" stroke-linejoin="round"/>
<path d="M30.0001 24.1757H28.0586C26.9864 24.1757 26.1172 25.045 26.1172 26.1172V30C26.1172 31.0722 26.9864 31.9414 28.0586 31.9414H30.0001" stroke="#0C0A0B" stroke-width="1.75781" stroke-miterlimit="10" stroke-linecap="round" stroke-linejoin="round"/>
<path d="M46.502 40.3501C48.3492 39.2817 49.8114 37.622 50.6304 35.6299" stroke="#0C0A0B" stroke-width="1.75781" stroke-miterlimit="10" stroke-linecap="round" stroke-linejoin="round"/>
<path d="M32.666 35.6288C33.4826 37.6159 34.9392 39.2722 36.7794 40.3411" stroke="#0C0A0B" stroke-width="1.75781" stroke-miterlimit="10" stroke-linecap="round" stroke-linejoin="round"/>
<path d="M53.2964 31.9414H55.2377C56.31 31.9414 57.1792 31.0722 57.1792 30.0001V26.1173C57.1792 25.045 56.31 24.1757 55.2377 24.1757H53.2964" stroke="#0C0A0B" stroke-width="1.75781" stroke-miterlimit="10" stroke-linecap="round" stroke-linejoin="round"/>
<path d="M34.8535 45.5315L35.6404 42.3837C35.7485 41.9515 36.1367 41.6484 36.5821 41.6484H46.7146C47.1602 41.6484 47.5483 41.9515 47.6564 42.3837L48.4433 45.5313" stroke="#0C0A0B" stroke-width="1.75781" stroke-miterlimit="10" stroke-linecap="round" stroke-linejoin="round"/>
<path d="M48.3515 59.1211H27.088C26.0158 59.1211 25.1465 58.2518 25.1465 57.1796V53.2966C25.1465 49.008 28.6231 45.5314 32.9117 45.5314H50.385C54.6736 45.5314 58.1502 49.008 58.1502 53.2966V57.1796C58.1502 58.2518 57.2809 59.1211 56.2088 59.1211H51.8672" stroke="#0C0A0B" stroke-width="1.75781" stroke-miterlimit="10" stroke-linecap="round" stroke-linejoin="round"/>
<path d="M53.2969 31.9413V20.293C53.2969 16.0041 49.82 12.5273 45.5312 12.5273H37.7657C33.4767 12.5273 30 16.0042 30 20.293V31.9413C30 34.0857 31.7384 35.8242 33.8828 35.8242H49.414C51.5584 35.8242 53.2969 34.0857 53.2969 31.9413Z" stroke="#0C0A0B" stroke-width="1.75781" stroke-miterlimit="10" stroke-linecap="round" stroke-linejoin="round"/>
<path d="M40.6772 16.4102H42.6187" stroke="#0C0A0B" stroke-width="1.75781" stroke-miterlimit="10" stroke-linecap="round" stroke-linejoin="round"/>
<path d="M41.6479 12.5274V9.6152C41.6479 9.07906 41.2134 8.64453 40.6773 8.64453H25.1461C24.6099 8.64453 24.1753 9.07906 24.1753 9.6152V19.3221C24.1753 19.8583 24.6099 20.293 25.1461 20.293L29.9996 20.2929" stroke="black" stroke-width="1.75781" stroke-miterlimit="10" stroke-linecap="round" stroke-linejoin="round"/>
<path d="M20.293 18.3516C20.293 20.496 18.5545 22.2344 16.4101 22.2344C14.2657 22.2344 12.5273 20.496 12.5273 18.3516C12.5273 16.2072 14.2657 14.4687 16.4101 14.4687C18.5545 14.4687 20.293 16.2072 20.293 18.3516Z" stroke="black" stroke-width="1.75781" stroke-miterlimit="10" stroke-linecap="round" stroke-linejoin="round"/>
<path d="M22.2343 32.9121V28.1545C22.2343 24.9605 19.703 22.2886 16.5095 22.2353C13.2474 22.1808 10.5859 24.809 10.5859 28.0586V32.9121C10.5859 33.4482 11.0205 33.8828 11.5566 33.8828H21.2636C21.7996 33.8828 22.2343 33.4482 22.2343 32.9121Z" stroke="black" stroke-width="1.75781" stroke-miterlimit="10" stroke-linecap="round" stroke-linejoin="round"/>
<path d="M12.9658 23.3619L15.197 25.1468C15.9061 25.7141 16.9135 25.7141 17.6225 25.1468L19.854 23.3617" stroke="black" stroke-width="1.75781" stroke-miterlimit="10" stroke-linecap="round" stroke-linejoin="round"/>
</g>
</g>
<defs>
<clipPath id="clip0_267_280">
<rect width="60" height="60" fill="white"/>
</clipPath>
</defs>
</svg>
