<svg width="60" height="60" viewBox="0 0 60 60" fill="none" xmlns="http://www.w3.org/2000/svg">
<g clip-path="url(#clip0_267_224)">
<path d="M0.967773 0.967773V28.0646H16.4516V24.1936H8.70971C8.70971 22.0549 6.97741 20.3226 4.83874 20.3226V8.70971C6.97741 8.70971 8.70971 6.97741 8.70971 4.83874H51.2904C51.2904 4.88694 51.2904 4.93561 51.2998 4.98381C51.3679 7.05491 53.0709 8.70971 55.1613 8.70971V20.3226C53.0227 20.3226 51.2904 22.0549 51.2904 24.1936H22.2581V28.0646H59.0323V0.967773H0.967773Z" fill="#63DF99"/>
<path d="M55.1613 8.70959V20.3225C53.0226 20.3225 51.2903 22.0548 51.2903 24.1935H30C35.342 24.1935 39.6774 19.858 39.6774 14.516C39.6774 9.17409 35.342 4.83862 30 4.83862H51.2903C51.2903 4.88682 51.2903 4.93549 51.2998 4.98369C51.3678 7.05479 53.0708 8.70959 55.1613 8.70959Z" fill="#FFEAA7"/>
<path d="M8.70984 4.83862H30.0002C24.6582 4.83862 20.3227 9.17409 20.3227 14.516C20.3227 14.913 20.3421 15.3 20.3903 15.6775C20.0714 15.5514 19.7226 15.4838 19.355 15.4838C18.5517 15.4838 17.8259 15.8127 17.3033 16.3353C16.7807 16.8579 16.4518 17.5837 16.4518 18.387V24.1935H8.70984C8.70984 22.0548 6.97754 20.3225 4.83887 20.3225V8.70959C6.97754 8.70959 8.70984 6.97729 8.70984 4.83862Z" fill="#FFEAA7"/>
<path d="M30.0002 24.1934H22.2583V20.313C24.0194 22.6742 26.8357 24.1934 30.0002 24.1934Z" fill="#FFEAA7"/>
<path d="M34.3644 53.2258H18.3872V45.4839H31.9356C31.9356 48.3583 32.8358 51.029 34.3644 53.2258Z" fill="#E6E9ED"/>
<path d="M22.2581 28.0645H43.5484V32.0711C36.9874 33.0096 31.9355 38.6615 31.9355 45.4839H20.3226V42.5807L17.7483 38.7291C16.9067 37.4518 16.4517 35.9615 16.4517 34.4324V18.3871C16.4517 17.5838 16.7805 16.858 17.3032 16.3354C17.8258 15.8128 18.5516 15.4839 19.3549 15.4839C19.7225 15.4839 20.0712 15.5515 20.3902 15.6776C21.4841 16.0935 22.2581 17.1486 22.2581 18.3871V28.0645Z" fill="#F0D0B4"/>
<path d="M45.4839 31.9355C52.9646 31.9355 59.0323 38.0033 59.0323 45.4839C59.0323 52.9646 52.9646 59.0323 45.4839 59.0323C40.8872 59.0323 36.813 56.7387 34.3644 53.2259C32.8357 51.0291 31.9355 48.3583 31.9355 45.4839C31.9355 38.6615 36.9874 33.0096 43.5485 32.0712C44.1774 31.9837 44.8257 31.9355 45.4839 31.9355ZM48.3872 45.4839L54.1936 39.6775L51.2904 36.7743L45.4839 42.5807L39.6775 36.7743L36.7743 39.6775L42.5807 45.4839L36.7743 51.2904L39.6775 54.1936L45.4839 48.3872L51.2904 54.1936L54.1936 51.2904L48.3872 45.4839Z" fill="#00C2E6"/>
<path d="M54.1938 39.6774L48.3873 45.4838L54.1938 51.2903L51.2905 54.1935L45.4841 48.3871L39.6776 54.1935L36.7744 51.2903L42.5809 45.4838L36.7744 39.6774L39.6776 36.7742L45.4841 42.5806L51.2905 36.7742L54.1938 39.6774Z" fill="#E6E9ED"/>
<path d="M30.0002 4.83862C35.3421 4.83862 39.6776 9.17409 39.6776 14.516C39.6776 19.858 35.3421 24.1935 30.0002 24.1935C26.8356 24.1935 24.0194 22.6743 22.2582 20.313V18.387C22.2582 17.1485 21.4842 16.0933 20.3903 15.6775C20.3421 15.3 20.3228 14.913 20.3228 14.516C20.3228 9.17409 24.6582 4.83862 30.0002 4.83862Z" fill="#FCD770"/>
<path d="M29.9999 17.4194C29.4669 17.4194 29.0322 16.9846 29.0322 16.4516H27.0967C27.0967 17.7114 27.9085 18.776 29.0322 19.1767V21.2903H30.9676V19.1767C32.0913 18.776 32.9031 17.7114 32.9031 16.4516C32.9031 14.8512 31.6004 13.5484 29.9999 13.5484C29.4669 13.5484 29.0322 13.1137 29.0322 12.5807C29.0322 12.0476 29.4669 11.6129 29.9999 11.6129C30.5329 11.6129 30.9676 12.0476 30.9676 12.5807H32.9031C32.9031 11.3209 32.0913 10.2563 30.9676 9.85557V7.74194H29.0322V9.85557C27.9085 10.2563 27.0967 11.3209 27.0967 12.5807C27.0967 14.1811 28.3994 15.4839 29.9999 15.4839C30.5329 15.4839 30.9676 15.9186 30.9676 16.4516C30.9676 16.9846 30.5329 17.4194 29.9999 17.4194Z" fill="black"/>
<path d="M60 29.0323V0H0V29.0323H15.4839V34.4304C15.4839 36.1557 15.99 37.827 16.9473 39.2621L19.3548 42.8741V44.5161H17.4194V54.1936H33.8988C36.5507 57.7111 40.7496 60 45.4839 60C53.4881 60 60 53.4881 60 45.4839C60 37.4797 53.4881 30.9677 45.4839 30.9677C45.1569 30.9677 44.8375 30.9956 44.5161 31.0169V29.0323H60ZM1.93548 27.0968V1.93548H58.0645V27.0968H23.2258V25.1613H52.2581V24.1936C52.2581 22.5931 53.5608 21.2903 55.1613 21.2903H56.129V7.74194H55.1613C53.5608 7.74194 52.2581 6.43917 52.2581 4.83871V3.87097H7.74194V4.83871C7.74194 6.43917 6.43917 7.74194 4.83871 7.74194H3.87097V21.2903H4.83871C6.43917 21.2903 7.74194 22.5931 7.74194 24.1936V25.1613H15.4839V27.0968H1.93548ZM15.4839 18.3871V23.2258H9.57961C9.19449 21.3329 7.69941 19.8378 5.80645 19.4527V9.57961C7.69941 9.19449 9.19449 7.69941 9.57961 5.80645H23.8982C21.1557 7.73438 19.3548 10.9159 19.3548 14.5161C17.2199 14.5161 15.4839 16.2522 15.4839 18.3871ZM21.3234 15.0728C21.3116 14.8866 21.2903 14.7018 21.2903 14.5161C21.2903 9.71428 25.1982 5.80645 30 5.80645C34.8019 5.80645 38.7097 9.71428 38.7097 14.5161C38.7097 19.318 34.8019 23.2258 30 23.2258C27.3359 23.2258 24.8896 22.0383 23.2258 19.9724V18.3871C23.2258 16.9742 22.4565 15.748 21.3234 15.0728ZM36.1018 5.80645H50.4204C50.8055 7.69941 52.3006 9.19449 54.1936 9.57961V19.4517C52.3006 19.8368 50.8055 21.3319 50.4204 23.2249H36.1018C38.8444 21.2979 40.6452 18.1163 40.6452 14.5161C40.6452 10.9159 38.8444 7.73438 36.1018 5.80645ZM23.8907 23.2258H23.2258V22.7325C23.4399 22.9092 23.6653 23.067 23.8907 23.2258ZM19.3548 52.2581V46.4516H31.0169C31.1553 48.5369 31.7257 50.5045 32.6556 52.2581H19.3548ZM58.0645 45.4839C58.0645 52.4206 52.4206 58.0645 45.4839 58.0645C38.5471 58.0645 32.9032 52.4206 32.9032 45.4839C32.9032 38.5471 38.5471 32.9032 45.4839 32.9032C52.4206 32.9032 58.0645 38.5471 58.0645 45.4839ZM42.5807 31.2598C36.271 32.546 31.4535 37.9413 31.0169 44.5161H21.2903V42.2872L18.5572 38.188C17.8134 37.0714 17.4194 35.7715 17.4194 34.4304V18.3871C17.4194 17.3197 18.2874 16.4516 19.3548 16.4516C20.4223 16.4516 21.2903 17.3197 21.2903 18.3871V32.9032H22.2581C24.926 32.9032 27.0968 35.074 27.0968 37.7419H29.0323C29.0323 34.3345 26.5047 31.5078 23.2258 31.0363V29.0323H42.5807V31.2598Z" fill="black"/>
<path d="M41.2122 45.4839L35.4058 51.2903L39.6774 55.562L45.4839 49.7556L51.2903 55.562L55.562 51.2903L49.7556 45.4839L55.562 39.6774L51.2903 35.4058L45.4839 41.2122L39.6774 35.4058L35.4058 39.6774L41.2122 45.4839ZM45.4839 43.9491L51.2903 38.1427L52.8251 39.6774L47.0187 45.4839L52.8251 51.2903L51.2903 52.8251L45.4839 47.0187L39.6774 52.8251L38.1427 51.2903L43.9491 45.4839L38.1427 39.6774L39.6774 38.1427L45.4839 43.9491Z" fill="black"/>
<path d="M3.87109 3.87085H5.80658V5.80633H3.87109V3.87085Z" fill="black"/>
<path d="M3.87109 23.2258H5.80658V25.1613H3.87109V23.2258Z" fill="black"/>
<path d="M54.1934 3.87085H56.1288V5.80633H54.1934V3.87085Z" fill="black"/>
<path d="M54.1934 23.2258H56.1288V25.1613H54.1934V23.2258Z" fill="black"/>
</g>
<defs>
<clipPath id="clip0_267_224">
<rect width="60" height="60" fill="white"/>
</clipPath>
</defs>
</svg>
