<svg width="75" height="26" viewBox="0 0 75 26" fill="none" xmlns="http://www.w3.org/2000/svg">
<path fill-rule="evenodd" clip-rule="evenodd" d="M0.566927 25.5518C0.253822 25.5518 0 25.298 0 24.9849V0.566925C0 0.253815 0.253822 0 0.566927 0H74.3013C74.6144 0 74.8682 0.253815 74.8682 0.566925V24.9849C74.8682 25.298 74.6144 25.5518 74.3013 25.5518H0.566927ZM1.13385 1.13385V24.4179H73.7344V1.13385H1.13385ZM22.0884 15.9167L22.9581 16.7906V18.5417L22.6712 18.8286H20.3456V15.9167H22.0884ZM17.4612 14.0313C17.1373 14.3459 16.819 14.661 16.5002 14.9798C14.2169 15.3657 11.9393 15.7907 9.66174 16.2829C9.3383 16.0376 9.01955 15.7865 8.70133 15.5287V13.5756C9.18579 13.5024 9.66996 13.4286 10.1565 13.3545L10.6498 13.2793V14.2006C12.2743 13.9282 13.8993 13.686 15.5232 13.4511V11.7819C13.5696 11.9949 11.6159 12.2195 9.66174 12.4736C9.3383 12.2866 9.01955 12.0965 8.70133 11.9012V9.80911V7.71475C9.01955 7.38101 9.3383 7.05078 9.66174 6.72318H16.5002C16.819 7.00183 17.1373 7.27621 17.4612 7.54663V9.1554C17.183 9.1684 16.9049 9.18158 16.6272 9.19473C16.2582 9.21219 15.89 9.22961 15.5232 9.24658V8.40646C13.8993 8.46472 12.2743 8.52527 10.6498 8.59393V10.4632C12.5982 10.3023 14.5466 10.1564 16.5002 10.0278C16.819 10.281 17.1373 10.5309 17.4612 10.7772V12.4043V14.0313ZM56.7754 10.1496V11.0034L56.8936 11.0133C58.4736 11.147 60.0591 11.281 61.6442 11.434V10.0201V8.60379C60.667 8.5658 59.6899 8.52939 58.7133 8.49606C58.0655 9.06271 57.4175 9.61377 56.7754 10.1496ZM56.7754 13.9834V15.2563C56.1222 15.1506 55.4691 15.0569 54.8212 14.9641V12.0867V9.20807C55.3045 8.81274 55.7945 8.40955 56.2759 7.99808C56.7608 7.58408 57.2472 7.15704 57.7363 6.72318H63.5868V11.6085V16.4907C62.9394 16.3657 62.2915 16.2407 61.6442 16.1167V14.7162V13.3137C60.0196 13.0934 58.3946 12.9012 56.7754 12.71V13.9834ZM20.5674 9.17206V10.2231C21.9838 10.1454 23.4054 10.0807 24.8272 10.0161L24.9914 10.0086V9.02151V8.03409L24.7277 8.03885C23.3391 8.06375 21.9508 8.08865 20.5674 8.11902V9.17206ZM50.716 10.9215V13.7199C50.1232 13.6563 49.5305 13.5928 48.9436 13.535V10.81V8.08621C47.906 8.06955 46.8691 8.05182 45.8373 8.03409V6.72318H53.7951V8.19449C52.8828 8.17087 51.9701 8.15054 51.0574 8.13022L50.716 8.12262V10.9215ZM38.7675 8.90021V9.83405L38.7887 9.83441C40.253 9.86081 41.7226 9.8873 43.1915 9.92725V8.96472V8.0018C41.8547 7.98672 40.5174 7.9772 39.184 7.96771L38.7675 7.96475V8.90021ZM44.9535 11.9178V13.2157C44.3664 13.1819 43.7784 13.1465 43.1915 13.11V12.4814C42.926 12.2737 42.6606 12.0682 42.3951 11.8626L42.3024 11.7908C42.0296 11.5884 41.7568 11.3905 41.484 11.1926L41.4133 11.1414C40.5295 11.119 39.6456 11.0966 38.7675 11.0736V11.9996V12.9256C38.1743 12.9163 37.5816 12.909 36.9945 12.9022V9.81378V6.72318H44.0753C44.3664 6.9429 44.6571 7.16223 44.9535 7.38251V9.00592V10.6283C44.8196 10.7215 44.6869 10.8142 44.5547 10.9065C44.3944 11.0186 44.2349 11.13 44.0753 11.2408C44.3664 11.4663 44.6571 11.6908 44.9535 11.9178ZM29.5415 9.24805V9.8783C31.0123 9.84857 32.4888 9.83044 33.9655 9.82043V8.89087V7.95862C33.0764 7.96115 32.1868 7.96381 31.3035 7.96848C30.716 8.39288 30.1284 8.81952 29.5415 9.24805ZM29.5415 12.0741V13.0126C28.9488 13.035 28.356 13.0595 27.768 13.0965V10.8704V8.64499C28.2076 8.31741 28.6461 7.99448 29.0857 7.67474C29.4571 7.40469 29.8325 7.13727 30.2083 6.86963L30.4139 6.72318H35.7269V9.80643V12.8876C35.1612 12.8826 34.5952 12.8902 34.0296 12.8977L33.9655 12.8986V11.9761V11.0554C32.4888 11.0689 31.0123 11.0955 29.5415 11.1356V12.0741ZM20.5674 12.659V13.7001C20.2378 13.7389 19.9081 13.7771 19.5794 13.8152C19.3172 13.8456 19.0556 13.8759 18.795 13.9063V10.3158V6.72318H25.8748C26.166 6.9429 26.4565 7.16116 26.7535 7.37784V8.98672V10.5955C26.5074 10.7828 26.2656 10.9719 26.0243 11.1608L25.8748 11.2777C24.1024 11.3747 22.3352 11.4861 20.5674 11.6179V12.659ZM20.9278 18.2464H22.38V17.0818L21.7972 16.4995H20.9278V18.2464ZM29.0232 18.2464V18.8286H26.5518V15.9167H29.0232V16.4995H27.1341V17.086H28.8775V17.6682H27.1341V18.2464H29.0232ZM35.2295 18.5417L34.9425 18.8286H32.9035L32.6164 18.5417V17.9594H33.1993V18.2464H34.6508V17.6682H32.9035L32.6164 17.4604V16.2126L32.9035 15.9167H34.9425L35.2295 16.2126V16.7906H34.6508V16.4995H33.1993V17.0818H34.9425L35.2295 17.3724V18.5417ZM39.4472 15.9167V18.8286H38.8644V15.9167H39.4472ZM45.6951 18.5417L45.4081 18.8286H43.3696L43.0827 18.5417V16.2126L43.3696 15.9167H45.4081L45.6951 16.2126V16.7906H45.1169V16.4995H43.6649V18.2464H45.1169V17.7433H44.3847V17.1604H45.6951V18.5417ZM51.9431 15.9167V18.8286H51.3644L49.9123 16.886V18.8286H49.33V15.9167H49.9123L51.3644 17.8552V15.9167H51.9431Z" fill="#FF7A00"/>
</svg>
