<svg width="48" height="48" viewBox="0 0 48 48" fill="none" xmlns="http://www.w3.org/2000/svg">
<rect width="48" height="48" rx="24" fill="#419FD9"/>
<path fill-rule="evenodd" clip-rule="evenodd" d="M27.9413 32.9753C29.1994 33.5257 29.6712 32.3724 29.6712 32.3724L33 15.6498C32.9738 14.5227 31.4535 15.2042 31.4535 15.2042L12.8175 22.5171C12.8175 22.5171 11.9263 22.8316 12.0049 23.382C12.0835 23.9325 12.7912 24.1946 12.7912 24.1946L17.483 25.7673C17.483 25.7673 18.8984 30.4066 19.1868 31.2978C19.4489 32.1628 19.6848 32.189 19.6848 32.189C19.9469 32.2938 20.1828 32.1103 20.1828 32.1103L23.2233 29.3582L27.9413 32.9753ZM28.7539 18.6116C28.7539 18.6116 29.4091 18.2184 29.3829 18.6116C29.3829 18.6116 29.4878 18.664 29.147 19.031C28.8325 19.3455 21.4147 26.0031 20.4187 26.8943C20.3401 26.9467 20.2877 27.0254 20.2877 27.1302L19.9993 29.594C19.9469 29.8562 19.6062 29.8824 19.5275 29.6465L18.2956 25.61C18.2432 25.4527 18.2956 25.2692 18.4529 25.1644L28.7539 18.6116Z" fill="white"/>
</svg>
