<svg width="60" height="60" viewBox="0 0 60 60" fill="none" xmlns="http://www.w3.org/2000/svg">
<g clip-path="url(#clip0_412_1992)">
<path d="M42.8026 50.4389C50.3737 50.4389 56.5112 44.3013 56.5112 36.7302C56.5112 29.1591 50.3737 23.0215 42.8026 23.0215C35.2315 23.0215 29.0939 29.1591 29.0939 36.7302C29.0939 44.3013 35.2315 50.4389 42.8026 50.4389Z" fill="#FEF48B"/>
<path d="M30.1493 31.448C29.4698 33.0738 29.094 34.858 29.094 36.7303C29.094 41.6167 31.6512 45.9055 35.4998 48.3329C35.8103 47.044 35.976 45.6993 35.976 44.3164C35.9759 39.1959 33.7192 34.593 30.1493 31.448Z" fill="#FEF056"/>
<path d="M18.8263 59.1204C27.0022 59.1204 33.6301 52.4925 33.6301 44.3165C33.6301 36.1406 27.0022 29.5127 18.8263 29.5127C10.6504 29.5127 4.02246 36.1406 4.02246 44.3165C4.02246 52.4925 10.6504 59.1204 18.8263 59.1204Z" fill="#FEF48B"/>
<path d="M33.6297 44.4302C33.6448 42.4204 33.2583 40.5031 32.5475 38.7519H9.85638C11.7694 34.0401 16.0386 30.5366 21.2022 29.7034C20.4286 29.5786 19.6351 29.5127 18.8263 29.5127C10.6504 29.5127 4.02246 36.1406 4.02246 44.3165C4.02246 52.4924 10.6503 59.1204 18.8263 59.1204C19.6352 59.1204 20.4286 59.0544 21.2022 58.9296C15.5962 58.0251 11.0445 53.9731 9.41806 48.6444C8.77789 46.5472 10.3676 44.4312 12.5604 44.4312H33.6286C33.6291 44.4308 33.6293 44.4305 33.6297 44.4302Z" fill="#FEF056"/>
<path d="M38.9979 41.3389C38.3893 36.9075 36.3259 32.8046 33.1493 29.6599L29.9884 39.9232L29.4294 39.751C29.8123 41.4523 30.51 43.0343 31.4603 44.4313H36.3035C37.0893 44.4313 37.8362 44.0916 38.3528 43.4991C38.87 42.906 39.1051 42.1184 38.9979 41.3389Z" fill="#FEF056"/>
<path d="M58.6964 35.913C58.8964 35.913 59.0489 35.7358 59.0216 35.5377C57.9629 27.8279 51.3505 21.8889 43.3499 21.8889C35.3492 21.8889 28.7369 27.8279 27.6782 35.5377C27.651 35.7358 27.8035 35.913 28.0034 35.913H58.6964Z" fill="#F3EAE6"/>
<path d="M46.1113 22.1284C45.2151 21.9708 44.2914 21.8889 43.3499 21.8889C35.3499 21.8889 28.7378 27.8272 27.6784 35.5361C27.651 35.735 27.8027 35.913 28.0034 35.913H28.6865H33.5227H37.458C36.8954 34.639 36.2019 33.425 35.3889 32.2899C34.8231 31.4998 34.7783 30.4522 35.2761 29.6175C37.5864 25.7439 41.5053 22.9388 46.1113 22.1284Z" fill="#EFE2DD"/>
<path d="M36.3036 42.0854C36.5313 42.0854 36.7049 41.8835 36.674 41.658C35.4682 32.8779 27.9378 26.1143 18.8264 26.1143C9.71508 26.1143 2.18467 32.8778 0.978925 41.658C0.947961 41.8836 1.12155 42.0854 1.34921 42.0854H36.3036Z" fill="#F3EAE6"/>
<path d="M36.2944 39.7077H12.3582C10.5682 39.7077 9.28133 37.9677 9.82626 36.2627C11.203 31.9555 14.1557 28.3527 18.0063 26.1331C9.26632 26.5245 2.14795 33.1429 0.978799 41.6583C0.947835 41.8838 1.12166 42.0854 1.3492 42.0854H36.3036C36.5309 42.0854 36.7049 41.884 36.6741 41.6588C36.5831 40.9962 36.4554 40.3453 36.2944 39.7077Z" fill="#EFE2DD"/>
<path d="M21.0599 26.2473H16.5926C13.0381 26.2473 10.1565 23.3659 10.1565 19.8113V18.5191C10.1565 18.3076 10.3279 18.1362 10.5393 18.1362H27.1131C27.3245 18.1362 27.4959 18.3076 27.4959 18.5191V19.8113C27.4959 23.3657 24.6144 26.2473 21.0599 26.2473Z" fill="#B9ACAC"/>
<path d="M14.7153 19.8113V18.5191C14.7153 18.3077 14.8867 18.1362 15.0982 18.1362H10.5395C10.328 18.1362 10.1566 18.3076 10.1566 18.5191V19.8113C10.1566 23.3657 13.0381 26.2473 16.5927 26.2473H21.0601C21.0754 26.2473 21.0904 26.2463 21.1058 26.2462C17.5723 26.2214 14.7153 23.3504 14.7153 19.8113Z" fill="#9E9797"/>
<path d="M44.9774 21.9212H41.7223C38.1678 21.9212 35.2863 19.0397 35.2863 15.4851V14.76C35.2863 14.5486 35.4576 14.3772 35.6691 14.3772H51.0306C51.2421 14.3772 51.4135 14.5486 51.4135 14.76V15.4851C51.4135 19.0397 48.5319 21.9212 44.9774 21.9212Z" fill="#B9ACAC"/>
<path d="M39.5133 15.4851V14.76C39.5133 14.5486 39.6847 14.3772 39.8961 14.3772H35.6691C35.4576 14.3772 35.2863 14.5486 35.2863 14.76V15.4851C35.2863 19.0396 38.1677 21.9212 41.7223 21.9212H44.9774C45.141 21.9212 45.3028 21.9131 45.4633 21.901C42.1361 21.6523 39.5133 18.8759 39.5133 15.4851Z" fill="#9E9797"/>
<path d="M36.3035 42.9651C36.6656 42.9651 37.0098 42.8086 37.2477 42.5355C37.4864 42.2618 37.5949 41.8982 37.5454 41.5382C36.9298 37.056 34.7102 32.9345 31.2955 29.9328C29.2649 28.1479 26.8934 26.836 24.3484 26.0588C26.5798 24.8045 28.0916 22.4152 28.0916 19.6782V18.6519C28.0916 17.9557 27.5252 17.3894 26.829 17.3894H19.706V0.879679C19.706 0.393862 19.3121 0 18.8263 0C18.3405 0 17.9466 0.393862 17.9466 0.879679V17.3893H10.8236C10.1275 17.3893 9.56106 17.9557 9.56106 18.6518V19.6781C9.56106 22.4151 11.0728 24.8044 13.3043 26.0587C10.7592 26.8359 8.38768 28.1477 6.35715 29.9327C2.94235 32.9343 0.722744 37.0559 0.10732 41.5381C0.0578231 41.8983 0.166317 42.2618 0.405121 42.5355C0.643103 42.8084 0.987117 42.965 1.34919 42.965H3.00217C2.97355 43.3546 2.95795 43.7445 2.95795 44.1315C2.95795 52.8814 10.0764 60 18.8263 60C21.9539 60 24.9807 59.0899 27.5792 57.3684C27.9842 57.1 28.0951 56.5542 27.8267 56.1491C27.5585 55.7441 27.0125 55.6333 26.6075 55.9016C24.2978 57.4318 21.6072 58.2406 18.8262 58.2406C11.0464 58.2406 4.71719 51.9114 4.71719 44.1315C4.71719 43.7446 4.73537 43.3545 4.76751 42.965H32.8849C32.917 43.3544 32.9352 43.7445 32.9352 44.1315C32.9352 47.5943 31.6678 50.9246 29.3665 53.5093C29.0435 53.872 29.0758 54.4281 29.4385 54.7512C29.6061 54.9004 29.815 54.9739 30.0232 54.9739C30.2654 54.9739 30.5067 54.8743 30.6805 54.6791C33.269 51.7719 34.6947 48.026 34.6947 44.1314C34.6947 43.7441 34.6791 43.3544 34.6505 42.9648H36.3035V42.9651ZM16.8768 25.2345C13.8131 25.2345 11.3204 22.7419 11.3204 19.6781V19.1486H26.3321V19.6781C26.3321 22.7418 23.8395 25.2345 20.7757 25.2345H16.8768ZM7.51868 31.2542C10.6441 28.5069 14.6599 26.9938 18.8263 26.9938C22.9927 26.9938 27.0084 28.5069 30.1338 31.2542C33.0852 33.8484 35.0522 37.3641 35.7138 41.2056H1.93869C2.60033 37.3643 4.56729 33.8484 7.51868 31.2542Z" fill="black"/>
<path d="M59.8932 35.1228C59.5294 32.4741 58.5149 29.9198 56.9589 27.7356C56.6773 27.34 56.1278 27.2475 55.732 27.5295C55.3364 27.8114 55.2441 28.3606 55.526 28.7564C56.7948 30.5377 57.6611 32.5938 58.0505 34.7382H38.6097C38.1238 34.7382 37.7301 35.132 37.7301 35.6179C37.7301 36.1037 38.1238 36.4975 38.6097 36.4975H55.5962C55.6191 36.8039 55.6316 37.1104 55.6316 37.4146C55.6316 44.1869 50.122 49.6964 43.3499 49.6964C41.1792 49.6964 39.0457 49.1221 37.18 48.0358C36.7599 47.7913 36.2216 47.9334 35.977 48.3534C35.7326 48.7733 35.8748 49.3118 36.2945 49.5562C38.4288 50.7989 40.8684 51.4557 43.3498 51.4557C51.0921 51.4557 57.3909 45.1569 57.3909 37.4146C57.3909 37.1103 57.3802 36.8039 57.3602 36.4975H58.6963C59.0454 36.4975 59.377 36.3467 59.6063 36.0836C59.8363 35.8198 59.9408 35.4695 59.8932 35.1228Z" fill="black"/>
<path d="M31.6151 27.6846C31.855 27.6846 32.0941 27.587 32.2677 27.395C35.0969 24.2671 39.1363 22.4732 43.3498 22.4732C46.9436 22.4732 50.4167 23.7684 53.1295 26.12C53.4966 26.4382 54.0522 26.3986 54.3704 26.0316C54.6886 25.6646 54.6491 25.1089 54.282 24.7907C52.4696 23.2195 50.3536 22.0707 48.0869 21.4003C50.1877 20.1133 51.5926 17.7966 51.5926 15.1576V15.0877C51.5926 14.3916 51.0264 13.8252 50.3301 13.8252H44.2294V0.879679C44.2294 0.393862 43.8356 0 43.3497 0C42.8638 0 42.47 0.393862 42.47 0.879679V13.8252H36.3695C35.6733 13.8252 35.107 14.3916 35.107 15.0877V15.1576C35.107 17.7978 36.5131 20.1153 38.6154 21.402C35.6996 22.2662 33.0395 23.919 30.9629 26.2149C30.637 26.5752 30.6648 27.1315 31.0252 27.4574C31.1936 27.6096 31.4047 27.6846 31.6151 27.6846ZM42.4227 20.7139C39.5027 20.7139 37.1014 18.4496 36.8828 15.5845H49.8172C49.5986 18.4496 47.1973 20.7139 44.2772 20.7139H42.4227Z" fill="black"/>
</g>
<defs>
<clipPath id="clip0_412_1992">
<rect width="60" height="60" fill="white"/>
</clipPath>
</defs>
</svg>
