<svg width="57" height="60" viewBox="0 0 57 60" fill="none" xmlns="http://www.w3.org/2000/svg">
<path d="M34.1275 50.0215C32.077 44.339 31.6459 36.777 31.5583 34.3472H25.3518C25.2643 36.777 24.8332 44.339 22.7826 50.0215H34.1275Z" fill="#FCA62F"/>
<path d="M34.1276 50.021C32.0774 44.3391 31.6462 36.777 31.5589 34.3477H25.3514C25.3065 35.5948 25.1707 38.1942 24.7739 41.1976C25.7612 41.9168 26.9777 42.3408 28.2897 42.3408H28.3002C28.8803 42.3397 29.382 42.7447 29.4783 43.3168C29.858 45.5727 30.3938 47.9247 31.1503 50.0209H34.1276V50.021Z" fill="#F98824"/>
<path d="M36.4843 30.8864C35.4484 30.8864 34.6085 30.0465 34.6085 29.0106C34.6085 27.9746 35.4484 27.1347 36.4843 27.1347C41.6539 27.1347 45.6398 25.7164 48.3314 22.9194C51.1044 20.0381 51.934 16.2726 52.1788 14.0813H40.6544C39.6184 14.0813 38.7785 13.2414 38.7785 12.2055C38.7785 11.1695 39.6184 10.3296 40.6544 10.3296H54.1517C55.1555 10.3296 55.9814 11.1198 56.0257 12.1226C56.0399 12.442 56.3112 20.0062 51.0665 25.4879C47.6392 29.0701 42.733 30.8864 36.4843 30.8864Z" fill="#F8C52D"/>
<path d="M20.4259 30.8864C21.4619 30.8864 22.3018 30.0465 22.3018 29.0106C22.3018 27.9746 21.4619 27.1347 20.4259 27.1347C15.2564 27.1347 11.2705 25.7164 8.57881 22.9194C5.80583 20.0381 4.97624 16.2726 4.73142 14.0813H16.2559C17.2918 14.0813 18.1318 13.2414 18.1318 12.2055C18.1318 11.1695 17.2918 10.3296 16.2559 10.3296H2.75863C1.75489 10.3296 0.928925 11.1198 0.884626 12.1226C0.870446 12.442 0.599149 20.0062 5.8438 25.4879C9.27117 29.0701 14.1773 30.8864 20.4259 30.8864Z" fill="#F8C52D"/>
<path d="M13.0383 4.95459V17.8532C13.0383 28.0706 19.9406 36.3535 28.4551 36.3535C36.9696 36.3535 43.8719 28.0706 43.8719 17.8532V4.95459H13.0383Z" fill="#FDDD45"/>
<path d="M24.0687 24.0457C24.003 24.1852 23.8858 24.3 23.7311 24.3563C23.6175 24.3973 23.4956 24.4043 23.3784 24.375L19.8756 23.4867L17.7626 26.42C17.6923 26.5161 17.5939 26.5899 17.4802 26.6309C17.1708 26.7434 16.8263 26.5841 16.7126 26.2723L15.2278 22.1953L14.2199 24.9657C13.4582 22.7765 13.0386 20.3729 13.0386 17.8533V15.7732H21.2444L24.0886 23.5887C24.1448 23.7434 24.1331 23.9074 24.0687 24.0457Z" fill="#F8C52D"/>
<path d="M13.0383 4.95446V9.39765H37.2161C38.754 9.39765 40.0008 10.6444 40.0008 12.1823V17.8536C40.0008 27.284 34.1205 35.0658 26.5193 36.2078C27.1536 36.3034 27.7995 36.3531 28.455 36.3531C36.969 36.3531 43.8721 28.0706 43.8721 17.8536V4.95435L13.0383 4.95446Z" fill="#F8C52D"/>
<path d="M44.5169 6.86903H12.3934C11.8161 6.86903 11.3481 6.40109 11.3481 5.82381V4.08551C11.3481 3.50823 11.8161 3.04028 12.3934 3.04028H44.5169C45.0941 3.04028 45.5621 3.50823 45.5621 4.08551V5.82369C45.5622 6.40097 45.0941 6.86903 44.5169 6.86903Z" fill="#FDE784"/>
<path d="M45.5622 4.08527V5.8238C45.5622 6.40131 45.0945 6.86902 44.517 6.86902H41.1215C41.699 6.86902 42.1667 6.40131 42.1667 5.8238V4.08527C42.1667 3.50775 41.699 3.04004 41.1215 3.04004H44.517C45.0946 3.04004 45.5622 3.50775 45.5622 4.08527Z" fill="#FDDD45"/>
<path d="M19.8132 49.7777L18.3487 56.6404H39.03L37.5654 49.7777C37.4697 49.3292 37.0735 49.0085 36.6149 49.0085H20.7637C20.3051 49.0085 19.9088 49.3291 19.8132 49.7777Z" fill="#FCB44D"/>
<path d="M39.0301 56.6406H35.9305L34.3015 49.0088H36.6148C37.0733 49.0088 37.4696 49.3293 37.5653 49.7779L39.0301 56.6406Z" fill="#FCA62F"/>
<path d="M39.4991 59.1207H17.4111C16.5893 59.1207 15.923 58.4545 15.923 57.6326C15.923 56.8108 16.5893 56.1445 17.4111 56.1445H39.4991C40.3209 56.1445 40.9872 56.8108 40.9872 57.6326C40.9872 58.4545 40.3209 59.1207 39.4991 59.1207Z" fill="#95B900"/>
<path d="M40.9872 57.6326C40.9872 58.044 40.8202 58.4154 40.5516 58.6852C40.2818 58.9539 39.9103 59.1208 39.499 59.1208H36.561C36.9713 59.1208 37.3438 58.9538 37.6125 58.6852C37.8823 58.4154 38.0482 58.044 38.0482 57.6326C38.0482 56.8111 37.3826 56.1443 36.5611 56.1443H39.4991C40.3203 56.1443 40.9872 56.811 40.9872 57.6326Z" fill="#95B900"/>
<path d="M34.2002 38.1479C35.8846 38.1479 37.2502 36.7823 37.2502 35.0979C37.2502 33.4134 35.8846 32.0479 34.2002 32.0479C32.5157 32.0479 31.1501 33.4134 31.1501 35.0979C31.1501 36.7823 32.5157 38.1479 34.2002 38.1479Z" fill="#95B900"/>
<path d="M37.2502 35.0978C37.2502 36.7819 35.8849 38.1484 34.1996 38.1484C33.85 38.1484 33.5146 38.0893 33.2016 37.9807C34.3957 37.5673 35.253 36.4323 35.253 35.0978C35.253 33.7632 34.3957 32.6294 33.2016 32.216C33.5146 32.1074 33.85 32.0483 34.1996 32.0483C35.8849 32.0483 37.2502 33.4136 37.2502 35.0978Z" fill="#95B900"/>
<path d="M22.7102 38.1479C24.3946 38.1479 25.7602 36.7823 25.7602 35.0979C25.7602 33.4134 24.3946 32.0479 22.7102 32.0479C21.0257 32.0479 19.6602 33.4134 19.6602 35.0979C19.6602 36.7823 21.0257 38.1479 22.7102 38.1479Z" fill="#95B900"/>
<path d="M25.7601 35.0978C25.7601 36.7819 24.3948 38.1484 22.7107 38.1484C22.3611 38.1484 22.0245 38.0893 21.7115 37.9795C22.9055 37.5673 23.7629 36.4323 23.7629 35.0978C23.7629 33.7632 22.9055 32.6294 21.7115 32.2172C22.0245 32.1074 22.3611 32.0483 22.7107 32.0483C24.3948 32.0483 25.7601 33.4136 25.7601 35.0978Z" fill="#95B900"/>
<path d="M28.2893 39.9786C30.2915 39.9786 31.9146 38.3555 31.9146 36.3533C31.9146 34.3511 30.2915 32.728 28.2893 32.728C26.2871 32.728 24.664 34.3511 24.664 36.3533C24.664 38.3555 26.2871 39.9786 28.2893 39.9786Z" fill="#FEF5C8"/>
<path d="M31.9144 36.3531C31.9144 38.355 30.2916 39.9789 28.2898 39.9789C27.8446 39.9789 27.4182 39.8986 27.0249 39.7521C28.4032 39.2384 29.3857 37.9109 29.3857 36.3531C29.3857 34.7953 28.4031 33.4679 27.0249 32.9553C27.4182 32.8088 27.8446 32.7285 28.2898 32.7285C30.2916 32.7285 31.9144 34.3513 31.9144 36.3531Z" fill="#FDE784"/>
<path d="M17.3887 12.7658L13.744 22.7795C13.6874 22.935 13.5729 23.0525 13.434 23.1173C13.295 23.1821 13.1315 23.1943 12.976 23.1377C12.8632 23.0965 12.765 23.0234 12.6944 22.926L10.5815 19.993L7.07757 20.8816C6.96225 20.9114 6.83873 20.9039 6.72588 20.8628C6.41614 20.75 6.25454 20.4058 6.36774 20.0948L10.0125 10.0811L17.3887 12.7658Z" fill="#95B900"/>
<path d="M10.0125 10.0811L8.66364 13.7871C9.36725 14.4934 10.1845 15.0822 11.0905 15.5315C11.0937 15.533 11.0969 15.5347 11.1002 15.5362C12.0105 15.9799 12.4463 17.0332 12.0999 17.9848L11.1045 20.7197L12.6945 22.926C12.7651 23.0234 12.8632 23.0965 12.9761 23.1377C13.1317 23.1943 13.2951 23.1821 13.4341 23.1173C13.573 23.0525 13.6875 22.9352 13.7441 22.7795L17.3889 12.7658L10.0125 10.0811Z" fill="#95B900"/>
<path d="M20.444 10.0813L24.0888 20.095C24.1454 20.2506 24.1332 20.414 24.0684 20.553C24.0036 20.692 23.8862 20.8064 23.7306 20.863C23.6178 20.9041 23.4956 20.9112 23.379 20.8819L19.8751 19.9932L17.7621 22.9263C17.693 23.0232 17.5935 23.0968 17.4806 23.1379C17.1709 23.2506 16.8259 23.0909 16.7127 22.7798L13.0679 12.766L20.444 10.0813Z" fill="#95B900"/>
<path d="M13.0678 12.766L14.4166 16.4721C15.4096 16.5608 16.4142 16.4865 17.3969 16.2484C17.4003 16.2475 17.4037 16.2467 17.4072 16.2458C18.3898 16.0005 19.4007 16.5273 19.7471 17.4789L20.7425 20.2138L23.3788 20.8819C23.4954 20.9112 23.6177 20.9041 23.7305 20.863C23.886 20.8064 24.0035 20.6919 24.0683 20.553C24.1331 20.414 24.1453 20.2506 24.0887 20.095L20.4439 10.0813L13.0678 12.766Z" fill="#95B900"/>
<path d="M15.2287 13.574C18.7344 13.574 21.5763 10.732 21.5763 7.22632C21.5763 3.7206 18.7344 0.878662 15.2287 0.878662C11.723 0.878662 8.88101 3.7206 8.88101 7.22632C8.88101 10.732 11.723 13.574 15.2287 13.574Z" fill="#FEF5C8"/>
<path d="M20.9816 9.90895C19.6813 12.6974 16.6116 14.0984 13.7314 13.3943C15.3045 12.8545 16.6666 11.7008 17.4258 10.0728C18.9073 6.89562 17.5329 3.11937 14.3557 1.63784C13.967 1.45655 13.5706 1.31861 13.1709 1.22252C14.6691 0.708398 16.3624 0.751524 17.9115 1.47401C21.0886 2.95554 22.4631 6.73178 20.9816 9.90895Z" fill="#FDE784"/>
<path d="M6.48659 21.7084C6.92465 22.3631 7.41358 22.9762 7.94551 23.529C9.57985 25.2273 11.6746 26.4579 14.1722 27.1919C14.5541 28.0166 14.9865 28.8068 15.4644 29.5565C12.48 28.9757 9.92357 27.8332 7.85 26.1448C7.47358 25.8383 6.91997 25.8951 6.61351 26.2715C6.30706 26.6479 6.36366 27.2015 6.7402 27.5081C9.45551 29.7189 12.8858 31.0822 16.9356 31.5645C17.5847 32.3363 18.2907 33.0449 19.0463 33.6811C18.8756 34.121 18.7809 34.5986 18.7809 35.0981C18.7809 37.2641 20.5437 39.0264 22.7103 39.0264C23.2188 39.0264 23.7111 38.9287 24.1708 38.7441C23.9126 41.3617 23.4158 44.931 22.475 48.1297H20.7637C19.8961 48.1297 19.1348 48.7457 18.9536 49.5944L17.7433 55.2661H17.4111C16.106 55.2661 15.0442 56.3279 15.0442 57.6331C15.0442 58.9382 16.1061 60 17.4111 60H39.4991C40.8042 60 41.866 58.9381 41.866 57.6331C41.866 56.3743 40.8777 55.3449 39.6368 55.273L38.4249 49.5944C38.2439 48.7457 37.4826 48.1296 36.6148 48.1296H34.4353C33.4947 44.9318 32.9978 41.3636 32.7395 38.7461C33.1987 38.9299 33.6927 39.0263 34.1998 39.0263C36.3665 39.0263 38.1292 37.2641 38.1292 35.0979C38.1292 34.5984 38.0345 34.1208 37.8638 33.6808C38.6233 33.0418 39.3278 32.3331 39.9744 31.5653C44.8358 30.9872 48.7812 29.1478 51.7016 26.0953C57.2031 20.3454 56.9186 12.4182 56.9038 12.0836C56.8386 10.607 55.6296 9.45045 54.1517 9.45045H44.751V7.73196C45.7019 7.61594 46.4411 6.8051 46.4411 5.8235V4.08532C46.4411 3.02428 45.5779 2.16105 44.5169 2.16105H20.3821C19.7928 1.56033 19.0892 1.05277 18.2828 0.676705C14.6717 -1.00733 10.3633 0.560685 8.67924 4.17193C7.8766 5.89323 7.81425 7.77227 8.35825 9.45057H2.75863C1.28062 9.45057 0.0717903 10.6071 0.00651489 12.0836C-0.00567298 12.3574 -0.24486 18.8523 3.74186 24.3371C3.9139 24.5738 4.1818 24.6995 4.45356 24.6995C4.63275 24.6994 4.81358 24.6447 4.96956 24.5313C5.36226 24.2458 5.4491 23.6962 5.16374 23.3036C1.53433 18.3104 1.75161 12.4101 1.76262 12.1613C1.7863 11.6269 2.22377 11.2084 2.75863 11.2084H8.66705L7.9414 13.2024H4.73154C4.48146 13.2024 4.24321 13.309 4.07644 13.4954C3.90968 13.6819 3.83023 13.9304 3.858 14.179C4.02031 15.6313 4.43751 17.7979 5.49153 19.9706C5.41793 20.2905 5.45109 20.6234 5.59172 20.9252C5.75896 21.2837 6.11955 21.576 6.48659 21.7084ZM44.7509 17.853V14.9603H51.1672C50.8203 16.9926 49.9382 19.9823 47.698 22.3101C46.5797 23.4722 45.2028 24.385 43.5929 25.0367C44.3472 22.7855 44.7509 20.3541 44.7509 17.853ZM13.0991 21.9825L11.2941 19.4792C11.0832 19.1866 10.715 19.0523 10.3652 19.1413L7.37467 19.8997L10.125 12.3424C10.7038 12.9211 11.3909 13.4103 12.1746 13.7757C12.3027 13.8355 12.4318 13.8907 12.5615 13.9423C12.5631 13.9465 12.5639 13.9508 12.5655 13.955L14.2935 18.7013L13.0991 21.9825ZM14.6069 14.4238C14.8107 14.4411 15.0145 14.4523 15.2176 14.4523C17.1223 14.4523 18.9724 13.6951 20.3319 12.3418L23.0817 19.8983L20.0913 19.1412C19.7417 19.0524 19.3734 19.1868 19.1626 19.4794L17.3588 21.9824L14.6069 14.4238ZM10.2723 4.91492C11.1992 2.92724 13.1761 1.75779 15.237 1.75779C16.0098 1.75779 16.7946 1.92233 17.5398 2.2698C20.2727 3.54425 21.4593 6.80439 20.1849 9.53729C18.9106 12.2702 15.6505 13.4566 12.9175 12.1825C10.1847 10.9081 8.998 7.64793 10.2723 4.91492ZM7.30166 14.9603L6.37761 17.4993C6.0701 16.5864 5.87052 15.7158 5.74243 14.9603H7.30166ZM9.21222 22.3101C8.94854 22.0359 8.69729 21.7438 8.45833 21.4383L10.2178 20.9921L11.9831 23.4404C12.1577 23.6819 12.3979 23.8628 12.6774 23.9641C12.785 24.003 12.8958 24.028 13.008 24.0412C13.103 24.3765 13.205 24.7083 13.3151 25.0359C11.7061 24.3842 10.3301 23.4718 9.21222 22.3101ZM20.5389 35.0979C20.5389 33.9006 21.5131 32.9265 22.7104 32.9265C23.4439 32.9265 24.1168 33.2936 24.5169 33.8964C24.0548 34.6035 23.7849 35.4473 23.7849 36.3532C23.7849 36.5584 23.8001 36.7601 23.8268 36.9581C23.4911 37.161 23.1098 37.2684 22.7104 37.2684C21.5131 37.2684 20.5389 36.2947 20.5389 35.0979ZM31.0355 36.3532C31.0355 37.8675 29.8035 39.0996 28.2892 39.0996C26.7748 39.0996 25.5428 37.8675 25.5428 36.3532C25.5428 34.8388 26.7748 33.6068 28.2892 33.6068C29.8036 33.6069 31.0355 34.8388 31.0355 36.3532ZM40.1082 57.633C40.1082 57.9688 39.835 58.242 39.4992 58.242H17.4111C17.0753 58.242 16.8021 57.9688 16.8021 57.633C16.8021 57.2971 17.0754 57.0238 17.4111 57.0238H39.4991C39.835 57.0238 40.1082 57.2971 40.1082 57.633ZM28.9458 49.8873H36.6149C36.6585 49.8873 36.6967 49.9184 36.7058 49.9611L37.8379 55.2659H19.5407L20.6728 49.9611C20.6819 49.9184 20.7202 49.8873 20.7637 49.8873H24.7978C25.2832 49.8873 25.6768 49.4939 25.6768 49.0084C25.6768 48.5229 25.2832 48.1295 24.7978 48.1295H24.3029C25.0597 45.4048 25.5184 42.4897 25.7937 40.1006C26.5086 40.5782 27.3669 40.8573 28.2893 40.8573C29.3478 40.8573 30.3214 40.4894 31.0911 39.8759C31.3633 42.3056 31.8267 45.3186 32.6074 48.1295H28.9458C28.4604 48.1295 28.0669 48.5229 28.0669 49.0084C28.0669 49.4939 28.4604 49.8873 28.9458 49.8873ZM34.1998 37.2684C33.6721 37.2684 33.171 37.0775 32.7763 36.7326C32.7869 36.6075 32.7934 36.4812 32.7934 36.3532C32.7934 35.5658 32.5897 34.8252 32.2331 34.1805C32.5896 33.416 33.3507 32.9265 34.1998 32.9265C35.3972 32.9265 36.3714 33.9007 36.3714 35.0979C36.3714 36.2947 35.3972 37.2684 34.1998 37.2684ZM36.8694 32.2182C36.168 31.5676 35.2298 31.1686 34.1998 31.1686C32.9229 31.1686 31.7559 31.7804 31.0275 32.7804C30.2681 32.197 29.3187 31.8491 28.2893 31.8491C27.3539 31.8491 26.4842 32.1359 25.7634 32.6259C25.0262 31.713 23.913 31.1686 22.7104 31.1686C21.6803 31.1686 20.7421 31.5677 20.0406 32.2184C17.4427 29.9775 15.5128 26.7599 14.5696 23.0819C14.5697 23.0815 14.57 23.0811 14.5701 23.0807L15.2289 21.2708L15.8874 23.0795C16.022 23.4509 16.2934 23.7474 16.6517 23.9145C16.8505 24.0071 17.0626 24.0537 17.2753 24.0537C17.4463 24.0537 17.6176 24.0236 17.7829 23.9633C18.0623 23.8613 18.3016 23.6804 18.4757 23.4393L20.2393 20.9921L23.1559 21.7304C23.4451 21.8065 23.7481 21.7922 24.0307 21.6893C24.6128 21.4782 25.004 20.9202 25.004 20.3004C25.004 20.1284 24.9741 19.9589 24.9147 19.7948L21.5935 10.6679C21.5919 10.6638 21.5899 10.6601 21.5884 10.656C21.6546 10.5331 21.7186 10.4084 21.7783 10.2803C22.1611 9.45912 22.3742 8.60187 22.435 7.74778H33.9718C34.4572 7.74778 34.8507 7.35437 34.8507 6.86885C34.8507 6.38332 34.4572 5.98991 33.9718 5.98991H22.3444C22.218 5.26825 21.983 4.56979 21.6487 3.91903H44.5169C44.6086 3.91903 44.6833 3.99368 44.6833 4.08544V5.82362C44.6833 5.91526 44.6086 5.98991 44.5169 5.98991H38.1197C37.6343 5.98991 37.2408 6.38332 37.2408 6.86885C37.2408 7.35437 37.6343 7.74778 38.1197 7.74778H42.9931V17.853C42.993 23.587 40.7139 28.9058 36.8694 32.2182ZM50.4315 24.8803C48.1408 27.2745 45.1244 28.8431 41.4481 29.558C41.9269 28.8065 42.3574 28.0154 42.738 27.1918C45.2356 26.4578 47.3304 25.2273 48.9646 23.5288C51.9599 20.4165 52.8113 16.335 53.0522 14.179C53.08 13.9304 53.0005 13.6819 52.8338 13.4954C52.667 13.309 52.4288 13.2024 52.1787 13.2024H44.7509V11.2085H54.1516C54.6865 11.2085 55.1239 11.627 55.1476 12.1615C55.1611 12.4654 55.4197 19.6666 50.4315 24.8803Z" fill="#303030"/>
<path d="M13.8849 6.55773V9.71228C13.8849 10.1978 14.2784 10.5912 14.7638 10.5912C15.2492 10.5912 15.6427 10.1978 15.6427 9.71228V4.74033C15.6427 4.38489 15.4286 4.06426 15.1001 3.92832C14.7718 3.79226 14.3937 3.86726 14.1423 4.11875L13.2017 5.05933C12.8584 5.40258 12.8584 5.95912 13.2017 6.30226C13.3889 6.48976 13.6396 6.57519 13.8849 6.55773Z" fill="#303030"/>
<path d="M17.0763 6.01605C17.5617 6.01605 17.9552 5.62265 17.9552 5.13714V4.74023C17.9552 4.25473 17.5617 3.86133 17.0763 3.86133C16.5909 3.86133 16.1974 4.25473 16.1974 4.74023V5.13714C16.1974 5.62265 16.5908 6.01605 17.0763 6.01605Z" fill="#303030"/>
<path d="M23.867 52.5816C23.867 53.0671 24.2605 53.4605 24.7459 53.4605H32.1643C32.6497 53.4605 33.0433 53.0671 33.0433 52.5816C33.0433 52.096 32.6497 51.7026 32.1643 51.7026H24.7459C24.2605 51.7026 23.867 52.096 23.867 52.5816Z" fill="#303030"/>
</svg>
