<svg width="60" height="60" viewBox="0 0 60 60" fill="none" xmlns="http://www.w3.org/2000/svg">
<g clip-path="url(#clip0_412_1958)">
<path d="M43.8544 42.9688L47.1774 39.6458L51.8918 44.3602L48.5689 47.6832L43.8544 42.9688Z" fill="#E6E2E6"/>
<path d="M43.8544 42.9688L47.1774 39.6458L51.8918 44.3602L48.5689 47.6832L43.8544 42.9688Z" fill="#ECDAEC"/>
<path d="M43.8544 42.9688L45.4362 41.3869L50.1507 46.1014L48.5689 47.6832L43.8544 42.9688Z" fill="#E2CBE2"/>
<path d="M0.9375 2.69531C0.9375 1.72453 1.72453 0.9375 2.69531 0.9375H32.2787L43.1698 11.8286V57.3047C43.1698 58.2755 42.3827 59.0625 41.412 59.0625H2.69531C1.72453 59.0625 0.9375 58.2755 0.9375 57.3047V2.69531Z" fill="#F9F6F6"/>
<path d="M41.412 56.9531H2.69531C1.72453 56.9531 0.9375 56.1661 0.9375 55.1953V57.3047C0.9375 58.2755 1.72453 59.0625 2.69531 59.0625H41.412C42.3827 59.0625 43.1698 58.2755 43.1698 57.3047V55.1953C43.1698 56.1661 42.3827 56.9531 41.412 56.9531Z" fill="#ECDAEC"/>
<path d="M34.0366 11.8286H43.1698L32.2787 0.9375V10.0707C32.2787 11.0415 33.0658 11.8286 34.0366 11.8286Z" fill="#E2CBE2"/>
<path d="M34.0366 11.8286H43.1698L32.2787 0.9375V10.0707C32.2787 11.0415 33.0658 11.8286 34.0366 11.8286Z" fill="#E2CBE2"/>
<path d="M36.7895 47.1586C44.8462 47.1586 51.3775 40.6273 51.3775 32.5706C51.3775 24.5139 44.8462 17.9827 36.7895 17.9827C28.7328 17.9827 22.2015 24.5139 22.2015 32.5706C22.2015 40.6273 28.7328 47.1586 36.7895 47.1586Z" fill="#E2CBE2"/>
<path d="M47.1048 40.7766C41.4078 46.4736 32.1712 46.4736 26.4743 40.7766C23.8943 38.1966 22.4826 34.8905 22.2396 31.5161C21.9459 35.5927 23.3574 39.7692 26.4743 42.886C32.1712 48.583 41.4078 48.583 47.1048 42.886C50.2217 39.769 51.6333 35.5927 51.3395 31.5161C51.0963 34.8905 49.6849 38.1966 47.1048 40.7766Z" fill="#DAB9D8"/>
<path d="M36.7895 43.133C42.6229 43.133 47.3519 38.4041 47.3519 32.5706C47.3519 26.7372 42.6229 22.0083 36.7895 22.0083C30.9561 22.0083 26.2272 26.7372 26.2272 32.5706C26.2272 38.4041 30.9561 43.133 36.7895 43.133Z" fill="#FFE27A"/>
<path d="M44.2582 37.9301C40.1333 42.055 33.4457 42.055 29.3209 37.9301C27.5271 36.1363 26.5144 33.8578 26.2807 31.5161C25.9771 34.559 26.9899 37.7084 29.3209 40.0395C33.4457 44.1644 40.1335 44.1644 44.2582 40.0395C46.5892 37.7084 47.6021 34.559 47.2984 31.5161C47.0649 33.8578 46.052 36.1363 44.2582 37.9301Z" fill="#F9CF58"/>
<path d="M35.8442 36.9162C35.3802 36.9162 34.9158 36.7424 34.5569 36.3934L32.1331 34.0364C31.4019 33.3253 31.3855 32.1561 32.0966 31.4248C32.8077 30.6935 33.977 30.6772 34.7082 31.3882L35.8098 32.4594L39.1191 29.0659C39.8313 28.3357 41.0007 28.3212 41.7309 29.0331C42.4611 29.7452 42.4758 30.9146 41.7637 31.6448L37.1666 36.3587C36.8048 36.7298 36.3248 36.9162 35.8442 36.9162Z" fill="#95B900"/>
<path d="M41.7639 29.5356L37.1667 34.2495C36.8049 34.6205 36.3249 34.8069 35.8444 34.8069C35.3803 34.8069 34.9159 34.6331 34.5571 34.2841L32.1333 31.9271C32.0475 31.8437 31.9724 31.7535 31.9063 31.6589C31.3982 32.3877 31.4755 33.3969 32.1333 34.0365L34.5571 36.3935C34.916 36.7426 35.3803 36.9163 35.8444 36.9163C36.3249 36.9163 36.8049 36.73 37.1667 36.3588L41.7639 31.645C42.3931 30.9998 42.4539 30.0124 41.9562 29.2998C41.8989 29.382 41.8361 29.4615 41.7639 29.5356Z" fill="#95B900"/>
<path d="M52.5578 43.7046L47.9233 48.339L53.4683 53.884C54.7481 55.1637 56.8229 55.1637 58.1027 53.884C59.3824 52.6043 59.3824 50.5294 58.1027 49.2495L52.5578 43.7046Z" fill="#FF4755"/>
<path d="M55.0486 52.3003L49.5054 46.7571L47.9233 48.3391L53.4683 53.8841C54.748 55.1638 56.8229 55.1638 58.1026 53.8841C58.3814 53.6053 58.5994 53.2888 58.7567 52.9509C57.5426 53.5199 56.0515 53.3032 55.0486 52.3003Z" fill="#FC2B3A"/>
<path d="M11.8796 23.1332H8.0346C7.43425 23.1332 6.94757 22.6466 6.94757 22.0462V18.201C6.94757 17.6007 7.43425 17.114 8.0346 17.114H11.8798C12.4801 17.114 12.9668 17.6007 12.9668 18.201V22.0462C12.9667 22.6466 12.48 23.1332 11.8796 23.1332Z" fill="#95B900"/>
<path d="M11.8796 35.457H8.0346C7.43425 35.457 6.94757 34.9703 6.94757 34.3699V30.5248C6.94757 29.9244 7.43425 29.4377 8.0346 29.4377H11.8798C12.4801 29.4377 12.9668 29.9244 12.9668 30.5248V34.3699C12.9667 34.9703 12.48 35.457 11.8796 35.457Z" fill="#95B900"/>
<path d="M11.8796 48.0307H8.0346C7.43425 48.0307 6.94757 47.544 6.94757 46.9437V43.0985C6.94757 42.4982 7.43425 42.0115 8.0346 42.0115H11.8798C12.4801 42.0115 12.9668 42.4982 12.9668 43.0985V46.9437C12.9667 47.544 12.48 48.0307 11.8796 48.0307Z" fill="#95B900"/>
<path d="M11.8796 21.0237H8.0346C7.43425 21.0237 6.94757 20.537 6.94757 19.9368V22.0461C6.94757 22.6465 7.43425 23.1332 8.0346 23.1332H11.8798C12.4801 23.1332 12.9667 22.6465 12.9667 22.0461V19.9368C12.9667 20.537 12.48 21.0237 11.8796 21.0237Z" fill="#95B900"/>
<path d="M11.8796 33.3475H8.0346C7.43425 33.3475 6.94757 32.8608 6.94757 32.2605V34.3699C6.94757 34.9702 7.43425 35.4569 8.0346 35.4569H11.8798C12.4801 35.4569 12.9667 34.9702 12.9667 34.3699V32.2605C12.9667 32.8608 12.48 33.3475 11.8796 33.3475Z" fill="#95B900"/>
<path d="M11.8796 45.9213H8.0346C7.43425 45.9213 6.94757 45.4346 6.94757 44.8342V46.9436C6.94757 47.544 7.43425 48.0306 8.0346 48.0306H11.8798C12.4801 48.0306 12.9667 47.544 12.9667 46.9436V44.8342C12.9667 45.4346 12.48 45.9213 11.8796 45.9213Z" fill="#95B900"/>
<path d="M32.2787 10.0708V12.1802C32.2787 13.151 33.0657 13.938 34.0365 13.938H43.1697V11.8286H34.0365C33.0657 11.8286 32.2787 11.0416 32.2787 10.0708Z" fill="#ECDAEC"/>
<path d="M35.8605 37.8102C36.6031 37.8102 37.2977 37.5175 37.8163 36.9859L42.423 32.2628C43.4744 31.1847 43.4526 29.4522 42.3744 28.4007C41.2962 27.3494 39.5633 27.3712 38.5119 28.4492L35.8094 31.2197L35.336 30.7594C34.2562 29.7099 32.5235 29.7339 31.4734 30.8136C30.4236 31.8932 30.4479 33.6257 31.5276 34.6756L33.9565 37.0372C34.4692 37.5357 35.1454 37.8102 35.8605 37.8102ZM32.7364 32.0414C33.1095 31.6578 33.7251 31.6498 34.1082 32.0223L35.212 33.0957C35.5603 33.4345 36.1172 33.4268 36.4565 33.0791L39.7729 29.6791C40.1465 29.296 40.7619 29.2886 41.1446 29.6617C41.5276 30.0352 41.5352 30.6504 41.162 31.0333L36.5552 35.7563C36.1992 36.137 35.5507 36.1451 35.1845 35.7746L32.7556 33.413C32.3723 33.0401 32.3635 32.4248 32.7364 32.0414Z" fill="#303030"/>
<path d="M29.0525 38.4097C28.7596 38.0214 28.2075 37.9441 27.8189 38.2371C27.4305 38.53 27.3534 39.0822 27.6463 39.4705C27.967 39.8955 28.3219 40.3031 28.7006 40.6818C30.8661 42.8471 33.7453 44.0395 36.8078 44.0395C39.8702 44.0395 42.7493 42.8471 44.9148 40.6818C47.0804 38.5167 48.2729 35.6378 48.2729 32.5758C48.2729 29.5137 47.0803 26.635 44.9148 24.4699C40.4444 20.0002 33.171 20.0003 28.7006 24.4699C25.6529 27.5171 24.5744 31.9624 25.8861 36.071C26.034 36.5343 26.5299 36.7898 26.993 36.6421C27.4563 36.4942 27.7121 35.9987 27.5641 35.5354C26.4538 32.0575 27.3665 28.2946 29.9463 25.7153C33.7296 21.9324 39.8859 21.9324 43.6692 25.7153C45.502 27.5479 46.5115 29.9844 46.5115 32.576C46.5115 35.1676 45.502 37.604 43.6692 39.4366C41.8365 41.269 39.3997 42.2784 36.8078 42.2784C34.2159 42.2784 31.779 41.2692 29.9462 39.4366C29.6249 39.115 29.3242 38.7697 29.0525 38.4097Z" fill="#303030"/>
<path d="M58.7883 48.6646L53.2318 43.1088C52.8878 42.765 52.3302 42.7649 51.9861 43.1088L51.9521 43.1428L49.8138 41.0048C51.2512 38.7888 52.1077 36.2284 52.2762 33.5562C52.3068 33.0708 51.938 32.6525 51.4526 32.6218C50.9675 32.5923 50.5489 32.96 50.5181 33.4453C50.3078 36.7815 48.8885 39.9221 46.5218 42.2885C43.8471 44.963 40.3346 46.3017 36.8211 46.3051C36.8167 46.305 36.8123 46.3044 36.8078 46.3044H36.7378C33.2433 46.2868 29.7541 44.9486 27.0937 42.2885C24.499 39.6942 23.07 36.2448 23.07 32.5758C23.07 28.9068 24.499 25.4573 27.0937 22.863C32.45 17.5073 41.1655 17.5073 46.5218 22.863C48.5168 24.8578 49.8333 27.3739 50.3291 30.1397C50.415 30.6184 50.873 30.9364 51.3514 30.8511C51.8303 30.7654 52.1488 30.3077 52.063 29.8289C51.5033 26.7074 50.018 23.8679 47.7674 21.6176C46.6522 20.5025 45.4077 19.594 44.0819 18.8905V11.7929C44.0812 11.5611 43.9876 11.3343 43.824 11.1702L32.9103 0.25793C32.7462 0.0945703 32.5194 0.000585937 32.2874 0H2.64222C1.18535 0 -4.88281e-06 1.18512 -4.88281e-06 2.64188V10.0438C-4.88281e-06 10.5301 0.394214 10.9245 0.880776 10.9245C1.36722 10.9245 1.76156 10.5302 1.76156 10.0438V2.64188C1.76156 2.15625 2.1566 1.76121 2.64234 1.76121H31.4069V10.0317C31.4069 11.4885 32.5923 12.6736 34.0492 12.6736H42.3207V18.0929C40.6023 17.4418 38.7906 17.1074 36.9759 17.0878C36.9673 17.0866 36.9588 17.0849 36.9498 17.0849H17.2857C16.7993 17.0849 16.405 17.4792 16.405 17.9655C16.405 18.4519 16.7993 18.8462 17.2857 18.8462H29.6169C28.3605 19.5032 27.1762 20.3441 26.1037 21.3687H17.2857C16.7993 21.3687 16.405 21.763 16.405 22.2493C16.405 22.7357 16.7993 23.13 17.2857 23.13H24.5186C23.0809 24.9922 22.0984 27.137 21.6281 29.4265H17.2859C16.7994 29.4265 16.4051 29.8208 16.4051 30.3071C16.4051 30.7935 16.7994 31.1878 17.2859 31.1878H21.3709C21.3303 31.6468 21.3089 32.1097 21.3089 32.576C21.3089 32.9585 21.3228 33.3389 21.3502 33.7166H17.286C16.7995 33.7166 16.4052 34.1109 16.4052 34.5973C16.4052 35.0836 16.7995 35.4779 17.286 35.4779H21.5797C22.0289 37.8616 23.0304 40.0952 24.5212 42.0252H17.286C16.7995 42.0252 16.4052 42.4194 16.4052 42.9059C16.4052 43.3923 16.7995 43.7865 17.286 43.7865H26.1073C27.1782 44.8092 28.3607 45.6488 29.6148 46.3049H17.2855C16.7991 46.3049 16.4047 46.6992 16.4047 47.1855C16.4047 47.6719 16.7991 48.0662 17.2855 48.0662H36.8078C38.6783 48.066 40.549 47.73 42.3205 47.0589V57.3586C42.3205 57.8441 41.9255 58.2393 41.4397 58.2393H2.64222C2.1566 58.2393 1.76144 57.8442 1.76144 57.3586V13.5668C1.76144 13.0805 1.3671 12.6861 0.880659 12.6861C0.394214 12.6861 -0.00012207 13.0804 -0.00012207 13.5668V57.3586C-4.88281e-06 58.8149 1.18535 60 2.64222 60H41.4398C42.8967 60 44.0821 58.8149 44.0821 57.3581V46.2608C44.4751 46.0522 44.8609 45.8254 45.2384 45.5807L47.3762 47.7182C47.0062 48.0411 46.9864 48.6566 47.3421 48.9976L52.8987 54.5535C54.4487 56.1689 57.2382 56.1688 58.7882 54.5535C60.4039 53.0036 60.4038 50.2144 58.7883 48.6646ZM34.0491 10.9124C33.5634 10.9124 33.1683 10.5173 33.1683 10.0317V3.00668L41.075 10.9124H34.0491ZM46.6751 44.5263C47.0509 44.2157 47.4158 43.8854 47.7674 43.534C48.1168 43.1845 48.4475 42.8197 48.7597 42.4418L50.7064 44.3882L48.6217 46.4726L46.6751 44.5263ZM57.5427 53.308C56.6483 54.2402 55.0387 54.24 54.1443 53.308L49.2104 48.3749L52.609 44.9768L57.5428 49.9099C58.4749 50.8044 58.475 52.4136 57.5427 53.308Z" fill="#303030"/>
<path d="M7.99262 24.0004H11.8457C12.9321 24.0004 13.8159 23.1168 13.8159 22.0307V18.1781C13.8159 17.0918 12.9322 16.2083 11.8457 16.2083H7.99262C6.90641 16.2083 6.02258 17.0918 6.02258 18.1781V22.0307C6.02258 23.1168 6.90641 24.0004 7.99262 24.0004ZM7.78415 18.1781C7.78415 18.0631 7.87778 17.9696 7.99262 17.9696H11.8457C11.9608 17.9696 12.0543 18.0631 12.0543 18.1781V22.0307C12.0543 22.1457 11.9607 22.2392 11.8457 22.2392H7.99262C7.87766 22.2392 7.78415 22.1457 7.78415 22.0307V18.1781Z" fill="#303030"/>
<path d="M6.02258 34.3783C6.02258 35.4643 6.90629 36.3479 7.99262 36.3479H11.8457C12.9321 36.3479 13.8159 35.4643 13.8159 34.3783V30.5256C13.8159 29.4395 12.9322 28.5559 11.8457 28.5559H7.99262C6.90641 28.5559 6.02258 29.4395 6.02258 30.5256V34.3783ZM7.78415 30.5256C7.78415 30.4106 7.87778 30.3171 7.99262 30.3171H11.8457C11.9608 30.3171 12.0543 30.4106 12.0543 30.5256V34.3783C12.0543 34.4932 11.9607 34.5867 11.8457 34.5867H7.99262C7.87766 34.5867 7.78415 34.4932 7.78415 34.3783V30.5256Z" fill="#303030"/>
<path d="M6.02258 46.977C6.02258 48.0631 6.90629 48.9467 7.99262 48.9467H11.8457C12.9321 48.9467 13.8159 48.0631 13.8159 46.977V43.1243C13.8159 42.0381 12.9322 41.1545 11.8457 41.1545H7.99262C6.90641 41.1545 6.02258 42.0381 6.02258 43.1243V46.977ZM7.78415 43.1243C7.78415 43.0094 7.87778 42.9159 7.99262 42.9159H11.8457C11.9608 42.9159 12.0543 43.0094 12.0543 43.1243V46.977C12.0543 47.092 11.9607 47.1855 11.8457 47.1855H7.99262C7.87766 47.1855 7.78415 47.092 7.78415 46.977V43.1243Z" fill="#303030"/>
</g>
<defs>
<clipPath id="clip0_412_1958">
<rect width="60" height="60" fill="white"/>
</clipPath>
</defs>
</svg>
