<svg width="60" height="60" viewBox="0 0 60 60" fill="none" xmlns="http://www.w3.org/2000/svg">
<path d="M24.9431 46.2124L22.0558 54.4733H37.9443L35.057 46.2124H24.9431Z" fill="white"/>
<path d="M36.2464 49.6155L35.057 46.2124H24.943L23.7535 49.6155H36.2464Z" fill="white"/>
<path d="M16.7427 56.6871V58.2178C16.7427 58.5069 16.9771 58.7411 17.2662 58.7411H42.734C43.0231 58.7411 43.2574 58.5067 43.2574 58.2178V56.6871C43.2574 55.4646 42.2663 54.4734 41.0437 54.4734H18.9562C17.7337 54.4734 16.7427 55.4644 16.7427 56.6871Z" fill="white"/>
<path d="M0.878906 44.769V2.32254C0.878906 1.52531 1.5252 0.878906 2.32254 0.878906H57.6776C58.4748 0.878906 59.1212 1.5252 59.1212 2.32254V44.769C59.1212 45.5662 58.4749 46.2127 57.6776 46.2127H2.32254C1.5252 46.2127 0.878906 45.5664 0.878906 44.769Z" fill="white"/>
<path d="M57.6775 40.8713H2.32254C1.52531 40.8713 0.878906 40.225 0.878906 39.4276V2.32254C0.878906 1.52531 1.5252 0.878906 2.32254 0.878906H57.6776C58.4748 0.878906 59.1212 1.5252 59.1212 2.32254V39.4277C59.1211 40.225 58.4748 40.8713 57.6775 40.8713Z" fill="#95B900"/>
<path d="M4.9209 5.49828V36.2517C4.9209 36.5705 5.17941 36.8291 5.49828 36.8291H54.5014C54.8203 36.8291 55.0788 36.5705 55.0788 36.2517V5.49828C55.0788 5.17941 54.8203 4.9209 54.5014 4.9209H5.4984C5.17953 4.92078 4.9209 5.17941 4.9209 5.49828Z" fill="white"/>
<path d="M17.6035 14.2335C17.6035 14.2118 17.6108 14.1828 17.6179 14.1539L18.9632 9.74178C19.0428 9.48865 19.3684 9.36572 19.7009 9.36572C20.0336 9.36572 20.3592 9.48865 20.4388 9.74178L21.7913 14.1539C21.7986 14.1828 21.8059 14.2118 21.8059 14.2335C21.8059 14.5011 21.3935 14.6963 21.0826 14.6963C20.9018 14.6963 20.7571 14.6385 20.7137 14.4866L20.4677 13.5825H18.9416L18.6956 14.4866C18.6522 14.6385 18.5075 14.6963 18.3267 14.6963C18.0158 14.6963 17.6035 14.5011 17.6035 14.2335ZM20.2291 12.7146L19.7011 10.7761L19.1731 12.7146H20.2291Z" fill="#303030"/>
<path d="M13.7847 13.2655C14.2267 12.1991 13.7205 10.9762 12.6541 10.5341C11.5876 10.0921 10.3648 10.5983 9.92271 11.6647C9.48066 12.7312 9.98684 13.9541 11.0533 14.3961C12.1197 14.8381 13.3426 14.332 13.7847 13.2655Z" fill="#FDDD45"/>
<path d="M13.7859 22.4686C14.2279 21.4022 13.7218 20.1793 12.6553 19.7373C11.5889 19.2952 10.366 19.8014 9.92393 20.8678C9.48188 21.9343 9.98806 23.1572 11.0545 23.5992C12.121 24.0413 13.3438 23.5351 13.7859 22.4686Z" fill="#FDDD45"/>
<path d="M13.7869 31.6718C14.2289 30.6053 13.7227 29.3824 12.6563 28.9404C11.5898 28.4983 10.367 29.0045 9.92491 30.071C9.48286 31.1374 9.98904 32.3603 11.0555 32.8023C12.1219 33.2444 13.3448 32.7382 13.7869 31.6718Z" fill="#FDDD45"/>
<path d="M17.9652 18.9566C17.9652 18.7252 18.2112 18.6094 18.457 18.6094H19.9398C20.6631 18.6094 21.3864 18.8698 21.3864 19.8968C21.3864 20.4827 21.1549 20.8661 20.7716 21.0323C21.2128 21.1986 21.5166 21.4663 21.5166 22.1896V22.3414C21.5166 23.4843 20.8801 23.8965 20.0627 23.8965H18.457C18.1532 23.8965 17.9652 23.7374 17.9652 23.5566V18.9566ZM19.0863 20.5985H19.8458C20.1206 20.5985 20.2581 20.3454 20.2581 20.0994C20.2581 19.8463 20.1206 19.593 19.8458 19.593H19.0863V20.5985ZM19.8096 22.9131C20.1713 22.9131 20.3883 22.7105 20.3883 22.2476V22.1319C20.3883 21.6401 20.1713 21.4664 19.8096 21.4664H19.0863V22.9131H19.8096Z" fill="#303030"/>
<path d="M19.6867 28.793C19.2743 28.793 19.0358 29.0244 19.0358 29.5163V31.433C19.0358 31.9248 19.2745 32.1563 19.694 32.1563C20.2727 32.1563 20.3089 31.7151 20.3306 31.433C20.3522 31.1653 20.5982 31.093 20.8874 31.093C21.278 31.093 21.4588 31.1943 21.4588 31.6284C21.4588 32.5903 20.6777 33.14 19.6434 33.14C18.6959 33.14 17.9075 32.6771 17.9075 31.433V29.5163C17.9075 28.2722 18.6959 27.8093 19.6434 27.8093C20.6777 27.8093 21.4588 28.3301 21.4588 29.2487C21.4588 29.6827 21.278 29.7839 20.8947 29.7839C20.5909 29.7839 20.3451 29.7044 20.3306 29.444C20.3232 29.2559 20.3015 28.793 19.6867 28.793Z" fill="#303030"/>
<path d="M39.6568 27.24H28.7489C27.5833 27.24 26.6383 28.1849 26.6383 29.3505V40.2585C26.6383 41.4357 28.1329 41.9405 28.8467 41.0042L31.6606 37.3132C31.7308 37.2212 31.8659 37.2121 31.9477 37.294L38.3928 43.7391C38.8441 44.1903 39.5757 44.1903 40.0269 43.7391L43.1373 40.6287C43.5885 40.1774 43.5885 39.4458 43.1373 38.9946L36.6922 32.5495C36.6104 32.4677 36.6194 32.3325 36.7114 32.2624L40.4024 29.4485C41.3388 28.7346 40.834 27.24 39.6568 27.24Z" fill="#FDDD45"/>
<path d="M57.6775 0H2.32254C1.04191 0 0 1.0418 0 2.32242V10.4116C0 10.897 0.393516 11.2905 0.878906 11.2905C1.3643 11.2905 1.75781 10.897 1.75781 10.4116V2.32242C1.75781 2.01105 2.01117 1.75781 2.32254 1.75781H57.6775C57.9888 1.75781 58.2422 2.01117 58.2422 2.32242V39.4276C58.2422 39.7391 57.9888 39.9925 57.6773 39.9925H44.345C44.3964 39.413 44.2014 38.8154 43.7587 38.3728L43.0944 37.7085H54.5016C55.3048 37.7085 55.9582 37.055 55.9582 36.2518V5.49832C55.9582 4.69512 55.3048 4.04168 54.5016 4.04168H5.49844C4.69523 4.04168 4.0418 4.69512 4.0418 5.49832V36.2518C4.0418 37.055 4.69523 37.7085 5.49844 37.7085H25.7595V39.9925H2.32266C2.01117 39.9925 1.75781 39.739 1.75781 39.4276V14.5132C1.75781 14.0278 1.3643 13.6343 0.878906 13.6343C0.393516 13.6343 0 14.0278 0 14.5132V44.7689C0 46.0495 1.04191 47.0913 2.32254 47.0913H23.7048L21.432 53.5944H18.9562C17.2511 53.5944 15.8637 54.9817 15.8637 56.687V58.2178C15.8637 58.991 16.4927 59.6201 17.2661 59.6201H42.7338C43.5071 59.6201 44.1362 58.991 44.1362 58.2178V56.687C44.1362 54.9818 42.7489 53.5944 41.0436 53.5944H38.568L36.2952 47.0913H45.7991C46.2845 47.0913 46.678 46.6978 46.678 46.2124C46.678 45.727 46.2845 45.3335 45.7991 45.3335H2.32254C2.01117 45.3335 1.75781 45.0802 1.75781 44.7689V41.6779C1.93898 41.7233 2.12754 41.7502 2.32266 41.7502H26.3708C26.5951 41.9733 26.8733 42.1481 27.1937 42.2563C27.9738 42.5196 28.7948 42.3197 29.3584 41.7502H35.1614L37.7713 44.36C38.1555 44.7443 38.6664 44.9559 39.2098 44.9559C39.7532 44.9559 40.2641 44.7443 40.6482 44.36L43.2582 41.7502H57.6773C57.8725 41.7502 58.061 41.7233 58.2422 41.6779V44.7689C58.2422 45.0803 57.9888 45.3335 57.6775 45.3335H49.9007C49.4153 45.3335 49.0218 45.727 49.0218 46.2124C49.0218 46.6978 49.4153 47.0913 49.9007 47.0913H57.6775C58.9581 47.0913 60 46.0494 60 44.7689V2.32242C60 1.0418 58.9581 0 57.6775 0ZM42.3784 56.6871V57.8624H17.6216V56.6871C17.6216 55.9512 18.2203 55.3523 18.9564 55.3523H41.0437C41.7797 55.3523 42.3784 55.9511 42.3784 56.6871ZM36.7059 53.5945H23.2941L25.5669 47.0914H34.4332L36.7059 53.5945ZM5.79961 35.9507V5.79949H54.2004V35.9507H41.3366L37.8701 32.484L40.9355 30.1472C41.6668 29.5896 41.9493 28.6664 41.655 27.7951C41.3607 26.9238 40.5764 26.361 39.6568 26.361H28.7489C27.1005 26.361 25.7595 27.7021 25.7595 29.3504V35.9507H5.79961ZM30.723 39.9925L31.8826 38.4715L33.4036 39.9925H30.723ZM39.4055 43.1173C39.2977 43.2251 39.1221 43.2251 39.0143 43.1173L32.5692 36.6722C32.3679 36.4709 32.0954 36.3587 31.8127 36.3587C31.7887 36.3587 31.7647 36.3595 31.7407 36.3612C31.4326 36.3819 31.1486 36.5346 30.9616 36.78L28.1477 40.4712C28.0147 40.6455 27.8453 40.6211 27.7561 40.5909C27.6669 40.5608 27.5173 40.4775 27.5173 40.2582V29.3503C27.5173 28.6712 28.0698 28.1187 28.7489 28.1187H39.6568C39.8762 28.1187 39.9594 28.2683 39.9895 28.3575C40.0196 28.4467 40.0441 28.6163 39.8698 28.7491L36.1786 31.563C35.9331 31.7503 35.7804 32.0343 35.7598 32.3423C35.739 32.6503 35.8525 32.9523 36.0708 33.1705L42.5159 39.6156C42.6237 39.7234 42.6237 39.8988 42.5159 40.0068L39.4055 43.1173Z" fill="#303030"/>
<path d="M45.7513 21.0638C44.0668 21.2497 42.6929 22.6044 42.4844 24.2848C42.4247 24.7665 42.7667 25.2054 43.2484 25.2653C43.7306 25.3252 44.1691 24.983 44.2289 24.5013C44.3383 23.6195 45.0598 22.9087 45.9444 22.8109C46.5121 22.7485 47.0563 22.9208 47.4764 23.2971C47.891 23.6684 48.1288 24.2003 48.1288 24.7562C48.1288 25.7456 47.3897 26.5812 46.4094 26.6998C45.7724 26.777 45.292 27.3197 45.292 27.962V28.8994C45.292 29.3848 45.6855 29.7783 46.1709 29.7783C46.6563 29.7783 47.0498 29.3848 47.0498 28.8994V28.3672C48.6941 27.9692 49.8866 26.4866 49.8866 24.7562C49.8866 23.7012 49.4355 22.6921 48.6491 21.9877C47.8631 21.2838 46.8068 20.9469 45.7513 21.0638Z" fill="#303030"/>
<path d="M46.1708 31.7588C45.6854 31.7588 45.2919 32.1523 45.2919 32.6377V32.9527C45.2919 33.4381 45.6854 33.8316 46.1708 33.8316C46.6562 33.8316 47.0497 33.4381 47.0497 32.9527V32.6377C47.0497 32.1523 46.6562 31.7588 46.1708 31.7588Z" fill="#303030"/>
<path d="M28.4275 12.0593H47.2555C47.7409 12.0593 48.1344 11.6658 48.1344 11.1804C48.1344 10.695 47.7409 10.3015 47.2555 10.3015H28.4275C27.9421 10.3015 27.5486 10.695 27.5486 11.1804C27.5486 11.6658 27.9421 12.0593 28.4275 12.0593Z" fill="#303030"/>
<path d="M28.4275 17.6956H47.2555C47.7409 17.6956 48.1344 17.302 48.1344 16.8167C48.1344 16.3313 47.7409 15.9377 47.2555 15.9377H28.4275C27.9421 15.9377 27.5486 16.3313 27.5486 16.8167C27.5486 17.302 27.9421 17.6956 28.4275 17.6956Z" fill="#303030"/>
<path d="M28.4275 23.332H36.3722C36.8576 23.332 37.2511 22.9385 37.2511 22.4531C37.2511 21.9677 36.8576 21.5742 36.3722 21.5742H28.4275C27.9421 21.5742 27.5486 21.9677 27.5486 22.4531C27.5486 22.9385 27.9421 23.332 28.4275 23.332Z" fill="#303030"/>
<path d="M20.439 9.74153C20.4003 9.62106 20.3124 9.52813 20.175 9.4631C20.0375 9.39806 19.8795 9.36548 19.7012 9.36548C19.5227 9.36548 19.3648 9.39806 19.2274 9.4631C19.0899 9.52825 19.0019 9.62118 18.9634 9.74153L17.6179 14.154C17.6082 14.1927 17.6035 14.2192 17.6035 14.2336C17.6035 14.3591 17.6818 14.4676 17.8386 14.5591C17.9953 14.6508 18.158 14.6966 18.3269 14.6966C18.5342 14.6966 18.6571 14.6267 18.6958 14.4868L18.9418 13.5826H20.468L20.714 14.4868C20.7526 14.6267 20.8755 14.6966 21.0829 14.6966C21.2517 14.6966 21.4145 14.6508 21.5713 14.5591C21.7279 14.4676 21.8063 14.3591 21.8063 14.2336C21.8063 14.2192 21.8014 14.1927 21.7919 14.154L20.439 9.74153ZM19.1731 12.7145L19.7012 10.7759L20.2292 12.7145H19.1731Z" fill="#303030"/>
<path d="M11.8485 9.49365C10.2115 9.49365 8.87976 10.8254 8.87976 12.4624C8.87976 14.0994 10.2116 15.4311 11.8485 15.4311C13.4853 15.4311 14.8172 14.0992 14.8172 12.4624C14.8172 10.8255 13.4855 9.49365 11.8485 9.49365ZM11.8485 13.6734C11.1807 13.6734 10.6376 13.1301 10.6376 12.4625C10.6376 11.7949 11.1809 11.2516 11.8485 11.2516C12.5161 11.2516 13.0594 11.7947 13.0594 12.4625C13.0594 13.1302 12.5162 13.6734 11.8485 13.6734Z" fill="#303030"/>
<path d="M20.7717 21.0321C21.1815 20.8537 21.3866 20.4751 21.3866 19.8964C21.3866 19.0381 20.9044 18.6089 19.9399 18.6089H18.457C18.3219 18.6089 18.2063 18.6391 18.1098 18.6992C18.0133 18.7596 17.9651 18.8451 17.9651 18.956V23.5565C17.9651 23.6482 18.0096 23.7278 18.0989 23.7953C18.1881 23.8629 18.3074 23.8965 18.457 23.8965H20.0629C20.5065 23.8965 20.8597 23.7724 21.1226 23.524C21.3854 23.2756 21.5168 22.8814 21.5168 22.3413V22.1894C21.5168 21.8519 21.4541 21.5975 21.3287 21.4263C21.2033 21.2552 21.0177 21.1237 20.7717 21.0321ZM19.0865 19.5927H19.8459C19.9761 19.5927 20.0774 19.6433 20.1497 19.7446C20.2221 19.8458 20.2582 19.964 20.2582 20.099C20.2582 20.234 20.222 20.351 20.1497 20.4499C20.0774 20.5488 19.9761 20.5981 19.8459 20.5981H19.0865V19.5927ZM20.3884 22.2473C20.3884 22.691 20.1955 22.9128 19.8097 22.9128H19.0865V21.4662H19.8097C20.1955 21.4662 20.3884 21.688 20.3884 22.1317V22.2473Z" fill="#303030"/>
<path d="M11.8485 18.6938C10.2115 18.6938 8.87976 20.0256 8.87976 21.6626C8.87976 23.2996 10.2116 24.6313 11.8485 24.6313C13.4853 24.6313 14.8172 23.2994 14.8172 21.6626C14.8172 20.0257 13.4855 18.6938 11.8485 18.6938ZM11.8485 22.8735C11.1807 22.8735 10.6376 22.3302 10.6376 21.6626C10.6376 20.9949 11.1809 20.4517 11.8485 20.4517C12.5161 20.4517 13.0594 20.9948 13.0594 21.6626C13.0594 22.3303 12.5162 22.8735 11.8485 22.8735Z" fill="#303030"/>
<path d="M19.6868 28.7929C20.1016 28.7929 20.3161 29.0099 20.3307 29.4438C20.3452 29.6706 20.5332 29.7838 20.8948 29.7838C21.0974 29.7838 21.242 29.7465 21.3289 29.6717C21.4157 29.5969 21.4591 29.4559 21.4591 29.2485C21.4591 28.8 21.2891 28.448 20.9491 28.1924C20.6091 27.9368 20.1739 27.8091 19.6434 27.8091C19.1274 27.8091 18.709 27.9465 18.3884 28.2215C18.0677 28.4964 17.9073 28.928 17.9073 29.5163V31.4331C17.9073 32.0215 18.0677 32.453 18.3884 32.7279C18.709 33.0028 19.1274 33.1402 19.6434 33.1402C20.1738 33.1402 20.6091 33.0053 20.9491 32.7351C21.289 32.4651 21.4591 32.0962 21.4591 31.6283C21.4591 31.421 21.4157 31.2799 21.3289 31.2052C21.242 31.1304 21.0948 31.093 20.8877 31.093C20.5356 31.093 20.3499 31.2063 20.3307 31.433C20.3089 31.6602 20.2908 31.7333 20.2222 31.8922C20.1331 32.0978 19.9172 32.1563 19.6941 32.1563C19.2552 32.1563 19.0359 31.9152 19.0359 31.433V29.5162C19.0357 29.034 19.2528 28.7929 19.6868 28.7929Z" fill="#303030"/>
<path d="M11.8485 27.894C10.2115 27.894 8.87976 29.2259 8.87976 30.8628C8.87976 32.4996 10.2116 33.8315 11.8485 33.8315C13.4853 33.8315 14.8172 32.4997 14.8172 30.8628C14.8172 29.2258 13.4855 27.894 11.8485 27.894ZM11.8485 32.0737C11.1807 32.0737 10.6376 31.5305 10.6376 30.8628C10.6376 30.195 11.1809 29.6519 11.8485 29.6519C12.5161 29.6519 13.0594 30.1951 13.0594 30.8628C13.0594 31.5304 12.5162 32.0737 11.8485 32.0737Z" fill="#303030"/>
</svg>
