<svg width="60" height="60" viewBox="0 0 60 60" fill="none" xmlns="http://www.w3.org/2000/svg">
<path d="M8.54555 41.4982H5.57766C3.015 41.4982 0.9375 39.4209 0.9375 36.8582V26.0952C0.9375 23.5326 3.015 21.4551 5.57766 21.4551H8.54555V41.4982Z" fill="#95B900"/>
<path d="M5.57764 21.4551C5.39225 21.4551 5.20967 21.4671 5.02991 21.4884V41.465C5.20967 41.4861 5.39213 41.4982 5.57764 41.4982H8.54553V21.4551H5.57764Z" fill="#95B900"/>
<path d="M12.0662 41.6655C12.0662 42.7129 11.2172 43.5619 10.1698 43.5619C9.12234 43.5619 8.27332 42.7129 8.27332 41.6655V21.2879C8.27332 20.2405 9.12234 19.3916 10.1698 19.3916C11.2172 19.3916 12.0662 20.2406 12.0662 21.2879V41.6655Z" fill="#857E87"/>
<path d="M51.3373 21.4551H54.4222C56.9849 21.4551 59.0625 23.5326 59.0625 26.0952V36.8582C59.0625 39.421 56.9849 41.4984 54.4222 41.4984H51.3373V21.4551Z" fill="#95B900"/>
<path d="M54.4222 21.4551H51.3373V21.4757C53.698 21.6931 55.5469 23.6779 55.5469 26.0952V36.8582C55.5469 39.2757 53.698 41.2604 51.3373 41.4777V41.4984H54.4222C56.9849 41.4984 59.0625 39.421 59.0625 36.8582V26.0952C59.0625 23.5326 56.9849 21.4551 54.4222 21.4551Z" fill="#95B900"/>
<path d="M47.9338 21.2879C47.9338 20.2406 48.7827 19.3916 49.8302 19.3916C50.8777 19.3916 51.7267 20.2407 51.7267 21.2879V41.6655C51.7267 42.713 50.8777 43.5619 49.8302 43.5619C48.7827 43.5619 47.9338 42.7129 47.9338 41.6655V21.2879Z" fill="#857E87"/>
<path d="M26.6386 59.1951C25.5826 59.1951 24.7266 58.3461 24.7266 57.2987C24.7266 56.2513 25.5826 55.4023 26.6386 55.4023H33.3613C34.4174 55.4023 35.2733 56.2514 35.2733 57.2987C35.2733 58.3461 34.4174 59.1951 33.3613 59.1951H26.6386Z" fill="#95B900"/>
<path d="M33.3614 55.4023H29.8458C30.9019 55.4023 31.7579 56.2514 31.7579 57.2987C31.7579 58.3461 30.9019 59.1951 29.8458 59.1951H33.3614C34.4175 59.1951 35.2735 58.3461 35.2735 57.2987C35.2735 56.2514 34.4175 55.4023 33.3614 55.4023Z" fill="#95B900"/>
<path fill-rule="evenodd" clip-rule="evenodd" d="M30.0424 17.2405C30.0849 17.2405 30.1275 17.2406 30.17 17.241C37.15 17.3035 42.8969 22.7173 43.5349 29.5284C43.5774 29.9825 43.5972 30.4428 43.5932 30.9081C43.5913 31.1214 43.5845 31.3334 43.573 31.5442C43.3991 34.7055 42.1408 37.5775 40.1645 39.7959V44.3633C40.1645 44.9776 39.6667 45.4319 39.107 45.4428C38.9556 45.4458 38.7996 45.4163 38.6477 45.3488L34.6015 43.5505C33.472 43.9536 32.2737 44.2116 31.0286 44.3011C30.6136 44.3309 30.1934 44.342 29.7688 44.3335C29.7687 44.3335 29.7686 44.3335 29.7686 44.3335C29.7192 44.3325 29.6698 44.3312 29.6205 44.3297C29.5634 44.328 29.5064 44.3258 29.4495 44.3233C22.2981 44.0121 16.556 38.0934 16.4981 30.8998C16.4376 23.3676 22.5245 17.2423 30.0424 17.2405Z" fill="#FDDD45"/>
<path d="M29.2516 34.9297C29.2516 35.3697 28.9109 35.7103 28.471 35.7103H23.4469C23.221 35.7134 22.9846 35.6324 22.8366 35.4549C22.5386 35.1285 22.567 34.6459 22.8792 34.3479L27.0801 30.5443C27.7914 29.9066 27.8665 28.785 27.2827 28.0372C26.6814 27.2673 25.5343 27.1393 24.7516 27.7068C24.4383 27.9339 24.1777 28.3429 23.7767 28.4125C23.4023 28.4774 23.0319 28.2463 22.908 27.891C22.7106 27.3244 23.1953 26.9854 23.5604 26.6556C24.199 26.0596 25.0363 25.7756 25.8454 25.7756C26.7679 25.7756 27.7046 26.1588 28.3716 26.8969C28.9678 27.5356 29.2516 28.3729 29.2516 29.1819C29.2516 30.1044 28.8684 31.0411 28.1304 31.7081L25.448 34.1351H28.471C28.911 34.135 29.2516 34.4898 29.2516 34.9297Z" fill="#303030"/>
<path d="M37.2416 33.0706C37.2416 33.5105 36.8868 33.8512 36.4469 33.8512H36.3049V34.9297C36.3049 35.3697 35.9643 35.7103 35.5244 35.7103C35.0844 35.7103 34.7438 35.3697 34.7438 34.9297V33.8512H30.3015C29.6424 33.8738 29.2559 33.1022 29.663 32.588C29.8438 32.3632 34.8547 26.1177 34.9138 26.0599C34.9629 26.0118 35.0261 25.9483 35.0845 25.9104C35.5968 25.5791 36.3052 25.9254 36.3052 26.5562V32.29H36.4471C36.8868 32.29 37.2416 32.6447 37.2416 33.0706ZM34.7436 28.7844L31.9193 32.29H34.7436V28.7844Z" fill="#303030"/>
<path d="M55.3161 20.5946C53.1759 8.56125 42.053 0 29.9999 0C17.9467 0 6.82418 8.56149 4.68375 20.5945C2.03355 21.0082 0 23.2902 0 26.0353V28.9453C0 30.0789 1.75781 30.0789 1.75781 28.9453V26.0352C1.75781 23.9673 3.45832 22.285 5.54859 22.285H7.38281V40.5227H5.54859C3.45832 40.5229 1.75781 38.8405 1.75781 36.7727V33.3984C1.75781 32.2649 0 32.2649 0 33.3984V36.7727C0 39.8099 2.48906 42.2807 5.54859 42.2807H7.47656C8.2916 45.3239 12.9575 44.725 12.9575 41.5685V21.2394C12.9575 18.0885 8.29313 17.4788 7.47656 20.5273H6.48539C8.6441 9.50203 18.9245 1.75781 29.9999 1.75781C41.0753 1.75781 51.3558 9.50191 53.5145 20.5273H52.5234C51.7084 17.4841 47.0423 18.0831 47.0423 21.2394V41.5685C47.0423 44.7196 51.707 45.3294 52.5234 42.2807H53.5029C51.9257 50.6329 44.291 56.0775 35.9946 56.3402C35.621 55.2473 34.5793 54.4586 33.3551 54.4586H26.6449C25.1347 54.4586 23.8575 55.7142 23.8575 57.2293C23.8575 58.7445 25.1347 60 26.6449 60H33.3551C34.5867 60 35.6337 59.2016 36.0014 58.0984C45.2968 57.8244 53.7209 51.5796 55.2995 42.2163C57.9578 41.8098 60 39.5236 60 36.7727V26.0353C60 23.2902 57.9663 21.0082 55.3161 20.5946ZM9.14062 21.2394C9.14062 19.9318 11.1997 19.931 11.1997 21.2394V41.5685C11.1997 42.8763 9.14062 42.877 9.14062 41.5685V21.2394ZM33.3551 58.2422H26.6449C25.3211 58.2422 25.3201 56.2164 26.6449 56.2164H33.3551C34.6791 56.2164 34.68 58.2422 33.3551 58.2422ZM50.8594 41.5685C50.8594 42.8763 48.8002 42.877 48.8002 41.5685V21.2394C48.8002 19.9317 50.8594 19.931 50.8594 21.2394V41.5685ZM58.2422 36.7727C58.2422 38.8406 56.5416 40.5229 54.4512 40.5229H52.6172V22.2851H54.4512C56.5416 22.2851 58.2422 23.9674 58.2422 26.0353V36.7727Z" fill="#303030"/>
<path d="M34.5438 44.3914L39.8291 46.7199C40.3997 46.9715 41.0623 46.5371 41.0623 45.9156V40.0344C43.2906 37.4346 44.5136 34.1398 44.5136 30.7175C44.5136 27.7039 43.5842 24.818 41.826 22.3717C41.1648 21.451 39.737 22.4772 40.3986 23.3976C41.9406 25.5432 42.7556 28.0743 42.7556 30.7175C42.7556 33.8188 41.61 36.8015 39.5296 39.116C39.3846 39.2773 39.3043 39.4866 39.3043 39.7035V44.5681L34.9391 42.6449C34.7344 42.5546 34.5027 42.546 34.2918 42.6206C32.9155 43.1075 31.4715 43.3543 29.9999 43.3543C22.9664 43.3543 17.2443 37.6854 17.2443 30.7175C17.2443 23.7495 22.9665 18.0806 30 18.0806C32.6229 18.0806 35.1418 18.8627 37.2845 20.3424C38.2172 20.9865 39.2161 19.5401 38.2833 18.896C35.8457 17.2126 32.9813 16.3228 30 16.3228C21.9973 16.3228 15.4866 22.7801 15.4866 30.7174C15.4866 38.6546 21.9973 45.112 30 45.112C31.5532 45.112 33.0799 44.8697 34.5438 44.3914Z" fill="#303030"/>
</svg>
