<svg width="60" height="60" viewBox="0 0 60 60" fill="none" xmlns="http://www.w3.org/2000/svg">
<g clip-path="url(#clip0_412_1904)">
<path d="M30 59.1211C46.0831 59.1211 59.1211 46.0831 59.1211 30C59.1211 13.9169 46.0831 0.878906 30 0.878906C13.9169 0.878906 0.878906 13.9169 0.878906 30C0.878906 46.0831 13.9169 59.1211 30 59.1211Z" fill="#EAB14D"/>
<path d="M30 0.878906C29.4802 0.878906 28.9636 0.893086 28.4504 0.920039C43.8133 1.72559 56.0221 14.4367 56.0221 30C56.0221 45.5633 43.8133 58.2745 28.4506 59.08C28.9637 59.1069 29.4802 59.1211 30.0001 59.1211C46.0833 59.1211 59.1212 46.0832 59.1212 30C59.1212 13.9168 46.0832 0.878906 30 0.878906Z" fill="#E49542"/>
<path d="M30 52.6925C42.5327 52.6925 52.6925 42.5327 52.6925 29.9999C52.6925 17.4672 42.5327 7.30737 30 7.30737C17.4673 7.30737 7.30746 17.4672 7.30746 29.9999C7.30746 42.5327 17.4673 52.6925 30 52.6925Z" fill="#F4FBFF"/>
<path d="M30 7.30737C29.3715 7.30737 28.7494 7.33409 28.1339 7.38425C39.7936 8.33347 48.9604 18.0957 48.9604 29.9999C48.9604 41.9042 39.7936 51.6664 28.1339 52.6156C28.7495 52.6657 29.3716 52.6925 30 52.6925C42.5327 52.6925 52.6925 42.5326 52.6925 29.9999C52.6925 17.4672 42.5327 7.30737 30 7.30737Z" fill="#DAF1F4"/>
<path d="M30 32.3458C31.2956 32.3458 32.3459 31.2955 32.3459 29.9999C32.3459 28.7043 31.2956 27.6541 30 27.6541C28.7044 27.6541 27.6541 28.7043 27.6541 29.9999C27.6541 31.2955 28.7044 32.3458 30 32.3458Z" fill="#95B900"/>
<path d="M30 14.292C30.4854 14.292 30.8789 13.8984 30.8789 13.413V12.123C30.8789 11.6377 30.4854 11.2441 30 11.2441C29.5146 11.2441 29.1211 11.6377 29.1211 12.123V13.413C29.1211 13.8984 29.5146 14.292 30 14.292Z" fill="#303030"/>
<path d="M43.2149 16.7572C42.8716 16.414 42.3151 16.4139 41.972 16.7572L41.0598 17.6693C40.7165 18.0125 40.7165 18.5691 41.0597 18.9123C41.2314 19.0839 41.4563 19.1698 41.6813 19.1698C41.9061 19.1698 42.1311 19.084 42.3027 18.9124L43.2149 18.0002C43.558 17.657 43.558 17.1005 43.2149 16.7572Z" fill="#303030"/>
<path d="M46.4916 29.1211C46.0061 29.1211 45.6127 29.5146 45.6127 30C45.6127 30.4854 46.0061 30.8789 46.4916 30.8789H47.7816C48.2671 30.8789 48.6605 30.4855 48.6605 30C48.6605 29.5145 48.2671 29.1211 47.7816 29.1211H46.4916Z" fill="#303030"/>
<path d="M42.235 41.0596C41.8916 40.7165 41.3352 40.7165 40.992 41.0596C40.6487 41.4029 40.6487 41.9594 40.992 42.3026L41.904 43.2147C42.0757 43.3862 42.3007 43.472 42.5256 43.472C42.7505 43.472 42.9755 43.3862 43.1472 43.2147C43.4904 42.8713 43.4904 42.3149 43.1472 41.9717L42.235 41.0596Z" fill="#303030"/>
<path d="M29.0254 46.4917V47.7817C29.0254 48.2672 29.4189 48.6606 29.9043 48.6606C30.3897 48.6606 30.7832 48.2672 30.7832 47.7817V46.4917C30.7832 46.0062 30.3898 45.6128 29.9043 45.6128C29.4188 45.6128 29.0254 46.0062 29.0254 46.4917Z" fill="#303030"/>
<path d="M17.6017 40.9919L16.6895 41.904C16.3463 42.2472 16.3463 42.8037 16.6895 43.1469C16.8611 43.3185 17.0861 43.4043 17.3109 43.4043C17.5358 43.4043 17.7608 43.3185 17.9324 43.147L18.8446 42.2349C19.1878 41.8917 19.1878 41.3351 18.8446 40.992C18.5015 40.6488 17.9449 40.6489 17.6017 40.9919Z" fill="#303030"/>
<path d="M12.1228 29.0254C11.6374 29.0254 11.2439 29.4189 11.2439 29.9043C11.2439 30.3898 11.6374 30.7832 12.1228 30.7832H13.4128C13.8982 30.7832 14.2917 30.3898 14.2917 29.9043C14.2917 29.4189 13.8982 29.0254 13.4128 29.0254H12.1228Z" fill="#303030"/>
<path d="M18.9124 17.6017L18.0002 16.6895C17.6569 16.3463 17.1006 16.3464 16.7572 16.6895C16.414 17.0328 16.4141 17.5893 16.7572 17.9325L17.6694 18.8446C17.8411 19.0163 18.066 19.1021 18.2909 19.1021C18.5158 19.1021 18.7408 19.0163 18.9124 18.8446C19.2557 18.5014 19.2556 17.9449 18.9124 17.6017Z" fill="#303030"/>
<path d="M32.3552 32.1993L38.6156 35.4184C39.0499 35.6418 39.5784 35.4679 39.7992 35.0387C40.0213 34.607 39.8511 34.0772 39.4195 33.8551L33.1612 30.6371C33.2027 30.4309 33.2248 30.2179 33.2248 29.9998C33.2248 28.5264 32.2311 27.2815 30.879 26.8978V17.9392C30.879 17.4538 30.4855 17.0603 30.0001 17.0603C29.5147 17.0603 29.1212 17.4538 29.1212 17.9392V26.8978C28.0487 27.2022 27.2025 28.0484 26.8982 29.1209H22.5356C22.0502 29.1209 21.6567 29.5144 21.6567 29.9998C21.6567 30.4852 22.0502 30.8787 22.5356 30.8787H26.8982C27.2818 32.2308 28.5267 33.2246 30.0001 33.2246C30.9287 33.2247 31.7664 32.8296 32.3552 32.1993ZM30 31.4669C29.1912 31.4669 28.533 30.8089 28.533 29.9999C28.533 29.1911 29.191 28.533 30 28.533C30.8088 28.533 31.4668 29.191 31.4668 29.9999C31.4669 30.8089 30.8088 31.4669 30 31.4669Z" fill="#303030"/>
<path d="M52.6925 29.1194C53.1765 29.0823 53.5389 28.66 53.5018 28.1759C53.0496 22.2705 50.4043 16.7885 46.0532 12.7398C41.6793 8.66991 35.9782 6.42847 30 6.42847C17.0027 6.42847 6.42856 17.0025 6.42856 29.9999C6.42856 42.9973 17.0027 53.5714 30 53.5714C42.2925 53.5714 52.5614 44.1019 53.5017 31.8242C53.5386 31.3402 53.1765 30.9178 52.6924 30.8807C52.2104 30.8445 51.7861 31.2059 51.749 31.69C50.8809 43.0265 41.3992 51.8135 30 51.8135C17.9719 51.8135 8.18637 42.028 8.18637 29.9999C8.18637 17.9718 17.9719 8.18628 30 8.18628C35.5322 8.18628 40.8081 10.2605 44.8557 14.0268C48.8825 17.7737 51.3307 22.8463 51.749 28.3102C51.7861 28.7939 52.2068 29.1572 52.6925 29.1194Z" fill="#303030"/>
<path d="M51.2133 8.78684C45.547 3.12047 38.0134 0 30 0C24.241 0 18.6465 1.63641 13.821 4.7325C13.4124 4.99465 13.2937 5.53828 13.5559 5.94691C13.818 6.35531 14.3615 6.47402 14.7703 6.21199C19.3119 3.29801 24.5783 1.75781 30 1.75781C37.5438 1.75781 44.636 4.69547 49.9703 10.0297C55.3045 15.364 58.2422 22.4562 58.2422 30C58.2422 45.6086 45.6108 58.2422 30 58.2422C27.2106 58.2422 24.4517 57.8348 21.8001 57.0318C21.3355 56.8909 20.8448 57.1534 20.7042 57.6182C20.5635 58.0827 20.826 58.5732 21.2905 58.7141C24.1076 59.5673 27.0378 60 30 60C46.5801 60 60 46.5824 60 30C60 21.9867 56.8794 14.4531 51.2133 8.78684Z" fill="#303030"/>
<path d="M18.6042 55.8467C8.37047 51.3279 1.75781 41.1824 1.75781 30C1.75781 21.5498 5.49738 13.6121 12.0176 8.22198C12.3916 7.91272 12.4443 7.35878 12.1349 6.9846C11.8257 6.61065 11.2718 6.55804 10.8975 6.86718C3.97207 12.5924 0 21.0239 0 30C0 41.8781 7.02387 52.6548 17.8941 57.4549C18.0095 57.5059 18.1301 57.53 18.2487 57.53C18.5862 57.53 18.908 57.3346 19.0532 57.0058C19.2492 56.5618 19.0482 56.0429 18.6042 55.8467Z" fill="#303030"/>
</g>
<defs>
<clipPath id="clip0_412_1904">
<rect width="60" height="60" fill="white"/>
</clipPath>
</defs>
</svg>
