<svg width="60" height="60" viewBox="0 0 60 60" fill="none" xmlns="http://www.w3.org/2000/svg">
<path d="M33.8324 4.45312H3.51562C2.22117 4.45312 1.17188 5.50242 1.17188 6.79688V51.7969C1.17188 53.0913 2.22117 54.1406 3.51562 54.1406H5.5957L33.8324 4.45312Z" fill="#95B900"/>
<path d="M18.0469 9.14062H42.6562C44.5979 9.14062 46.1719 10.7146 46.1719 12.6562V55.3125C46.1719 57.2542 44.5979 58.8281 42.6562 58.8281H9.375C7.43332 58.8281 5.85938 57.2542 5.85938 55.3125V21.3281L18.0469 9.14062Z" fill="white"/>
<path d="M5.85938 21.3281H15.7031C16.9976 21.3281 18.0469 20.2788 18.0469 18.9844V9.14062L5.85938 21.3281Z" fill="#FDDD45"/>
<path d="M43.3594 32.1094C51.9025 32.1094 58.8281 25.1838 58.8281 16.6406C58.8281 8.09747 51.9025 1.17188 43.3594 1.17188C34.8162 1.17188 27.8906 8.09747 27.8906 16.6406C27.8906 25.1838 34.8162 32.1094 43.3594 32.1094Z" fill="#FDDD45"/>
<path d="M14.9448 30.9375H28.3984C29.0455 30.9375 29.5703 30.4129 29.5703 29.7656C29.5703 29.1184 29.0455 28.5938 28.3984 28.5938H14.9448C14.2977 28.5938 13.7729 29.1184 13.7729 29.7656C13.7729 30.4129 14.2977 30.9375 14.9448 30.9375Z" fill="#303030"/>
<path d="M37.0864 37.0312H14.9448C14.2977 37.0312 13.7729 37.5559 13.7729 38.2031C13.7729 38.8504 14.2977 39.375 14.9448 39.375H37.0863C37.7334 39.375 38.2582 38.8504 38.2582 38.2031C38.2582 37.5559 37.7335 37.0312 37.0864 37.0312Z" fill="#303030"/>
<path d="M37.0864 45.4688H19.6875C19.0404 45.4688 18.5156 45.9934 18.5156 46.6406C18.5156 47.2879 19.0404 47.8125 19.6875 47.8125H37.0864C37.7336 47.8125 38.2583 47.2879 38.2583 46.6406C38.2583 45.9934 37.7336 45.4688 37.0864 45.4688Z" fill="#303030"/>
<path d="M45.3434 35.9684C45.1254 36.1863 45 36.4887 45 36.7969C45 37.1051 45.1253 37.4074 45.3434 37.6254C45.5614 37.8434 45.8637 37.9688 46.1719 37.9688C46.4801 37.9688 46.7824 37.8434 47.0003 37.6254C47.2182 37.4074 47.3438 37.1051 47.3438 36.7969C47.3438 36.4887 47.2184 36.1863 47.0003 35.9684C46.7824 35.7504 46.4801 35.625 46.1719 35.625C45.8637 35.625 45.5613 35.7504 45.3434 35.9684Z" fill="#303030"/>
<path d="M43.3594 0C39.6493 0 36.2194 1.22086 33.4491 3.28125H3.51562C1.57711 3.28125 0 4.85836 0 6.79688V51.7969C0 53.7354 1.57711 55.3125 3.51562 55.3125H4.6875C4.6875 57.8972 6.79031 60 9.375 60H42.6562C45.2409 60 47.3438 57.8972 47.3438 55.3125V41.4844C47.3438 40.8371 46.819 40.3125 46.1719 40.3125C45.5248 40.3125 45 40.8371 45 41.4844V55.3125C45 56.6048 43.9486 57.6562 42.6562 57.6562H9.375C8.08266 57.6562 7.03125 56.6048 7.03125 55.3125V22.5H15.7031C17.6416 22.5 19.2188 20.9229 19.2188 18.9844V10.3125H27.97C27.1644 12.2644 26.7188 14.4013 26.7188 16.6406C26.7188 17.8466 26.8488 19.0225 27.0938 20.1562H22.539C21.8919 20.1562 21.3671 20.6809 21.3671 21.3281C21.3671 21.9754 21.8919 22.5 22.539 22.5H27.7849C30.1603 28.7931 36.2452 33.2812 43.3594 33.2812C52.535 33.2812 60 25.8163 60 16.6406C60 7.46496 52.535 0 43.3594 0ZM16.875 18.9844C16.875 19.6305 16.3493 20.1562 15.7031 20.1562H8.68863L16.875 11.9698V18.9844ZM18.0469 7.96875C17.7236 7.96875 17.4308 8.09977 17.2188 8.31141C17.2186 8.31164 17.2184 8.31176 17.2182 8.31188L5.03074 20.4994C5.03039 20.4997 5.03016 20.5001 5.02992 20.5004C4.81828 20.7125 4.6875 21.005 4.6875 21.3281V52.9688H3.51562C2.86945 52.9688 2.34375 52.443 2.34375 51.7969V6.79688C2.34375 6.1507 2.86945 5.625 3.51562 5.625H30.8984C30.2544 6.35262 29.6726 7.13648 29.1623 7.96875H18.0469ZM43.3594 30.9375C35.4761 30.9375 29.0625 24.5239 29.0625 16.6406C29.0625 8.7573 35.4761 2.34375 43.3594 2.34375C51.2427 2.34375 57.6562 8.7573 57.6562 16.6406C57.6562 24.5239 51.2427 30.9375 43.3594 30.9375Z" fill="#303030"/>
<path d="M54.2621 15.4812H53.3174C52.6703 15.4812 52.1455 16.0058 52.1455 16.6531C52.1455 17.3003 52.6703 17.825 53.3174 17.825H54.2621C54.9093 17.825 55.434 17.3003 55.434 16.6531C55.434 16.0058 54.9094 15.4812 54.2621 15.4812Z" fill="#303030"/>
<path d="M33.4012 15.4563H32.4565C31.8094 15.4563 31.2846 15.9809 31.2846 16.6282C31.2846 17.2754 31.8094 17.8 32.4565 17.8H33.4012C34.0484 17.8 34.5731 17.2754 34.5731 16.6282C34.5731 15.9809 34.0485 15.4563 33.4012 15.4563Z" fill="#303030"/>
<path d="M43.3718 7.85432C44.0189 7.85432 44.5437 7.32967 44.5437 6.68244V5.73779C44.5437 5.09057 44.0189 4.56592 43.3718 4.56592C42.7247 4.56592 42.1999 5.09057 42.1999 5.73779V6.68244C42.1999 7.32967 42.7247 7.85432 43.3718 7.85432Z" fill="#303030"/>
<path d="M43.347 25.4268C42.6998 25.4268 42.1751 25.9514 42.1751 26.5986V27.5433C42.1751 28.1905 42.6998 28.7152 43.347 28.7152C43.9941 28.7152 44.5188 28.1905 44.5188 27.5433V26.5986C44.5188 25.9514 43.9941 25.4268 43.347 25.4268Z" fill="#303030"/>
<path d="M42.5325 17.471C42.7611 17.6987 43.0602 17.8125 43.3594 17.8125C43.6594 17.8125 43.9593 17.698 44.188 17.4693L52.2891 9.36823C52.7467 8.91061 52.7467 8.16858 52.2891 7.71084C51.8313 7.25323 51.0895 7.25334 50.6317 7.71084L43.3594 14.9834L39.1345 10.7585C38.677 10.3009 37.9352 10.3009 37.4772 10.7585C37.0195 11.2162 37.0195 11.9582 37.4772 12.4158L42.5194 17.4581L42.5325 17.471Z" fill="#303030"/>
<path d="M14.1715 45.8121C13.9535 46.0301 13.8281 46.3324 13.8281 46.6406C13.8281 46.9488 13.9534 47.2512 14.1715 47.4691C14.3896 47.6871 14.6918 47.8125 15 47.8125C15.3082 47.8125 15.6105 47.6871 15.8284 47.4691C16.0464 47.2512 16.1719 46.9488 16.1719 46.6406C16.1719 46.3324 16.0465 46.0301 15.8284 45.8121C15.6105 45.5941 15.3082 45.4688 15 45.4688C14.6918 45.4688 14.3895 45.5941 14.1715 45.8121Z" fill="#303030"/>
</svg>
