<svg width="51" height="56" viewBox="0 0 51 56" fill="none" xmlns="http://www.w3.org/2000/svg">
<path d="M48.8843 21.2656C49.4492 21.2656 49.9072 21.7236 49.9072 22.2885V50.9478C49.9072 53.2844 48.013 55.1786 45.6764 55.1786H5.05227C2.71568 55.1786 0.821472 53.2844 0.821472 50.9478V22.2885C0.821472 21.7236 1.27942 21.2656 1.84437 21.2656H48.8843Z" fill="#95B900"/>
<path d="M3.92279 21.2656V50.1824C3.92279 52.0964 5.47932 53.6533 7.39269 53.6533H43.4455C45.3587 53.6533 46.9154 52.0962 46.9154 50.1824V21.2656H3.92279Z" fill="#95B900"/>
<path d="M43.8551 19.1987H6.98307C6.50223 19.1987 6.1134 19.5887 6.1134 20.0695V46.2328L17.9956 50.573L25.4191 51.4267L43.2112 48.215L44.7247 46.2328V20.0695C44.7248 19.5887 44.336 19.1987 43.8551 19.1987Z" fill="#F9F7F7"/>
<path d="M24.5976 19.1987H26.2405V51.4629H24.5976V19.1987Z" fill="#F8F3F2"/>
<path d="M15.28 19.1987L20.0981 26.6995V27.2815C20.0981 28.245 20.5782 29.098 21.3113 29.6155V30.5306C21.3113 32.4452 22.869 34.003 24.7837 34.003H26.0547C27.9694 34.003 29.5271 32.4452 29.5271 30.5306V29.6155C30.2602 29.098 30.7403 28.245 30.7403 27.2815V26.6995L35.5583 19.1987H15.28Z" fill="#F8F3F2"/>
<path d="M10.6735 47.1558V19.1987H6.98307C6.50223 19.1987 6.1134 19.5887 6.1134 20.0695V46.2328L10.8214 47.9525C10.7272 47.7046 10.6735 47.4368 10.6735 47.1558Z" fill="#F8F3F2"/>
<path d="M25.4191 51.4268V51.463H7.39271C6.68624 51.463 6.1134 50.8901 6.1134 50.1825V46.2329H20.2252C23.0938 46.2329 25.4191 48.5582 25.4191 51.4268Z" fill="#F2EAE7"/>
<path d="M44.7248 46.2329V50.1825C44.7248 50.8901 44.152 51.463 43.4455 51.463H25.4191V51.4268C25.4191 48.5582 27.7444 46.2329 30.613 46.2329H44.7248Z" fill="#F2EAE7"/>
<path d="M27.8839 27.1802H22.9542V30.5305C22.9542 31.5408 23.7733 32.3598 24.7836 32.3598H26.0546C27.065 32.3598 27.8839 31.5408 27.8839 30.5305V27.1802Z" fill="#A59CA6"/>
<path d="M27.8839 27.1802H24.3644H23.9479H22.9542V30.5305C22.9542 31.5408 23.7733 32.3598 24.7836 32.3598H26.0546C26.7626 32.3598 27.3755 31.9569 27.6796 31.3684C27.609 31.3766 27.5376 31.3821 27.4648 31.3821H26.1938C25.3901 31.3821 24.7082 30.8634 24.4631 30.1426C24.3709 29.8715 24.5719 29.5897 24.8583 29.5897H27.884V27.1802H27.8839Z" fill="#8F8390"/>
<path d="M36.3438 11.7461C36.3438 5.71255 31.4527 0.821289 25.419 0.821289C19.3854 0.821289 14.4942 5.71245 14.4942 11.7461C14.4942 14.0869 15.2307 16.2553 16.4841 18.0333L21.741 26.2172V27.2814C21.741 27.9514 22.2842 28.4945 22.9542 28.4945H27.8839C28.5539 28.4945 29.097 27.9514 29.097 27.2814V26.2172L34.3539 18.0333C35.6074 16.2554 36.3438 14.0869 36.3438 11.7461Z" fill="#FDDD45"/>
<path d="M21.0912 19.4273C19.7807 17.5054 19.0107 15.1612 19.0107 12.6309C19.0107 7.00183 22.8192 2.29304 27.9179 1.1088C27.115 0.920852 26.2792 0.821289 25.4191 0.821289C19.3855 0.821289 14.4943 5.71245 14.4943 11.7461C14.4943 14.0869 15.2307 16.2553 16.4842 18.0333L21.7411 26.2172V27.2814C21.7411 27.9513 22.2842 28.4945 22.9542 28.4945H26.0764L21.0912 19.4273Z" fill="#FDDD45"/>
<path d="M25.8281 49.4023C25.5648 50.0243 25.419 50.7082 25.419 51.4261V51.4623H43.4454C44.1519 51.4623 44.7247 50.8894 44.7247 50.1819V49.4025H25.8281V49.4023Z" fill="#EDE2DD"/>
<path d="M12.9206 49.4025C11.6795 49.4025 10.6735 48.3965 10.6735 47.1554V46.2324H6.1134V50.1821C6.1134 50.8896 6.68624 51.4625 7.39271 51.4625H25.4191V51.4263C25.4191 50.7084 25.2734 50.0246 25.01 49.4025H12.9206Z" fill="#EDE2DD"/>
<path d="M48.8843 20.4442H45.5468V20.0693C45.5468 19.1364 44.7878 18.3774 43.8548 18.3774H37.2724C36.8187 18.3774 36.4509 18.7451 36.4509 19.1989C36.4509 19.6527 36.8187 20.0204 37.2724 20.0204H43.8548C43.8819 20.0204 43.9039 20.0423 43.9039 20.0693V30.0855C43.9039 30.5393 44.2717 30.907 44.7253 30.907C45.179 30.907 45.5468 30.5393 45.5468 30.0855V22.0871H48.8843C48.9954 22.0871 49.0857 22.1775 49.0857 22.2885V50.9478C49.0857 52.8277 47.5564 54.3571 45.6765 54.3571H5.05217C3.17231 54.3571 1.64294 52.8277 1.64294 50.9478V22.2885C1.64294 22.1775 1.73331 22.0871 1.84437 22.0871H5.29138V50.1829C5.29138 51.3413 6.23377 52.2838 7.39227 52.2838H43.4458C44.6043 52.2838 45.5467 51.3414 45.5467 50.1829V33.5892C45.5467 33.1355 45.1789 32.7678 44.7252 32.7678C44.2716 32.7678 43.9038 33.1355 43.9038 33.5892V45.4109H30.613C28.8916 45.4109 27.3381 46.1388 26.2406 47.3016V36.6756C26.2406 36.2218 25.8728 35.8541 25.4191 35.8541C24.9654 35.8541 24.5976 36.2218 24.5976 36.6756V47.3017C23.5001 46.1389 21.9465 45.411 20.2252 45.411H16.4924C16.0388 45.411 15.671 45.7787 15.671 46.2325C15.671 46.6863 16.0388 47.0539 16.4924 47.0539H20.2252C22.3679 47.0539 24.1544 48.6037 24.5257 50.6408H7.39227C7.13969 50.6408 6.93432 50.4355 6.93432 50.1829V47.0539H12.9886C13.4422 47.0539 13.81 46.6863 13.81 46.2325C13.81 45.7787 13.4422 45.411 12.9886 45.411H6.93432V20.0693C6.93432 20.0423 6.95634 20.0204 6.98339 20.0204H13.5658C14.0195 20.0204 14.3873 19.6527 14.3873 19.1989C14.3873 18.7451 14.0195 18.3774 13.5658 18.3774H6.98339C6.05042 18.3774 5.29138 19.1365 5.29138 20.0693V20.4442H1.84437C0.827387 20.4442 0 21.2715 0 22.2885V50.9478C0 53.7336 2.26639 56 5.05217 56H45.6763C48.4621 56 50.7284 53.7336 50.7284 50.9478V22.2885C50.7286 21.2715 49.9013 20.4442 48.8843 20.4442ZM30.613 47.0538H43.9038V50.1829C43.9038 50.4355 43.6984 50.6408 43.4458 50.6408H26.3126C26.6838 48.6036 28.4703 47.0538 30.613 47.0538Z" fill="black"/>
<path d="M14.4666 11.5259C14.9175 11.5678 15.3189 11.2369 15.3615 10.7852C15.5965 8.29402 16.7468 5.98755 18.6009 4.29072C20.4665 2.58337 22.8879 1.64295 25.4191 1.64295C30.9901 1.64295 35.5224 6.17528 35.5224 11.7462C35.5224 13.8425 34.8862 15.8528 33.6826 17.5601C33.6758 17.5698 33.6692 17.5796 33.6627 17.5895L28.406 25.7733C28.3209 25.9058 28.2756 26.0598 28.2756 26.2174V27.2815C28.2756 27.4975 28.0999 27.6732 27.884 27.6732H27.8303L28.3536 18.7931H29.2894C30.6286 18.7931 31.7179 17.7037 31.7179 16.3647V16.265C31.7179 14.926 30.6286 13.8367 29.2894 13.8367C28.0056 13.8367 26.9408 14.8406 26.8652 16.1222L26.8047 17.1502H23.9239L23.8633 16.1222C23.7879 14.8406 22.7229 13.8367 21.4391 13.8367C20.1 13.8367 19.0106 14.926 19.0106 16.265V16.3647C19.0106 17.7037 20.1 18.7931 21.4391 18.7931H22.3749L22.8979 27.6675C22.7088 27.6399 22.5626 27.4783 22.5626 27.2815V26.2174C22.5626 26.0598 22.5173 25.9058 22.4323 25.7733L17.1755 17.5895C17.1691 17.5796 17.1625 17.5698 17.1557 17.5601C16.3999 16.4878 15.8676 15.2963 15.5739 14.0184C15.4722 13.5762 15.0308 13.3003 14.5892 13.4018C14.1471 13.5036 13.8711 13.9443 13.9727 14.3865C14.3131 15.8672 14.9288 17.2484 15.8026 18.4919L20.9198 26.4582V27.2813C20.9198 28.1108 21.4194 28.8248 22.133 29.1412V30.5304C22.133 31.9922 23.3222 33.1814 24.7839 33.1814H26.0549C27.5166 33.1814 28.7059 31.9922 28.7059 30.5304V29.1412C29.4193 28.8248 29.919 28.1109 29.919 27.2813V26.4582L35.0361 18.4919C36.4293 16.5093 37.1657 14.177 37.1657 11.7461C37.1653 5.26925 31.8959 0 25.4191 0C22.4763 0 19.6609 1.09343 17.4917 3.07877C15.3365 5.0514 13.9991 7.73334 13.7259 10.6309C13.6832 11.0828 14.0149 11.4834 14.4666 11.5259ZM28.5053 16.2188C28.5297 15.8043 28.8742 15.4795 29.2894 15.4795C29.7226 15.4795 30.075 15.8319 30.075 16.2649V16.3646C30.075 16.7977 29.7226 17.15 29.2894 17.15H28.4504L28.5053 16.2188ZM21.4391 17.15C21.0059 17.15 20.6536 16.7977 20.6536 16.3646V16.2649C20.6536 15.8319 21.0059 15.4795 21.4391 15.4795C21.8545 15.4795 22.1988 15.8043 22.2232 16.2188L22.2781 17.15H21.4391ZM26.7078 18.793L26.1846 27.6731H24.5441L24.0208 18.793H26.7078ZM27.0625 30.5305C27.0625 31.0863 26.6103 31.5385 26.0545 31.5385H24.7835C24.2277 31.5385 23.7755 31.0863 23.7755 30.5305V29.3161H27.0624V30.5305H27.0625Z" fill="black"/>
<path d="M39.8085 6.23809C40.0009 6.23809 40.1941 6.17083 40.3501 6.03392L42.1424 4.4602C42.4834 4.16096 42.517 3.64179 42.2178 3.30094C41.9186 2.96008 41.3995 2.92635 41.0585 3.22558L39.2662 4.7993C38.9252 5.09854 38.8916 5.61771 39.1908 5.95857C39.3533 6.14356 39.5803 6.23809 39.8085 6.23809Z" fill="black"/>
<path d="M39.2662 11.1923L41.0585 12.7661C41.2145 12.9031 41.4077 12.9703 41.6002 12.9703C41.8284 12.9703 42.0554 12.8757 42.2179 12.6907C42.5172 12.3499 42.4835 11.8308 42.1426 11.5315L40.3503 9.95764C40.0093 9.65819 39.4904 9.69203 39.191 10.033C38.8916 10.3739 38.9252 10.8928 39.2662 11.1923Z" fill="black"/>
<path d="M8.69567 4.45984L10.488 6.03356C10.644 6.17058 10.8372 6.23772 11.0296 6.23772C11.2578 6.23772 11.4848 6.1432 11.6473 5.9582C11.9466 5.61735 11.9129 5.09818 11.5719 4.79894L9.77958 3.22522C9.43872 2.92576 8.91955 2.95961 8.62032 3.30058C8.32097 3.64143 8.35471 4.16049 8.69567 4.45984Z" fill="black"/>
<path d="M9.23798 12.9701C9.43042 12.9701 9.62363 12.9029 9.77971 12.766L11.5721 11.1921C11.9129 10.8928 11.9466 10.3737 11.6473 10.0329C11.3481 9.69201 10.829 9.65828 10.488 9.95752L8.6957 11.5313C8.35484 11.8307 8.3211 12.3498 8.62045 12.6906C8.78277 12.8756 9.00972 12.9701 9.23798 12.9701Z" fill="black"/>
<path d="M18.151 28.4943C18.151 28.0405 17.7832 27.6729 17.3296 27.6729H9.23761C8.78394 27.6729 8.41614 28.0405 8.41614 28.4943C8.41614 28.9481 8.78394 29.3158 9.23761 29.3158H17.3296C17.7832 29.3158 18.151 28.9481 18.151 28.4943Z" fill="black"/>
<path d="M19.8321 31.8516H10.7216C10.2679 31.8516 9.90009 32.2193 9.90009 32.673C9.90009 33.1268 10.2679 33.4945 10.7216 33.4945H19.8321C20.2858 33.4945 20.6536 33.1268 20.6536 32.673C20.6536 32.2193 20.2858 31.8516 19.8321 31.8516Z" fill="black"/>
<path d="M19.8321 35.854H10.7216C10.2679 35.854 9.90009 36.2217 9.90009 36.6755C9.90009 37.1293 10.2679 37.4969 10.7216 37.4969H19.8321C20.2858 37.4969 20.6536 37.1293 20.6536 36.6755C20.6536 36.2217 20.2858 35.854 19.8321 35.854Z" fill="black"/>
<path d="M19.8321 39.8564H10.7216C10.2679 39.8564 9.90009 40.2241 9.90009 40.6779C9.90009 41.1317 10.2679 41.4994 10.7216 41.4994H19.8321C20.2858 41.4994 20.6536 41.1317 20.6536 40.6779C20.6536 40.2241 20.2858 39.8564 19.8321 39.8564Z" fill="black"/>
<path d="M42.422 28.4943C42.422 28.0405 42.0542 27.6729 41.6005 27.6729H33.5086C33.0549 27.6729 32.6871 28.0405 32.6871 28.4943C32.6871 28.9481 33.0549 29.3158 33.5086 29.3158H41.6005C42.0542 29.3158 42.422 28.9481 42.422 28.4943Z" fill="black"/>
<path d="M40.1165 31.8516H31.006C30.5523 31.8516 30.1845 32.2193 30.1845 32.673C30.1845 33.1268 30.5523 33.4945 31.006 33.4945H40.1165C40.5702 33.4945 40.938 33.1268 40.938 32.673C40.938 32.2193 40.5702 31.8516 40.1165 31.8516Z" fill="black"/>
<path d="M40.1165 35.854H31.006C30.5523 35.854 30.1845 36.2217 30.1845 36.6755C30.1845 37.1293 30.5523 37.4969 31.006 37.4969H40.1165C40.5702 37.4969 40.938 37.1293 40.938 36.6755C40.938 36.2217 40.5702 35.854 40.1165 35.854Z" fill="black"/>
<path d="M40.1165 39.8564H31.006C30.5523 39.8564 30.1845 40.2241 30.1845 40.6779C30.1845 41.1317 30.5523 41.4994 31.006 41.4994H40.1165C40.5702 41.4994 40.938 41.1317 40.938 40.6779C40.938 40.2241 40.5702 39.8564 40.1165 39.8564Z" fill="black"/>
</svg>
