<svg width="49" height="56" viewBox="0 0 49 56" fill="none" xmlns="http://www.w3.org/2000/svg">
<path d="M34.5501 50.5316H14.1694V38.1721C17.5447 37.2717 20.9199 36.3715 24.2951 35.4712C27.7134 36.3715 31.1317 37.2718 34.5499 38.1721C34.5501 42.292 34.5501 46.4117 34.5501 50.5316Z" fill="#95B900"/>
<path d="M19.587 28.498H29.1326V33.7966H19.587V28.498Z" fill="#95B900"/>
<path d="M21.7745 20.5986H26.9451V28.498H21.7745V20.5986Z" fill="#95B900"/>
<path d="M11.2347 33.7969H37.4849V38.1719H11.2347V33.7969Z" fill="#95B900"/>
<path d="M11.2347 50.5312H37.4849V54.9063H11.2347V50.5312Z" fill="#95B900"/>
<path d="M24.3597 1.09375L28.7062 8.41284L37.0102 10.2849L31.3925 16.6803L32.1781 25.1564L24.3597 21.7899L16.5413 25.1564L17.327 16.6803L11.7092 10.2849L20.0132 8.41284L24.3597 1.09375Z" fill="#FDDD45"/>
<path d="M41.8397 29.9784C44.5067 28.5619 46.0945 26.3326 45.3862 24.9991C44.678 23.6656 41.9418 23.733 39.2749 25.1495C36.6079 26.566 35.0201 28.7953 35.7284 30.1288C36.4366 31.4623 39.1728 31.395 41.8397 29.9784Z" fill="#FDDD45"/>
<path d="M46.7811 15.2818C47.8443 12.4548 47.5602 9.73211 46.1467 9.20053C44.7332 8.66895 42.7255 10.5298 41.6623 13.3568C40.5992 16.1838 40.8832 18.9065 42.2967 19.4381C43.7102 19.9697 45.7179 18.1088 46.7811 15.2818Z" fill="#FDDD45"/>
<path d="M12.9792 30.1391C13.6875 28.8056 12.0997 26.5763 9.43273 25.1598C6.76579 23.7432 4.02964 23.6759 3.32137 25.0094C2.6131 26.3428 4.20093 28.5722 6.86788 29.9887C9.53482 31.4052 12.271 31.4726 12.9792 30.1391Z" fill="#FDDD45"/>
<path d="M6.40941 19.4528C7.82292 18.9212 8.10695 16.1985 7.04379 13.3715C5.98064 10.5445 3.9729 8.68365 2.55939 9.21523C1.14588 9.74681 0.861857 12.4695 1.92501 15.2965C2.98817 18.1235 4.9959 19.9844 6.40941 19.4528Z" fill="#FDDD45"/>
<path d="M24.3608 39.2656C24.9649 39.2656 25.4546 38.7759 25.4546 38.1719C25.4546 37.5678 24.9649 37.0781 24.3608 37.0781C23.7568 37.0781 23.2671 37.5678 23.2671 38.1719C23.2671 38.7759 23.7568 39.2656 24.3608 39.2656Z" fill="#303030"/>
<path d="M46.9692 8.47399C46.733 8.21488 46.387 8.08472 46.0386 8.12377C45.0682 8.23271 44.1245 8.64778 43.2829 9.29912C43.1064 8.55985 42.8936 7.83239 42.6447 7.12232C42.4449 6.55226 41.8206 6.25191 41.2507 6.45196C40.6806 6.6519 40.3806 7.276 40.5804 7.84606C40.9746 8.97055 41.2698 10.144 41.4612 11.3398C41.1458 11.8432 40.8725 12.3929 40.6514 12.9802C39.7315 15.4237 39.9183 17.9747 41.0999 19.6814C40.7369 21.1245 40.2183 22.5121 39.5545 23.8191C39.291 23.9291 39.0293 24.052 38.7706 24.1894C36.4282 25.4331 34.8703 27.5151 34.6657 29.6096C33.3026 30.7393 31.815 31.6261 30.2262 32.2605V28.4985C30.2262 27.8944 29.7364 27.4047 29.1324 27.4047H28.0391V24.5651L31.7456 26.1611C31.8845 26.221 32.0316 26.2503 32.1781 26.2503C32.4055 26.2503 32.6312 26.1794 32.8211 26.0414C33.1334 25.8145 33.3029 25.4399 33.2672 25.0556L32.525 17.0484L37.8319 11.0068C38.0867 10.7168 38.1697 10.314 38.0505 9.94695C37.9311 9.57988 37.6273 9.30284 37.2508 9.21796L29.4062 7.44957L25.3003 0.535284C25.1031 0.203439 24.7459 0 24.3598 0C23.9739 0 23.6165 0.203439 23.4193 0.535284L19.3133 7.44947L11.4688 9.21785C11.0923 9.30273 10.7884 9.57977 10.6691 9.94684C10.5499 10.3139 10.6329 10.7167 10.8877 11.0067L16.1946 17.0483L15.4524 25.0554C15.4167 25.4398 15.5863 25.8144 15.8985 26.0412C16.2107 26.2681 16.6194 26.3136 16.974 26.1609L20.6804 24.565V27.4046H19.5871C18.9831 27.4046 18.4933 27.8943 18.4933 28.4984V32.2601C16.9051 31.6259 15.4182 30.7395 14.0561 29.6106C13.8515 27.5161 12.2935 25.4341 9.95121 24.1903C9.69264 24.0529 9.4308 23.93 9.16731 23.8199C8.50351 22.5131 7.98485 21.1255 7.62194 19.6823C8.80342 17.9756 8.99023 15.4246 8.07038 12.981C7.84933 12.3938 7.576 11.8441 7.26056 11.3407C7.45197 10.1449 7.74718 8.97143 8.14137 7.84694C8.3412 7.27687 8.04118 6.65277 7.47111 6.45284C6.90083 6.2529 6.27684 6.55313 6.07712 7.12309C5.82818 7.83316 5.6161 8.56094 5.43946 9.30021C4.59771 8.64866 3.65368 8.23347 2.68309 8.12453C2.33505 8.08537 1.98877 8.21575 1.75263 8.47475C0.222571 10.1539 -0.11015 12.9815 0.904856 15.6782H0.904966C1.80666 18.0737 3.57603 19.8444 5.54238 20.3879C5.78968 21.3394 6.09867 22.269 6.46595 23.171C5.05413 23.0794 3.72587 23.3912 2.6984 24.1105C2.41118 24.3116 2.23782 24.6382 2.23202 24.9886C2.19494 27.26 3.81545 29.6009 6.3604 30.9522C7.65957 31.6422 9.03704 31.9879 10.3223 31.9879C11.2376 31.9879 12.1058 31.812 12.8653 31.4604C13.4226 31.9098 13.9979 32.3243 14.5906 32.703H11.2347C10.6308 32.703 10.141 33.1927 10.141 33.7967V38.1718C10.141 38.7759 10.6308 39.2655 11.2347 39.2655H13.0757V49.4375H11.2347C10.6308 49.4375 10.141 49.9271 10.141 50.5312V54.9062C10.141 55.5103 10.6308 56 11.2347 56H37.4849C38.0889 56 38.5786 55.5103 38.5786 54.9062V50.5312C38.5786 49.9271 38.0889 49.4375 37.4849 49.4375H35.6438V39.2655H37.4849C38.0889 39.2655 38.5786 38.7759 38.5786 38.1718V33.7967C38.5786 33.1927 38.0889 32.703 37.4849 32.703H34.1297C34.7228 32.3241 35.2987 31.9091 35.8564 31.4593C36.6159 31.8109 37.4839 31.9867 38.3994 31.9867C39.6844 31.9867 41.0622 31.6408 42.3613 30.951C44.9063 29.5997 46.5267 27.2588 46.4897 24.9874C46.4839 24.6369 46.3105 24.3104 46.0233 24.1092C44.9958 23.3899 43.6677 23.078 42.2557 23.1698C42.6231 22.2678 42.9321 21.3382 43.1794 20.3867C45.1457 19.843 46.9151 18.0725 47.8168 15.677H47.8169C48.832 12.9806 48.4992 10.1531 46.9692 8.47399ZM2.95215 14.9079C2.34347 13.2906 2.38722 11.5515 3.02106 10.4336C4.23469 10.8561 5.4143 12.1347 6.0232 13.752C6.63187 15.3694 6.58823 17.1083 5.9544 18.2264C4.74066 17.8038 3.56104 16.5252 2.95215 14.9079ZM7.38635 29.0205C5.86012 28.2101 4.74274 26.8767 4.47881 25.6189C5.6686 25.1333 7.39903 25.312 8.92526 26.1225C10.4515 26.933 11.5689 28.2664 11.8328 29.5241C10.6431 30.0098 8.91257 29.831 7.38635 29.0205ZM28.0388 29.5921V32.7033H20.6807V29.5921H28.0388ZM18.1488 15.9585L13.7465 10.9468L20.2538 9.4798C20.5472 9.41374 20.8002 9.22977 20.9537 8.97132L24.3598 3.23588L27.7658 8.97132C27.9193 9.22977 28.1724 9.41374 28.4657 9.4798L34.973 10.9468L30.5708 15.9585C30.3724 16.1843 30.2757 16.4819 30.3035 16.7812L30.9192 23.4233L24.7924 20.7852C24.6542 20.7258 24.5071 20.6961 24.3598 20.6961C24.2125 20.6961 24.0654 20.7258 23.9272 20.7852L17.8004 23.4233L18.4161 16.7812C18.4439 16.4819 18.3473 16.1843 18.1488 15.9585ZM22.8679 23.6232L24.3599 22.9808L25.8518 23.6232V27.4047H22.868V23.6232H22.8679ZM36.3911 53.8128H12.3285V51.6253H36.3911V53.8128ZM36.3911 37.0783H29.2828C28.6788 37.0783 28.189 37.568 28.189 38.1721C28.189 38.7762 28.6788 39.2659 29.2828 39.2659H33.4562V49.4378H15.2633V39.2659H19.439C20.0431 39.2659 20.5328 38.7762 20.5328 38.1721C20.5328 37.568 20.0431 37.0783 19.439 37.0783H12.3285V34.8908H36.3911V37.0783ZM44.243 25.6179C43.9791 26.8757 42.8617 28.209 41.3355 29.0194C39.8092 29.8299 38.0787 30.0088 36.889 29.523C37.1529 28.2653 38.2703 26.9319 39.7965 26.1214C41.3228 25.3109 43.0533 25.1321 44.243 25.6179ZM45.7695 14.9068C45.1608 16.5241 43.981 17.8027 42.7674 18.2253C42.1336 17.1072 42.0899 15.3682 42.6986 13.7508C43.3075 12.1335 44.4871 10.8549 45.7007 10.4324C46.3346 11.5504 46.3784 13.2895 45.7695 14.9068Z" fill="#303030"/>
</svg>
